<svg xmlns="http://www.w3.org/2000/svg" xmlns:xlink="http://www.w3.org/1999/xlink" width="792" height="720" viewBox="0 0 792 720">
  <defs>
    <clipPath id="clip-path">
      <rect id="Rectangle_4634" data-name="Rectangle 4634" width="792" height="720" transform="translate(983 348.413)" fill="#f8f8f8"/>
    </clipPath>
  </defs>
  <g id="Mask_Group_6" data-name="Mask Group 6" transform="translate(-983 -348.413)" clip-path="url(#clip-path)">
    <path id="android-plain" d="M67.71,287.813a54.068,54.068,0,0,0-54.044,54.059L13.7,568.21a54.051,54.051,0,1,0,108.1.007V341.842a54.088,54.088,0,0,0-54.1-54.029M503.6,84.553l37.726-68.89A7.493,7.493,0,1,0,528.2,8.439L490.091,78.051a263.379,263.379,0,0,0-211.581-.1L240.358,8.513a7.478,7.478,0,1,0-13.122,7.172l37.74,68.846C190.82,122.772,140.716,195.6,140.76,279.219l486.889-.059c.015-83.588-50-156.27-124.046-194.607M273.437,191.014a20.417,20.417,0,1,1,20.457-20.405,20.417,20.417,0,0,1-20.457,20.405m221.7-.037A20.376,20.376,0,1,1,509.556,185a20.4,20.4,0,0,1-14.421,5.973M142.749,298.027l.081,350.781A57.6,57.6,0,0,0,200.5,706.475l39.272.015.044,119.767a54.044,54.044,0,1,0,108.088-.037l-.029-119.738,72.969-.022.029,119.76a54.055,54.055,0,1,0,108.11-.044l-.037-119.73,39.412-.029a57.7,57.7,0,0,0,57.7-57.7L626,297.946l-483.252.081Zm612.194,43.764a54.044,54.044,0,1,0-108.088.022l.044,226.353a54.04,54.04,0,1,0,108.081-.037l-.037-226.338Z" transform="translate(987.515 417.325)" fill="#a4c439"/>
  </g>
</svg>
