<svg xmlns="http://www.w3.org/2000/svg" width="558" height="527.7" viewBox="0 0 558 527.7">
  <g id="Chat_bot-pana" data-name="Chat bot-pana" transform="translate(-20.683 -33.54)">
    <g id="freepik--background-complete--inject-2" transform="translate(43.448 33.54)">
      <path id="Path_37534" data-name="Path 37534" d="M93.894,411.221,80.91,402.28s-7.5,10.907-18.957,3.31a12.764,12.764,0,0,1-5.558-13.7A14.12,14.12,0,0,1,64.555,382c4.69-2.113,11.787-2.089,19.482,5.472l20.129-29.315L91.329,349.33l-11.787,17.1s-21.2-7.732-34.86,12.1c-13.057,18.981.928,35.1,8.22,40.112C58.472,422.568,78.321,434.281,93.894,411.221Z" transform="translate(-39.32 36.39)" fill="#ebebeb"/>
      <rect id="Rectangle_4660" data-name="Rectangle 4660" width="15.805" height="14.767" transform="matrix(-0.824, -0.567, 0.567, -0.824, 68.966, 388.588)" fill="#ebebeb"/>
      <path id="Path_37535" data-name="Path 37535" d="M129.383,432.422l6.889-1.82a6.107,6.107,0,0,1,4.458-7.475,5.753,5.753,0,0,1,6.339,2.138,6.376,6.376,0,0,1,.989,5.7c-.66,2.235-2.76,4.666-7.622,5.069l4.092,15.549,6.816-1.8-2.443-9.112a13.766,13.766,0,0,0,6.107-15.525c-2.663-10.077-12.324-10.04-16.184-9.014C135.93,416.922,126.049,420.293,129.383,432.422Z" transform="translate(-19.527 51.086)" fill="#ebebeb"/>
      <rect id="Rectangle_4661" data-name="Rectangle 4661" width="7.158" height="6.681" transform="matrix(0.967, -0.255, 0.255, 0.967, 125.858, 505.858)" fill="#ebebeb"/>
      <path id="Path_37536" data-name="Path 37536" d="M228.775,76.009a45.364,45.364,0,0,1,11.164-4.886l2.3-10.993,18.676-.33L263.6,70.793a45.413,45.413,0,0,1,11.335,4.458l9.442-6.193L297.811,82.03l-5.851,9.649a46.16,46.16,0,0,1,4.886,11.176l11.054,2.3.318,18.676-10.993,2.687a45.89,45.89,0,0,1-4.458,11.335l6.18,9.442-12.972,13.436-9.649-5.851a45.45,45.45,0,0,1-11.176,4.886l-2.3,11.066-18.676.318-2.687-10.993a44.949,44.949,0,0,1-11.335-4.458l-9.442,6.193-13.436-12.972,5.851-9.649a45.45,45.45,0,0,1-4.886-11.176l-10.993-2.3-.33-18.676,10.993-2.687a45.415,45.415,0,0,1,4.422-11.408l-6.193-9.442,12.972-13.436Zm9.955,24.881a20.032,20.032,0,1,0,28.325-.537,20.032,20.032,0,0,0-28.325.537Z" transform="translate(-4.421 -27.725)" fill="#f5f5f5"/>
      <path id="Path_37537" data-name="Path 37537" d="M162.337,42.884a26.542,26.542,0,0,1,6.437-2.785l1.319-6.376,10.761-.183,1.551,6.315a26.066,26.066,0,0,1,6.522,2.565l5.435-3.567,7.7,7.463-3.371,5.558a26.31,26.31,0,0,1,2.8,6.437l6.364,1.319.183,10.761-6.315,1.576a25.883,25.883,0,0,1-2.565,6.522l3.567,5.435-7.475,7.744L189.685,88.3a26.31,26.31,0,0,1-6.437,2.8l-1.368,6.352-10.761.2-1.454-6.315a26.578,26.578,0,0,1-6.522-2.577l-5.435,3.567-7.744-7.475,3.322-5.545a26.029,26.029,0,0,1-2.8-6.425l-6.364-1.331-.2-10.761,6.327-1.539a25.966,25.966,0,0,1,2.565-6.535l-3.567-5.435,7.475-7.732Zm5.729,14.34a452.308,452.308,0,1,0-.049,0Z" transform="translate(-16.155 -33.54)" fill="#ebebeb"/>
      <path id="Path_37538" data-name="Path 37538" d="M443.4,206.4a26.492,26.492,0,0,1,6.425-2.8l1.331-6.364,10.749-.183,1.551,6.315a25.968,25.968,0,0,1,6.535,2.565l5.435-3.567,7.732,7.475-3.371,5.558a26.312,26.312,0,0,1,2.8,6.437l6.376,1.319.183,10.761-6.315,1.551A27.036,27.036,0,0,1,480.261,242l3.554,5.435-7.463,7.744-5.558-3.371a26.31,26.31,0,0,1-6.437,2.8l-1.331,6.364-10.749.2-1.551-6.327a25.882,25.882,0,0,1-6.522-2.565l-5.448,3.567-7.732-7.475L434.4,242.8a26.116,26.116,0,0,1-2.8-6.437l-6.364-1.319-.2-10.761,6.315-1.551a27.032,27.032,0,0,1,2.565-6.523l-3.554-5.435,7.463-7.744,5.57,3.371Zm5.729,14.328a11.543,11.543,0,1,0,16.318-.281,11.543,11.543,0,0,0-16.318.281Z" transform="translate(46.095 2.67)" fill="#ebebeb"/>
    </g>
    <g id="freepik--Floor--inject-2" transform="translate(44.546 560.605)">
      <path id="Path_37539" data-name="Path 37539" d="M557.574,465.368c0,.183-115.829.318-258.665.318s-258.689-.134-258.689-.318,115.793-.318,258.689-.318S557.574,465.2,557.574,465.368Z" transform="translate(-40.22 -465.05)" fill="#263238"/>
    </g>
    <g id="freepik--Device--inject-2" transform="translate(294.356 49.529)">
      <path id="Path_37540" data-name="Path 37540" d="M455.952,557.132l-173.445-.1a37.792,37.792,0,0,1-37.767-37.792l.086-434.834A37.865,37.865,0,0,1,282.69,46.63l173.445.11A37.791,37.791,0,0,1,493.9,84.531l-.086,434.834a37.767,37.767,0,0,1-37.865,37.767Z" transform="translate(-244.74 -46.63)" fill="#455a64"/>
      <path id="Path_37541" data-name="Path 37541" d="M453.811,59.27H420.185a8.367,8.367,0,0,0-8.171,8.55v6.107a8.367,8.367,0,0,1-8.171,8.55H338.287a8.367,8.367,0,0,1-8.159-8.55V67.82a8.367,8.367,0,0,0-8.171-8.55H280.7a26.456,26.456,0,0,0-26.481,26.359L254.13,510.1a26.469,26.469,0,0,0,26.456,26.42l173.115.1a26.469,26.469,0,0,0,26.481-26.456l.073-424.476a26.456,26.456,0,0,0-26.444-26.42Z" transform="translate(-242.661 -43.831)" fill="#fff"/>
      <path id="Path_37542" data-name="Path 37542" d="M480.228,148.484V85.25A26.456,26.456,0,0,0,453.8,59.27H420.17A8.355,8.355,0,0,0,412,67.82v6.107a8.367,8.367,0,0,1-8.171,8.55H338.272a8.367,8.367,0,0,1-8.159-8.55V67.82a8.367,8.367,0,0,0-8.171-8.55h-41.26A26.456,26.456,0,0,0,254.2,85.629V148.68H480.228Z" transform="translate(-242.645 -43.831)" fill="#ebebeb"/>
      <ellipse id="Ellipse_314" data-name="Ellipse 314" cx="27.397" cy="27.336" rx="27.397" ry="27.336" transform="translate(30.255 135.751)" fill="#e0e0e0"/>
      <path id="Path_37543" data-name="Path 37543" d="M281.46,185.861l7.182-.611,17.515,2.956,2.064,13.179-.293,1.539a27.556,27.556,0,0,1-25.968.6l-.5-17.662" transform="translate(-236.609 -15.934)" fill="#455a64"/>
      <path id="Path_37544" data-name="Path 37544" d="M298.61,187.518a9.356,9.356,0,0,1,9.088,3.994,52.279,52.279,0,0,1,3.261,5.167c-2.858,3.1-5.179,5.46-9.136,6.84Z" transform="translate(-232.811 -15.453)" fill="#455a64"/>
      <path id="Path_37545" data-name="Path 37545" d="M283.061,185.751s-4.739.586-6.571,4.629-2.26,5.3-2.26,5.3c2.443,2.956,5.57,6.449,9.393,7.756,0,0,.867-10.187.977-13.057C284.734,187.277,284.857,185.665,283.061,185.751Z" transform="translate(-238.21 -15.823)" fill="#455a64"/>
      <path id="Path_37546" data-name="Path 37546" d="M285.452,165.453a12.959,12.959,0,0,1,10.04-4.983,14,14,0,0,1,4.888.88,7.146,7.146,0,0,1,4.1,2.711,11.9,11.9,0,0,1,2.37,5.5,33.889,33.889,0,0,1,.293,6.193,11.36,11.36,0,0,1-1.942,5.826l-5.264.9a32.782,32.782,0,0,1-8.684-.464,11.152,11.152,0,0,1-7.109-4.666C282.032,173.918,282.911,168.58,285.452,165.453Z" transform="translate(-236.277 -21.421)" fill="#263238"/>
      <path id="Path_37547" data-name="Path 37547" d="M280.845,177.609a3.945,3.945,0,0,1,1.783-2.956,2.834,2.834,0,0,1,3.322.293l.831.977a3.4,3.4,0,0,1,1.954,3.42,3.664,3.664,0,0,1-2.59,3.041,4.116,4.116,0,0,1-3.921-.941A4.617,4.617,0,0,1,280.845,177.609Z" transform="translate(-236.751 -18.37)" fill="#263238"/>
      <path id="Path_37548" data-name="Path 37548" d="M281.772,180.952a1.8,1.8,0,0,1-.281-1.038,4.812,4.812,0,0,1,1.221-2.37,7.084,7.084,0,0,1,2.113-1.686c.611-.33,1.038-.452,1.026-.489a2.711,2.711,0,0,0-1.112.33,6.108,6.108,0,0,0-2.223,1.686,5.716,5.716,0,0,0-.855,1.221,2.993,2.993,0,0,0-.342,1.221,1.5,1.5,0,0,0,.232.831C281.662,180.9,281.772,181.025,281.772,180.952Z" transform="translate(-236.64 -18.121)" fill="#455a64"/>
      <path id="Path_37549" data-name="Path 37549" d="M298.955,192.162v-4.886s4.287-.476,5.484-5.973a58.894,58.894,0,0,0,.66-10.993c0-3.335-2.87-7.878-7-7.891l-1.832-.22-7.023,2.785a1.967,1.967,0,0,0-1.857,1.881l-.208,23.464,3.212,4.507a4.739,4.739,0,0,0,8.55-2.724Z" transform="translate(-235.342 -21.038)" fill="#ffbe9d"/>
      <path id="Path_37550" data-name="Path 37550" d="M294.531,176.982a1.124,1.124,0,0,1,.4-.721,1.221,1.221,0,0,1,1.454-.086,1.625,1.625,0,0,1,.611,1.5h0a1.49,1.49,0,0,1-1.05.611h-.2a1.181,1.181,0,0,1-1.221-1.307Z" transform="translate(-233.715 -17.987)" fill="#eb996e"/>
      <path id="Path_37551" data-name="Path 37551" d="M300.019,172.124a.708.708,0,0,1-.721.684.7.7,0,0,1-.708-.684.721.721,0,0,1,.733-.684.684.684,0,0,1,.7.684Z" transform="translate(-232.815 -18.992)" fill="#263238"/>
      <path id="Path_37552" data-name="Path 37552" d="M301.233,170.709c-.1.086-.623-.342-1.38-.379s-1.356.318-1.429.22.061-.208.318-.379a2.015,2.015,0,0,1,1.148-.281,1.82,1.82,0,0,1,1.087.415C301.2,170.5,301.27,170.672,301.233,170.709Z" transform="translate(-232.857 -19.336)" fill="#263238"/>
      <path id="Path_37553" data-name="Path 37553" d="M296.777,176.458a5.546,5.546,0,0,1,1.221-.147c.2,0,.391,0,.428-.171a1,1,0,0,0-.1-.586l-.5-1.515a26,26,0,0,1-1.087-3.97,25.733,25.733,0,0,1,1.4,3.872c.171.525.318,1.038.476,1.527a1.222,1.222,0,0,1,.061.77.574.574,0,0,1-.342.269,1.611,1.611,0,0,1-.33,0,4.569,4.569,0,0,1-1.234-.049Z" transform="translate(-233.225 -19.295)" fill="#263238"/>
      <path id="Path_37554" data-name="Path 37554" d="M298.129,183.183a14.132,14.132,0,0,1-7.329-2.443s1.771,3.945,7.329,3.738Z" transform="translate(-234.54 -16.932)" fill="#eb996e"/>
      <path id="Path_37555" data-name="Path 37555" d="M294.927,175.64c.134,0,.086.831.77,1.454s1.563.586,1.563.7-.208.159-.574.147a2.125,2.125,0,0,1-1.319-.537,1.832,1.832,0,0,1-.586-1.221C294.768,175.823,294.878,175.628,294.927,175.64Z" transform="translate(-233.659 -18.062)" fill="#263238"/>
      <path id="Path_37556" data-name="Path 37556" d="M301.113,168.34c-.134.183-.721,0-1.4,0s-1.221.171-1.4,0,0-.269.269-.44a2.149,2.149,0,0,1,1.124-.33,2.064,2.064,0,0,1,1.136.305C301.088,168.1,301.174,168.254,301.113,168.34Z" transform="translate(-232.895 -19.849)" fill="#263238"/>
      <path id="Path_37557" data-name="Path 37557" d="M292.88,172.114a.721.721,0,0,0,.684.733.684.684,0,0,0,.745-.635.721.721,0,0,0-.684-.721.672.672,0,0,0-.745.623Z" transform="translate(-234.08 -18.981)" fill="#263238"/>
      <path id="Path_37558" data-name="Path 37558" d="M292.122,170.471c.086.1.635-.293,1.4-.281s1.319.4,1.4.318,0-.208-.293-.391a1.894,1.894,0,0,0-1.124-.366,1.844,1.844,0,0,0-1.112.33C292.159,170.263,292.074,170.422,292.122,170.471Z" transform="translate(-234.25 -19.366)" fill="#263238"/>
      <path id="Path_37559" data-name="Path 37559" d="M291.765,169.137c.147.183.745,0,1.454,0s1.307.147,1.453,0,0-.269-.293-.44a2.321,2.321,0,0,0-2.345,0C291.777,168.869,291.691,169.04,291.765,169.137Z" transform="translate(-234.332 -19.669)" fill="#263238"/>
      <path id="Path_37560" data-name="Path 37560" d="M288.84,173.979c0-.415-.391-1.417-.806-1.5-1.075-.232-3.041-.244-3.212,2.516-.232,3.774,3.664,3.225,3.664,3.115S288.767,175.4,288.84,173.979Z" transform="translate(-235.866 -18.783)" fill="#ffbe9d"/>
      <path id="Path_37561" data-name="Path 37561" d="M287.3,176.437a.38.38,0,0,0-.183.086.623.623,0,0,1-.489,0,1.637,1.637,0,0,1-.672-1.515,2.272,2.272,0,0,1,.244-.928.782.782,0,0,1,.525-.476.33.33,0,0,1,.379.208.648.648,0,0,1,0,.183s.086,0,.061-.208a.415.415,0,0,0-.134-.244.44.44,0,0,0-.354-.122.916.916,0,0,0-.721.537,2.235,2.235,0,0,0-.293,1.038,1.71,1.71,0,0,0,.855,1.7.745.745,0,0,0,.611-.061C287.3,176.572,287.3,176.45,287.3,176.437Z" transform="translate(-235.681 -18.554)" fill="#eb996e"/>
      <path id="Path_37562" data-name="Path 37562" d="M287.7,174.839l.953.989c4.153-3.957,12.275-13.888,11.824-13.3a12.214,12.214,0,0,0-5.936-.635c-3.09.525-8.941,2.064-8.855,5.692A19.031,19.031,0,0,0,287.7,174.839Z" transform="translate(-235.674 -21.133)" fill="#263238"/>
      <path id="Path_37563" data-name="Path 37563" d="M282.83,174.029v-.22a4.807,4.807,0,0,1,.257-.6,5.447,5.447,0,0,1,1.588-1.771,10.48,10.48,0,0,1,3.188-1.539c1.221-.4,2.687-.721,4.092-1.319a19.1,19.1,0,0,0,6.376-4.4,20.867,20.867,0,0,0,1.527-1.808l.379-.525a.868.868,0,0,1,.147-.171l-.11.2c-.086.122-.2.318-.354.55a18.1,18.1,0,0,1-1.49,1.857,18.567,18.567,0,0,1-2.638,2.345,18.115,18.115,0,0,1-3.762,2.125,38.678,38.678,0,0,1-4.116,1.319,10.5,10.5,0,0,0-3.151,1.478,5.546,5.546,0,0,0-1.6,1.7,5.742,5.742,0,0,0-.33.782Z" transform="translate(-236.305 -21.153)" fill="#455a64"/>
      <path id="Path_37564" data-name="Path 37564" d="M283.73,174.462a1.991,1.991,0,0,1,.147-.818,3.859,3.859,0,0,1,1.417-1.783,8.55,8.55,0,0,1,3.164-1.221,18.137,18.137,0,0,0,3.921-1.221,16.455,16.455,0,0,0,3.493-2.15,17.732,17.732,0,0,0,2.443-2.357,16.523,16.523,0,0,0,1.331-1.832c.134-.208.244-.391.318-.525a1.025,1.025,0,0,1,.134-.183,1.109,1.109,0,0,1-.1.2l-.293.55A12.891,12.891,0,0,1,298.412,165a15.673,15.673,0,0,1-2.443,2.443,16.673,16.673,0,0,1-3.53,2.2,17.978,17.978,0,0,1-3.97,1.221,8.928,8.928,0,0,0-3.115,1.221,3.836,3.836,0,0,0-1.429,1.7A4.056,4.056,0,0,0,283.73,174.462Z" transform="translate(-236.106 -21)" fill="#455a64"/>
      <path id="Path_37565" data-name="Path 37565" d="M281.944,201.521a48.714,48.714,0,0,1,0-7.231A53.566,53.566,0,0,1,281.944,201.521Z" transform="translate(-236.531 -13.932)" fill="#263238"/>
      <path id="Path_37566" data-name="Path 37566" d="M303.4,201.32a7.8,7.8,0,0,1,0-1.221,14.192,14.192,0,0,0-.11-3.054,14.783,14.783,0,0,0-.879-2.944,6.853,6.853,0,0,1-.44-1.221,6.107,6.107,0,0,1,.6,1.136,11.737,11.737,0,0,1,.965,2.968,11.163,11.163,0,0,1,0,3.115A4.886,4.886,0,0,1,303.4,201.32Z" transform="translate(-232.067 -14.244)" fill="#263238"/>
      <path id="Path_37567" data-name="Path 37567" d="M431.4,218.856H338.018a8.4,8.4,0,0,1-8.391-8.391V171.256l-10.3-9.136H431.4a8.391,8.391,0,0,1,8.452,8.4v39.941a8.4,8.4,0,0,1-8.452,8.391Z" transform="translate(-228.223 -21.056)" fill="#ebebeb"/>
      <path id="Path_37568" data-name="Path 37568" d="M409.452,213.834a79.4,79.4,0,0,1-9.967.318,79.288,79.288,0,0,1-9.955-.318,79.288,79.288,0,0,1,9.955-.318,79.4,79.4,0,0,1,9.967.318Z" transform="translate(-212.677 -9.682)" fill="#e0e0e0"/>
      <path id="Path_37569" data-name="Path 37569" d="M409.616,215.255a.305.305,0,0,1-.22-.1l-1.93-2.015a.305.305,0,0,1,0-.428.293.293,0,0,1,.428,0l1.71,1.783,3.75-3.811a.293.293,0,0,1,.428,0,.305.305,0,0,1,0,.427l-3.97,4.043a.354.354,0,0,1-.2.1Z" transform="translate(-208.725 -10.321)" fill="#c31f5d"/>
      <path id="Path_37570" data-name="Path 37570" d="M411.58,215.2h-.354a.305.305,0,0,1-.305-.305.342.342,0,0,1,.318-.305h.22l3.872-3.945a.307.307,0,1,1,.44.428l-3.97,4.031a.281.281,0,0,1-.22.1Z" transform="translate(-207.941 -10.33)" fill="#c31f5d"/>
      <path id="Path_37571" data-name="Path 37571" d="M409.452,339.5a79.412,79.412,0,0,1-9.967.318,79.293,79.293,0,0,1-9.955-.318,79.3,79.3,0,0,1,9.955-.318,79.4,79.4,0,0,1,9.967.318Z" transform="translate(-212.677 18.146)" fill="#e0e0e0"/>
      <path id="Path_37572" data-name="Path 37572" d="M409.627,340.923h0a.305.305,0,0,1-.256-.1l-1.93-2.015a.305.305,0,1,1,.44-.415l1.71,1.783,3.75-3.811a.293.293,0,0,1,.428,0,.305.305,0,0,1,0,.427l-3.921,4.031A.354.354,0,0,1,409.627,340.923Z" transform="translate(-208.736 17.51)" fill="#c31f5d"/>
      <path id="Path_37573" data-name="Path 37573" d="M411.58,340.843h-.354a.318.318,0,0,1-.305-.318.293.293,0,0,1,.318-.293h.22l3.872-3.945a.307.307,0,0,1,.44.428l-3.97,4.031a.281.281,0,0,1-.22.1Z" transform="translate(-207.941 17.492)" fill="#c31f5d"/>
      <path id="Path_37574" data-name="Path 37574" d="M426.609,171.368c0,.171-20.386.318-45.535.318s-45.523-.147-45.523-.318,20.374-.318,45.523-.318S426.609,171.184,426.609,171.368Z" transform="translate(-224.631 -19.078)" fill="#fff"/>
      <path id="Path_37575" data-name="Path 37575" d="M426.609,176.838c0,.183-20.386.318-45.535.318s-45.523-.134-45.523-.318,20.374-.318,45.523-.318S426.609,176.667,426.609,176.838Z" transform="translate(-224.631 -17.867)" fill="#fff"/>
      <path id="Path_37576" data-name="Path 37576" d="M426.609,182.318c0,.171-20.386.318-45.535.318s-45.523-.147-45.523-.318S355.924,182,381.073,182,426.609,182.147,426.609,182.318Z" transform="translate(-224.631 -16.653)" fill="#fff"/>
      <ellipse id="Ellipse_315" data-name="Ellipse 315" cx="27.397" cy="27.336" rx="27.397" ry="27.336" transform="translate(30.255 306.228)" fill="#e0e0e0"/>
      <path id="Path_37577" data-name="Path 37577" d="M281.46,325.431l7.182-.611,17.515,2.956,2.064,13.143-.293,1.527a27.519,27.519,0,0,1-25.968.6l-.5-17.65" transform="translate(-236.609 14.973)" fill="#455a64"/>
      <path id="Path_37578" data-name="Path 37578" d="M298.61,327.078a9.381,9.381,0,0,1,9.088,3.994,51.4,51.4,0,0,1,3.261,5.179c-2.858,3.1-5.179,5.46-9.136,6.828Z" transform="translate(-232.811 15.452)" fill="#455a64"/>
      <path id="Path_37579" data-name="Path 37579" d="M283.061,325.321s-4.739.574-6.571,4.617-2.26,5.313-2.26,5.313c2.443,2.944,5.57,6.437,9.393,7.744,0,0,.867-10.175.977-13.057C284.734,326.786,284.857,325.223,283.061,325.321Z" transform="translate(-238.21 15.083)" fill="#455a64"/>
      <path id="Path_37580" data-name="Path 37580" d="M285.452,305.024a12.923,12.923,0,0,1,10.04-4.983,13.743,13.743,0,0,1,4.886.867,7.255,7.255,0,0,1,4.1,2.712,11.959,11.959,0,0,1,2.37,5.5,34.081,34.081,0,0,1,.293,6.2,11.274,11.274,0,0,1-1.942,5.814l-5.264.916a33.309,33.309,0,0,1-8.684-.464,11.152,11.152,0,0,1-7.109-4.666C282.032,313.427,282.911,308.138,285.452,305.024Z" transform="translate(-236.277 9.486)" fill="#263238"/>
      <path id="Path_37581" data-name="Path 37581" d="M280.845,317.221a3.921,3.921,0,0,1,1.783-2.956,2.821,2.821,0,0,1,3.322.281l.831.989a3.383,3.383,0,0,1,1.954,3.42A3.738,3.738,0,0,1,286.146,322a4.129,4.129,0,0,1-3.921-.953A4.593,4.593,0,0,1,280.845,317.221Z" transform="translate(-236.751 12.544)" fill="#263238"/>
      <path id="Path_37582" data-name="Path 37582" d="M281.772,320.524a1.868,1.868,0,0,1-.281-1.05,4.776,4.776,0,0,1,1.221-2.357,6.888,6.888,0,0,1,2.113-1.686c.611-.33,1.038-.452,1.026-.5a2.968,2.968,0,0,0-1.111.33,6.363,6.363,0,0,0-2.223,1.686,6.109,6.109,0,0,0-.855,1.295,2.943,2.943,0,0,0-.342,1.221,1.526,1.526,0,0,0,.232.831C281.662,320.475,281.772,320.536,281.772,320.524Z" transform="translate(-236.64 12.783)" fill="#455a64"/>
      <path id="Path_37583" data-name="Path 37583" d="M298.975,332.088V327.2s4.287-.476,5.484-5.961a59.032,59.032,0,0,0,.66-10.993c0-3.335-2.87-7.878-7-7.891l-1.832-.208-7.023,2.785a1.954,1.954,0,0,0-1.857,1.881l-.208,23.452,3.212,4.507a4.739,4.739,0,0,0,8.55-2.724Z" transform="translate(-235.338 9.953)" fill="#ffbe9d"/>
      <path id="Path_37584" data-name="Path 37584" d="M294.531,316.552a1.124,1.124,0,0,1,.4-.721,1.221,1.221,0,0,1,1.453-.086,1.625,1.625,0,0,1,.611,1.5h0a1.478,1.478,0,0,1-1.05.6h-.2a1.344,1.344,0,0,1-.879-.354,1.136,1.136,0,0,1-.342-.94Z" transform="translate(-233.716 12.92)" fill="#eb996e"/>
      <path id="Path_37585" data-name="Path 37585" d="M300.019,312.124a.715.715,0,1,1-.7-.684.684.684,0,0,1,.7.684Z" transform="translate(-232.815 12.01)" fill="#263238"/>
      <path id="Path_37586" data-name="Path 37586" d="M301.233,310.66c-.1.086-.623-.342-1.38-.379s-1.356.305-1.429.208.061-.208.318-.366a1.844,1.844,0,0,1,1.148-.281,1.82,1.82,0,0,1,1.087.415C301.2,310.452,301.27,310.623,301.233,310.66Z" transform="translate(-232.857 11.655)" fill="#263238"/>
      <path id="Path_37587" data-name="Path 37587" d="M296.777,316.408a5.927,5.927,0,0,1,1.221-.159c.2,0,.391,0,.428-.171a1.014,1.014,0,0,0-.1-.586c-.159-.476-.33-.977-.5-1.515a26.5,26.5,0,0,1-1.087-3.957,25.23,25.23,0,0,1,1.4,3.86c.171.537.318,1.038.476,1.527a1.222,1.222,0,0,1,.061.77.5.5,0,0,1-.342.269,1.086,1.086,0,0,1-.33,0,4.568,4.568,0,0,1-1.234-.037Z" transform="translate(-233.225 11.696)" fill="#263238"/>
      <path id="Path_37588" data-name="Path 37588" d="M298.129,323.112a14.181,14.181,0,0,1-7.329-2.382s1.771,3.945,7.329,3.738Z" transform="translate(-234.54 14.068)" fill="#eb996e"/>
      <path id="Path_37589" data-name="Path 37589" d="M294.927,315.58c.134,0,.086.831.77,1.466s1.563.586,1.563.7-.208.147-.574.147a2.077,2.077,0,0,1-1.319-.55,1.783,1.783,0,0,1-.586-1.221C294.768,315.775,294.878,315.58,294.927,315.58Z" transform="translate(-233.659 12.927)" fill="#263238"/>
      <path id="Path_37590" data-name="Path 37590" d="M301.113,308.29c-.134.183-.721,0-1.4,0s-1.221.171-1.4,0,0-.269.269-.44a2.04,2.04,0,0,1,1.124-.33,1.967,1.967,0,0,1,1.136.305C301.088,308.021,301.174,308.2,301.113,308.29Z" transform="translate(-232.895 11.142)" fill="#263238"/>
      <path id="Path_37591" data-name="Path 37591" d="M292.88,312.036a.708.708,0,0,0,.684.721.672.672,0,0,0,.745-.623.721.721,0,0,0-.684-.733.684.684,0,0,0-.745.635Z" transform="translate(-234.08 12.001)" fill="#263238"/>
      <path id="Path_37592" data-name="Path 37592" d="M292.122,310.411c.086.1.635-.293,1.4-.269s1.319.4,1.4.305,0-.208-.293-.391a1.978,1.978,0,0,0-1.124-.366,1.93,1.93,0,0,0-1.111.342C292.159,310.2,292.074,310.374,292.122,310.411Z" transform="translate(-234.25 11.623)" fill="#263238"/>
      <path id="Path_37593" data-name="Path 37593" d="M291.765,309.075c.147.171.745,0,1.454,0s1.307.134,1.453,0,0-.257-.293-.428a2.321,2.321,0,0,0-2.345,0C291.777,308.806,291.691,308.99,291.765,309.075Z" transform="translate(-234.332 11.322)" fill="#263238"/>
      <path id="Path_37594" data-name="Path 37594" d="M288.84,313.538c0-.415-.391-1.4-.806-1.49-1.075-.232-3.041-.257-3.212,2.5-.232,3.774,3.664,3.237,3.664,3.127S288.767,314.967,288.84,313.538Z" transform="translate(-235.866 12.124)" fill="#ffbe9d"/>
      <path id="Path_37595" data-name="Path 37595" d="M287.3,316.005a.38.38,0,0,0-.183.086.684.684,0,0,1-.489,0,1.625,1.625,0,0,1-.672-1.5,2.223,2.223,0,0,1,.244-.928.782.782,0,0,1,.525-.476.342.342,0,0,1,.379.2.623.623,0,0,1,0,.2.221.221,0,0,0,.061-.22.452.452,0,0,0-.134-.244.477.477,0,0,0-.354-.11.892.892,0,0,0-.721.537,2.2,2.2,0,0,0-.293,1.038,1.7,1.7,0,0,0,.855,1.686.7.7,0,0,0,.611,0C287.3,316.091,287.3,316.005,287.3,316.005Z" transform="translate(-235.681 12.355)" fill="#eb996e"/>
      <path id="Path_37596" data-name="Path 37596" d="M287.7,314.369l.953,1c4.153-3.97,12.275-13.9,11.824-13.3a12.092,12.092,0,0,0-5.936-.647c-3.09.525-8.941,2.064-8.855,5.7a19.017,19.017,0,0,0,2.015,7.243Z" transform="translate(-235.674 9.765)" fill="#263238"/>
      <path id="Path_37597" data-name="Path 37597" d="M282.83,313.582v-.22a5.785,5.785,0,0,1,.257-.586,5.582,5.582,0,0,1,1.588-1.783,10.471,10.471,0,0,1,3.249-1.5c1.221-.415,2.687-.733,4.092-1.331a18.48,18.48,0,0,0,3.738-2.089,19.215,19.215,0,0,0,2.638-2.3,18.245,18.245,0,0,0,1.527-1.808c.147-.22.281-.391.379-.525s.134-.183.147-.171l-.11.2-.354.537a15.783,15.783,0,0,1-1.49,1.857,18.577,18.577,0,0,1-2.638,2.357,18.116,18.116,0,0,1-3.774,2.052c-1.417.6-2.858.916-4.116,1.319a10.506,10.506,0,0,0-3.151,1.466,5.571,5.571,0,0,0-1.6,1.71,7.333,7.333,0,0,0-.379.818Z" transform="translate(-236.305 9.758)" fill="#455a64"/>
      <path id="Path_37598" data-name="Path 37598" d="M283.73,314.032a2.052,2.052,0,0,1,.147-.831,3.774,3.774,0,0,1,1.417-1.771,8.55,8.55,0,0,1,3.164-1.221,18.836,18.836,0,0,0,3.921-1.221,16.455,16.455,0,0,0,3.493-2.15,16.868,16.868,0,0,0,3.738-4.19c.134-.22.244-.391.318-.537a1.215,1.215,0,0,1,.134-.171,1.116,1.116,0,0,1-.1.2l-.293.55a12.883,12.883,0,0,1-1.295,1.881,15.672,15.672,0,0,1-2.443,2.443,16.159,16.159,0,0,1-3.53,2.186,18.725,18.725,0,0,1-3.97,1.221,8.464,8.464,0,0,0-3.115,1.221,3.665,3.665,0,0,0-1.429,1.7A3.811,3.811,0,0,0,283.73,314.032Z" transform="translate(-236.106 9.907)" fill="#455a64"/>
      <path id="Path_37599" data-name="Path 37599" d="M281.944,341.079a48.557,48.557,0,0,1,0-7.219A53.385,53.385,0,0,1,281.944,341.079Z" transform="translate(-236.531 16.975)" fill="#263238"/>
      <path id="Path_37600" data-name="Path 37600" d="M303.4,340.9a7.807,7.807,0,0,1,0-1.282,14.3,14.3,0,0,0-.11-3.066,14.892,14.892,0,0,0-.879-2.932,7.334,7.334,0,0,1-.44-1.221,6.11,6.11,0,0,1,.6,1.136,11.58,11.58,0,0,1,.965,2.968,11.163,11.163,0,0,1,0,3.115A5.033,5.033,0,0,1,303.4,340.9Z" transform="translate(-232.067 16.652)" fill="#263238"/>
      <path id="Path_37601" data-name="Path 37601" d="M431.4,339.789H338.018a8.4,8.4,0,0,1-8.391-8.4V310.816l-10.3-9.136H431.4a8.4,8.4,0,0,1,8.391,8.391v21.314A8.4,8.4,0,0,1,431.4,339.789Z" transform="translate(-228.223 9.849)" fill="#ebebeb"/>
      <path id="Path_37602" data-name="Path 37602" d="M426.609,310.928c0,.183-20.386.318-45.535.318s-45.523-.134-45.523-.318,20.374-.318,45.523-.318S426.609,310.757,426.609,310.928Z" transform="translate(-224.631 11.827)" fill="#fff"/>
      <path id="Path_37603" data-name="Path 37603" d="M426.609,316.408c0,.171-20.386.318-45.535.318s-45.523-.147-45.523-.318,20.374-.318,45.523-.318S426.609,316.237,426.609,316.408Z" transform="translate(-224.631 13.04)" fill="#fff"/>
      <path id="Path_37604" data-name="Path 37604" d="M426.609,321.888c0,.171-20.386.318-45.535.318s-45.523-.147-45.523-.318,20.374-.318,45.523-.318S426.609,321.7,426.609,321.888Z" transform="translate(-224.631 14.254)" fill="#fff"/>
      <path id="Path_37605" data-name="Path 37605" d="M426.609,187.8c0,.171-20.386.318-45.535.318s-45.523-.147-45.523-.318,20.374-.318,45.523-.318S426.609,187.614,426.609,187.8Z" transform="translate(-224.631 -15.44)" fill="#fff"/>
      <path id="Path_37606" data-name="Path 37606" d="M426.609,193.268c0,.183-20.386.318-45.535.318s-45.523-.134-45.523-.318,20.374-.318,45.523-.318S426.609,193.1,426.609,193.268Z" transform="translate(-224.631 -14.228)" fill="#fff"/>
      <path id="Path_37607" data-name="Path 37607" d="M426.609,199.848c0,.183-20.386.318-45.535.318s-45.523-.134-45.523-.318,20.374-.318,45.523-.318S426.609,199.677,426.609,199.848Z" transform="translate(-224.631 -12.771)" fill="#fff"/>
      <path id="Path_37608" data-name="Path 37608" d="M336,105.455a4.886,4.886,0,0,1,8.44-3l-1.307,1.221a2.84,2.84,0,1,0,0,3.579l1.307,1.221a4.886,4.886,0,0,1-8.44-2.993Z" transform="translate(-224.531 -34.611)" fill="#263238"/>
      <path id="Path_37609" data-name="Path 37609" d="M350.809,106.052v3.9H348.9v-3.591c0-1.1-.513-1.6-1.38-1.6a1.621,1.621,0,0,0-1.625,1.832v3.359H343.92V100.58H345.9v3.286a2.944,2.944,0,0,1,2.162-.818,2.663,2.663,0,0,1,2.748,3Z" transform="translate(-222.777 -34.683)" fill="#263238"/>
      <path id="Path_37610" data-name="Path 37610" d="M357.109,105.629V109.5h-1.844v-.843a2.223,2.223,0,0,1-2.077.941c-1.588,0-2.528-.879-2.528-2.052s.843-2.04,2.919-2.04h1.563c0-.843-.513-1.331-1.563-1.331a3.31,3.31,0,0,0-1.966.623l-.708-1.368a5.179,5.179,0,0,1,2.931-.831C355.961,102.6,357.109,103.565,357.109,105.629Zm-1.967,1.722v-.7h-1.356c-.916,0-1.221.342-1.221.806s.415.818,1.112.818a1.454,1.454,0,0,0,1.466-.928Z" transform="translate(-221.285 -34.236)" fill="#263238"/>
      <path id="Path_37611" data-name="Path 37611" d="M361.941,109.448a2.809,2.809,0,0,1-1.612.427,2.235,2.235,0,0,1-2.528-2.443v-2.8h-1.05v-1.515h1.05V101.46h1.967v1.661h1.7v1.515h-1.7v2.773a.794.794,0,0,0,.843.892,1.221,1.221,0,0,0,.794-.256Z" transform="translate(-219.936 -34.488)" fill="#263238"/>
      <path id="Path_37612" data-name="Path 37612" d="M406.388,115.85c0,.171-20.765.318-46.5.318s-46.488-.147-46.488-.318,20.765-.33,46.488-.33S406.388,115.667,406.388,115.85Z" transform="translate(-229.536 -31.375)" fill="#263238"/>
      <circle id="Ellipse_316" data-name="Ellipse 316" cx="2.162" cy="2.162" r="2.162" transform="translate(215.89 66.52)" fill="#263238"/>
      <path id="Path_37613" data-name="Path 37613" d="M425.788,108.392a2.174,2.174,0,1,1-2.162-2.162A2.174,2.174,0,0,1,425.788,108.392Z" transform="translate(-205.611 -33.432)" fill="#263238"/>
      <path id="Path_37614" data-name="Path 37614" d="M425.788,113.582a2.174,2.174,0,1,1-2.162-2.162A2.174,2.174,0,0,1,425.788,113.582Z" transform="translate(-205.611 -32.283)" fill="#263238"/>
      <path id="Path_37615" data-name="Path 37615" d="M280.472,110.592a.574.574,0,0,1-.366-.122l-5.729-4.2a.635.635,0,0,1-.257-.5.6.6,0,0,1,.257-.489l5.729-4.128a.612.612,0,0,1,.721.989l-5.057,3.664,5.057,3.664a.623.623,0,0,1,.134.855A.6.6,0,0,1,280.472,110.592Z" transform="translate(-238.234 -34.582)" fill="#263238"/>
      <ellipse id="Ellipse_317" data-name="Ellipse 317" cx="27.397" cy="27.336" rx="27.397" ry="27.336" transform="translate(164.333 226.712)" fill="#e0e0e0"/>
      <path id="Path_37616" data-name="Path 37616" d="M410.8,268.525H396.387a1.857,1.857,0,0,1-1.857-1.857h0a1.869,1.869,0,0,1,1.857-1.869H410.8a1.869,1.869,0,0,1,1.857,1.869h0a1.857,1.857,0,0,1-1.857,1.857Z" transform="translate(-211.57 1.682)" fill="#263238"/>
      <rect id="Rectangle_4662" data-name="Rectangle 4662" width="1.27" height="6.4" transform="translate(191.571 236.276)" fill="#263238"/>
      <circle id="Ellipse_318" data-name="Ellipse 318" cx="3.713" cy="3.713" r="3.713" transform="translate(169.817 254.439)" fill="#c31f5d"/>
      <circle id="Ellipse_319" data-name="Ellipse 319" cx="3.713" cy="3.713" r="3.713" transform="translate(207.364 254.195)" fill="#c31f5d"/>
      <path id="Path_37617" data-name="Path 37617" d="M405.978,244.212s15.121-.183,17.516,12.923-10.395,13.338-14.071,13.582c-1.661.11-5.228.122-8.379.073-6.974-.122-11.9-1.466-13.57-7.939a12.216,12.216,0,0,1-.379-2.321C386.655,253.446,391.443,243.87,405.978,244.212Z" transform="translate(-213.223 -2.879)" fill="#c31f5d"/>
      <path id="Path_37618" data-name="Path 37618" d="M394.316,262.05l21.986.342a4.177,4.177,0,0,0,4.238-4.1h0a4.177,4.177,0,0,0-4.116-4.226l-21.986-.342a4.165,4.165,0,0,0-4.238,4.1h0a4.165,4.165,0,0,0,4.116,4.226Z" transform="translate(-212.529 -0.771)" fill="#263238"/>
      <path id="Path_37619" data-name="Path 37619" d="M407.835,257.383a1.418,1.418,0,1,0,1.05-1.563,1.331,1.331,0,0,0-1.05,1.563Z" transform="translate(-208.629 -0.318)" fill="#fff"/>
      <path id="Path_37620" data-name="Path 37620" d="M395.261,257.158a1.344,1.344,0,1,0,1.079-1.453,1.344,1.344,0,0,0-1.079,1.453Z" transform="translate(-211.41 -0.337)" fill="#fff"/>
      <path id="Path_37621" data-name="Path 37621" d="M404.567,240.376a2.089,2.089,0,1,1-2.089-2.076,2.089,2.089,0,0,1,2.089,2.076Z" transform="translate(-210.272 -4.186)" fill="#c31f5d"/>
      <path id="Path_37622" data-name="Path 37622" d="M405.61,256.59a.76.76,0,0,1,.134.318,2.2,2.2,0,0,1-.085.928,2.784,2.784,0,0,1-.733,1.221,2.589,2.589,0,0,1-1.576.745,2.626,2.626,0,0,1-1.686-.44,2.955,2.955,0,0,1-.941-1.038,2.222,2.222,0,0,1-.244-.9c0-.22,0-.342.073-.342a10.525,10.525,0,0,0,.525,1.038,3.065,3.065,0,0,0,.867.794,2.309,2.309,0,0,0,1.356.318,2.247,2.247,0,0,0,1.221-.562,2.662,2.662,0,0,0,.721-.94C405.561,257.091,405.512,256.59,405.61,256.59Z" transform="translate(-210.252 -0.136)" fill="#fff"/>
      <path id="Path_37623" data-name="Path 37623" d="M417,254.44a1.961,1.961,0,0,1,.11.318,3.825,3.825,0,0,1,.122.391,4.418,4.418,0,0,0,.122.525,11.338,11.338,0,0,1,.2,1.38,11.563,11.563,0,0,1,0,1.71,11.28,11.28,0,0,1-.281,1.686,9.77,9.77,0,0,1-.44,1.319,5.215,5.215,0,0,1-.208.5,3.148,3.148,0,0,1-.183.354l-.171.305a1.051,1.051,0,0,1,.134-.318l.159-.379c.061-.147.134-.305.2-.489a10.1,10.1,0,0,0,.4-1.319,12.894,12.894,0,0,0,.281-1.673,13.3,13.3,0,0,0,0-1.7,11.9,11.9,0,0,0-.171-1.368,4.876,4.876,0,0,0-.11-.562,1.551,1.551,0,0,0-.086-.391A1.11,1.11,0,0,1,417,254.44Z" transform="translate(-206.756 -0.612)" fill="#263238"/>
      <path id="Path_37624" data-name="Path 37624" d="M387.645,254.5a1.659,1.659,0,0,0-.122.33,1.661,1.661,0,0,1-.122.379,4.208,4.208,0,0,0-.122.525,9.77,9.77,0,0,0-.183,1.38,11.472,11.472,0,0,0,0,1.71,10.766,10.766,0,0,0,.281,1.686,9.436,9.436,0,0,0,.44,1.331c.061.183.147.342.208.489s.134.269.183.366l.171.293a1.453,1.453,0,0,0-.134-.318c0-.1-.1-.22-.159-.366s-.134-.305-.2-.489a10.312,10.312,0,0,1-.4-1.331,12.554,12.554,0,0,1-.281-1.673,13.153,13.153,0,0,1,0-1.686,12.137,12.137,0,0,1,.171-1.38,4.126,4.126,0,0,1,.11-.513,1.437,1.437,0,0,1,.086-.391C387.6,254.744,387.645,254.5,387.645,254.5Z" transform="translate(-213.223 -0.599)" fill="#263238"/>
      <path id="Path_37625" data-name="Path 37625" d="M390.21,274.635s4.495-4.385,13.888-4.385,14.205,4.385,14.205,4.385a27.189,27.189,0,0,1-28.093,0Z" transform="translate(-212.527 2.889)" fill="#c31f5d"/>
      <path id="Path_37626" data-name="Path 37626" d="M280.521,285.529h93.367a8.379,8.379,0,0,0,8.391-8.391V250.046l10.3-9.136H280.521a8.391,8.391,0,0,0-8.391,8.391v27.837a8.379,8.379,0,0,0,8.391,8.391Z" transform="translate(-238.675 -3.608)" fill="#ebebeb"/>
      <path id="Path_37627" data-name="Path 37627" d="M367.572,251.808c0,.183-19.225.318-42.946.318s-42.946-.134-42.946-.318,19.226-.318,42.946-.318S367.572,251.637,367.572,251.808Z" transform="translate(-236.56 -1.265)" fill="#fff"/>
      <path id="Path_37628" data-name="Path 37628" d="M367.572,257.748c0,.183-19.225.318-42.946.318s-42.946-.134-42.946-.318,19.226-.318,42.946-.318S367.572,257.577,367.572,257.748Z" transform="translate(-236.56 0.05)" fill="#fff"/>
      <path id="Path_37629" data-name="Path 37629" d="M367.572,263.688c0,.171-19.225.318-42.946.318s-42.946-.147-42.946-.318,19.226-.318,42.946-.318S367.572,263.517,367.572,263.688Z" transform="translate(-236.56 1.366)" fill="#fff"/>
      <path id="Path_37630" data-name="Path 37630" d="M367.572,269.628c0,.171-19.225.318-42.946.318s-42.946-.147-42.946-.318,19.226-.318,42.946-.318S367.572,269.444,367.572,269.628Z" transform="translate(-236.56 2.681)" fill="#fff"/>
      <ellipse id="Ellipse_320" data-name="Ellipse 320" cx="27.397" cy="27.336" rx="27.397" ry="27.336" transform="translate(164.333 378.513)" fill="#e0e0e0"/>
      <path id="Path_37631" data-name="Path 37631" d="M410.8,392.805H396.387a1.857,1.857,0,0,1-1.857-1.869h0a1.857,1.857,0,0,1,1.857-1.857H410.8a1.857,1.857,0,0,1,1.857,1.857h0a1.857,1.857,0,0,1-1.857,1.869Z" transform="translate(-211.57 29.203)" fill="#263238"/>
      <rect id="Rectangle_4663" data-name="Rectangle 4663" width="1.27" height="6.4" transform="translate(191.571 388.077)" fill="#263238"/>
      <circle id="Ellipse_321" data-name="Ellipse 321" cx="3.713" cy="3.713" r="3.713" transform="translate(169.817 406.24)" fill="#c31f5d"/>
      <circle id="Ellipse_322" data-name="Ellipse 322" cx="3.713" cy="3.713" r="3.713" transform="translate(207.364 405.983)" fill="#c31f5d"/>
      <path id="Path_37632" data-name="Path 37632" d="M405.978,368.492s15.121-.183,17.516,12.911S413.1,394.753,409.423,395c-1.661.11-5.228.122-8.379.073-6.974-.122-11.9-1.478-13.57-7.939a12.218,12.218,0,0,1-.379-2.321C386.655,377.726,391.443,368.138,405.978,368.492Z" transform="translate(-213.223 24.642)" fill="#c31f5d"/>
      <path id="Path_37633" data-name="Path 37633" d="M394.316,386.333l21.986.342a4.177,4.177,0,0,0,4.238-4.1h0a4.177,4.177,0,0,0-4.116-4.226l-21.986-.354a4.177,4.177,0,0,0-4.238,4.1h0a4.177,4.177,0,0,0,4.116,4.238Z" transform="translate(-212.529 26.747)" fill="#263238"/>
      <path id="Path_37634" data-name="Path 37634" d="M407.835,381.671a1.125,1.125,0,1,1,.024.061Z" transform="translate(-208.63 27.195)" fill="#fff"/>
      <path id="Path_37635" data-name="Path 37635" d="M395.265,381.46a1.344,1.344,0,1,0,1.063-1.576A1.344,1.344,0,0,0,395.265,381.46Z" transform="translate(-211.413 27.161)" fill="#fff"/>
      <path id="Path_37636" data-name="Path 37636" d="M404.567,364.619a2.089,2.089,0,1,1-2.089-2.089A2.089,2.089,0,0,1,404.567,364.619Z" transform="translate(-210.272 23.324)" fill="#c31f5d"/>
      <path id="Path_37637" data-name="Path 37637" d="M405.61,380.86a.886.886,0,0,1,.134.33,2.211,2.211,0,0,1-.086.928,2.858,2.858,0,0,1-.733,1.221,2.59,2.59,0,0,1-1.576.745,2.626,2.626,0,0,1-1.686-.44,2.955,2.955,0,0,1-.941-1.038,2.272,2.272,0,0,1-.244-.9c0-.22,0-.342.073-.342a9.7,9.7,0,0,0,.525,1.026,2.932,2.932,0,0,0,.867.806,2.443,2.443,0,0,0,1.356.318,2.248,2.248,0,0,0,1.221-.562,2.9,2.9,0,0,0,.721-.94C405.561,381.349,405.512,380.872,405.61,380.86Z" transform="translate(-210.252 27.383)" fill="#fff"/>
      <path id="Path_37638" data-name="Path 37638" d="M417,378.71a.794.794,0,0,0,.11.33,3.045,3.045,0,0,1,.122.391,3.793,3.793,0,0,0,.122.513,12.1,12.1,0,0,1,.2,1.38,11.551,11.551,0,0,1,0,1.71,10.77,10.77,0,0,1-.281,1.686,9.445,9.445,0,0,1-.44,1.331,4.879,4.879,0,0,1-.208.489,2.542,2.542,0,0,1-.183.366l-.171.293a1.453,1.453,0,0,1,.134-.318c0-.1.1-.22.159-.366s.134-.305.2-.489a9.771,9.771,0,0,0,.4-1.331,12.372,12.372,0,0,0,.281-1.661,13.315,13.315,0,0,0,0-1.7,11.565,11.565,0,0,0-.171-1.368,4.354,4.354,0,0,0-.11-.525,1.553,1.553,0,0,0-.086-.391,1.135,1.135,0,0,1-.073-.342Z" transform="translate(-206.756 26.907)" fill="#263238"/>
      <path id="Path_37639" data-name="Path 37639" d="M387.645,378.78a1.664,1.664,0,0,0-.122.33,1.661,1.661,0,0,1-.122.379,4.21,4.21,0,0,0-.122.525,9.766,9.766,0,0,0-.183,1.38,11.472,11.472,0,0,0,0,1.71,11,11,0,0,0,.281,1.686,9.437,9.437,0,0,0,.44,1.331c.061.183.147.342.208.489s.134.269.183.366l.171.293a1.221,1.221,0,0,0-.134-.318c0-.1-.1-.22-.159-.366s-.134-.305-.2-.5a10.081,10.081,0,0,1-.4-1.319,12.556,12.556,0,0,1-.281-1.673,13.153,13.153,0,0,1,0-1.686,12.146,12.146,0,0,1,.171-1.38,4.129,4.129,0,0,1,.11-.513,1.437,1.437,0,0,1,.086-.391C387.6,379.024,387.645,378.78,387.645,378.78Z" transform="translate(-213.223 26.922)" fill="#263238"/>
      <path id="Path_37640" data-name="Path 37640" d="M390.21,398.915s4.495-4.385,13.888-4.385,14.205,4.385,14.205,4.385a27.189,27.189,0,0,1-28.093,0Z" transform="translate(-212.527 30.41)" fill="#c31f5d"/>
      <path id="Path_37641" data-name="Path 37641" d="M280.521,409.809h93.367a8.379,8.379,0,0,0,8.391-8.391V374.326l10.3-9.136H280.521a8.391,8.391,0,0,0-8.391,8.391v27.837a8.379,8.379,0,0,0,8.391,8.391Z" transform="translate(-238.675 23.913)" fill="#ebebeb"/>
      <path id="Path_37642" data-name="Path 37642" d="M280.521,441.218h93.367a8.391,8.391,0,0,0,8.391-8.4v-8.978l10.3-9.136H280.521a8.391,8.391,0,0,0-8.391,8.391v9.772a8.391,8.391,0,0,0,8.391,8.355Z" transform="translate(-238.675 34.877)" fill="#ebebeb"/>
      <path id="Path_37643" data-name="Path 37643" d="M367.572,376.058c0,.183-19.225.318-42.946.318s-42.946-.134-42.946-.318,19.226-.318,42.946-.318S367.572,375.923,367.572,376.058Z" transform="translate(-236.56 26.249)" fill="#fff"/>
      <path id="Path_37644" data-name="Path 37644" d="M367.572,382.058c0,.171-19.225.318-42.946.318s-42.946-.147-42.946-.318,19.226-.318,42.946-.318S367.572,381.85,367.572,382.058Z" transform="translate(-236.56 27.578)" fill="#fff"/>
      <path id="Path_37645" data-name="Path 37645" d="M367.572,387.968c0,.171-19.225.318-42.946.318s-42.946-.147-42.946-.318,19.226-.318,42.946-.318S367.572,387.784,367.572,387.968Z" transform="translate(-236.56 28.887)" fill="#fff"/>
      <path id="Path_37646" data-name="Path 37646" d="M367.572,393.908c0,.171-19.225.318-42.946.318s-42.946-.147-42.946-.318,19.226-.318,42.946-.318S367.572,393.724,367.572,393.908Z" transform="translate(-236.56 30.202)" fill="#fff"/>
      <path id="Path_37647" data-name="Path 37647" d="M367.65,425.928c0,.171-19.03.318-42.494.318s-42.506-.147-42.506-.318,19.03-.318,42.506-.318S367.65,425.744,367.65,425.928Z" transform="translate(-236.345 37.293)" fill="#fff"/>
    </g>
    <g id="freepik--Plant--inject-2" transform="translate(96.18 495.038)">
      <path id="Path_37648" data-name="Path 37648" d="M97.388,411.394a12.556,12.556,0,0,1,7.9,5.875,22.4,22.4,0,0,1,2.919,9.613c.623,6.5-1.637,13.668-4.446,19.543-6.339-3.542-9.283-11.42-10.529-15.512-1.967-6.461-1.6-19.348,4.153-19.543" transform="translate(-80.352 -411.37)" fill="#455a64"/>
      <path id="Path_37649" data-name="Path 37649" d="M108.723,450.529a10.712,10.712,0,0,1,1.221-10.688,14.193,14.193,0,0,1,9.6-5.387,6.034,6.034,0,0,1,4.886,1.063,4.581,4.581,0,0,1,1.026,4.544,9.344,9.344,0,0,1-2.663,4.031c-4.019,3.884-8.623,6.9-14.193,6.437" transform="translate(-76.883 -406.288)" fill="#455a64"/>
      <path id="Path_37650" data-name="Path 37650" d="M106.366,470.17a6.914,6.914,0,0,1-.085-1.344c0-.953,0-2.186-.1-3.664a37.364,37.364,0,0,1,1.221-12.031,22.988,22.988,0,0,1,6.266-10.3,15.632,15.632,0,0,1,2.992-2.162,8.2,8.2,0,0,1,.892-.44.917.917,0,0,1,.33-.122,24.969,24.969,0,0,0-3.982,2.968,23.709,23.709,0,0,0-6.107,10.187,40.234,40.234,0,0,0-1.38,11.9c0,1.551,0,2.8,0,3.664A9.173,9.173,0,0,1,106.366,470.17Z" transform="translate(-77.262 -405.006)" fill="#263238"/>
      <path id="Path_37651" data-name="Path 37651" d="M96.92,419.45a3.091,3.091,0,0,1,.183.55q.183.623.44,1.612c.379,1.4.9,3.444,1.515,5.973,1.221,5.057,2.858,12.068,4.47,19.836s2.907,14.853,3.774,19.983c.428,2.565.757,4.641.977,6.107.1.684.171,1.221.232,1.661a2.956,2.956,0,0,1,0,.586,3.953,3.953,0,0,1-.147-.574c-.085-.428-.183-.965-.318-1.649-.281-1.478-.66-3.542-1.124-6.046-.953-5.118-2.3-12.214-3.909-19.946s-3.176-14.779-4.324-19.848c-.574-2.443-1.038-4.532-1.368-6.01-.147-.672-.269-1.221-.354-1.637A2.589,2.589,0,0,1,96.92,419.45Z" transform="translate(-79.298 -409.581)" fill="#263238"/>
      <path id="Path_37652" data-name="Path 37652" d="M105.9,455.15a25.125,25.125,0,0,0-17.222-15.1c-1.967-.476-4.409-.537-5.606,1.1s-.354,3.957.757,5.655a21.449,21.449,0,0,0,21.986,8.953" transform="translate(-82.492 -405.083)" fill="#455a64"/>
      <path id="Path_37653" data-name="Path 37653" d="M89.32,444.73a7.507,7.507,0,0,1,1.221.256,13.884,13.884,0,0,1,1.429.415,17.343,17.343,0,0,1,1.844.672c.623.305,1.417.6,2.162,1.014a22.089,22.089,0,0,1,2.37,1.392,27.226,27.226,0,0,1,4.8,4.055,27.715,27.715,0,0,1,3.664,5.094,24.939,24.939,0,0,1,1.221,2.443,22.284,22.284,0,0,1,.818,2.247c.244.684.342,1.344.489,1.905a13.254,13.254,0,0,1,.269,1.466,7.328,7.328,0,0,1,.122,1.221c-.11,0-.305-1.783-1.221-4.532a21.991,21.991,0,0,0-.843-2.186,24.928,24.928,0,0,0-1.221-2.443,28.362,28.362,0,0,0-3.664-4.984,29.669,29.669,0,0,0-4.69-4.019c-.806-.513-1.563-1.014-2.321-1.392a21.16,21.16,0,0,0-2.113-1.05C91.055,445.231,89.283,444.828,89.32,444.73Z" transform="translate(-80.981 -403.983)" fill="#263238"/>
    </g>
    <g id="freepik--speech-bubble--inject-2" transform="translate(47.833 88.859)">
      <path id="Path_37654" data-name="Path 37654" d="M138.392,167.823l-4.519-14.108a49.078,49.078,0,1,0-11.75,13.069h0Z" transform="translate(-42.888 -78.817)" fill="#fafafa"/>
      <path id="Path_37655" data-name="Path 37655" d="M138.415,167.837h-1.026l-3.1-.159-12.214-.672a.134.134,0,0,1-.134-.147.171.171,0,0,1,0-.073h0l.2.2a48.943,48.943,0,0,1-29.693,10.37,54.968,54.968,0,0,1-8.123-.647A48.955,48.955,0,0,1,52.926,157.98a49.725,49.725,0,0,1-8.807-19.091,48.43,48.43,0,0,1,.2-22.328c.232-.928.476-1.869.721-2.8s.647-1.832.965-2.748a27.412,27.412,0,0,1,1.075-2.724c.415-.879.843-1.759,1.221-2.651a21.327,21.327,0,0,1,1.441-2.577l1.551-2.541,1.783-2.443.9-1.221c.305-.391.66-.745.989-1.124A48.858,48.858,0,0,1,74.472,82.128a50.323,50.323,0,0,1,22.487-3.09,49.326,49.326,0,0,1,42.653,36.13,54.51,54.51,0,0,1,1.515,8.062,64.656,64.656,0,0,1,.134,7.646,48.748,48.748,0,0,1-7.255,22.914v-.11c1.441,4.593,2.541,8.135,3.3,10.553.366,1.221.635,2.064.831,2.687l.269.9s-.122-.33-.33-.941l-.892-2.7c-.782-2.443-1.942-5.887-3.432-10.419a.159.159,0,0,1,0-.11,48.723,48.723,0,0,0,7.072-22.8,63.513,63.513,0,0,0-.171-7.573,53.376,53.376,0,0,0-1.527-7.988A48.858,48.858,0,0,0,96.91,79.661,49.713,49.713,0,0,0,74.7,82.7,48.369,48.369,0,0,0,55.491,96.138c-.318.379-.672.721-.977,1.112l-.892,1.221-1.759,2.357-1.515,2.516a21.9,21.9,0,0,0-1.441,2.565c-.415.867-.831,1.747-1.221,2.614a26.617,26.617,0,0,0-1.05,2.687c-.318.9-.7,1.8-.965,2.712s-.476,1.844-.708,2.76a48.064,48.064,0,0,0-.22,21.986,48.662,48.662,0,0,0,39.807,37.486,55.744,55.744,0,0,0,8.049.672,48.06,48.06,0,0,0,7.512-.623,49,49,0,0,0,21.986-9.515.134.134,0,0,1,.2,0,.147.147,0,0,1,0,.171h0l-.1-.22,12.068.831,3.127.22Z" transform="translate(-42.911 -78.83)" fill="#263238"/>
      <path id="Path_37656" data-name="Path 37656" d="M73.743,120.041a4.971,4.971,0,1,1-4.971-4.971A4.971,4.971,0,0,1,73.743,120.041Z" transform="translate(-38.285 -70.805)" fill="#263238"/>
      <path id="Path_37657" data-name="Path 37657" d="M90.043,120.041a4.971,4.971,0,1,1-4.971-4.971A4.971,4.971,0,0,1,90.043,120.041Z" transform="translate(-34.675 -70.805)" fill="#263238"/>
      <path id="Path_37658" data-name="Path 37658" d="M106.183,117.562a4.971,4.971,0,1,1-3.024-2.322A4.971,4.971,0,0,1,106.183,117.562Z" transform="translate(-30.955 -70.805)" fill="#263238"/>
    </g>
    <g id="freepik--Character--inject-2" transform="translate(20.683 124.286)">
      <path id="Path_37659" data-name="Path 37659" d="M122.467,308.932,71.02,303.606,49.229,254.15,32.3,258.559s12.508,52.266,26.505,60.364,61.817,9.552,61.817,9.552Z" transform="translate(-18.11 -75.433)" fill="#c31f5d"/>
      <circle id="Ellipse_323" data-name="Ellipse 323" cx="22.817" cy="22.817" r="22.817" transform="matrix(0.664, -0.747, 0.747, 0.664, 82.441, 245.393)" fill="#263238"/>
      <path id="Path_37660" data-name="Path 37660" d="M118.694,334.167a22.853,22.853,0,1,1,16.16-6.694,22.853,22.853,0,0,1-16.16,6.694Zm0-45.633a22.792,22.792,0,1,0,16.111,6.694,22.792,22.792,0,0,0-16.111-6.694Z" transform="translate(-4.04 -67.836)" fill="#263238"/>
      <circle id="Ellipse_324" data-name="Ellipse 324" cx="17.112" cy="17.112" r="17.112" transform="matrix(0.972, -0.233, 0.233, 0.972, 23.67, 218.112)" fill="#263238"/>
      <circle id="Ellipse_325" data-name="Ellipse 325" cx="13.986" cy="13.986" r="13.986" transform="translate(1.641 172.827) rotate(-45)" fill="#263238"/>
      <path id="Path_37661" data-name="Path 37661" d="M2.993,0H18.065V6.437H2.993A2.993,2.993,0,0,1,0,3.444V3A2.993,2.993,0,0,1,2.993,0Z" transform="matrix(-0.764, 0.645, -0.645, -0.764, 45.504, 163.327)" fill="#263238"/>
      <path id="Path_37662" data-name="Path 37662" d="M2.993,0H17.65a.428.428,0,0,1,.428.428V6a.428.428,0,0,1-.428.427H2.993A2.993,2.993,0,0,1,0,3.432v-.44A2.993,2.993,0,0,1,2.993,0Z" transform="translate(28.59 144.455) rotate(90)" fill="#263238"/>
      <path id="Path_37663" data-name="Path 37663" d="M2.993,0H17.65a.427.427,0,0,1,.428.428V6a.428.428,0,0,1-.428.428H2.993A2.993,2.993,0,0,1,0,3.432v-.44A2.993,2.993,0,0,1,2.993,0Z" transform="translate(17.565 144.582) rotate(77.39)" fill="#263238"/>
      <path id="Path_37664" data-name="Path 37664" d="M2.993,0H17.65a.428.428,0,0,1,.428.428V6a.428.428,0,0,1-.428.428H2.993A2.993,2.993,0,0,1,0,3.432v-.44A2.993,2.993,0,0,1,2.993,0Z" transform="translate(5.564 148.496) rotate(60)" fill="#263238"/>
      <rect id="Rectangle_4664" data-name="Rectangle 4664" width="16.734" height="113.533" transform="translate(343.353 355.066) rotate(156.96)" fill="#c31f5d"/>
      <circle id="Ellipse_326" data-name="Ellipse 326" cx="22.817" cy="22.817" r="22.817" transform="translate(251.559 248.485) rotate(-49.73)" fill="#263238"/>
      <path id="Path_37665" data-name="Path 37665" d="M257.147,336.123a22.841,22.841,0,1,1,22.685-20.589,22.866,22.866,0,0,1-22.685,20.589Zm0-45.658a22.792,22.792,0,1,0,21.8,29.51h0a22.827,22.827,0,0,0-21.876-29.51Z" transform="translate(26.615 -67.398)" fill="#263238"/>
      <circle id="Ellipse_327" data-name="Ellipse 327" cx="17.112" cy="17.112" r="17.112" transform="matrix(0.268, -0.963, 0.963, 0.268, 292.354, 321.368)" fill="#263238"/>
      <circle id="Ellipse_328" data-name="Ellipse 328" cx="13.986" cy="13.986" r="13.986" transform="translate(325.242 348.742)" fill="#263238"/>
      <path id="Path_37666" data-name="Path 37666" d="M2.993,0H18.041V6.437H2.993A2.993,2.993,0,0,1,0,3.444V3A2.992,2.992,0,0,1,2.993,0Z" transform="translate(319.375 379.367) rotate(-58.64)" fill="#263238"/>
      <path id="Path_37667" data-name="Path 37667" d="M2.956,0H17.613a.428.428,0,0,1,.428.428V6a.428.428,0,0,1-.428.427H2.956A2.993,2.993,0,0,1,0,3.4v-.44A2.993,2.993,0,0,1,2.956,0Z" transform="translate(341.369 391.874) rotate(-108.46)" fill="#263238"/>
      <path id="Path_37668" data-name="Path 37668" d="M2.993,0H17.65a.427.427,0,0,1,.427.428V6a.428.428,0,0,1-.427.428H2.993A2.993,2.993,0,0,1,0,3.432v-.44A2.992,2.992,0,0,1,2.993,0Z" transform="matrix(-0.516, -0.857, 0.857, -0.516, 351.809, 388.295)" fill="#263238"/>
      <path id="Path_37669" data-name="Path 37669" d="M2.993,0H17.65a.428.428,0,0,1,.428.428V5.985a.428.428,0,0,1-.428.428H2.993A2.993,2.993,0,0,1,0,3.42V2.98A2.992,2.992,0,0,1,2.993,0Z" transform="matrix(-0.748, -0.663, 0.663, -0.748, 361.947, 380.8)" fill="#263238"/>
      <path id="Path_37670" data-name="Path 37670" d="M109,291.906s1.649,160.18,91.535,163.307S294.2,293.054,294.2,291.906c0,0-10.614-23.879-92.6-22.951S109,291.906,109,291.906Z" transform="translate(-1.126 -72.161)" fill="#c31f5d"/>
      <rect id="Rectangle_4665" data-name="Rectangle 4665" width="93.929" height="19.262" rx="7.35" transform="translate(243.296 191.554) rotate(180)" fill="#263238"/>
      <rect id="Rectangle_4666" data-name="Rectangle 4666" width="6.559" height="33.162" transform="translate(199.617 49.122) rotate(180)" fill="#263238"/>
      <circle id="Ellipse_329" data-name="Ellipse 329" cx="19.274" cy="19.274" r="19.274" transform="translate(268.964 114.801) rotate(-13.37)" fill="#c31f5d"/>
      <circle id="Ellipse_330" data-name="Ellipse 330" cx="19.274" cy="19.274" r="19.274" transform="translate(74.549 113.266) rotate(-12.78)" fill="#c31f5d"/>
      <path id="Path_37671" data-name="Path 37671" d="M195.031,142.169s-78.368-.941-90.753,66.984,53.866,69.146,72.932,70.428c8.636.586,27.128.647,43.447.354,36.13-.623,61.658-7.61,70.343-41.126a62.807,62.807,0,0,0,1.942-12.007C295.226,190.013,270.394,140.361,195.031,142.169Z" transform="translate(-2.511 -100.241)" fill="#c31f5d"/>
      <path id="Path_37672" data-name="Path 37672" d="M249.467,234.642l-113.851,1.771a21.607,21.607,0,0,1-21.986-21.265h0a21.62,21.62,0,0,1,21.278-21.986l113.851-1.771a21.6,21.6,0,0,1,21.986,21.265h0a21.607,21.607,0,0,1-21.278,21.986Z" transform="translate(-0.101 -89.332)" fill="#263238"/>
      <path id="Path_37673" data-name="Path 37673" d="M153.492,210.411a6.938,6.938,0,1,1-5.472-8.147,6.938,6.938,0,0,1,5.472,8.147Z" transform="translate(5.683 -86.952)" fill="#fff"/>
      <path id="Path_37674" data-name="Path 37674" d="M218.583,209.369a6.938,6.938,0,1,1-5.472-8.135,6.938,6.938,0,0,1,5.472,8.135Z" transform="translate(20.096 -87.18)" fill="#fff"/>
      <path id="Path_37675" data-name="Path 37675" d="M217.941,345.847a30.988,30.988,0,1,1-28.655-33.162,30.988,30.988,0,0,1,28.655,33.162Z" transform="translate(9.292 -62.489)" fill="#263238"/>
      <path id="Path_37676" data-name="Path 37676" d="M208.028,343.714A22.572,22.572,0,1,1,202.6,327.3a22.585,22.585,0,0,1,5.427,16.413Z" transform="translate(10.814 -60.966)" fill="#fff"/>
      <path id="Path_37677" data-name="Path 37677" d="M195.283,346.5a22.453,22.453,0,0,1-.208-3.725c-.061-2.333-.11-5.668-.11-9.772l.244.452-11.616-6.779h.647l-11.726,6.584c-.318.537.428-.721.354-.586h0v3.481c0,1.148,0,2.3-.061,3.42,0,2.247-.086,4.422-.122,6.522l-.318-.562,11.482,7.011h-.513c3.579-1.93,6.535-3.469,8.55-4.519a23.742,23.742,0,0,1,3.383-1.588,17.86,17.86,0,0,1-2.931,1.942c-1.979,1.221-4.886,2.944-8.55,5.057l-.257.147-.257-.147-11.628-6.779-.318-.183v-.391q0-3.151.073-6.523v-6.84h0c-.073.134.672-1.112.354-.586l11.762-6.522.342-.183.318.2,11.469,7.011.257.159v.293c-.134,4.226-.269,7.622-.391,9.93a18.711,18.711,0,0,1-.232,3.481Z" transform="translate(12.677 -59.649)" fill="#c31f5d"/>
      <circle id="Ellipse_331" data-name="Ellipse 331" cx="10.81" cy="10.81" r="10.81" transform="translate(181.058 15.287) rotate(-45)" fill="#c31f5d"/>
      <path id="Path_37678" data-name="Path 37678" d="M167.443,206.29c.513.061.257,2.443,1.771,5.7a14.4,14.4,0,0,0,3.664,4.886,11.934,11.934,0,0,0,6.51,2.895,12.092,12.092,0,0,0,6.938-1.661,14.462,14.462,0,0,0,4.495-4.092c2.076-2.895,2.26-5.326,2.773-5.289.208,0,.415.611.415,1.759a10.8,10.8,0,0,1-1.221,4.69,14.413,14.413,0,0,1-4.886,5.411,13.155,13.155,0,0,1-16.978-1.551,14.327,14.327,0,0,1-3.811-6.2,10.627,10.627,0,0,1-.391-4.886C166.93,206.816,167.248,206.254,167.443,206.29Z" transform="translate(11.629 -86.032)" fill="#fff"/>
      <path id="Path_37679" data-name="Path 37679" d="M252.721,240.205a61.552,61.552,0,0,0,2.638-6.046,65.469,65.469,0,0,0,3.176-15.561,114.618,114.618,0,0,0,.366-15.879c-.085-2.04-.183-3.664-.281-4.886a8.552,8.552,0,0,1-.061-1.783,9.553,9.553,0,0,1,.305,1.759c.171,1.136.342,2.785.489,4.886a96.56,96.56,0,0,1-.183,16.025,60.6,60.6,0,0,1-3.383,15.659,30.879,30.879,0,0,1-2.076,4.409A10.076,10.076,0,0,1,252.721,240.205Z" transform="translate(30.699 -88.299)" fill="#263238"/>
      <path id="Path_37680" data-name="Path 37680" d="M104.662,195.14a9.185,9.185,0,0,1-.379,1.747c-.159.55-.33,1.221-.489,2.028s-.4,1.686-.55,2.7a59.37,59.37,0,0,0-.855,7.121,62.622,62.622,0,0,0,.122,8.77,63.6,63.6,0,0,0,1.417,8.648,59.2,59.2,0,0,0,2.1,6.865c.33.965.708,1.808,1.014,2.565s.6,1.392.843,1.905a9.65,9.65,0,0,1,.684,1.649,9.771,9.771,0,0,1-.9-1.539,20.6,20.6,0,0,1-.941-1.881c-.342-.733-.757-1.576-1.112-2.541a52.342,52.342,0,0,1-2.247-6.877,59.19,59.19,0,0,1-1.49-8.746,58.3,58.3,0,0,1-.073-8.855,53.1,53.1,0,0,1,1-7.17c.183-1.014.44-1.905.647-2.7s.4-1.466.586-2.015a10.994,10.994,0,0,1,.623-1.673Z" transform="translate(-2.749 -88.501)" fill="#263238"/>
      <path id="Path_37681" data-name="Path 37681" d="M108.66,287.63l.464.134,1.368.464,5.2,1.832,3.762,1.344c1.38.464,2.907.9,4.532,1.4,3.261.965,6.938,2.223,11.115,3.2l6.51,1.673c2.272.574,4.666,1,7.133,1.539,4.886,1.124,10.248,1.893,15.879,2.8a283.618,283.618,0,0,0,36.741,2.626,281.459,281.459,0,0,0,36.741-2.626c5.594-.9,10.92-1.661,15.879-2.8,2.443-.525,4.886-.953,7.133-1.527l6.523-1.673c4.165-.977,7.842-2.235,11.1-3.2,1.625-.5,3.151-.94,4.532-1.4l3.762-1.344,5.2-1.832,1.368-.464a2.441,2.441,0,0,1,.476-.134l-.452.2-1.344.525-5.167,1.942-3.848,1.441c-1.368.476-2.895.928-4.519,1.454-3.261,1-6.926,2.284-11.1,3.3l-6.523,1.71c-2.26.586-4.666,1.026-7.133,1.576-4.886,1.148-10.26,1.93-15.879,2.858a276.2,276.2,0,0,1-36.826,2.675,277.67,277.67,0,0,1-36.814-2.687c-5.606-.916-10.993-1.71-15.879-2.858-2.443-.55-4.886-.989-7.133-1.576l-6.522-1.71c-4.177-1.014-7.842-2.3-11.1-3.3-1.625-.525-3.139-.977-4.519-1.454l-3.75-1.4-5.167-1.942-1.344-.525A2.444,2.444,0,0,1,108.66,287.63Z" transform="translate(-1.201 -68.019)" fill="#263238"/>
      <g id="Group_11873" data-name="Group 11873" transform="translate(107.874 196.766)" opacity="0.3">
        <path id="Path_37682" data-name="Path 37682" d="M109,291.906s10.614-21.986,92.6-22.951,92.6,22.951,92.6,22.951S211.455,332.69,109,291.906Z" transform="translate(-109 -268.927)"/>
      </g>
      <path id="Path_37683" data-name="Path 37683" d="M184.433,146.329a1.49,1.49,0,0,1-.281,0l-.818.086c-.733.073-1.808.1-3.188.257a86.851,86.851,0,0,0-11.567,1.918,82.96,82.96,0,0,0-48.858,32.466,85.757,85.757,0,0,0-12.752,26.017c-.428,1.319-.66,2.37-.867,3.066l-.232.806a1.223,1.223,0,0,1-.1.269.818.818,0,0,1,0-.281,4.686,4.686,0,0,1,.171-.818c.171-.708.354-1.771.745-3.115a77.486,77.486,0,0,1,3.909-11.1,82.5,82.5,0,0,1,57.884-47.746,76.956,76.956,0,0,1,11.64-1.722c1.392-.122,2.443-.11,3.2-.147h.831A.938.938,0,0,1,184.433,146.329Z" transform="translate(-1.843 -99.32)" fill="#fff"/>
      <path id="Path_37684" data-name="Path 37684" d="M107.968,226.533a9.417,9.417,0,0,1-1.124-2.443,34.847,34.847,0,0,1-1.991-12.727,8.55,8.55,0,0,1,.318-2.663c.2,0-.073,4.08.708,9.014S108.151,226.46,107.968,226.533Z" transform="translate(-2.048 -85.498)" fill="#fff"/>
      <path id="Path_37685" data-name="Path 37685" d="M91.221,221.888a3.714,3.714,0,0,1-.66-.66,11.2,11.2,0,0,1-1.38-2.138,13.9,13.9,0,0,1,2.089-15.757,10.833,10.833,0,0,1,1.893-1.71,2.638,2.638,0,0,1,.806-.464c.073.1-1.026.843-2.357,2.443a14.413,14.413,0,0,0-2.028,15.268C90.439,220.813,91.306,221.815,91.221,221.888Z" transform="translate(-5.858 -87.167)" fill="#fff"/>
      <path id="Path_37686" data-name="Path 37686" d="M183.868,114.276a16.268,16.268,0,0,0-2.87-.061,7.487,7.487,0,0,0-6.4,9.967,16.024,16.024,0,0,0,1.221,2.577,2.836,2.836,0,0,1-.586-.537,6.6,6.6,0,0,1-1.1-1.893,7.671,7.671,0,0,1,6.791-10.565,6.67,6.67,0,0,1,2.174.208C183.648,114.056,183.868,114.239,183.868,114.276Z" transform="translate(13.171 -106.524)" fill="#fff"/>
      <path id="Path_37687" data-name="Path 37687" d="M271.031,206.909c-.134.147-2.028-1.673-4.886-3.041s-5.46-1.771-5.435-1.967a11.237,11.237,0,0,1,5.7,1.392A11.066,11.066,0,0,1,271.031,206.909Z" transform="translate(32.469 -87.004)" fill="#fff"/>
      <path id="Path_37688" data-name="Path 37688" d="M136.528,400.1a1.522,1.522,0,0,1-.147-.232l-.4-.721c-.366-.7-.855-1.624-1.49-2.809-.318-.611-.66-1.295-1.05-2.028l-1.148-2.443c-.831-1.771-1.759-3.786-2.675-6.107-.464-1.136-.953-2.333-1.466-3.567s-.953-2.577-1.454-3.933c-1.05-2.7-1.942-5.668-2.98-8.746-1.918-6.229-3.8-13.131-5.448-20.459s-2.846-14.4-3.823-20.838-1.612-12.214-2-17.173c-.232-2.443-.379-4.666-.5-6.62s-.232-3.664-.269-5.008-.073-2.382-.11-3.164v-.818a1,1,0,0,1,0-.281.939.939,0,0,1,0,.281l.073.818c0,.77.134,1.832.22,3.151s.208,3.054.379,5,.33,4.165.6,6.608c.44,4.886,1.221,10.7,2.138,17.1s2.247,13.436,3.86,20.765,3.506,14.218,5.374,20.435c1.038,3.078,1.905,6.034,2.931,8.733.489,1.368.953,2.675,1.417,3.933l1.417,3.591c.879,2.284,1.783,4.312,2.589,6.107l1.1,2.443c.354.745.7,1.429,1,2.052l1.368,2.858.342.745a.941.941,0,0,1,.159.33Z" transform="translate(-0.561 -66.354)" fill="#fff"/>
      <path id="Path_37689" data-name="Path 37689" d="M96.1,299.776a60.929,60.929,0,0,1-8.929-.318,63.389,63.389,0,0,1-8.88-.94,60.942,60.942,0,0,1,8.929.318,63.091,63.091,0,0,1,8.88.94Z" transform="translate(-7.926 -65.618)" fill="#fff"/>
      <path id="Path_37690" data-name="Path 37690" d="M56.833,281.111a66.092,66.092,0,0,1-4.654-7.9A65.961,65.961,0,0,1,48.1,265a66.683,66.683,0,0,1,4.641,7.915,64.492,64.492,0,0,1,4.092,8.2Z" transform="translate(-14.612 -73.03)" fill="#fff"/>
      <path id="Path_37691" data-name="Path 37691" d="M172.753,416.294a7.162,7.162,0,0,1-1.429-.171,31.759,31.759,0,0,1-3.823-.928,41.351,41.351,0,0,1-5.448-2.089,46.412,46.412,0,0,1-6.18-3.591,45.194,45.194,0,0,1-5.472-4.6,39.946,39.946,0,0,1-3.811-4.422,28.575,28.575,0,0,1-2.162-3.286,6.339,6.339,0,0,1-.647-1.283c.1-.061,1.124,1.71,3.164,4.3a45.543,45.543,0,0,0,3.872,4.275,44.693,44.693,0,0,0,11.494,8.086,47.652,47.652,0,0,0,5.326,2.186C170.762,415.818,172.777,416.172,172.753,416.294Z" transform="translate(6.576 -44.039)" fill="#fff"/>
      <path id="Path_37692" data-name="Path 37692" d="M189.553,377.142a5.934,5.934,0,0,1-.855.085,22.411,22.411,0,0,1-2.443.073,32.759,32.759,0,0,1-8.953-1.454,39.369,39.369,0,0,1-5.838-2.345,37.975,37.975,0,0,1-6.107-3.921,32.832,32.832,0,0,1-12.679-29.193,37.717,37.717,0,0,1,1.283-7.109,36.94,36.94,0,0,1,2.26-5.863,32.5,32.5,0,0,1,5.057-7.536,21.715,21.715,0,0,1,1.734-1.759,6,6,0,0,1,.647-.562s-.806.867-2.2,2.443a34.3,34.3,0,0,0-4.886,7.573,35.361,35.361,0,0,0-3.371,12.813,32.6,32.6,0,0,0,12.459,28.692,37.3,37.3,0,0,0,5.936,3.909,37.867,37.867,0,0,0,5.729,2.443,34.2,34.2,0,0,0,8.831,1.625C188.368,377.142,189.553,377.069,189.553,377.142Z" transform="translate(8.513 -61.391)" fill="#fff"/>
      <path id="Path_37693" data-name="Path 37693" d="M64.651,287.881c0,.1-.941-.354-2.443-.708a13.631,13.631,0,0,0-11.555,2.773c-1.221,1.014-1.808,1.82-1.893,1.759a5.643,5.643,0,0,1,1.515-2.1,12.642,12.642,0,0,1,11.958-2.858,5.863,5.863,0,0,1,2.418,1.136Z" transform="translate(-14.466 -68.319)" fill="#fff"/>
      <path id="Path_37694" data-name="Path 37694" d="M221.586,188.218c0,.171-15,.318-33.492.318s-33.5-.147-33.5-.318,15-.318,33.5-.318S221.586,188.022,221.586,188.218Z" transform="translate(8.97 -90.104)" fill="#fff"/>
      <path id="Path_37695" data-name="Path 37695" d="M172.41,252.989a2.3,2.3,0,0,1-.562.086l-1.637.147c-.708.061-1.576.11-2.589.134s-2.162.073-3.432,0a87.262,87.262,0,0,1-8.941-.537,99.133,99.133,0,0,1-10.81-1.869,97.856,97.856,0,0,1-10.5-3.151,86.861,86.861,0,0,1-8.233-3.506c-1.221-.537-2.162-1.1-3.054-1.576s-1.649-.9-2.26-1.221l-1.4-.855a2.553,2.553,0,0,1-.464-.33,1.08,1.08,0,0,1,.525.22l1.466.745c.623.342,1.392.745,2.3,1.221s1.93.965,3.09,1.478c2.3,1.075,5.093,2.223,8.245,3.359a96.347,96.347,0,0,0,21.18,4.983c3.322.391,6.339.611,8.868.672,1.221.073,2.443,0,3.432,0h4.214A1.747,1.747,0,0,1,172.41,252.989Z" transform="translate(0.982 -78.498)" fill="#fff"/>
      <path id="Path_37696" data-name="Path 37696" d="M264.57,295.75a1.052,1.052,0,0,1-.293.134l-.879.33-3.4,1.221c-1.478.537-3.286,1.16-5.423,1.783s-4.544,1.429-7.268,2.113l-4.251,1.124c-1.478.379-3.041.7-4.641,1.075-3.2.77-6.669,1.38-10.309,2.076a216.783,216.783,0,0,1-48.039,2.944c-3.664-.232-7.219-.415-10.492-.794-1.637-.171-3.225-.293-4.739-.5l-4.361-.6c-2.785-.33-5.277-.831-7.463-1.221s-4.08-.757-5.606-1.112l-3.518-.782-.916-.22a1.1,1.1,0,0,1-.305-.1,1.983,1.983,0,0,1,.33,0l.916.159,3.542.672c1.539.305,3.42.66,5.619.989s4.678.806,7.463,1.112l4.348.55c1.515.2,3.1.305,4.739.464,3.261.354,6.779.513,10.468.733,7.39.305,15.512.318,24.038-.183A230.757,230.757,0,0,0,228,304.96c3.664-.672,7.109-1.221,10.309-2,1.6-.366,3.164-.672,4.641-1.038l4.251-1.087c2.724-.647,5.13-1.4,7.268-2.015s3.97-1.221,5.448-1.673l3.432-1.1.9-.269Z" transform="translate(6.33 -66.221)" fill="#fff"/>
    </g>
  </g>
</svg>
