<svg xmlns="http://www.w3.org/2000/svg" width="631.99" height="492.811" viewBox="0 0 631.99 492.811">
  <g id="cakephp-original" transform="translate(-2 -15.65)">
    <path id="Path_38481" data-name="Path 38481" d="M2,311.439v98.409c0,54.479,141.422,98.613,315.97,98.613V409.848C143.422,409.848,2,365.816,2,311.439Zm315.97-98.613,247.17,61.155c43.013-16.818,68.851-38.222,68.851-61.155V114.263c0-54.428-141.473-98.613-315.97-98.613S2,59.682,2,114.263v98.562c0,54.326,141.422,98.613,315.97,98.613ZM565.089,372.849,317.97,311.439v98.409l247.17,61.41c42.962-16.665,68.8-38.018,68.8-61.41V311.439C633.94,334.627,608.1,355.98,565.089,372.849Z" transform="translate(0 0)" fill="#d43d44"/>
  </g>
</svg>
