<svg xmlns="http://www.w3.org/2000/svg" width="571.178" height="588" viewBox="0 0 571.178 588">
  <path id="Laravel" d="M570.856,133.021a9.306,9.306,0,0,1,.322,2.4V261.638a9.2,9.2,0,0,1-4.625,7.983l-105.932,60.99V451.5a9.226,9.226,0,0,1-4.6,7.983L234.894,586.775a9.887,9.887,0,0,1-1.61.667c-.207.069-.4.2-.621.253a9.26,9.26,0,0,1-4.716,0c-.253-.069-.483-.207-.725-.3a9.57,9.57,0,0,1-1.518-.621L4.624,459.481A9.214,9.214,0,0,1,0,451.5V72.86a9.408,9.408,0,0,1,.322-2.416c.069-.265.23-.506.322-.771a9.069,9.069,0,0,1,.587-1.426,8.609,8.609,0,0,1,.633-.817,9.374,9.374,0,0,1,.817-1.07,8.986,8.986,0,0,1,.909-.69A7.5,7.5,0,0,1,4.6,64.876h.012L115.158,1.229a9.226,9.226,0,0,1,9.2,0L234.906,64.876h.023a11.279,11.279,0,0,1,1.012.782,10.88,10.88,0,0,1,.9.69,10.767,10.767,0,0,1,.828,1.081,8.492,8.492,0,0,1,.621.817,9.606,9.606,0,0,1,.6,1.426c.092.265.253.506.322.782a9.3,9.3,0,0,1,.322,2.4V309.353l92.117-53.041v-120.9a9.3,9.3,0,0,1,.322-2.393c.081-.276.23-.518.322-.782a10.378,10.378,0,0,1,.6-1.426c.173-.3.426-.541.621-.817a9.465,9.465,0,0,1,.828-1.07,8.836,8.836,0,0,1,.9-.69,9.286,9.286,0,0,1,1.012-.794h.012L446.817,63.8a9.214,9.214,0,0,1,9.2,0l110.545,63.647a10.164,10.164,0,0,1,1.035.782c.288.23.621.437.886.69a10.76,10.76,0,0,1,.828,1.081,6.945,6.945,0,0,1,.621.817,9.115,9.115,0,0,1,.6,1.426,6.585,6.585,0,0,1,.322.782ZM552.75,256.312V151.357l-38.685,22.27L460.621,204.4V309.353l92.14-53.041ZM442.2,446.172V341.148l-52.569,30.023L239.519,456.846V562.86ZM18.428,88.792v357.38L221.091,562.848V456.858l-105.875-59.92-.035-.023-.046-.023a430.493,430.493,0,0,0-1.864-1.426l-.023-.034a8.77,8.77,0,0,1-.759-.966,9.831,9.831,0,0,1-.69-.9l-.012-.034a7.338,7.338,0,0,1-.483-1.15,6.81,6.81,0,0,1-.437-1.035v-.012a8.806,8.806,0,0,1-.184-1.346,7.982,7.982,0,0,1-.138-1.035V141.833L57.113,111.05,18.428,88.8Zm101.343-68.95L27.665,72.86l92.083,53.018,92.094-53.03L119.748,19.842Zm47.9,330.877L221.1,319.959V88.792l-38.685,22.27-53.444,30.771V373l38.7-22.282ZM451.418,82.407l-92.094,53.018,92.094,53.018,92.083-53.03L451.418,82.407ZM442.2,204.4l-53.444-30.771-38.685-22.27V256.312l53.432,30.759,38.7,22.282V204.4ZM230.293,440.915,365.375,363.8,432.9,325.262l-92.025-52.984-105.956,61-96.569,55.595,91.945,52.04Z" transform="translate(0 0)" fill="#ff2d20"/>
</svg>
