<svg xmlns="http://www.w3.org/2000/svg" width="619.831" height="533.35" viewBox="0 0 619.831 533.35">
  <g id="vuejs-original" transform="translate(0 -8.934)">
    <path id="Path_38353" data-name="Path 38353" d="M0,8.934,241.414,9.7l68.6,118.494L379.9,9.7l239.928-.76L310.719,542.284Zm614.891,3.085-117.962.1L310.613,331.972,124.407,12.12l-119.845-.1L310.656,534.473ZM493.109,11.98l-110.141.814L310.075,132.145,238.325,12.789l-110.378-.814L310.656,324.2Zm-367.221-.823,111.385.044m-111.385-.048,111.385.048" transform="translate(0 0)" fill="none"/>
    <path id="Path_38354" data-name="Path 38354" d="M26,9.393l111.386.044,72.811,120.857L282.747,9.446l111.289-.029L210.75,327.347Z" transform="translate(99.892 1.764)" fill="#35495e"/>
    <path id="Path_38355" data-name="Path 38355" d="M.91,10.23,122.3,9.4,307.034,327.346l183.3-317.93,121.593.126L307.019,532.815Z" transform="translate(3.497 1.779)" fill="#41b883"/>
  </g>
</svg>
