<svg id="Layer_2" data-name="Layer 2" xmlns="http://www.w3.org/2000/svg" width="724.285" height="557.699" viewBox="0 0 724.285 557.699">
  <g id="Layer_1" data-name="Layer 1" transform="translate(0 0)">
    <ellipse id="Ellipse_421" data-name="Ellipse 421" cx="362.142" cy="69.562" rx="362.142" ry="69.562" transform="translate(0 418.574)" fill="#d2d8ee"/>
    <path id="Path_37481" data-name="Path 37481" d="M978.114,932.79h389.993a12.846,12.846,0,0,1,12.846,12.846v248.993a12.846,12.846,0,0,1-12.846,12.846H978.114a12.844,12.844,0,0,1-12.844-12.844V945.636A12.846,12.846,0,0,1,978.114,932.79Z" transform="translate(-813.183 -785.82)" fill="#3b3b2b"/>
    <path id="Path_37482" data-name="Path 37482" d="M1031.183,3165.266H473.9v9.331a9.332,9.332,0,0,0,9.332,9.332h552.173a9.332,9.332,0,0,0,9.331-9.331V3164.16Z" transform="translate(-399.233 -2665.616)" fill="#3b3b2b"/>
    <path id="Path_37483" data-name="Path 37483" d="M1041.938,2750.581c4.813,4.774-5.891,8.77-24.077,8.77H497.523c-18.531,0-30.037-2.816-23.929-8.858l75.866-69.745c2.806-2.579,15.578-4.609,28.584-4.588l366.214.534c12.835.019,25.285,2.069,27.875,4.637Z" transform="translate(-397.586 -2254.505)" fill="#f8f9fa"/>
    <path id="Path_37484" data-name="Path 37484" d="M1321.541,2737.66l-446.251-.315,37.674-38.635,374.334.518Zm-437.535-1.969,429.075.315-30.688-35.616-364.55-.5Z" transform="translate(-737.38 -2273.503)" fill="#dfdfde"/>
    <path id="Path_37485" data-name="Path 37485" d="M1171.133,2718.032,1149.59,2718l2.423-2.623,21.266.028Z" transform="translate(-968.461 -2287.546)" fill="#3b3b2b"/>
    <path id="Path_37486" data-name="Path 37486" d="M3167.159,2720.694l-21.308-.028-1.6-2.616,21.039.028Z" transform="translate(-2648.844 -2289.795)" fill="#3b3b2b"/>
    <path id="Path_37487" data-name="Path 37487" d="M3002.927,2720.474l-21.329-.029-1.268-2.615,21.058.029Z" transform="translate(-2510.751 -2289.61)" fill="#3b3b2b"/>
    <path id="Path_37488" data-name="Path 37488" d="M2838.554,2720.254l-21.348-.027-.936-2.617,21.077.029Z" transform="translate(-2372.54 -2289.425)" fill="#3b3b2b"/>
    <path id="Path_37489" data-name="Path 37489" d="M2674.022,2720.035l-21.368-.028-.6-2.617,21.1.028Z" transform="translate(-2234.195 -2289.24)" fill="#3b3b2b"/>
    <path id="Path_37490" data-name="Path 37490" d="M2509.346,2719.807l-21.385-.029-.271-2.618,21.115.028Z" transform="translate(-2095.731 -2289.046)" fill="#3b3b2b"/>
    <path id="Path_37491" data-name="Path 37491" d="M2344.176,2719.587l-21.406-.028.063-2.619,21.134.028Z" transform="translate(-1956.796 -2288.86)" fill="#3b3b2b"/>
    <path id="Path_37492" data-name="Path 37492" d="M2177.4,2719.367l-21.425-.027.4-2.62,21.153.028Z" transform="translate(-1816.285 -2288.675)" fill="#3b3b2b"/>
    <path id="Path_37493" data-name="Path 37493" d="M2010.485,2719.14l-21.445-.028.733-2.622,21.171.03Z" transform="translate(-1675.648 -2288.482)" fill="#3b3b2b"/>
    <path id="Path_37494" data-name="Path 37494" d="M1843.4,2718.92l-21.464-.028,1.07-2.622,21.19.028Z" transform="translate(-1534.876 -2288.296)" fill="#3b3b2b"/>
    <path id="Path_37495" data-name="Path 37495" d="M1676.175,2718.7l-21.485-.028,1.406-2.622,21.211.028Z" transform="translate(-1393.978 -2288.111)" fill="#3b3b2b"/>
    <path id="Path_37496" data-name="Path 37496" d="M1508.792,2718.48l-21.5-.028,1.741-2.622,21.228.029Z" transform="translate(-1252.953 -2287.926)" fill="#3b3b2b"/>
    <path id="Path_37497" data-name="Path 37497" d="M1341.243,2718.26l-21.523-.027,2.08-2.624,21.247.027Z" transform="translate(-1111.786 -2287.74)" fill="#3b3b2b"/>
    <path id="Path_37498" data-name="Path 37498" d="M3333.153,2720.922l-21.288-.028-1.935-2.614,21.019.027Z" transform="translate(-2788.419 -2289.989)" fill="#3b3b2b"/>
    <path id="Path_37499" data-name="Path 37499" d="M1141.6,2740.852l-19.624-.024,3.646-3.948,19.254.025Z" transform="translate(-945.201 -2305.659)" fill="#3b3b2b"/>
    <path id="Path_37500" data-name="Path 37500" d="M1311.068,2741.062l-19.608-.023,3.143-3.948,19.24.025Z" transform="translate(-1087.978 -2305.836)" fill="#3b3b2b"/>
    <path id="Path_37501" data-name="Path 37501" d="M1477.929,2741.271l-19.589-.023,2.649-3.947,19.221.025Z" transform="translate(-1228.565 -2306.012)" fill="#3b3b2b"/>
    <path id="Path_37502" data-name="Path 37502" d="M1644.632,2741.48l-19.572-.025,2.154-3.945,19.205.025Z" transform="translate(-1369.016 -2306.189)" fill="#3b3b2b"/>
    <path id="Path_37503" data-name="Path 37503" d="M1811.163,2741.689l-19.553-.024,1.662-3.945,19.186.027Z" transform="translate(-1509.325 -2306.366)" fill="#3b3b2b"/>
    <path id="Path_37504" data-name="Path 37504" d="M1977.564,2741.9l-19.534-.024,1.169-3.944,19.169.025Z" transform="translate(-1649.524 -2306.543)" fill="#3b3b2b"/>
    <path id="Path_37505" data-name="Path 37505" d="M2143.8,2742.116l-19.514-.025.678-3.94,19.149.023Z" transform="translate(-1789.588 -2306.729)" fill="#3b3b2b"/>
    <path id="Path_37506" data-name="Path 37506" d="M2309.888,2742.324l-19.5-.023.189-3.941,19.132.024Z" transform="translate(-1929.517 -2306.905)" fill="#3b3b2b"/>
    <path id="Path_37507" data-name="Path 37507" d="M2474.22,2742.533l-19.479-.024-.3-3.939,19.115.024Z" transform="translate(-2067.72 -2307.083)" fill="#3b3b2b"/>
    <path id="Path_37508" data-name="Path 37508" d="M2637.391,2742.741l-19.462-.024-.789-3.937,19.1.024Z" transform="translate(-2204.785 -2307.26)" fill="#3b3b2b"/>
    <path id="Path_37509" data-name="Path 37509" d="M2800.411,2742.951l-19.444-.024-1.276-3.937,19.082.023Z" transform="translate(-2341.724 -2307.436)" fill="#3b3b2b"/>
    <path id="Path_37510" data-name="Path 37510" d="M2963.291,2743.159l-19.427-.024-1.763-3.936,19.065.024Z" transform="translate(-2478.544 -2307.613)" fill="#3b3b2b"/>
    <path id="Path_37511" data-name="Path 37511" d="M3126.007,2743.368l-19.408-.023-2.249-3.935,19.047.024Z" transform="translate(-2615.23 -2307.79)" fill="#3b3b2b"/>
    <path id="Path_37512" data-name="Path 37512" d="M3293.092,2743.574l-32.7-.039-2.707-3.934,32.095.043Z" transform="translate(-2744.402 -2307.95)" fill="#3b3b2b"/>
    <path id="Path_37513" data-name="Path 37513" d="M3364.38,2771.28l19.478.024,3.479,4.125-19.855-.022Z" transform="translate(-2834.29 -2334.638)" fill="#3b3b2b"/>
    <path id="Path_37514" data-name="Path 37514" d="M3197.46,2771.08l19.5.023,2.967,4.127-19.875-.022Z" transform="translate(-2693.67 -2334.47)" fill="#3b3b2b"/>
    <path id="Path_37515" data-name="Path 37515" d="M3030.4,2770.88l19.517.023,2.457,4.128-19.9-.022Z" transform="translate(-2552.932 -2334.302)" fill="#3b3b2b"/>
    <path id="Path_37516" data-name="Path 37516" d="M2863.19,2770.68l19.531.024,1.944,4.13-19.911-.023Z" transform="translate(-2412.067 -2334.133)" fill="#3b3b2b"/>
    <path id="Path_37517" data-name="Path 37517" d="M2695.81,2770.48l19.548.024,1.433,4.13-19.931-.022Z" transform="translate(-2271.06 -2333.965)" fill="#3b3b2b"/>
    <path id="Path_37518" data-name="Path 37518" d="M2528.26,2770.28l19.573.024.916,4.131-19.953-.022Z" transform="translate(-2129.909 -2333.796)" fill="#3b3b2b"/>
    <path id="Path_37519" data-name="Path 37519" d="M2360.59,2770.07l19.586.023.4,4.135-19.968-.024Z" transform="translate(-1988.657 -2333.619)" fill="#3b3b2b"/>
    <path id="Path_37520" data-name="Path 37520" d="M2190.078,2769.87l19.6.023-.115,4.134-19.988-.022Z" transform="translate(-1844.591 -2333.451)" fill="#3b3b2b"/>
    <path id="Path_37521" data-name="Path 37521" d="M2019.306,2769.67l19.624.024-.632,4.136-20.008-.022Z" transform="translate(-1700.289 -2333.282)" fill="#3b3b2b"/>
    <path id="Path_37522" data-name="Path 37522" d="M1848.393,2769.47l19.641.024-1.15,4.137-20.024-.024Z" transform="translate(-1555.87 -2333.114)" fill="#3b3b2b"/>
    <path id="Path_37523" data-name="Path 37523" d="M1677.293,2769.26l19.66.025-1.668,4.137-20.045-.022Z" transform="translate(-1411.29 -2332.937)" fill="#3b3b2b"/>
    <path id="Path_37524" data-name="Path 37524" d="M1506.024,2769.06l19.681.023-2.188,4.141-20.067-.023Z" transform="translate(-1266.567 -2332.769)" fill="#3b3b2b"/>
    <path id="Path_37525" data-name="Path 37525" d="M1334.626,2768.86l19.7.023-2.71,4.141L1331.53,2773Z" transform="translate(-1121.735 -2332.6)" fill="#3b3b2b"/>
    <path id="Path_37526" data-name="Path 37526" d="M1095.4,2768.58l33.259.039-3.172,4.142-33.915-.038Z" transform="translate(-919.583 -2332.364)" fill="#3b3b2b"/>
    <path id="Path_37527" data-name="Path 37527" d="M1058.114,2807.64l39.024.042-3.265,4.391-39.814-.041Z" transform="translate(-887.983 -2365.27)" fill="#3b3b2b"/>
    <path id="Path_37528" data-name="Path 37528" d="M3276.11,2810.05l38.552.043,3.685,4.369-39.324-.039Z" transform="translate(-2759.928 -2367.3)" fill="#3b3b2b"/>
    <path id="Path_37529" data-name="Path 37529" d="M3086.49,2809.84l20.075.021,2.718,4.374-20.476-.022Z" transform="translate(-2600.184 -2367.124)" fill="#3b3b2b"/>
    <path id="Path_37530" data-name="Path 37530" d="M2914.48,2809.66l20.09.022,2.176,4.374-20.5-.021Z" transform="translate(-2455.276 -2366.971)" fill="#3b3b2b"/>
    <path id="Path_37531" data-name="Path 37531" d="M2742.28,2809.47l20.114.022,1.631,4.375-20.517-.022Z" transform="translate(-2310.208 -2366.812)" fill="#3b3b2b"/>
    <path id="Path_37532" data-name="Path 37532" d="M2569.93,2809.28l20.133.022,1.087,4.377-20.536-.021Z" transform="translate(-2165.013 -2366.651)" fill="#3b3b2b"/>
    <path id="Path_37533" data-name="Path 37533" d="M2397.42,2809.09l20.15.022.542,4.379-20.555-.021Z" transform="translate(-2019.684 -2366.491)" fill="#3b3b2b"/>
    <path id="Path_37534" data-name="Path 37534" d="M2222.531,2808.9l20.172.022,0,4.38-20.579-.02Z" transform="translate(-1872.004 -2366.331)" fill="#3b3b2b"/>
    <path id="Path_37535" data-name="Path 37535" d="M2046.76,2808.71l20.19.022-.551,4.382-20.6-.021Z" transform="translate(-1723.465 -2366.171)" fill="#3b3b2b"/>
    <path id="Path_37536" data-name="Path 37536" d="M1870.809,2808.52l20.209.022-1.1,4.383-20.617-.021Z" transform="translate(-1574.774 -2366.011)" fill="#3b3b2b"/>
    <path id="Path_37537" data-name="Path 37537" d="M1694.679,2808.33l20.229.022-1.651,4.385-20.637-.021Z" transform="translate(-1425.932 -2365.851)" fill="#3b3b2b"/>
    <path id="Path_37538" data-name="Path 37538" d="M1518.391,2808.14l20.25.022-2.2,4.386-20.658-.021Z" transform="translate(-1276.955 -2365.691)" fill="#3b3b2b"/>
    <path id="Path_37539" data-name="Path 37539" d="M1341.925,2807.95l20.265.022-2.754,4.388-20.677-.021Z" transform="translate(-1127.826 -2365.531)" fill="#3b3b2b"/>
    <path id="Path_37540" data-name="Path 37540" d="M1024.347,2842.99l40.026.039-3.435,4.62-40.858-.038Z" transform="translate(-859.357 -2395.051)" fill="#3b3b2b"/>
    <path id="Path_37541" data-name="Path 37541" d="M3198.37,2845.13l54.736.055,3.862,4.6-55.86-.052Z" transform="translate(-2694.437 -2396.853)" fill="#3b3b2b"/>
    <path id="Path_37542" data-name="Path 37542" d="M3022.06,2844.96l20.592.02,2.59,4.6-21.014-.019Z" transform="translate(-2545.906 -2396.71)" fill="#3b3b2b"/>
    <path id="Path_37543" data-name="Path 37543" d="M2853.44,2844.79l20.612.021,2.044,4.6-21.036-.019Z" transform="translate(-2403.854 -2396.566)" fill="#3b3b2b"/>
    <path id="Path_37544" data-name="Path 37544" d="M2684.64,2844.62l20.634.021,1.5,4.6-21.06-.019Z" transform="translate(-2261.65 -2396.423)" fill="#3b3b2b"/>
    <path id="Path_37545" data-name="Path 37545" d="M2515.69,2844.45l20.653.021.95,4.607-21.078-.02Z" transform="translate(-2119.319 -2396.28)" fill="#3b3b2b"/>
    <path id="Path_37546" data-name="Path 37546" d="M2346.464,2844.28l20.67.021.4,4.609-21.1-.019Z" transform="translate(-1976.736 -2396.137)" fill="#3b3b2b"/>
    <path id="Path_37547" data-name="Path 37547" d="M2174.257,2844.11l20.689.02-.148,4.61-21.118-.019Z" transform="translate(-1831.196 -2395.994)" fill="#3b3b2b"/>
    <path id="Path_37548" data-name="Path 37548" d="M2001.9,2843.95l20.71.019-.7,4.612-21.136-.019Z" transform="translate(-1685.53 -2395.859)" fill="#3b3b2b"/>
    <path id="Path_37549" data-name="Path 37549" d="M1829.351,2843.78l20.73.02-1.251,4.612-21.16-.019Z" transform="translate(-1539.703 -2395.716)" fill="#3b3b2b"/>
    <path id="Path_37550" data-name="Path 37550" d="M1656.646,2843.61l20.749.021-1.806,4.613-21.179-.019Z" transform="translate(-1393.742 -2395.572)" fill="#3b3b2b"/>
    <path id="Path_37551" data-name="Path 37551" d="M1483.789,2843.44l20.768.021-2.359,4.615-21.2-.019Z" transform="translate(-1247.655 -2395.429)" fill="#3b3b2b"/>
    <path id="Path_37552" data-name="Path 37552" d="M1310.765,2843.27l20.787.021-2.915,4.618-21.217-.021Z" transform="translate(-1101.424 -2395.286)" fill="#3b3b2b"/>
    <path id="Path_37553" data-name="Path 37553" d="M1510.707,2887.62l21.408.019-2.329,4.909-21.866-.017Z" transform="translate(-1270.333 -2432.648)" fill="#3b3b2b"/>
    <path id="Path_37554" data-name="Path 37554" d="M1332.237,2887.47l21.43.017-2.918,4.913-21.888-.017Z" transform="translate(-1119.486 -2432.521)" fill="#3b3b2b"/>
    <path id="Path_37555" data-name="Path 37555" d="M1153.56,2887.31l21.453.019-3.51,4.914-21.913-.018Z" transform="translate(-968.461 -2432.387)" fill="#3b3b2b"/>
    <path id="Path_37556" data-name="Path 37556" d="M974.723,2887.16l21.474.019-4.1,4.916-21.934-.019Z" transform="translate(-817.302 -2432.26)" fill="#3b3b2b"/>
    <path id="Path_37557" data-name="Path 37557" d="M2880.32,2888.81l21.251.017,2.214,4.9-21.7-.016Z" transform="translate(-2426.499 -2433.651)" fill="#3b3b2b"/>
    <path id="Path_37558" data-name="Path 37558" d="M2706.33,2888.65l21.269.019,1.631,4.9-21.719-.017Z" transform="translate(-2279.922 -2433.516)" fill="#3b3b2b"/>
    <path id="Path_37559" data-name="Path 37559" d="M3447.94,2904.65l21.406.017,2.055,2.47-21.633-.017Z" transform="translate(-2904.685 -2446.995)" fill="#3b3b2b"/>
    <path id="Path_37560" data-name="Path 37560" d="M3263.1,2889.14l21.2.019,3.49,4.891-21.653-.017Z" transform="translate(-2748.968 -2433.929)" fill="#3b3b2b"/>
    <path id="Path_37561" data-name="Path 37561" d="M3068.47,2904.33l21.452.019,1.423,2.472-21.68-.017Z" transform="translate(-2585.003 -2446.725)" fill="#3b3b2b"/>
    <path id="Path_37562" data-name="Path 37562" d="M1748.083,2887.82l134.3.118.862,4.9-137.165-.109Z" transform="translate(-1470.969 -2432.817)" fill="#3b3b2b"/>
    <path id="Path_37563" data-name="Path 37563" d="M1880.2,2987.51c1.435,4.657-11.989,8.552-30.036,8.551l-126.78-.009c-18.14,0-31.337-3.911-29.521-8.582l7.222-18.583c1.521-3.914,15.609-6.988,31.5-6.977l111.108.074c15.821.011,29.591,3.094,30.793,7Z" transform="translate(-1426.841 -2495.233)" fill="#dfdfde"/>
    <path id="Path_37564" data-name="Path 37564" d="M1679.562,2984.875l7.223-18.583c1.418-3.659,13.826-6.582,28.386-6.933-.334-.191-.671-.371-1.01-.53-15.316.482-28.3,3.591-29.847,7.467l-7.405,18.592c-1.761,4.421,8.954,8.234,24.894,9.128.473-.218.972-.448,1.47-.693C1688.191,2992.565,1677.948,2989.023,1679.562,2984.875Z" transform="translate(-1412.536 -2492.638)" fill="#c2c3c4"/>
    <path id="Path_37565" data-name="Path 37565" d="M2029.437,2958.4l-110.849-.075c-1.448,0-2.866.03-4.278.074.339.158.676.339,1.01.53q1.541-.038,3.116-.038l111.108.074c.756,0,1.5.014,2.24.029.225-.2.441-.386.645-.555Q2030.954,2958.4,2029.437,2958.4Z" transform="translate(-1612.692 -2492.208)" fill="#c2c3c4"/>
    <path id="Path_37566" data-name="Path 37566" d="M1969.971,3177.817l-126.78-.01c-2,0-3.939-.055-5.811-.148-.5.246-.99.473-1.47.693,2.267.128,4.637.2,7.081.2h127.121c1.048,0,2.077-.018,3.1-.041-.333-.244-.63-.485-.958-.727C1971.495,3177.8,1970.742,3177.817,1969.971,3177.817Z" transform="translate(-1546.645 -2676.99)" fill="#c2c3c4"/>
    <path id="Path_37567" data-name="Path 37567" d="M2660.554,2959c-.2.168-.419.353-.645.555,14.847.28,27.406,3.249,28.553,6.969l5.709,18.529c1.373,4.454-10.872,8.2-27.757,8.521.315.241.63.482.958.726,18-.427,30.953-4.478,29.435-9.246l-5.893-18.529C2689.659,2962.561,2676.335,2959.373,2660.554,2959Z" transform="translate(-2240.816 -2492.782)" fill="#c2c3c4"/>
    <path id="Path_37568" data-name="Path 37568" d="M1067.29,1146.05v224.44h383.541V1146.05Z" transform="translate(-899.128 -965.479)" fill="#4366b0"/>
    <path id="Path_37569" data-name="Path 37569" d="M1450.831,1040.64H1067.29v23.746h383.541Z" transform="translate(-899.128 -876.677)" fill="#2b4482"/>
    <path id="Path_37570" data-name="Path 37570" d="M1482.92,197.75V515.355a7.214,7.214,0,0,0,7.06,7.358h275.179a7.212,7.212,0,0,0,7.057-7.358V197.75Z" transform="translate(-1249.272 -166.593)" fill="#d1e7f3"/>
    <rect id="Rectangle_4677" data-name="Rectangle 4677" width="289.296" height="15.825" transform="translate(233.648 15.332)" fill="#7b88c3"/>
    <path id="Path_37571" data-name="Path 37571" d="M1772.212,7.06A7.059,7.059,0,0,0,1765.158,0H1489.98a7.06,7.06,0,0,0-7.06,7.06v8.272h289.292Z" transform="translate(-1249.272 0)" fill="#42439b"/>
    <rect id="Rectangle_4678" data-name="Rectangle 4678" width="156.48" height="8.666" transform="translate(297.236 19.496)" fill="#fffdf5"/>
    <path id="Path_37572" data-name="Path 37572" d="M2956.48,121.443a4.008,4.008,0,0,0-3.1-3.9,3.893,3.893,0,0,0-.917-.106h-.028a4.016,4.016,0,0,0-3.972,4.011,3.913,3.913,0,0,0,.134,1.016l.019.074-.221.158-.2.142-3.939,2.79a1.25,1.25,0,0,0-.53,1.012v.036a1.246,1.246,0,0,0,.232.7l.137.194a1.261,1.261,0,0,0,1.021.528h0a1.26,1.26,0,0,0,.722-.23l.173-.124h0l3.361-2.376.173-.124.677-.473.063.041a4.04,4.04,0,0,0,1.27.544,4.081,4.081,0,0,0,.918.106h0a4.008,4.008,0,0,0,3.9-3.09h0v-.013a3.945,3.945,0,0,0,.107-.915Zm-8.533,4.363-.061-.091.061.091-2.135,1.418a.8.8,0,1,1-.887-1.331l2.134-1.418a.8.8,0,1,1,.888,1.331Zm4.593-1.806a2.646,2.646,0,1,1,1.872-.775A2.647,2.647,0,0,1,2952.539,124Z" transform="translate(-2479.918 -98.936)" fill="#405c67"/>
    <circle id="Ellipse_422" data-name="Ellipse 422" cx="4.533" cy="4.533" r="4.533" transform="translate(245.338 12.081) rotate(-67.5)" fill="#e3a339"/>
    <circle id="Ellipse_423" data-name="Ellipse 423" cx="4.533" cy="4.533" r="4.533" transform="translate(259.43 13.772) rotate(-85.27)" fill="#e3a339"/>
    <circle id="Ellipse_424" data-name="Ellipse 424" cx="4.533" cy="4.533" r="4.533" transform="translate(270.984 9.627) rotate(-45)" fill="#e3a339"/>
    <rect id="Rectangle_4679" data-name="Rectangle 4679" width="88.974" height="5.748" transform="translate(406.621 121.929)" fill="#7b88c3"/>
    <rect id="Rectangle_4680" data-name="Rectangle 4680" width="88.974" height="5.748" transform="translate(406.621 134.918)" fill="#7b88c3"/>
    <rect id="Rectangle_4681" data-name="Rectangle 4681" width="65.754" height="5.748" transform="translate(406.621 170.993)" fill="#7b88c3"/>
    <rect id="Rectangle_4682" data-name="Rectangle 4682" width="95.412" height="5.748" transform="translate(406.621 160.859)" fill="#7b88c3"/>
    <rect id="Rectangle_4683" data-name="Rectangle 4683" width="82.312" height="5.748" transform="translate(406.621 145.955)" fill="#7b88c3"/>
    <rect id="Rectangle_4684" data-name="Rectangle 4684" width="246.24" height="83.807" transform="translate(255.793 31.157)" fill="#f27fad"/>
    <rect id="Rectangle_4685" data-name="Rectangle 4685" width="60.503" height="60.503" transform="translate(272.86 49.538)" fill="#8eb0d9"/>
    <path id="Path_37573" data-name="Path 37573" d="M1785.91,368.531h-63.44V305.09h63.44Zm-60.5-2.937h57.566V308.027h-57.566Z" transform="translate(-1451.079 -257.02)" fill="#fff"/>
    <path id="Path_37574" data-name="Path 37574" d="M1738.93,496.369,1755.6,458.58l15.561,27.786,12.227-21.118,12.225,31.121Z" transform="translate(-1464.945 -386.326)" fill="#fff"/>
    <circle id="Ellipse_425" data-name="Ellipse 425" cx="4.501" cy="4.501" r="4.501" transform="translate(309.491 56.498)" fill="#fff"/>
    <rect id="Rectangle_4686" data-name="Rectangle 4686" width="85.5" height="4.194" transform="translate(492.123 229.274) rotate(180)" fill="#7b88c3"/>
    <rect id="Rectangle_4687" data-name="Rectangle 4687" width="85.5" height="4.194" transform="translate(492.123 219.794) rotate(180)" fill="#7b88c3"/>
    <rect id="Rectangle_4688" data-name="Rectangle 4688" width="63.188" height="4.194" transform="translate(469.811 193.467) rotate(180)" fill="#7b88c3"/>
    <rect id="Rectangle_4689" data-name="Rectangle 4689" width="91.685" height="4.194" transform="translate(498.308 200.863) rotate(180)" fill="#7b88c3"/>
    <rect id="Rectangle_4690" data-name="Rectangle 4690" width="79.098" height="4.194" transform="translate(485.721 211.739) rotate(180)" fill="#7b88c3"/>
    <path id="Path_37575" data-name="Path 37575" d="M2660.474,1589.146a3.246,3.246,0,0,0-3.246-3.246H2569.8a3.246,3.246,0,0,0-3.246,3.246v47.911h93.924Z" transform="translate(-2162.166 -1336.027)" fill="#a7c4e4"/>
    <path id="Path_37576" data-name="Path 37576" d="M2566.55,1910.58v5.442a3.246,3.246,0,0,0,3.246,3.246h87.433a3.246,3.246,0,0,0,3.246-3.246v-5.442Z" transform="translate(-2162.166 -1609.55)" fill="#a7c4e4"/>
    <circle id="Ellipse_426" data-name="Ellipse 426" cx="14.098" cy="14.098" r="14.098" transform="translate(432.824 275.45) rotate(-45)" fill="#f27fad"/>
    <rect id="Rectangle_4691" data-name="Rectangle 4691" width="30.322" height="1.42" transform="translate(404.384 299.61)" fill="#f27fad"/>
    <rect id="Rectangle_4692" data-name="Rectangle 4692" width="63.602" height="1.42" transform="translate(434.706 299.61)" fill="#fffbfd"/>
    <circle id="Ellipse_427" data-name="Ellipse 427" cx="1.669" cy="1.669" r="1.669" transform="translate(426.287 301.543) rotate(-76.72)" fill="#fffbfd"/>
    <path id="Path_37577" data-name="Path 37577" d="M2606.85,1927.479v-1.729l1.5.865,1.5.864-1.5.863-1.5.865Z" transform="translate(-2196.116 -1622.33)" fill="#fffbfd"/>
    <rect id="Rectangle_4693" data-name="Rectangle 4693" width="0.638" height="3.457" transform="translate(416.959 303.42)" fill="#fffbfd"/>
    <rect id="Rectangle_4694" data-name="Rectangle 4694" width="0.638" height="3.457" transform="translate(415.728 303.42)" fill="#fffbfd"/>
    <rect id="Rectangle_4695" data-name="Rectangle 4695" width="3.362" height="3.362" transform="translate(419.983 303.467)" fill="#fffbfd"/>
    <path id="Path_37578" data-name="Path 37578" d="M3051.886,1927.635h-.936v1.829h.936l1.094.613v-3.057Z" transform="translate(-2570.244 -1623.4)" fill="#fffbfd"/>
    <path id="Path_37579" data-name="Path 37579" d="M3066.1,1928.629a1.508,1.508,0,0,0-1.276-1.489v.359a1.153,1.153,0,0,1,0,2.26v.361A1.511,1.511,0,0,0,3066.1,1928.629Z" transform="translate(-2581.928 -1623.501)" fill="#fffbfd"/>
    <path id="Path_37580" data-name="Path 37580" d="M3065.661,1931.165a1.043,1.043,0,0,0-.811-1.015v.369a.687.687,0,0,1,0,1.294v.362A1.044,1.044,0,0,0,3065.661,1931.165Z" transform="translate(-2581.954 -1626.037)" fill="#fffbfd"/>
    <path id="Path_37581" data-name="Path 37581" d="M3082.509,1929.256l.181.378.372-.177a1.106,1.106,0,0,0,.329.3l-.137.389.4.139.137-.388a1.124,1.124,0,0,0,.443-.022l.178.372.378-.181-.177-.37a1.145,1.145,0,0,0,.295-.331l.389.137.14-.4-.389-.137a1.1,1.1,0,0,0-.021-.443l.37-.178-.181-.378-.372.177a1.1,1.1,0,0,0-.329-.3l.139-.388-.4-.14-.137.388a1.1,1.1,0,0,0-.443.022l-.177-.37-.38.18.176.372a1.087,1.087,0,0,0-.294.331l-.389-.139-.14.4.389.137a1.1,1.1,0,0,0,.022.444Zm1.011-.608a.455.455,0,1,1,.017.35A.457.457,0,0,1,3083.521,1928.648Z" transform="translate(-2596.798 -1623.652)" fill="#fff"/>
    <path id="Path_37582" data-name="Path 37582" d="M3115.351,1927.763h.52v-.413h-.931v.933h.411Z" transform="translate(-2624.152 -1623.678)" fill="#fff"/>
    <path id="Path_37583" data-name="Path 37583" d="M3128.271,1927.763v.52h.411v-.933h-.933v.413Z" transform="translate(-2634.944 -1623.678)" fill="#fff"/>
    <path id="Path_37584" data-name="Path 37584" d="M3115.351,1940.69v-.52h-.411v.933h.931v-.413Z" transform="translate(-2624.152 -1634.478)" fill="#fff"/>
    <path id="Path_37585" data-name="Path 37585" d="M3128.271,1940.69h-.521v.413h.933v-.933h-.411Z" transform="translate(-2634.944 -1634.478)" fill="#fff"/>
    <path id="Path_37586" data-name="Path 37586" d="M2853.386,1712.556l-5.206-3.006,7.848,7.661,2.712-1.565Z" transform="translate(-2399.422 -1440.194)" fill="#d3e5f1"/>
    <path id="Path_37587" data-name="Path 37587" d="M2847.25,1709.01v12.362l5.353-3.09,2.642-1.527-7.848-7.661Z" transform="translate(-2398.639 -1439.739)" fill="#fffbfd"/>
    <path id="Path_37588" data-name="Path 37588" d="M2793.427,1705.68a.325.325,0,0,1-.315-.266,12.458,12.458,0,0,1-.024-3.4,12.194,12.194,0,0,1,2.946-6.7.325.325,0,0,1,.484.432,12.282,12.282,0,0,0-2.768,9.553.325.325,0,0,1-.261.377A.243.243,0,0,1,2793.427,1705.68Z" transform="translate(-2352.922 -1428.118)" fill="#fffbfd"/>
    <path id="Path_37589" data-name="Path 37589" d="M2816.488,1681.679a.327.327,0,0,1-.2-.072.323.323,0,0,1-.046-.455,8.1,8.1,0,0,1,2.319-1.836.325.325,0,1,1,.306.572,7.635,7.635,0,0,0-2.122,1.673A.327.327,0,0,1,2816.488,1681.679Z" transform="translate(-2372.451 -1414.685)" fill="#fffbfd"/>
    <path id="Path_37590" data-name="Path 37590" d="M2837.466,1669.595a.325.325,0,0,1-.158-.608,12.911,12.911,0,0,1,7.563-1.135.325.325,0,1,1-.092.643,12.519,12.519,0,0,0-7.155,1.059A.323.323,0,0,1,2837.466,1669.595Z" transform="translate(-2390.123 -1404.952)" fill="#fffbfd"/>
    <path id="Path_37591" data-name="Path 37591" d="M2570.381,1619.167a.325.325,0,0,1-.325-.325v-2.549a.325.325,0,1,1,.648,0v2.549a.323.323,0,0,1-.323.325Z" transform="translate(-2165.119 -1361.339)" fill="#fffbfd"/>
    <path id="Path_37592" data-name="Path 37592" d="M2570.385,1593.662a.325.325,0,0,1-.325-.325c0-2.7,1.349-3.268,2.48-3.268h4.443a.325.325,0,0,1,0,.649h-4.443c-.788,0-1.833.271-1.833,2.619a.323.323,0,0,1-.323.325Z" transform="translate(-2165.123 -1339.539)" fill="#fffbfd"/>
    <path id="Path_37593" data-name="Path 37593" d="M2622.408,1590.719h-2.313a.325.325,0,0,1,0-.649h2.313a.325.325,0,0,1,0,.649Z" transform="translate(-2207.001 -1339.539)" fill="#fffbfd"/>
    <rect id="Rectangle_4696" data-name="Rectangle 4696" width="85.5" height="1.99" transform="translate(492.123 338.082) rotate(180)" fill="#7b88c3"/>
    <rect id="Rectangle_4697" data-name="Rectangle 4697" width="85.5" height="1.99" transform="translate(492.123 333.583) rotate(180)" fill="#7b88c3"/>
    <rect id="Rectangle_4698" data-name="Rectangle 4698" width="63.188" height="1.99" transform="translate(469.811 321.092) rotate(180)" fill="#7b88c3"/>
    <rect id="Rectangle_4699" data-name="Rectangle 4699" width="91.685" height="1.99" transform="translate(498.308 324.601) rotate(180)" fill="#7b88c3"/>
    <rect id="Rectangle_4700" data-name="Rectangle 4700" width="79.098" height="1.99" transform="translate(485.721 329.761) rotate(180)" fill="#7b88c3"/>
    <rect id="Rectangle_4701" data-name="Rectangle 4701" width="85.5" height="1.99" transform="translate(341.294 150.157) rotate(180)" fill="#7b88c3"/>
    <rect id="Rectangle_4702" data-name="Rectangle 4702" width="85.5" height="1.99" transform="translate(341.294 145.659) rotate(180)" fill="#7b88c3"/>
    <rect id="Rectangle_4703" data-name="Rectangle 4703" width="63.188" height="1.99" transform="translate(318.981 133.168) rotate(180)" fill="#7b88c3"/>
    <rect id="Rectangle_4704" data-name="Rectangle 4704" width="91.685" height="1.99" transform="translate(347.48 136.677) rotate(180)" fill="#7b88c3"/>
    <rect id="Rectangle_4705" data-name="Rectangle 4705" width="79.098" height="1.99" transform="translate(334.891 141.837) rotate(180)" fill="#7b88c3"/>
    <rect id="Rectangle_4706" data-name="Rectangle 4706" width="224.807" height="240.554" transform="translate(165.875 161.161)" fill="#fff"/>
    <rect id="Rectangle_4707" data-name="Rectangle 4707" width="105.335" height="5.143" transform="translate(378.296 180.631) rotate(180)" fill="#e6e6e5"/>
    <rect id="Rectangle_4708" data-name="Rectangle 4708" width="105.335" height="5.143" transform="translate(378.296 197.862) rotate(180)" fill="#e6e6e5"/>
    <rect id="Rectangle_4709" data-name="Rectangle 4709" width="105.335" height="5.143" transform="translate(378.296 215.092) rotate(180)" fill="#e6e6e5"/>
    <rect id="Rectangle_4710" data-name="Rectangle 4710" width="105.335" height="5.143" transform="translate(378.296 232.32) rotate(180)" fill="#e6e6e5"/>
    <rect id="Rectangle_4711" data-name="Rectangle 4711" width="105.335" height="5.143" transform="translate(378.296 249.551) rotate(180)" fill="#e6e6e5"/>
    <rect id="Rectangle_4712" data-name="Rectangle 4712" width="105.335" height="5.143" transform="translate(378.296 266.78) rotate(180)" fill="#e6e6e5"/>
    <rect id="Rectangle_4713" data-name="Rectangle 4713" width="204.295" height="5.143" transform="translate(378.296 284.009) rotate(180)" fill="#e6e6e5"/>
    <rect id="Rectangle_4714" data-name="Rectangle 4714" width="204.295" height="5.143" transform="translate(378.296 302.253) rotate(180)" fill="#e6e6e5"/>
    <rect id="Rectangle_4715" data-name="Rectangle 4715" width="204.295" height="5.143" transform="translate(378.296 320.496) rotate(180)" fill="#e6e6e5"/>
    <rect id="Rectangle_4716" data-name="Rectangle 4716" width="204.295" height="5.143" transform="translate(378.296 338.737) rotate(180)" fill="#e6e6e5"/>
    <rect id="Rectangle_4717" data-name="Rectangle 4717" width="204.295" height="5.143" transform="translate(378.296 356.981) rotate(180)" fill="#e6e6e5"/>
    <rect id="Rectangle_4718" data-name="Rectangle 4718" width="204.295" height="5.143" transform="translate(378.296 375.225) rotate(180)" fill="#e6e6e5"/>
    <path id="Path_37594" data-name="Path 37594" d="M1162.316,1241.161l-5.97,19.3h-7.676l19.537-61.347h8.956l19.615,61.343h-7.932l-6.145-19.3Zm18.849-6.189-5.63-17.658c-1.28-4.005-2.132-7.646-2.984-11.2h-.172c-.852,3.641-1.79,7.372-2.9,11.1l-5.633,17.744Z" transform="translate(-967.686 -1010.179)" fill="gray"/>
    <path id="Path_37595" data-name="Path 37595" d="M1364.721,1261.99l-4.308,13.909h-5.533l14.078-44.219h6.46l14.144,44.219h-5.718l-4.426-13.909Zm13.586-4.46-4.057-12.721c-.923-2.886-1.538-5.515-2.152-8.069h-.123c-.614,2.624-1.29,5.313-2.091,8l-4.057,12.794Z" transform="translate(-1141.406 -1037.617)" fill="#b4b3b4"/>
    <path id="Path_37596" data-name="Path 37596" d="M1394.819,2817.589s25.822-17.445,31.328-9.181.262,23.73-36.7,35.985L1371,2840.482h-1.609v-20.146Z" transform="translate(-1153.63 -2364.044)" fill="#496b6e"/>
    <path id="Path_37597" data-name="Path 37597" d="M1039.224,2817.589s-25.822-17.445-31.328-9.181-.262,23.73,36.7,35.985l18.445-3.911h1.606v-20.146Z" transform="translate(-847.533 -2364.044)" fill="#496b6e"/>
    <path id="Path_37598" data-name="Path 37598" d="M1169.488,2501s19.923,3.283,21.585,7.588,12.619,31.534,9.961,35.519-8.965,11.187-21.586,12.4l-1-11.072,7.015-8.327v-5.83l-11.659,17.814h-30.552l-6.3-17.814-1.661,5.83,6.641,13.924-2.33,5.469s-16.6-5.759-19.26-11.4,8.634-36.488,12.951-39.661,18.927-4.763,18.927-4.763Z" transform="translate(-943.485 -2106.666)" fill="#fcd765"/>
    <path id="Path_37599" data-name="Path 37599" d="M1340.746,2466.056v9.127s-1.52,5.215-8.258,5.215a12.07,12.07,0,0,1-9.888-4.885v-12.6Z" transform="translate(-1114.212 -2074.855)" fill="#f3a97a"/>
    <path id="Path_37600" data-name="Path 37600" d="M1313.007,2302.459l2.716-1.086s2.39-5.335,2.39-6.635,1.848-12.707-3.477-15.1c0,0-.651-5.433-10.1-5.106s-16.3,6.953-15.43,13.146,2.392,13.91,2.934,13.91S1313.007,2302.459,1313.007,2302.459Z" transform="translate(-1085.929 -1916.148)" fill="#7b573f"/>
    <path id="Path_37601" data-name="Path 37601" d="M1237.191,2864.888h4.648l9.3-9.848H1192.03l10.295,9.848Z" transform="translate(-1004.214 -2405.202)" fill="#d6d6d4"/>
    <path id="Path_37602" data-name="Path 37602" d="M1221.424,2753.837h20.415l9.3-30.617H1192.03l10.295,30.617Z" transform="translate(-1004.214 -2294.151)" fill="#e4e4e3"/>
    <path id="Path_37603" data-name="Path 37603" d="M1330.72,2361.669s-.326,13.125-10.539,13.125-11.41-12.279-11.41-12.279l-.651-12.849,14.886-5.406,7.72,5.406Z" transform="translate(-1102.013 -1974.9)" fill="#fab281"/>
    <path id="Path_37604" data-name="Path 37604" d="M1446.922,2412.412c-.52,2.07,0,3.988,1.171,4.279s2.532-1.15,3.05-3.222,0-3.988-1.171-4.28S1447.441,2410.34,1446.922,2412.412Z" transform="translate(-1218.776 -2029.568)" fill="#fab281"/>
    <path id="Path_37605" data-name="Path 37605" d="M1289.905,2412.412c.518,2.07,0,3.988-1.172,4.279s-2.53-1.15-3.05-3.222,0-3.988,1.171-4.28S1289.385,2410.34,1289.905,2412.412Z" transform="translate(-1082.941 -2029.568)" fill="#fab281"/>
    <path id="Path_37606" data-name="Path 37606" d="M1303.213,2399.447c-2.146-3.681-3.5-10.022-2.415-20.877,0,0,1.925,13.068,3.191,15.045.676,1.055,1.711.985,3.071.69a19.113,19.113,0,0,1,10.267-.148c1.68.4,2.935.675,3.714-.542,1.26-1.978,3.191-15.045,3.191-15.045.989,9.907,0,16.046-1.747,19.829h0s-2.387,6.446-9.5,6.446a11.645,11.645,0,0,1-5.475-1.283,9.307,9.307,0,0,1-3.457-2.856,7.912,7.912,0,0,1-.84-1.26Z" transform="translate(-1095.522 -2003.804)" fill="#7b573f"/>
    <path id="Path_37607" data-name="Path 37607" d="M1351.24,2492.568a.749.749,0,0,0,.747.749h6.3a.748.748,0,0,0,.748-.749h0a.748.748,0,0,0-.748-.748h-6.3A.748.748,0,0,0,1351.24,2492.568Z" transform="translate(-1138.339 -2099.21)" fill="#fab281"/>
    <path id="Path_37608" data-name="Path 37608" d="M1351.979,2955.92v7.341l-7.995,4.85-5.374-5.244Z" transform="translate(-1127.699 -2490.187)" fill="#f5a97e"/>
    <path id="Path_37609" data-name="Path 37609" d="M1392.636,3008.53l1.7-2.28s6.37.874,4.365,7.418-20,3-28.046-.732S1392.636,3008.53,1392.636,3008.53Z" transform="translate(-1153.544 -2532.587)" fill="#f3f3f3"/>
    <path id="Path_37610" data-name="Path 37610" d="M1368.8,2995.427a2.143,2.143,0,0,0,1.36,2.757c2.048.72,11.355,3.624,13.845,3.679s12.994,1.891,14.1-4.662-7.676-5.741-7.676-5.741l-20.178-2.719Z" transform="translate(-1153.035 -2517.836)" fill="#015075"/>
    <path id="Path_37611" data-name="Path 37611" d="M1396.216,3005.118a.4.4,0,0,0,.2-.052c2.886-1.557,2.344-6.535,2.319-6.747a.428.428,0,0,0-.849.1h0c0,.046.5,4.613-1.875,5.9a.427.427,0,0,0,.2.8Z" transform="translate(-1175.868 -2525.587)" fill="#f3f3f3"/>
    <path id="Path_37612" data-name="Path 37612" d="M1413.687,3005.512a.423.423,0,0,0,.315-.145,8.041,8.041,0,0,0,1.925-7.248.429.429,0,1,0-.821.241,6.427,6.427,0,0,1,.145,2.077,7.4,7.4,0,0,1-1.891,4.366.427.427,0,0,0,.039.6A.417.417,0,0,0,1413.687,3005.512Z" transform="translate(-1190.583 -2525.457)" fill="#f3f3f3"/>
    <path id="Path_37613" data-name="Path 37613" d="M1432.03,3011.552a.426.426,0,0,0,.354-.189c3.25-4.864,1.791-7.772,1.733-7.894a.427.427,0,0,0-.758.394,4.181,4.181,0,0,1,.279,1.825,10.154,10.154,0,0,1-1.958,5.2.428.428,0,0,0,.356.665Z" transform="translate(-1206.045 -2530.05)" fill="#f3f3f3"/>
    <path id="Path_37614" data-name="Path 37614" d="M1187.84,3001.275l-1.7-2.275s-6.37.875-4.365,7.418,20,3,28.046-.733S1187.84,3001.275,1187.84,3001.275Z" transform="translate(-995.243 -2526.479)" fill="#f3f3f3"/>
    <path id="Path_37615" data-name="Path 37615" d="M1213.259,2988.155a2.146,2.146,0,0,1-1.36,2.759c-2.047.722-11.355,3.624-13.845,3.679s-12.994,1.891-14.1-4.662,7.676-5.742,7.676-5.742l20.179-2.72Z" transform="translate(-997.33 -2511.711)" fill="#015075"/>
    <path id="Path_37616" data-name="Path 37616" d="M1327.56,2997.844a.431.431,0,0,1-.2-.052c-2.885-1.557-2.343-6.536-2.318-6.747a.427.427,0,1,1,.849.1h0c0,.047-.5,4.615,1.875,5.9a.427.427,0,0,1-.2.8Z" transform="translate(-1116.22 -2519.459)" fill="#f3f3f3"/>
    <path id="Path_37617" data-name="Path 37617" d="M1310.783,2998.376a.429.429,0,0,1-.315-.145,8.033,8.033,0,0,1-1.924-7.248.428.428,0,1,1,.821.24,6.439,6.439,0,0,0-.145,2.078,7.385,7.385,0,0,0,1.891,4.366.429.429,0,0,1-.315.711Z" transform="translate(-1102.195 -2519.466)" fill="#f3f3f3"/>
    <path id="Path_37618" data-name="Path 37618" d="M1292.393,3004.318a.428.428,0,0,1-.356-.191c-3.249-4.862-1.79-7.771-1.733-7.892a.428.428,0,0,1,.759.394,4.18,4.18,0,0,0-.279,1.825,10.152,10.152,0,0,0,1.958,5.2.428.428,0,0,1-.356.665Z" transform="translate(-1086.688 -2523.956)" fill="#f3f3f3"/>
    <path id="Path_37619" data-name="Path 37619" d="M1322.643,2968l-2.363,8.056,9.094,2.228a3.553,3.553,0,0,0,2.31-4.254C1331.029,2970.693,1322.643,2968,1322.643,2968Z" transform="translate(-1112.257 -2500.364)" fill="#f5a97e"/>
    <path id="Path_37620" data-name="Path 37620" d="M1190.774,2938.186l-2.363,8.056s-17.174-2.765-23.2-4.792,8.521-8.841,8.521-8.841Z" transform="translate(-980.388 -2470.55)" fill="#496b6e"/>
    <path id="Path_37621" data-name="Path 37621" d="M3809.827,1879.426l10.626-11.576-3.208-6.35-13.125,12.937,1.888,5.475Z" transform="translate(-3204.745 -1568.203)" fill="#443933"/>
    <path id="Path_37622" data-name="Path 37622" d="M3834.212,1876.365l-8.966,10.079-3.1-4.445,9.92-9.92Z" transform="translate(-3219.934 -1577.116)" fill="#fff"/>
    <path id="Path_37623" data-name="Path 37623" d="M3774.486,2869.355c-2.786-.517-13.794-5.427-17.465-6.325a18.876,18.876,0,0,1,.282-4.134c1.135-7.295,9.644-2.337,9.644-2.337a67.189,67.189,0,0,0,7.379,5.238c2.886,1.586,8.967,3.121,9.241,4.687.08.453.17.882.238,1.275C3781.664,2868.419,3776.8,2869.783,3774.486,2869.355Z" transform="translate(-3165.046 -2405.095)" fill="#3c3c3c"/>
    <path id="Path_37624" data-name="Path 37624" d="M3774.615,2912.754c2.31.429,7.174-.936,9.318-1.6.167.963.192,1.692-.435,1.949-.882.359-7.73,1.527-10.123,1.229a81.847,81.847,0,0,1-13.1-3.882c-1.293-.671-2.908-.823-3.124-4.024C3760.826,2907.328,3771.834,2912.238,3774.615,2912.754Z" transform="translate(-3165.176 -2448.495)" fill="#8fbcd9"/>
    <path id="Path_37625" data-name="Path 37625" d="M3670.656,2870.176c-2.728-.769-13.245-6.66-16.816-7.887a19.361,19.361,0,0,1,.656-4.1c1.793-7.161,9.817-1.449,9.817-1.449a67.008,67.008,0,0,0,6.871,5.886c2.73,1.842,8.647,3.923,8.778,5.514.038.458.088.9.12,1.292C3677.885,2869.9,3672.919,2870.812,3670.656,2870.176Z" transform="translate(-3078.143 -2404.818)" fill="#3c3c3c"/>
    <path id="Path_37626" data-name="Path 37626" d="M3670.642,2911.367c2.263.63,7.229-.279,9.425-.742.077.974.038,1.7-.611,1.9-.911.279-7.835.819-10.192.3a81.907,81.907,0,0,1-12.693-5.058c-1.228-.788-2.822-1.084-2.745-4.292C3657.4,2904.708,3667.915,2910.6,3670.642,2911.367Z" transform="translate(-3078.129 -2446.009)" fill="#8fbcd9"/>
    <path id="Path_37627" data-name="Path 37627" d="M3766.293,1881.9l1.467,1.933s1.913,24.48,2.547,29.339,4.859,23.665,3.8,26-3.826-4.016-3.826-4.016l-9.735-49.655Z" transform="translate(-3168.04 -1585.389)" fill="#f5a879"/>
    <path id="Path_37628" data-name="Path 37628" d="M3609.509,2200.388l7.818,6.34s1.606,11.41.169,19.862,1.859,29.159,0,33.809-3.159,44.948-3.159,44.948-8.571.777-10.9.353-1.115-21.847-1.115-21.847-.63-23.667,0-25.358-2.537-27.045-2.537-27.045-1.26,30.849-1.478,38.245.177,35.923.177,35.923-8.845.708-11.037-.217c-1.955-.826-4.569-44.128-5.83-50.057s-4.861-28.75-4.861-28.75-4.226-12.044-1.26-21.13S3609.509,2200.388,3609.509,2200.388Z" transform="translate(-3011.255 -1852.954)" fill="#005278"/>
    <path id="Path_37629" data-name="Path 37629" d="M3498.553,1756.37l1.851-1.449s12.857,4.21,17.713,3l-.495-1.555s8.4,0,13.255,3.7,6.444,14.579,6.866,18.17l-3.168.846s1.161,15.422,1.161,16.479c0,.788,1.706,16.64,3.318,26.167l1.963,6.685s-10.557,7.078-15.211,7.183-24.93,0-24.93,0-1.056-17.114-1.8-20.283-8.239-21.866-9.3-26.514S3481.335,1765.877,3498.553,1756.37Z" transform="translate(-2937.848 -1478.416)" fill="#e34578"/>
    <path id="Path_37630" data-name="Path 37630" d="M3588.667,1594.524a18.475,18.475,0,0,0,.763,4.569c.644,1.7,1.057,6.277-1.642,6.747s-14.726-2.6-19.008-9.6a24.213,24.213,0,0,0,2.464-5.948c.586-2.757,1.995-9.034,1.232-11.557s.17-12.517,2.521-12.712S3588.667,1594.524,3588.667,1594.524Z" transform="translate(-3006.485 -1319.282)" fill="#f5a879"/>
    <path id="Path_37631" data-name="Path 37631" d="M3599.59,1570.037s-1.274,8.508,5.526,11.76,11,4.709,11.918,3.739a5.352,5.352,0,0,0,1.114-2.483c.176-.41.945-1,.881-1.7a.934.934,0,0,0,.586-1.056,7.843,7.843,0,0,1,.351-2.757c.175-.176,2.048,1,2.048-.881s-.7-4.569-.235-5.689,2.521-4.108,2.464-6.4c0,0-1.527-10.853-11.974-10.911s-12.673,1.576-13.317,3.93.586,12.154.586,12.154" transform="translate(-3031.746 -1308.867)" fill="#fab281"/>
    <path id="Path_37632" data-name="Path 37632" d="M3527.414,1909.569s-6.339,5.07-12.044,7.183c0,0,7.93,19.864,9.138,23.032s1.418,2.113,2.9,1.691,32.118-15.707,36.344-17.045,7.394-1.127,8.24-4.086.5-8.109,1.557-9.165-7.145,4.1-8.894,4.1.788-4.015.788-5.705-2.114-1.9-2.537,0-3.209,2.746-4.859,5.916.08,3.577-1.651,4.429-18.542,2.965-25.138,6.981C3531.263,1926.9,3531.429,1916.33,3527.414,1909.569Z" transform="translate(-2961.49 -1607.564)" fill="#f5a879"/>
    <path id="Path_37633" data-name="Path 37633" d="M3574.835,1509.431c.528-1.7,3.92-9.825,18.956-6.863,14.726,2.9,10.845,17.13,9.731,18.538-.6.758-2.239-.8-4.237-2.754,0,0-4.1-3.334-6.229-3.548s-7.09,1.3-8.815,2.147h0c-3.2,2.188-2.718,6.443-2.718,6.443l-1.848.491s-1.261-2.6-2.561-3.132-.622,7.692-.622,7.692C3571.052,1523.994,3574.308,1511.133,3574.835,1509.431Z" transform="translate(-3010.368 -1265.282)" fill="#5e4440"/>
    <path id="Path_37634" data-name="Path 37634" d="M3586.908,1612.5c.34,2.31-.575,4.36-2.048,4.569s-2.94-1.479-3.282-3.791.575-4.36,2.048-4.577S3586.566,1610.187,3586.908,1612.5Z" transform="translate(-3017.206 -1355.218)" fill="#fab281"/>
    <path id="Path_37635" data-name="Path 37635" d="M1131.314,345.831c-.462-6.559-7.019-7.405-7.019-11.636s1.948-4.245,1.9-7.742c-.083-6.7-3.852-5.524-3.639-9.121s1.1-17.387-11.381-15.7c0,0-5.078-4.876-12.482,1.681s-2.538,11.847-3.384,14.6-5.289,2.538-5.289,7.193,4.019,5.5,3.173,8.885c-.654,2.614-7.49,5.734-6.476,13.829a35.224,35.224,0,0,0,44.533.859A15.533,15.533,0,0,0,1131.314,345.831Z" transform="translate(-915.412 -252.634)" fill="#483327"/>
    <path id="Path_37636" data-name="Path 37636" d="M1085.129,538.171c-1.824-1.216-7.43-1.632-11.6-1.771a10.427,10.427,0,0,1-9.814,5.4c-5.9-.145-7.8-3.988-8.267-5.261l-8.691,1.117c-8.582-.506-13.137,18.167-13.137,18.167l8.1,16.674,3.151-20.262,3.337,26.276,2.592,4.588,13.637,15.154c12.622,0,12.116-13.632,12.116-13.632l.4-4.007c-5.847-1.468-13.235-4.071-13.235-4.071V571.43l.868-.019,13.293.041,1.7-17.125-.5,17.174-1.2-.158-.923,9.268a27.168,27.168,0,0,0,5.637.979c4.544,0,4.569-4.544,4.569-4.544s2.018-24.737,2.521-30.291S1088.159,540.191,1085.129,538.171Z" transform="translate(-870.763 -451.885)" fill="#da9bc5"/>
    <path id="Path_37637" data-name="Path 37637" d="M905.367,1343.278s-7.582-.515-6.417,1.119,3.143,4.16,8.262,3.41,4.583-2.141,7.5-3.249,7.159-1.469,6.9-3.361-3.088-4.456-3.466-4.771-3.9,1.1-3.9,1.1l-2.408,3.361Z" transform="translate(-757.209 -1125.821)" fill="#cc335f"/>
    <path id="Path_37638" data-name="Path 37638" d="M943.592,1324.036l4.506-.436.158,2.059a5.5,5.5,0,0,0-4.029,3.105,7.992,7.992,0,0,1-7.259,4.585c-2.855-.172-2.373-.451-2.373-.451a19.536,19.536,0,0,0,4.234-2.883c1.171-1.308,2.031-5.2,4.312-5.573" transform="translate(-787.315 -1115.054)" fill="#f5a879"/>
    <path id="Path_37639" data-name="Path 37639" d="M628.505,1130.156s-6.644-3.7-6.282-1.722,1.071,5.1,6.022,6.6,5.059.016,8.166.257,7.1,1.722,7.676-.1-.893-5.346-1.094-5.789-4-.662-4-.662l-3.614,2Z" transform="translate(-524.174 -950.149)" fill="#cc335f"/>
    <path id="Path_37640" data-name="Path 37640" d="M667.7,1115.77l4.254,1.527-.729,1.932a5.5,5.5,0,0,0-4.969,1.092,7.988,7.988,0,0,1-8.519,1.054c-2.508-1.372-1.955-1.418-1.955-1.418a19.3,19.3,0,0,0,5.059-.805c1.62-.69,4.056-3.843,6.276-3.2" transform="translate(-552.415 -939.97)" fill="#f5a879"/>
    <path id="Path_37641" data-name="Path 37641" d="M721.86,845.47l6.042,2.063s22.553-25.052,23.29-29.038c0,0,55.866,5.012,56.6-7.665s-13.413-14.888-27.86-15.772a201.049,201.049,0,0,0-30.07.885A15.949,15.949,0,0,0,745,801.4C742.644,805.378,721.86,845.47,721.86,845.47Z" transform="translate(-608.124 -669.58)" fill="#d44071"/>
    <path id="Path_37642" data-name="Path 37642" d="M915.023,910.941c-7.191,3.1-3.895,10.169-3.895,10.169,5.94,20.3,9.9,56.931,9.9,56.931l7.426-1.484s.989-28.714,2.97-38.615a19.545,19.545,0,0,0-3.961-16.34l21.3-4.947S924.483,910.1,915.023,910.941Z" transform="translate(-766.936 -767.351)" fill="#cc335f"/>
    <path id="Path_37643" data-name="Path 37643" d="M1187.178,480.845c-.112-.112-.224-.23-.337-.356-3.025-3.4-1.135-9.959-1.135-9.959h-9.3a17.565,17.565,0,0,1,.572,4.985,7.9,7.9,0,0,1-1.706,4.974c-.057.065-.114.126-.172.186l-2.934.377c.473,1.273,2.378,5.116,8.267,5.261a10.441,10.441,0,0,0,9.814-5.4C1189.072,480.869,1188.008,480.845,1187.178,480.845Z" transform="translate(-987.484 -396.394)" fill="#f5a879"/>
    <path id="Path_37644" data-name="Path 37644" d="M1168.211,331.47c-6.236,0-11.291,6.441-11.291,14.388s5.054,14.387,11.291,14.387,11.289-6.441,11.289-14.387S1174.445,331.47,1168.211,331.47Z" transform="translate(-974.636 -279.244)" fill="#fab281"/>
    <path id="Path_37645" data-name="Path 37645" d="M1174.324,329.888s-3.993,6.208-15.646,6.208c0,0-.544-12.416,11.01-12.416s11.883,11.571,11.883,11.571A52.984,52.984,0,0,0,1174.324,329.888Z" transform="translate(-976.114 -272.681)" fill="#483327"/>
    <path id="Path_37646" data-name="Path 37646" d="M1223.26,749.8l.05-1.769,15.821,1.85Z" transform="translate(-1030.524 -630.171)" fill="#ce8dba"/>
    <path id="Path_37647" data-name="Path 37647" d="M1151.633,754.425s-12.208-2.381-14.823,3.744l.3,1.427,7.79.473s1.785-.6,2.319-.3a3.044,3.044,0,0,0,2.855.416,9.993,9.993,0,0,0,2.3-1.26Z" transform="translate(-957.695 -635.174)" fill="#f5a879"/>
    <path id="Path_37648" data-name="Path 37648" d="M843.94,627.585l12.687,26.034h37.7L882.967,627.53Z" transform="translate(-710.969 -528.657)" fill="#c8d9e5"/>
    <path id="Path_37649" data-name="Path 37649" d="M965.425,793.334a.6.6,0,0,1-.586.6H922.418a.6.6,0,0,1-.578-.613h0a.561.561,0,0,1,.578-.562h42.421c.315,0,.459-.014.459.315Z" transform="translate(-776.595 -667.852)" fill="#deded7"/>
    <path id="Path_37650" data-name="Path 37650" d="M979.484,715.033c0,.611-1.98,1.1-4.423,1.1s-4.421-.495-4.421-1.1,1.98-1.1,4.421-1.1S979.484,714.423,979.484,715.033Z" transform="translate(-817.707 -601.444)" fill="#deded7"/>
    <path id="Path_37651" data-name="Path 37651" d="M1224.423,750.45l-.043,1.3-.05,5.858s7.434,1.854,13.281,3.323l.945-9.012Z" transform="translate(-1031.425 -632.21)" fill="#da9bc5"/>
  </g>
</svg>
