<svg xmlns="http://www.w3.org/2000/svg" width="604" height="515.731" viewBox="0 0 604 515.731">
  <g id="Pair_programming-rafiki" data-name="Pair programming-rafiki" transform="translate(-39.6 -58.73)">
    <g id="freepik--Shadows--inject-14" transform="translate(63.079 542.266)">
      <g id="freepik--Shadow--inject-214--inject-14">
        <ellipse id="freepik--path--inject-214--inject-14" cx="275.727" cy="16.098" rx="275.727" ry="16.098" fill="#f5f5f5"/>
      </g>
    </g>
    <g id="freepik--background-complete--inject-14" transform="translate(39.6 58.73)">
      <path id="Path_38378" data-name="Path 38378" d="M322.309,460.894H47.72a8.134,8.134,0,0,1-8.12-8.12v-386a8.134,8.134,0,0,1,8.12-8.049H322.309a8.12,8.12,0,0,1,8.106,8.12h0V452.774A8.12,8.12,0,0,1,322.309,460.894ZM47.72,59.014a7.779,7.779,0,0,0-7.765,7.765v386a7.779,7.779,0,0,0,7.765,7.765H322.309a7.765,7.765,0,0,0,7.75-7.765v-386a7.765,7.765,0,0,0-7.75-7.765Z" transform="translate(-39.6 -58.73)" fill="#e6e6e6"/>
      <path id="Path_38379" data-name="Path 38379" d="M538.609,460.894h-274.6a8.12,8.12,0,0,1-8.106-8.12v-386a8.12,8.12,0,0,1,8.106-8.049h274.6a8.12,8.12,0,0,1,8.106,8.049v386A8.12,8.12,0,0,1,538.609,460.894Zm-274.6-401.88a7.765,7.765,0,0,0-7.75,7.765v386a7.765,7.765,0,0,0,7.75,7.765h274.6a7.793,7.793,0,0,0,7.779-7.765v-386a7.793,7.793,0,0,0-7.779-7.765Z" transform="translate(51.696 -58.73)" fill="#e6e6e6"/>
      <rect id="Rectangle_4811" data-name="Rectangle 4811" width="58.604" height="0.356" transform="translate(20.179 474.235)" fill="#e0e0e0"/>
      <rect id="Rectangle_4812" data-name="Rectangle 4812" width="58.775" height="0.356" transform="translate(139.463 471.391)" fill="#e0e0e0"/>
      <rect id="Rectangle_4813" data-name="Rectangle 4813" width="14.221" height="0.356" transform="translate(260.497 471.391)" fill="#e0e0e0"/>
      <rect id="Rectangle_4814" data-name="Rectangle 4814" width="65.771" height="0.356" transform="translate(66.809 483.536)" fill="#e0e0e0"/>
      <rect id="Rectangle_4815" data-name="Rectangle 4815" width="30.717" height="0.356" transform="translate(329.354 474.05)" fill="#e0e0e0"/>
      <rect id="Rectangle_4816" data-name="Rectangle 4816" width="39.719" height="0.356" transform="translate(372.727 474.05)" fill="#e0e0e0"/>
      <rect id="Rectangle_4817" data-name="Rectangle 4817" width="88.795" height="0.356" transform="translate(515.205 480.066)" fill="#e0e0e0"/>
      <rect id="Rectangle_4818" data-name="Rectangle 4818" width="67.705" height="47.313" transform="translate(462.503 78.925)" fill="#e6e6e6"/>
      <rect id="Rectangle_4819" data-name="Rectangle 4819" width="30.532" height="47.313" transform="translate(462.503 78.925)" fill="#f0f0f0"/>
      <path id="Path_38380" data-name="Path 38380" d="M378.543,118.74a10.083,10.083,0,1,1-10.083,10.083A10.083,10.083,0,0,1,378.543,118.74Z" transform="translate(99.205 -33.401)" fill="#e0e0e0" opacity="0.4"/>
      <path id="Path_38381" data-name="Path 38381" d="M381.921,141.12A4.92,4.92,0,1,1,377,136.2h0a4.906,4.906,0,0,1,4.92,4.92Z" transform="translate(100.733 -26.032)" fill="#e0e0e0"/>
      <circle id="Ellipse_498" data-name="Ellipse 498" cx="2.873" cy="2.873" r="2.873" transform="translate(474.804 93.232)" fill="#fafafa"/>
      <rect id="Rectangle_4820" data-name="Rectangle 4820" width="29.281" height="64.278" transform="translate(356.387 61.974)" fill="#f0f0f0"/>
      <rect id="Rectangle_4821" data-name="Rectangle 4821" width="38.851" height="64.278" transform="translate(384.857 61.974)" fill="#e6e6e6"/>
      <path id="Path_38382" data-name="Path 38382" d="M301.633,116.66a4.067,4.067,0,1,1-4.053,4.053,4.067,4.067,0,0,1,4.053-4.053Z" transform="translate(69.288 -34.279)" fill="#fff"/>
      <path id="Path_38383" data-name="Path 38383" d="M301.034,112.21A2.034,2.034,0,1,1,299,114.244a2.034,2.034,0,0,1,2.034-2.034Z" transform="translate(69.888 -36.157)" fill="#fff"/>
      <path id="Path_38384" data-name="Path 38384" d="M301.034,107.89A2.034,2.034,0,1,1,299,109.924,2.034,2.034,0,0,1,301.034,107.89Z" transform="translate(69.888 -37.981)" fill="#fff"/>
      <rect id="Rectangle_4822" data-name="Rectangle 4822" width="65.985" height="1.01" transform="translate(357.042 98.024)" fill="#e0e0e0"/>
      <rect id="Rectangle_4823" data-name="Rectangle 4823" width="65.985" height="1.01" transform="translate(357.042 103.726)" fill="#e0e0e0"/>
      <rect id="Rectangle_4824" data-name="Rectangle 4824" width="65.985" height="1.01" transform="translate(357.042 109.429)" fill="#e0e0e0"/>
      <rect id="Rectangle_4825" data-name="Rectangle 4825" width="65.985" height="1.01" transform="translate(357.042 115.132)" fill="#e0e0e0"/>
      <rect id="Rectangle_4826" data-name="Rectangle 4826" width="65.985" height="1.01" transform="translate(357.042 120.834)" fill="#e0e0e0"/>
      <rect id="Rectangle_4827" data-name="Rectangle 4827" width="2.787" height="2.787" transform="translate(368.831 99.759)" fill="#e0e0e0"/>
      <rect id="Rectangle_4828" data-name="Rectangle 4828" width="2.787" height="2.787" transform="translate(368.831 105.76)" fill="#e0e0e0"/>
      <rect id="Rectangle_4829" data-name="Rectangle 4829" width="2.787" height="2.787" transform="translate(368.831 111.164)" fill="#e0e0e0"/>
      <rect id="Rectangle_4830" data-name="Rectangle 4830" width="2.787" height="2.787" transform="translate(368.831 116.994)" fill="#e0e0e0"/>
      <rect id="Rectangle_4831" data-name="Rectangle 4831" width="2.787" height="2.787" transform="translate(368.831 122.654)" fill="#e0e0e0"/>
      <path id="Path_38385" data-name="Path 38385" d="M251.292,211.454H249.87V157a11.106,11.106,0,0,1,11.092-11.092h46.929v1.422H260.962a9.684,9.684,0,0,0-9.67,9.67Z" transform="translate(49.151 -21.933)" fill="#e0e0e0"/>
      <path id="Path_38386" data-name="Path 38386" d="M249.292,212.372H247.87V157.423a13.467,13.467,0,0,1,13.453-13.453h47.412v1.422H261.323a12.045,12.045,0,0,0-12.031,12.031Z" transform="translate(48.307 -22.752)" fill="#e0e0e0"/>
      <rect id="Rectangle_4832" data-name="Rectangle 4832" width="44.525" height="47.398" transform="translate(97.356 53.001)" fill="#e6e6e6"/>
      <rect id="Rectangle_4833" data-name="Rectangle 4833" width="11.405" height="47.398" transform="translate(141.881 53.001)" fill="#f5f5f5"/>
      <rect id="Rectangle_4834" data-name="Rectangle 4834" width="33.447" height="54.707" transform="translate(85.68 45.691)" fill="#e6e6e6"/>
      <rect id="Rectangle_4835" data-name="Rectangle 4835" width="9.67" height="54.707" transform="translate(119.113 45.691)" fill="#f5f5f5"/>
      <rect id="Rectangle_4836" data-name="Rectangle 4836" width="28.2" height="47.398" transform="translate(81.073 53.001)" fill="#ebebeb"/>
      <rect id="Rectangle_4837" data-name="Rectangle 4837" width="6.442" height="47.398" transform="translate(109.273 53.001)" fill="#f5f5f5"/>
      <rect id="Rectangle_4838" data-name="Rectangle 4838" width="36.988" height="39.377" transform="translate(49.204 61.021)" fill="#e6e6e6"/>
      <rect id="Rectangle_4839" data-name="Rectangle 4839" width="9.471" height="39.377" transform="translate(86.192 61.021)" fill="#f5f5f5"/>
      <rect id="Rectangle_4840" data-name="Rectangle 4840" width="27.787" height="45.45" transform="translate(39.505 54.949)" fill="#e6e6e6"/>
      <rect id="Rectangle_4841" data-name="Rectangle 4841" width="8.035" height="45.45" transform="translate(67.279 54.949)" fill="#f5f5f5"/>
      <rect id="Rectangle_4842" data-name="Rectangle 4842" width="26.991" height="39.377" transform="translate(32.111 61.021)" fill="#e6e6e6"/>
      <rect id="Rectangle_4843" data-name="Rectangle 4843" width="5.347" height="39.377" transform="translate(59.116 61.021)" fill="#f0f0f0"/>
      <rect id="Rectangle_4844" data-name="Rectangle 4844" width="290.104" height="13.723" transform="translate(290.673 114.093) rotate(180)" fill="#e6e6e6"/>
      <path id="Path_38387" data-name="Path 38387" d="M76.61,139.19H92.651L80.962,156.838H76.61Z" transform="translate(-23.979 -24.769)" fill="#e0e0e0"/>
      <rect id="Rectangle_4845" data-name="Rectangle 4845" width="2.318" height="17.648" transform="translate(50.313 114.421)" fill="#e0e0e0"/>
      <path id="Path_38388" data-name="Path 38388" d="M203.31,139.19h16.055l-11.69,17.648H203.31Z" transform="translate(29.499 -24.769)" fill="#e0e0e0"/>
      <rect id="Rectangle_4846" data-name="Rectangle 4846" width="2.318" height="17.648" transform="translate(230.505 114.421)" fill="#e0e0e0"/>
      <rect id="Rectangle_4847" data-name="Rectangle 4847" width="290.104" height="13.723" transform="translate(308.065 126.252)" fill="#e6e6e6"/>
      <path id="Path_38389" data-name="Path 38389" d="M428.4,175.028h-4.366L412.34,157.38H428.4Z" transform="translate(117.726 -17.092)" fill="#e0e0e0"/>
      <rect id="Rectangle_4848" data-name="Rectangle 4848" width="2.318" height="17.648" transform="translate(546.121 140.288)" fill="#e0e0e0"/>
      <path id="Path_38390" data-name="Path 38390" d="M301.685,175.028h-4.366L285.63,157.38h16.055Z" transform="translate(64.244 -17.092)" fill="#e0e0e0"/>
      <rect id="Rectangle_4849" data-name="Rectangle 4849" width="2.318" height="17.648" transform="translate(365.93 140.288)" fill="#e0e0e0"/>
      <path id="Path_38391" data-name="Path 38391" d="M211.071,117.922a20.52,20.52,0,0,0-.9-6.015l5.276-4.636-3.313-5.759-6.655,2.261a20.762,20.762,0,0,0-10.424-6.03l-1.422-6.883h-6.641l-1.422,6.883a20.72,20.72,0,0,0-10.41,6.03l-6.67-2.261-3.313,5.759,5.276,4.636a20.649,20.649,0,0,0,0,12.031l-5.276,4.636,3.313,5.759,6.67-2.261a20.72,20.72,0,0,0,10.41,6.03l1.422,6.883h6.641l1.422-6.883a20.762,20.762,0,0,0,10.424-6.03l6.655,2.261,3.313-5.759-5.276-4.636A20.521,20.521,0,0,0,211.071,117.922ZM190.365,129.1a10.765,10.765,0,1,1,10.765-10.765A10.765,10.765,0,0,1,190.365,129.1Z" transform="translate(13.405 -45.169)" fill="#f0f0f0"/>
      <path id="Path_38392" data-name="Path 38392" d="M231.447,115.185a13.14,13.14,0,0,0-2.56-3.072l1.422-4.423-3.84-2.09-2.972,3.555a13.524,13.524,0,0,0-7.907.2l-3.143-3.385-3.74,2.275,1.593,4.337a13.752,13.752,0,0,0-3.783,6.968l-4.508,1.024.114,4.366,4.565.8a13.7,13.7,0,0,0,4.124,6.755l-1.422,4.423,3.84,2.09,2.972-3.555a13.809,13.809,0,0,0,7.921-.2l3.143,3.385,3.726-2.275-1.593-4.352a13.709,13.709,0,0,0,3.783-6.954l4.508-1.024-.114-4.38-4.551-.782a13.111,13.111,0,0,0-1.578-3.683Zm-7.779,13.4a7.11,7.11,0,1,1,2.346-9.755,7.11,7.11,0,0,1-2.346,9.755Z" transform="translate(28.95 -38.947)" fill="#f0f0f0"/>
    </g>
    <g id="freepik--Desk--inject-14" transform="translate(49.498 363.61)">
      <g id="freepik--Group--inject-14">
        <rect id="Rectangle_4850" data-name="Rectangle 4850" width="579.668" height="7.295" fill="#4c2e88"/>
        <path id="Path_38393" data-name="Path 38393" d="M70.84,276.8V450.777h4.522L81.051,276.8Z" transform="translate(-36.312 -271.567)" fill="#4c2e88"/>
        <path id="Path_38394" data-name="Path 38394" d="M108.38,280.8V441.979H112.9L118.591,280.8Z" transform="translate(-20.467 -269.878)" fill="#4c2e88"/>
        <path id="Path_38395" data-name="Path 38395" d="M108.38,280.8V441.979H112.9L118.591,280.8Z" transform="translate(-20.467 -269.878)" opacity="0.5"/>
        <path id="Path_38396" data-name="Path 38396" d="M434.38,276.8V450.777h-4.508L424.17,276.8Z" transform="translate(112.822 -271.567)" fill="#4c2e88"/>
        <path id="Path_38397" data-name="Path 38397" d="M396.84,280.8V441.979h-4.522L386.63,280.8Z" transform="translate(96.977 -269.878)" fill="#4c2e88"/>
        <path id="Path_38398" data-name="Path 38398" d="M396.84,280.8V441.979h-4.522L386.63,280.8Z" transform="translate(96.977 -269.878)" opacity="0.5"/>
        <path id="Path_38399" data-name="Path 38399" d="M600.493,286.057H66.843l-11.8-7.807H612.3Z" transform="translate(-42.981 -270.955)" fill="#4c2e88"/>
        <path id="Path_38400" data-name="Path 38400" d="M600.493,286.057H66.843l-11.8-7.807H612.3Z" transform="translate(-42.981 -270.955)" opacity="0.5"/>
      </g>
    </g>
    <g id="freepik--Beverages--inject-14" transform="translate(84.253 335.424)">
      <path id="Path_38401" data-name="Path 38401" d="M73.35,258.762v5.688a3.57,3.57,0,0,0,1.038,2.517l4.508,4.508a3.584,3.584,0,0,0,1.422.867,11.576,11.576,0,0,0,10.495,6.7h1.692a11.561,11.561,0,0,0,11.633-11.633V254.14H79.28v1.081H76.905a3.555,3.555,0,0,0-3.555,3.541Zm2.844,0a.7.7,0,0,1,.711-.7H79.28v9.727l-2.844-2.844a.668.668,0,0,1-.213-.5Z" transform="translate(-70.008 -252.945)" fill="#4c2e88"/>
      <path id="Path_38402" data-name="Path 38402" d="M73.35,258.762v5.688a3.57,3.57,0,0,0,1.038,2.517l4.508,4.508a3.584,3.584,0,0,0,1.422.867,11.576,11.576,0,0,0,10.495,6.7h1.692a11.561,11.561,0,0,0,11.633-11.633V254.14H79.28v1.081H76.905a3.555,3.555,0,0,0-3.555,3.541Zm2.844,0a.7.7,0,0,1,.711-.7H79.28v9.727l-2.844-2.844a.668.668,0,0,1-.213-.5Z" transform="translate(-70.008 -252.945)" fill="#fff" opacity="0.5"/>
      <path id="Path_38403" data-name="Path 38403" d="M111.017,273.625H75.266A6.584,6.584,0,0,1,71,271.52h44.227A6.541,6.541,0,0,1,111.017,273.625Z" transform="translate(-71 -245.609)" fill="#4c2e88"/>
      <path id="Path_38404" data-name="Path 38404" d="M111.017,273.625H75.266A6.584,6.584,0,0,1,71,271.52h44.227A6.541,6.541,0,0,1,111.017,273.625Z" transform="translate(-71 -245.609)" fill="#fff" opacity="0.5"/>
      <path id="Path_38405" data-name="Path 38405" d="M446.654,263.909c-.185-5.688-4.48-7.025-10.083-7.665v-2.062a.91.91,0,0,0-.924-.882H416.279a.91.91,0,0,0-.939.882h0v26.892h21.246V278.13C442.189,277.5,446.484,269.569,446.654,263.909ZM436.572,274.66V259.728c4.124.6,6.968,1.166,6.357,5.29C442.445,268.317,439.857,274.2,436.572,274.66Z" transform="translate(74.339 -253.3)" fill="#4c2e88"/>
      <g id="Group_11948" data-name="Group 11948" transform="translate(489.679)" opacity="0.5">
        <path id="Path_38406" data-name="Path 38406" d="M446.654,263.909c-.185-5.688-4.48-7.025-10.083-7.665v-2.062a.91.91,0,0,0-.924-.882H416.279a.91.91,0,0,0-.939.882h0v26.892h21.246V278.13C442.189,277.5,446.484,269.569,446.654,263.909ZM436.572,274.66V259.728c4.124.6,6.968,1.166,6.357,5.29C442.445,268.317,439.857,274.2,436.572,274.66Z" transform="translate(-415.34 -253.3)" fill="#fff"/>
      </g>
    </g>
    <g id="freepik--Device--inject-14" transform="translate(263.393 248.307)">
      <rect id="Rectangle_4851" data-name="Rectangle 4851" width="16.766" height="34.059" transform="translate(67.023 80.618)" fill="#4c2e88"/>
      <rect id="Rectangle_4852" data-name="Rectangle 4852" width="16.766" height="34.059" transform="translate(67.023 80.618)" fill="#fff" opacity="0.5"/>
      <path id="Path_38407" data-name="Path 38407" d="M270.649,275.132H238.88l7.75-6.812H262.9Z" transform="translate(-179.281 -159.844)" fill="#4c2e88"/>
      <path id="Path_38408" data-name="Path 38408" d="M270.649,275.132H238.88l7.75-6.812H262.9Z" transform="translate(-179.281 -159.844)" fill="#fff" opacity="0.5"/>
      <path id="Path_38409" data-name="Path 38409" d="M333.9,265.36H254.49l14.349,11.064h79.395Z" transform="translate(-172.692 -161.093)" fill="#4c2e88"/>
      <path id="Path_38410" data-name="Path 38410" d="M333.9,265.36H254.49l14.349,11.064h79.395Z" transform="translate(-172.692 -161.093)" fill="#fff" opacity="0.4"/>
      <path id="Path_38411" data-name="Path 38411" d="M256.324,276.424,254.49,265.36l14.349,11.064Z" transform="translate(-172.692 -161.093)" fill="#4c2e88"/>
      <path id="Path_38412" data-name="Path 38412" d="M256.324,276.424,254.49,265.36l14.349,11.064Z" transform="translate(-172.692 -161.093)" opacity="0.5"/>
      <rect id="Rectangle_4853" data-name="Rectangle 4853" width="150.015" height="94.113" rx="1.93" fill="#4c2e88"/>
      <rect id="Rectangle_4854" data-name="Rectangle 4854" width="138.966" height="82.011" transform="translate(5.447 5.887)" opacity="0.5"/>
      <rect id="Rectangle_4855" data-name="Rectangle 4855" width="70.123" height="48.28" transform="translate(69.867 22.753)" opacity="0.4"/>
      <rect id="Rectangle_4856" data-name="Rectangle 4856" width="70.123" height="4.423" transform="translate(69.867 22.753)" fill="#4c2e88"/>
      <path id="Path_38413" data-name="Path 38413" d="M256.885,229.787l11.462,6.342A3.7,3.7,0,0,1,269.5,237a1.621,1.621,0,0,1,.284.967,1.806,1.806,0,0,1-.54,1.294,1.706,1.706,0,0,1-1.237.54,3.172,3.172,0,0,1-1.422-.526l-14.79-8.22a1.422,1.422,0,0,1,0-2.546l14.79-8.22a3.228,3.228,0,0,1,1.422-.5,1.692,1.692,0,0,1,1.251.526,1.749,1.749,0,0,1,.54,1.28,1.593,1.593,0,0,1-.284.967,3.7,3.7,0,0,1-1.152.867Z" transform="translate(-174.162 -180.327)" fill="#fff"/>
      <path id="Path_38414" data-name="Path 38414" d="M280.341,219.41l-11.377,24.446a3.769,3.769,0,0,1-.782,1.195,1.678,1.678,0,0,1-1.081.356,1.721,1.721,0,0,1-1.251-.512,1.607,1.607,0,0,1-.54-1.18,3.569,3.569,0,0,1,.427-1.422l11.377-24.431a3.9,3.9,0,0,1,.754-1.18,1.749,1.749,0,0,1,1.095-.37,1.692,1.692,0,0,1,1.237.512,1.593,1.593,0,0,1,.512,1.166A3.484,3.484,0,0,1,280.341,219.41Z" transform="translate(-168.125 -181.796)" fill="#fff"/>
      <path id="Path_38415" data-name="Path 38415" d="M289.739,229.787l-11.462-6.357a4.082,4.082,0,0,1-1.152-.867,1.593,1.593,0,0,1-.284-.967,1.821,1.821,0,0,1,1.806-1.806,3.3,3.3,0,0,1,1.422.5l14.79,8.22a1.422,1.422,0,0,1,0,2.546l-14.79,8.22a3.256,3.256,0,0,1-1.422.526,1.706,1.706,0,0,1-1.28-.555,1.792,1.792,0,0,1-.526-1.28,1.621,1.621,0,0,1,.284-.967,4.082,4.082,0,0,1,1.152-.867Z" transform="translate(-163.259 -180.327)" fill="#fff"/>
      <rect id="Rectangle_4857" data-name="Rectangle 4857" width="4.75" height="4.75" transform="translate(11.149 13.453)" fill="#fff"/>
      <rect id="Rectangle_4858" data-name="Rectangle 4858" width="4.75" height="4.75" transform="translate(11.149 25.754)" fill="#fff"/>
      <rect id="Rectangle_4859" data-name="Rectangle 4859" width="4.75" height="4.75" transform="translate(11.149 38.041)" fill="#fff"/>
      <rect id="Rectangle_4860" data-name="Rectangle 4860" width="4.75" height="4.75" transform="translate(11.149 50.327)" fill="#fff"/>
      <rect id="Rectangle_4861" data-name="Rectangle 4861" width="4.75" height="4.75" transform="translate(11.149 62.614)" fill="#fff"/>
      <rect id="Rectangle_4862" data-name="Rectangle 4862" width="4.75" height="4.75" transform="translate(11.149 74.901)" fill="#fff"/>
      <rect id="Rectangle_4863" data-name="Rectangle 4863" width="18.928" height="1.422" transform="translate(20.407 14.534)" fill="#fff"/>
      <rect id="Rectangle_4864" data-name="Rectangle 4864" width="6.741" height="1.422" transform="translate(24.815 26.849)" fill="#fff"/>
      <rect id="Rectangle_4865" data-name="Rectangle 4865" width="6.741" height="1.422" transform="translate(54.153 40.671)" fill="#fff"/>
      <rect id="Rectangle_4866" data-name="Rectangle 4866" width="6.741" height="1.422" transform="translate(24.815 51.636)" fill="#fff"/>
      <rect id="Rectangle_4867" data-name="Rectangle 4867" width="6.741" height="1.422" transform="translate(34.528 51.636)" fill="#fff"/>
      <rect id="Rectangle_4868" data-name="Rectangle 4868" width="17.221" height="1.422" transform="translate(34.528 40.671)" fill="#fff"/>
      <rect id="Rectangle_4869" data-name="Rectangle 4869" width="11.334" height="1.422" transform="translate(44.568 51.636)" fill="#fff"/>
      <rect id="Rectangle_4870" data-name="Rectangle 4870" width="6.741" height="1.422" transform="translate(44.525 77.987)" fill="#fff"/>
      <rect id="Rectangle_4871" data-name="Rectangle 4871" width="6.741" height="1.422" transform="translate(54.252 77.987)" fill="#fff"/>
      <rect id="Rectangle_4872" data-name="Rectangle 4872" width="3.769" height="1.422" transform="translate(64.278 77.987)" fill="#fff"/>
      <rect id="Rectangle_4873" data-name="Rectangle 4873" width="20.976" height="1.422" transform="translate(34.926 26.849)" fill="#fff"/>
      <rect id="Rectangle_4874" data-name="Rectangle 4874" width="6.741" height="1.422" transform="translate(34.528 64.477)" fill="#fff"/>
      <rect id="Rectangle_4875" data-name="Rectangle 4875" width="3.896" height="1.422" transform="translate(43.53 64.477)" fill="#fff"/>
      <rect id="Rectangle_4876" data-name="Rectangle 4876" width="11.007" height="1.422" transform="translate(50.399 64.477)" fill="#fff"/>
    </g>
    <g id="freepik--speech-code--inject-14" transform="translate(247.224 178.991)">
      <path id="Path_38416" data-name="Path 38416" d="M265.009,173.449c-.356,17.207-18.231,31.641-39.946,32.21a46.033,46.033,0,0,1-19.454-3.6c-2.19,5.4-6.8,10.04-20.009,12.116,13.78-10.651,6.243-19.667,3.1-27.588h0a25.028,25.028,0,0,1-2.375-11.064c.356-17.221,18.231-31.627,39.946-32.21S265.35,156.242,265.009,173.449Z" transform="translate(-185.6 -143.297)" fill="#4c2e88"/>
      <rect id="Rectangle_4877" data-name="Rectangle 4877" width="18.928" height="1.422" transform="translate(21.601 12.134)" fill="#fff"/>
      <rect id="Rectangle_4878" data-name="Rectangle 4878" width="6.741" height="1.422" transform="translate(26.01 24.464)" fill="#fff"/>
      <rect id="Rectangle_4879" data-name="Rectangle 4879" width="6.741" height="1.422" transform="translate(55.347 38.286)" fill="#fff"/>
      <rect id="Rectangle_4880" data-name="Rectangle 4880" width="6.741" height="1.422" transform="translate(26.01 49.251)" fill="#fff"/>
      <rect id="Rectangle_4881" data-name="Rectangle 4881" width="6.741" height="1.422" transform="translate(35.737 49.251)" fill="#fff"/>
      <rect id="Rectangle_4882" data-name="Rectangle 4882" width="17.221" height="1.422" transform="translate(35.737 38.286)" fill="#fff"/>
      <rect id="Rectangle_4883" data-name="Rectangle 4883" width="11.334" height="1.422" transform="translate(45.763 49.251)" fill="#fff"/>
      <rect id="Rectangle_4884" data-name="Rectangle 4884" width="20.976" height="1.422" transform="translate(36.135 24.464)" fill="#fff"/>
    </g>
    <g id="freepik--character-2--inject-14" transform="translate(332.133 211.13)">
      <path id="Path_38417" data-name="Path 38417" d="M302.247,402.213l-10.367-3.1L294.3,373.7l10.367,3.1Z" transform="translate(-225.651 -78.187)" fill="#7f3e3b"/>
      <path id="Path_38418" data-name="Path 38418" d="M304.948,372.756l-10.367-3.086L293.23,383.9l10.481,1.948Z" transform="translate(-225.081 -79.888)" opacity="0.2"/>
      <path id="Path_38419" data-name="Path 38419" d="M363.61,283.38s-71.289,6.015-69.54,36.974c1.422,25.341,5.191,18.487-2.19,93.857l17.932,1s18.245-61.633,15.785-86.121c20.094,0,66.1,1.763,72.782-16.368a80.716,80.716,0,0,0,4.764-28.726Z" transform="translate(-225.651 -116.31)" fill="#4c2e88"/>
      <path id="Path_38420" data-name="Path 38420" d="M313.446,382.747l-23.436-4.01.384-10.367,24.261,5.39Z" transform="translate(-226.44 -80.437)" fill="#263238"/>
      <path id="Path_38421" data-name="Path 38421" d="M297.223,388.578l11.974,2.375a.9.9,0,0,1,.683,1l-1,11.377a2.019,2.019,0,0,1-2.19,1.877c-4.152-.91-6.115-1.578-11.377-2.631-3.242-.64-10.651-2.19-15.159-2.7s-3.968-5.774-2.019-6.044c8.76-1.152,13.737-2.574,17.136-4.764A2.659,2.659,0,0,1,297.223,388.578Z" transform="translate(-232.061 -71.919)" fill="#263238"/>
      <path id="Path_38422" data-name="Path 38422" d="M287.99,390.868a13.57,13.57,0,0,0,2.844.085.213.213,0,0,0,.213-.156.3.3,0,0,0,0-.27c-.3-.3-2.986-2.844-4.366-2.56a.882.882,0,0,0-.7.6,1.422,1.422,0,0,0,.085,1.422,2.844,2.844,0,0,0,1.92.882Zm2.29-.384c-1.977,0-3.37-.228-3.783-.811a.867.867,0,0,1,0-.91.455.455,0,0,1,.327-.313c.668-.142,2.346,1,3.513,2.048Z" transform="translate(-228.203 -72.175)" fill="#4c2e88"/>
      <path id="Path_38423" data-name="Path 38423" d="M289.94,391.58h.114a.284.284,0,0,0,.171-.185c0-.128.782-3.157-.128-4.366a1.209,1.209,0,0,0-1-.526.953.953,0,0,0-1.024.6c-.441,1.123.782,3.612,1.735,4.423A.156.156,0,0,0,289.94,391.58Zm-.739-4.565a.839.839,0,0,1,.5.313,5.688,5.688,0,0,1,.128,3.5,5.048,5.048,0,0,1-1.28-3.541c0-.142.156-.3.526-.284Z" transform="translate(-227.295 -72.788)" fill="#4c2e88"/>
      <path id="Path_38424" data-name="Path 38424" d="M269.6,405.073l-9.869-4.437,6.826-24.346,9.869,4.437Z" transform="translate(-239.221 -77.094)" fill="#7f3e3b"/>
      <path id="Path_38425" data-name="Path 38425" d="M276.612,376.317l-9.869-4.437-3.513,12.557,9.869,4.437Z" transform="translate(-237.744 -78.956)" opacity="0.2"/>
      <path id="Path_38426" data-name="Path 38426" d="M354.979,283.38c-.469,0-79.921,8.177-80.02,35.125-.171,44.568-12.9,95.649-12.9,95.649l15.643,7.779s27.347-55.376,26.934-90.117c21.857-6.271,78.4,4.266,85.083-13.851,5.475-14.818,2.517-34.585,2.517-34.585Z" transform="translate(-238.238 -116.31)" fill="#4c2e88"/>
      <path id="Path_38427" data-name="Path 38427" d="M281.107,387.769,260.06,378.3l1.692-8.618,22.2,7.665Z" transform="translate(-239.082 -79.884)" fill="#263238"/>
      <path id="Path_38428" data-name="Path 38428" d="M266.8,387.675l12,2.489a1,1,0,0,1,.668,1.109l-.939,12.443c-.171,1.351-1.138,2.275-2.176,2.062h0c-4.152-.953-6.115-1.692-11.377-2.844-3.242-.654-12.073-2.844-16.525-3.968S245,392.14,247.031,392.1c8.8-.128,14.505-1.564,17.89-4.024A2.389,2.389,0,0,1,266.8,387.675Z" transform="translate(-245.308 -72.31)" fill="#263238"/>
      <path id="Path_38429" data-name="Path 38429" d="M257.906,390.2a14.063,14.063,0,0,0,2.346-1.621.285.285,0,0,0,.085-.27.242.242,0,0,0-.213-.171c-.412,0-4.081-.54-5.034.526a.967.967,0,0,0-.2.9,1.422,1.422,0,0,0,.91,1.1A2.972,2.972,0,0,0,257.906,390.2Zm1.607-1.664c-1.55,1.209-2.844,1.792-3.513,1.593a.953.953,0,0,1-.555-.754.427.427,0,0,1,.1-.427c.427-.512,2.361-.555,3.9-.412Z" transform="translate(-241.279 -72.15)" fill="#4c2e88"/>
      <path id="Path_38430" data-name="Path 38430" d="M259.847,389.546l.1-.071a.213.213,0,0,0,0-.242c-.071-.1-1.251-3.015-2.688-3.456a1.266,1.266,0,0,0-1.109.171.953.953,0,0,0-.469,1.1c.3,1.18,2.759,2.446,4.025,2.531Zm-3.313-3.242a.74.74,0,0,1,.6,0,5.689,5.689,0,0,1,2.19,2.745,5.063,5.063,0,0,1-3.143-2.091c-.085-.114,0-.341.256-.54Z" transform="translate(-240.945 -73.115)" fill="#4c2e88"/>
      <path id="Path_38431" data-name="Path 38431" d="M358,222.92c2.09,4.494,3.811,8.817,5.532,13.311s3.242,8.988,4.65,13.6,2.631,9.329,3.612,14.221a74.177,74.177,0,0,1,1.593,15.458,31.74,31.74,0,0,1-1.351,9,20.559,20.559,0,0,1-2.375,5.063,17.745,17.745,0,0,1-2.034,2.474l-.611.6c-.341.284-.711.6-1.067.839a11.813,11.813,0,0,1-1.906,1.052,16.78,16.78,0,0,1-3.072.981,21.946,21.946,0,0,1-2.517.37,36.778,36.778,0,0,1-4.337,0,62.577,62.577,0,0,1-7.651-.853,145.392,145.392,0,0,1-27.6-7.907l2.062-7.836c9.03,1.081,18.245,2.233,26.934,2.631,2.162,0,4.266.1,6.229,0a20.334,20.334,0,0,0,2.6-.327c.711-.128,1.323-.384,1.109-.37a1.307,1.307,0,0,0-.4.2,2.077,2.077,0,0,0-.4.3h0a2.22,2.22,0,0,0,.128-.242,6.985,6.985,0,0,0,.427-1.266,20.481,20.481,0,0,0,.384-4.75,64,64,0,0,0-1.806-12.074c-.967-4.266-2.218-8.419-3.584-12.642s-2.844-8.447-4.465-12.656-3.328-8.433-5.006-12.4Z" transform="translate(-214.263 -141.829)" fill="#7f3e3b"/>
      <path id="Path_38432" data-name="Path 38432" d="M327.274,268.444l-9.428-5.3L313.11,273.35s11.021,4.593,13.339,1.721Z" transform="translate(-216.69 -124.853)" fill="#7f3e3b"/>
      <path id="Path_38433" data-name="Path 38433" d="M312.349,265.1l-4.309,6.826,7.21,1.379,4.736-10.211Z" transform="translate(-218.83 -124.874)" fill="#7f3e3b"/>
      <path id="Path_38434" data-name="Path 38434" d="M355.844,230.477c-1.806,4.536-3.7,8.874-5.688,13.268s-3.982,8.717-6.086,13.04a251.046,251.046,0,0,1-14.221,25.6c-1.422,2.1-2.844,4.2-4.437,6.286-.8,1.052-1.678,2.09-2.617,3.157-.512.54-.924,1.038-1.522,1.593l-.853.825-.484.455a12.115,12.115,0,0,1-4.664,2.474,20.71,20.71,0,0,1-2.759.583,29.029,29.029,0,0,1-4.579.185,58.432,58.432,0,0,1-7.878-.782,144.81,144.81,0,0,1-28.186-7.992l2.076-7.85c9.2,1.109,18.6,2.29,27.446,2.659a61.3,61.3,0,0,0,6.257-.085,16.478,16.478,0,0,0,2.489-.4,3.841,3.841,0,0,0,.768-.284c.085,0,0-.1-.384.142a1.494,1.494,0,0,0-.384.284l.142-.171.4-.441c.256-.256.569-.683.867-1.024.583-.739,1.18-1.536,1.778-2.4,1.18-1.692,2.332-3.569,3.47-5.475,2.275-3.811,4.394-7.864,6.47-11.96s4.067-8.277,6.03-12.486c3.911-8.39,7.736-17.065,11.377-25.455Z" transform="translate(-234.097 -141.28)" fill="#7f3e3b"/>
      <path id="Path_38435" data-name="Path 38435" d="M280.378,267.418,270.935,262,266.2,272.211s11.021,4.608,13.353,1.735Z" transform="translate(-236.49 -125.334)" fill="#7f3e3b"/>
      <path id="Path_38436" data-name="Path 38436" d="M265.453,264.049l-4.323,6.812,7.21,1.379,4.736-10.211Z" transform="translate(-238.63 -125.321)" fill="#7f3e3b"/>
      <path id="Path_38437" data-name="Path 38437" d="M354.264,193.14l-6.03,6.982-9.2,9.514.7,1.721a17.165,17.165,0,0,1,1.223,5.518c.213,3.811-.156,7.039-6.172,9.628,0,0-6.314,8.248,8.7,5.959s17.278-10.083,17.278-10.083C354.136,217.642,353.737,201.9,354.264,193.14Z" transform="translate(-208.1 -154.398)" fill="#7f3e3b"/>
      <path id="Path_38438" data-name="Path 38438" d="M327.223,188.09c0,.939-.469,1.735-1.1,1.763s-1.123-.711-1.138-1.65.483-1.735,1.095-1.763S327.208,187.151,327.223,188.09Z" transform="translate(-211.676 -157.226)" fill="#263238"/>
      <path id="Path_38439" data-name="Path 38439" d="M330.087,186.2a.54.54,0,0,1-.455-.256,4.636,4.636,0,0,0-3.441-2.19.569.569,0,0,1-.54-.569.54.54,0,0,1,.569-.54h0a5.688,5.688,0,0,1,4.352,2.7.569.569,0,0,1-.171.768A.654.654,0,0,1,330.087,186.2Z" transform="translate(-211.398 -158.83)" fill="#263238"/>
      <path id="Path_38440" data-name="Path 38440" d="M327.291,188a30.461,30.461,0,0,1-3.271,7.281,4.551,4.551,0,0,0,3.868.284Z" transform="translate(-212.085 -156.568)" fill="#630f0f"/>
      <path id="Path_38441" data-name="Path 38441" d="M358.515,189.126c-.555,11.6-.3,18.487-6.058,24.63a15.117,15.117,0,0,1-25.91-6.7c-2.617-10.282-1.251-27.531,9.955-32.708a15.273,15.273,0,0,1,22.014,14.775Z" transform="translate(-211.498 -162.999)" fill="#7f3e3b"/>
      <path id="Path_38442" data-name="Path 38442" d="M362.072,189.448a42.974,42.974,0,0,1-7.537,13.51l-15.1,2.844s-11.931-4.991-8.746-13.211c-2.019-1.707-1.266-6.982.156-9.883a6.158,6.158,0,0,0,8.063-.213,5.518,5.518,0,0,0,8.746.725,5.83,5.83,0,0,0,9.187-1.422,5.219,5.219,0,0,0,6.086-.4l.213-.2A20.763,20.763,0,0,1,362.072,189.448Z" transform="translate(-209.793 -159.438)" fill="#263238"/>
      <path id="Path_38443" data-name="Path 38443" d="M362.072,189.448a42.974,42.974,0,0,1-7.537,13.51l-15.1,2.844s-11.931-4.991-8.746-13.211c-2.019-1.707-1.266-6.982.156-9.883a6.158,6.158,0,0,0,8.063-.213,5.518,5.518,0,0,0,8.746.725,5.83,5.83,0,0,0,9.187-1.422,5.219,5.219,0,0,0,6.086-.4l.213-.2A20.763,20.763,0,0,1,362.072,189.448Z" transform="translate(-209.793 -159.438)" fill="#fff" opacity="0.1"/>
      <path id="Path_38444" data-name="Path 38444" d="M368.276,181.829a5.247,5.247,0,0,1-1.109,5.759l-.213.2a5.219,5.219,0,0,1-6.087.4,5.831,5.831,0,0,1-9.187,1.422,5.518,5.518,0,0,1-8.746-.725,6.158,6.158,0,0,1-8.063.213,4.906,4.906,0,0,1-1.422-1.763,3.308,3.308,0,0,1-.2-.469,3.371,3.371,0,0,1-.4.384,4.394,4.394,0,0,1-5.063.3,4.266,4.266,0,0,1-1.82-3.825,3.941,3.941,0,0,1,.156-.91,2.461,2.461,0,0,1-.427.583,3.555,3.555,0,0,1-5.063-.128,4.394,4.394,0,0,1,1.422-6.2,5.233,5.233,0,0,1,2.673-.711,6.855,6.855,0,0,1,4.081,1.422,4.266,4.266,0,0,1,6.741-5.02,3.712,3.712,0,0,1,1.55-3.868c1.962-1.138,5.233-.156,6.826,1.749,0,0,2.19-5.29,5.973-4.693.825.114,4.707,1.834,4.608,3.228a.582.582,0,0,1,0,.27,2.263,2.263,0,0,1,.185-.313,4.266,4.266,0,0,1,3.641-1.721,12.216,12.216,0,0,1,4.38,1.166c2.944,1.209,6.072,2.56,7.779,5.247S371.333,180.975,368.276,181.829Z" transform="translate(-213.821 -165.897)" fill="#263238"/>
      <path id="Path_38445" data-name="Path 38445" d="M337.537,191.8a13.723,13.723,0,0,1-3.754,7.594c-2.574,2.46-4.764,0-4.792-3.74,0-3.385,1.266-8.746,4.266-9.741S338.106,188.063,337.537,191.8Z" transform="translate(-209.988 -157.526)" fill="#7f3e3b"/>
      <path id="Path_38446" data-name="Path 38446" d="M385.757,218.228c-1.067-2.844-6.044-5.688-9.1-5.688h-2.019a110.464,110.464,0,0,0-12.187.782,217.1,217.1,0,0,0-24.175,4.067c-3.669.967-7.21,2.19-10.026,3.242-3.584,1.422-5.688,2.375-5.688,2.375s3.925,26.138,5.959,52.1c1.123,14.463.654,28.811,1.024,38.681h60.666c2.09-11.86,1.763-22.2,1.934-43.615C392.228,257.279,390.137,229.932,385.757,218.228Z" transform="translate(-212.702 -146.21)" fill="#263238"/>
      <path id="Path_38447" data-name="Path 38447" d="M325.82,252.84c.455,5.447.924,11.163,1.422,16.88,7.11-10.381,11.035-38.78,11.035-38.78Z" transform="translate(-211.326 -138.444)" opacity="0.2"/>
      <path id="Path_38448" data-name="Path 38448" d="M325.247,222.078c-8.689,4.892-17.207,29.864-17.207,29.864l19.909,15c7.594-7.182,18.7-25,19.909-32.125C349.792,223.956,339.169,214.285,325.247,222.078Z" transform="translate(-218.83 -143.376)" fill="#263238"/>
      <path id="Path_38449" data-name="Path 38449" d="M311.732,402.276a6.186,6.186,0,1,1-6.186-6.186A6.186,6.186,0,0,1,311.732,402.276Z" transform="translate(-222.494 -68.737)" fill="#263238"/>
      <path id="Path_38450" data-name="Path 38450" d="M373,402.276a6.186,6.186,0,1,0,6.186-6.186A6.186,6.186,0,0,0,373,402.276Z" transform="translate(-191.412 -68.737)" fill="#263238"/>
      <path id="Path_38451" data-name="Path 38451" d="M336.27,400.836a6.186,6.186,0,1,0,6.186-6.186,6.186,6.186,0,0,0-6.186,6.186Z" transform="translate(-206.915 -69.345)" fill="#263238"/>
      <path id="Path_38452" data-name="Path 38452" d="M358.119,397.23V385.27H340.4a55.267,55.267,0,0,0-10.367.967l-32.992,6.4a3,3,0,0,0,.668,5.944Z" transform="translate(-224.497 -73.304)" fill="#263238"/>
      <path id="Path_38453" data-name="Path 38453" d="M339.27,397.23V385.27H357a55.053,55.053,0,0,1,10.324,1.038l37.088,5.916a3,3,0,0,1-.668,5.944Z" transform="translate(-205.649 -73.304)" fill="#263238"/>
      <rect id="Rectangle_4885" data-name="Rectangle 4885" width="21.943" height="54.764" transform="translate(122.643 257.216)" fill="#263238"/>
      <rect id="Rectangle_4886" data-name="Rectangle 4886" width="15.643" height="25.469" transform="translate(125.8 231.732)" fill="#263238"/>
      <path id="Path_38454" data-name="Path 38454" d="M333.77,336.33l15.643,3.939V328.85H333.77Z" transform="translate(-207.97 -97.118)" opacity="0.5"/>
      <rect id="Rectangle_4887" data-name="Rectangle 4887" width="7.949" height="33.917" transform="translate(75.103 174.11)" fill="#263238"/>
      <path id="Path_38455" data-name="Path 38455" d="M331.74,381.091V233.635a19.312,19.312,0,0,1,6.613-14.562l10.509-9.2a19.312,19.312,0,0,1,12.8-4.792h37.955l18.515,19.8V381.091Z" transform="translate(-208.827 -149.359)" fill="#4c2e88"/>
      <path id="Path_38456" data-name="Path 38456" d="M299.229,308.79h86.6v28.527H285.108a10.253,10.253,0,0,1-8.817-15.458h0a26.593,26.593,0,0,1,22.938-13.069Z" transform="translate(-232.83 -105.585)" fill="#4c2e88"/>
      <path id="Path_38457" data-name="Path 38457" d="M442.134,224.875V381.091H285.108a10.253,10.253,0,0,1-8.817-15.458,26.607,26.607,0,0,1,22.938-13.069h43.615A12.955,12.955,0,0,0,355.8,339.609V233.635a19.312,19.312,0,0,1,6.613-14.562l10.509-9.2a19.312,19.312,0,0,1,12.8-4.792h37.955Z" transform="translate(-232.83 -149.359)" fill="#fff" opacity="0.7"/>
      <path id="Path_38458" data-name="Path 38458" d="M340.62,381.091V233.635a19.369,19.369,0,0,1,6.613-14.562l10.509-9.2a19.312,19.312,0,0,1,12.8-4.792h29.594a19.326,19.326,0,0,1,14.107,6.1l7.565,8.035a19.4,19.4,0,0,1,5.248,13.268V366.315a14.761,14.761,0,0,1-14.79,14.775Z" transform="translate(-205.079 -149.359)" fill="#4c2e88"/>
      <path id="Path_38459" data-name="Path 38459" d="M340.62,381.091V233.635a19.369,19.369,0,0,1,6.613-14.562l10.509-9.2a19.312,19.312,0,0,1,12.8-4.792h29.594a19.326,19.326,0,0,1,14.107,6.1l7.565,8.035a19.4,19.4,0,0,1,5.248,13.268V366.315a14.761,14.761,0,0,1-14.79,14.775Z" transform="translate(-205.079 -149.359)" fill="#fff" opacity="0.5"/>
      <path id="Path_38460" data-name="Path 38460" d="M338.922,301.07a81.883,81.883,0,0,0-54.039,0,7.708,7.708,0,0,1-9.514-3.626h0c-1.621-3.427.555-7.864,4.963-9.414a95.664,95.664,0,0,1,63.112,0c4.408,1.536,6.584,5.987,4.963,9.414h0a7.708,7.708,0,0,1-9.485,3.626Z" transform="translate(-232.846 -116.607)" fill="#4c2e88"/>
      <path id="Path_38461" data-name="Path 38461" d="M338.922,301.07a81.883,81.883,0,0,0-54.039,0,7.708,7.708,0,0,1-9.514-3.626h0c-1.621-3.427.555-7.864,4.963-9.414a95.664,95.664,0,0,1,63.112,0c4.408,1.536,6.584,5.987,4.963,9.414h0a7.708,7.708,0,0,1-9.485,3.626Z" transform="translate(-232.846 -116.607)" fill="#fff" opacity="0.7"/>
    </g>
    <g id="freepik--character-1--inject-14" transform="translate(131.215 221.74)">
      <g id="freepik--group--inject-14-2" data-name="freepik--group--inject-14">
        <path id="Path_38462" data-name="Path 38462" d="M164.53,196.751c-.3.839-.085,1.678.469,1.863s1.237-.327,1.522-1.166.085-1.692-.455-1.877S164.829,195.9,164.53,196.751Z" transform="translate(-78.542 -163.998)" fill="#263238"/>
        <path id="Path_38463" data-name="Path 38463" d="M165.195,197a32.466,32.466,0,0,0,1.522,8.618,5.2,5.2,0,0,1-4.266-.654Z" transform="translate(-79.362 -163.379)" fill="#a02724"/>
        <path id="Path_38464" data-name="Path 38464" d="M163.609,192.744a.427.427,0,0,0,.327,0,4.266,4.266,0,0,1,3.74.569.526.526,0,0,0,.74-.114.54.54,0,0,0,0-.683,5.233,5.233,0,0,0-4.721-.782.54.54,0,0,0-.327.668.5.5,0,0,0,.327.327Z" transform="translate(-78.986 -165.707)" fill="#263238"/>
        <path id="Path_38465" data-name="Path 38465" d="M143.3,198.57c1.593,8.092,3.171,22.924-2.489,28.328,0,0,2.218,8.205,17.264,8.205,16.539,0,7.907-8.205,7.907-8.205-9.03-2.162-7.58-8.86-6-15.145Z" transform="translate(-88.496 -162.716)" fill="#b55b52"/>
        <path id="Path_38466" data-name="Path 38466" d="M146.2,191.543c-2.958,10.58-5.233,16.624-1.849,23.749,5.077,10.737,22.824,12.13,27.659-.156,3.683-11.377,7.324-23.279-1.422-30.916a15,15,0,0,0-24.431,7.324Z" transform="translate(-87.714 -170.365)" fill="#b55b52"/>
        <path id="Path_38467" data-name="Path 38467" d="M137.253,198.063c-.768-3.9-.967-8.163.981-11.633s6.655-5.589,10.083-3.569a16.638,16.638,0,1,1,23.592,21.4c.782-2.915,1.579-5.816,2.361-8.732a16.937,16.937,0,0,1-6.058,10.31l1.422-8.717a13.325,13.325,0,0,1-6.456,10.026l1.664-6.1a52.786,52.786,0,0,1-3.214,8.163c-1.422,1.635-2.332,12.329-7.224,12.671C137.594,225.224,139.045,207.164,137.253,198.063Z" transform="translate(-90.23 -173.358)" fill="#263238"/>
        <path id="Path_38468" data-name="Path 38468" d="M153.02,195.474a12.528,12.528,0,0,0,1.735,7.779c1.891,3.043,4.664,1.877,5.688-1.237.91-2.844,1.01-7.75-1.621-9.727S153.418,192.217,153.02,195.474Z" transform="translate(-83.371 -165.706)" fill="#b55b52"/>
        <path id="Path_38469" data-name="Path 38469" d="M133.584,277.041c-1.806-.6-10.267-4.949-11.618-4.167,3.911-9.955,6.342-11.5,8.12-17.847a9.727,9.727,0,0,0-1.891-9.244c-2.5-3.356-3.37-5.048-7.523-4.636-5.688,9.556-12.927,21.331-15.742,32.125-.953,3.626-1.635,6.385.526,9.457,1.906,2.7,5.418,3.783,8.717,4.081,7.921.711,19.682-.739,19.525-5.447C133.612,278.392,133.584,277.041,133.584,277.041Z" transform="translate(-104.023 -144.77)" fill="#b55b52"/>
        <path id="Path_38470" data-name="Path 38470" d="M124.5,266.766l6.712-2.176-.6,12.13s-5.375.185-8.248-3.413Z" transform="translate(-96.279 -134.85)" fill="#b55b52"/>
        <path id="Path_38471" data-name="Path 38471" d="M137.158,264.45l-.953,10.011-8.035,2.318.6-12.13Z" transform="translate(-93.831 -134.909)" fill="#b55b52"/>
        <path id="Path_38472" data-name="Path 38472" d="M198.018,289.57s-9.4-7.366-21.658-31.542c-1.82-3.385-3.555-6.812-5.233-10.253s-3.271-6.883-4.807-10.538l14.534-6.257c2.986,6.513,7.651,13.24,10.95,19.71s11.078,21.8,12.059,23.223c.483.739,1.01,1.351,1.507,2.034l.754,1-9.372,10.836Z" transform="translate(-77.729 -149.036)" fill="#b55b52"/>
        <path id="Path_38473" data-name="Path 38473" d="M198.5,243.989l-2.844-3.47-1.337-5.191,8.774-8.148a38.228,38.228,0,0,1,3.569,5.432,2.844,2.844,0,0,1,.313,1.422l-.355,9.144Z" transform="translate(-65.911 -150.64)" fill="#b55b52"/>
        <path id="Path_38474" data-name="Path 38474" d="M194.4,230.739l6.556-5.959,2.076,3.484-8.76,8.106Z" transform="translate(-65.932 -151.653)" fill="#b55b52"/>
        <path id="Path_38475" data-name="Path 38475" d="M201.623,237.736c.228-.981.427.939,1.081.171,1.934-2.332,4.75-2.574,6.428,0s.242,27.9-2.432,35.851c-1.778,5.276-2.73,9.485-7.281,12.7a11.092,11.092,0,0,1-6.4,2.3,6.072,6.072,0,0,1-5.546-3.441c-1.422-3.313,3.669-15.259,5.461-19.113C198.551,254.075,198.935,249.2,201.623,237.736Z" transform="translate(-68.905 -146.89)" fill="#b55b52"/>
        <path id="Path_38476" data-name="Path 38476" d="M184.131,245.764l11.618-.114a11.249,11.249,0,0,0,4.864-.768,8.831,8.831,0,0,0,3.968-4.963c1.65-4.266,1.792-8.845,2.432-13.311s2.005-9.158,5.39-12.159c-6.172.825-17.065-1.109-21.829,3.939C188.07,221.077,183.647,245.764,184.131,245.764Z" transform="translate(-70.227 -156.013)" fill="#4c2e88"/>
        <path id="Path_38477" data-name="Path 38477" d="M184.131,245.764l11.618-.114a11.249,11.249,0,0,0,4.864-.768,8.831,8.831,0,0,0,3.968-4.963c1.65-4.266,1.792-8.845,2.432-13.311s2.005-9.158,5.39-12.159c-6.172.825-17.065-1.109-21.829,3.939C188.07,221.077,183.647,245.764,184.131,245.764Z" transform="translate(-70.227 -156.013)" fill="#fff" opacity="0.5"/>
        <path id="Path_38478" data-name="Path 38478" d="M198.395,224.345h0c-.668.185-1.109,2.56-.967,3.242l.654,1.166,1.323,5.688L203.841,232l-4-7.11a1.308,1.308,0,0,0-1.451-.54Z" transform="translate(-64.61 -151.858)" fill="#b55b52"/>
        <path id="Path_38479" data-name="Path 38479" d="M135.27,220.016c-10.381,2.375-25.74,34.727-25.74,34.727l20.833,14.221a232.75,232.75,0,0,0,16.212-26.806C152.733,229.274,145.878,217.584,135.27,220.016Z" transform="translate(-101.699 -153.8)" fill="#4c2e88"/>
        <path id="Path_38480" data-name="Path 38480" d="M138.7,222.763c-1.195-2.6-2.489-5.575.2-6.5,2.972-1.024,19.241-2.076,24.844-.156a5.774,5.774,0,0,1,4.053,7.11v.1Z" transform="translate(-89.971 -155.765)" fill="#263238"/>
        <path id="Path_38481" data-name="Path 38481" d="M136.534,233.06l-14.8,27.873,3.484,2.389s6.712-9.343,11.377-17.42Z" transform="translate(-96.55 -148.158)" opacity="0.2"/>
        <path id="Path_38482" data-name="Path 38482" d="M191.07,234.858c2.247,11.377-3,38.4-2.944,82.481H128.94c-.384-8.9,6.1-30.006-1.962-72.043-.256-1.422-.37-24.389,1-24.63a157.606,157.606,0,0,1,17.321-2.048,218.563,218.563,0,0,1,25.171,0c3.427.356,8.817,2.474,12.23,3.7C188,224.192,189.99,229.269,191.07,234.858Z" transform="translate(-94.402 -154.407)" fill="#4c2e88"/>
        <path id="Path_38483" data-name="Path 38483" d="M161,237.88c1.536,9.343,7.665,21.687,13.766,28.939.242-5.3.782-10.85.768-15.1Z" transform="translate(-79.974 -146.124)" opacity="0.2"/>
        <path id="Path_38484" data-name="Path 38484" d="M158.021,230.714c-1.422,10.481,19.2,37.23,19.2,37.23l20.748-14.221s-5.759-14.747-15.444-24.417C171.531,218.243,159.685,219.338,158.021,230.714Z" transform="translate(-81.262 -153.008)" fill="#4c2e88"/>
        <path id="Path_38485" data-name="Path 38485" d="M205.72,398.74h11.064L219.3,373.1H208.237Z" transform="translate(-61.099 -89.05)" fill="#b55b52"/>
        <path id="Path_38486" data-name="Path 38486" d="M218.818,374.19l-1.28,13.211H206.46l1.294-13.211Z" transform="translate(-60.787 -88.59)" opacity="0.2"/>
        <path id="Path_38487" data-name="Path 38487" d="M175.03,398.74h11.064l5.56-25.64H180.59Z" transform="translate(-74.053 -89.05)" fill="#b55b52"/>
        <g id="Group_11949" data-name="Group 11949" transform="translate(103.423 285.415)" opacity="0.2">
          <path id="Path_38488" data-name="Path 38488" d="M179.623,374.06h11.064l-2.873,13.211H176.75Z" transform="translate(-176.75 -374.06)"/>
        </g>
        <path id="Path_38489" data-name="Path 38489" d="M218.476,387.63H206.4a1.081,1.081,0,0,0-.953,1l-2.19,12.656a2.162,2.162,0,0,0,1.195,2.5,1.281,1.281,0,0,0,.4,0c4.352-.085,10.651-.427,16.126-.427,6.414,0,11.945.441,19.454.441,4.551,0,5.816-5.944,3.911-6.47-8.66-2.446-15.728-2.7-23.208-8.689a4.266,4.266,0,0,0-2.659-1.01Z" transform="translate(-62.166 -82.918)" fill="#263238"/>
        <path id="Path_38490" data-name="Path 38490" d="M221.181,391.314c1.422,0,2.844-.2,3.257-.839a1.01,1.01,0,0,0,0-1.152,1.422,1.422,0,0,0-.825-.611c-1.849-.5-5.688,1.706-5.873,1.806a.242.242,0,0,0-.128.27.256.256,0,0,0,.2.213A17.9,17.9,0,0,0,221.181,391.314Zm1.763-2.147h.5a.768.768,0,0,1,.512.37c.185.327.128.483,0,.569-.512.725-3.313.739-5.375.441a12.444,12.444,0,0,1,4.366-1.394Z" transform="translate(-56.082 -82.492)" fill="#4c2e88"/>
        <path id="Path_38491" data-name="Path 38491" d="M217.838,391.787h.114c1.337-.6,3.982-2.986,3.768-4.266,0-.3-.256-.654-.967-.739a1.991,1.991,0,0,0-1.422.455c-1.422,1.152-1.706,4.138-1.721,4.266a.256.256,0,0,0,.1.242.227.227,0,0,0,.128.043Zm2.7-4.479h.156c.469,0,.5.242.512.3.128.754-1.678,2.631-3.043,3.441a6.158,6.158,0,0,1,1.422-3.4A1.564,1.564,0,0,1,220.54,387.308Z" transform="translate(-56.081 -83.278)" fill="#4c2e88"/>
        <path id="Path_38492" data-name="Path 38492" d="M188,387.63H175.566a1.067,1.067,0,0,0-.939,1l-2.19,12.656A2.19,2.19,0,0,0,173.7,403.8a1.522,1.522,0,0,0,.356,0c4.337-.085,6.456-.427,11.917-.427,3.37,0,7.679.441,12.329.441s5.247-5.944,3.342-6.47c-8.532-2.418-9.116-5.688-11.846-8.931A2.346,2.346,0,0,0,188,387.63Z" transform="translate(-75.172 -82.918)" fill="#263238"/>
        <path id="Path_38493" data-name="Path 38493" d="M188.846,392.288a3.513,3.513,0,0,0,2.659-.725,1.052,1.052,0,0,0,0-1.237,1.209,1.209,0,0,0-.825-.611c-1.621-.384-4.679,1.707-4.807,1.792a.3.3,0,0,0-.114.27.242.242,0,0,0,.2.2,13.2,13.2,0,0,0,2.887.313Zm1.422-2.1h.313a.711.711,0,0,1,.484.341c.242.441.1.612,0,.683-.469.612-2.73.626-4.394.356a8.7,8.7,0,0,1,3.569-1.422Z" transform="translate(-69.524 -82.058)" fill="#4c2e88"/>
        <path id="Path_38494" data-name="Path 38494" d="M186.114,392.775h0c1.152-.626,3.37-3.043,3.129-4.266a.853.853,0,0,0-.839-.7,1.508,1.508,0,0,0-1.109.341c-1.28,1.052-1.55,4.266-1.564,4.38a.27.27,0,0,0,.128.242Zm2.233-4.48h.114c.341,0,.37.2.384.27.142.725-1.28,2.56-2.418,3.427a6.471,6.471,0,0,1,1.308-3.47A.953.953,0,0,1,188.347,388.3Z" transform="translate(-69.537 -82.844)" fill="#4c2e88"/>
        <path id="Path_38495" data-name="Path 38495" d="M170.464,287.91s52.4,21.644,63.24,38.268c-6.442,42.293-18,90.473-18,90.473H195.99a388.958,388.958,0,0,1,5.105-62.23c2.844-51.693-90.188,1.792-72.114-66.511Z" transform="translate(-94.473 -125.007)" fill="#263238"/>
        <path id="Path_38496" data-name="Path 38496" d="M189.6,313.01a98.126,98.126,0,0,0-10.95,1.266l-11.476,1.763a172.556,172.556,0,0,0,18.7,13.68c3.968,2.517,8.291,4.935,12.969,4.949,5.262,0,19.539-6.741,17.179-13.752S195.569,312.754,189.6,313.01Z" transform="translate(-77.37 -114.427)" opacity="0.3"/>
        <path id="Path_38497" data-name="Path 38497" d="M185.7,287.91s48.436,6.257,75.143,21.459c8.22,4.679,7.11,19.71,6.854,29.608a233.658,233.658,0,0,1-15.074,77.674H236.16s.839-26.835.284-70.137c-.171-12.984-26.38-17.264-51.991-18.771a58.305,58.305,0,0,1-50.114-35.652l-1.749-4.181Z" transform="translate(-91.966 -125.007)" fill="#263238"/>
        <path id="Path_38498" data-name="Path 38498" d="M227.066,375.34c.085,0-1.067,7.779-1.067,7.779H203.246l-.626-6.94Z" transform="translate(-62.408 -88.105)" fill="#4c2e88"/>
        <path id="Path_38499" data-name="Path 38499" d="M197.984,375.34c.085,0-2.09,7.779-2.09,7.779H173.14l.412-6.94Z" transform="translate(-74.85 -88.105)" fill="#4c2e88"/>
        <path id="Path_38500" data-name="Path 38500" d="M153.335,315.78,137.024,435.96l-2.944-.412L146.665,314.87Z" transform="translate(-91.337 -113.628)" fill="#4c2e88"/>
        <path id="Path_38501" data-name="Path 38501" d="M152.752,318.548,137.024,434.419l-2.944-.412L146.125,318.52Z" transform="translate(-91.337 -112.088)" opacity="0.4"/>
        <path id="Path_38502" data-name="Path 38502" d="M215.375,321.662H122.94a10.552,10.552,0,0,1,10.552-10.552h71.332a10.552,10.552,0,0,1,10.552,10.552Z" transform="translate(-96.039 -115.215)" fill="#4c2e88"/>
        <path id="Path_38503" data-name="Path 38503" d="M215.375,321.662H122.94a10.552,10.552,0,0,1,10.552-10.552h71.332a10.552,10.552,0,0,1,10.552,10.552Z" transform="translate(-96.039 -115.215)" fill="#fff" opacity="0.7"/>
        <path id="Path_38504" data-name="Path 38504" d="M130.086,318.52,116.15,435.372h2.986L136.813,318.52Z" transform="translate(-98.905 -112.088)" fill="#4c2e88"/>
        <path id="Path_38505" data-name="Path 38505" d="M186.922,318.52l13.936,116.852h-2.986L180.21,318.52Z" transform="translate(-71.866 -112.088)" fill="#4c2e88"/>
        <path id="Path_38506" data-name="Path 38506" d="M186.922,318.52l13.936,116.852h-2.986L180.21,318.52Z" transform="translate(-71.866 -112.088)" opacity="0.4"/>
        <path id="Path_38507" data-name="Path 38507" d="M173.816,318.52l.27,116.852h-2.972L167.09,318.52Z" transform="translate(-77.404 -112.088)" fill="#4c2e88"/>
      </g>
    </g>
  </g>
</svg>
