<svg xmlns="http://www.w3.org/2000/svg" width="663.314" height="659.266" viewBox="0 0 663.314 659.266">
  <g id="Internet_Day-bro" data-name="Internet Day-bro" transform="translate(-17.524 -23.55)">
    <g id="freepik--background-simple--inject-2" transform="translate(27.212 56.611)">
      <path id="Path_37229" data-name="Path 37229" d="M571.985,600.762a171.787,171.787,0,0,0,55.435-58.6c82.863-144.126,64.148-356.851-95.432-448.035C458.229,51.989,352.055,25.315,272.352,68.6,207.7,103.714,168.063,169.8,135.286,229.951c-20.629,37.822-37.6,78.529-62.988,113.915-32.951,45.9-69.207,107.189-32.6,160.507C89.578,577,183.792,610.2,269.236,631.944c92.692,23.688,196.909,27.051,282.526-19.15Q562.156,607.242,571.985,600.762Z" transform="translate(-24.366 -46.511)" fill="#e0d1ff"/>
      <path id="Path_37230" data-name="Path 37230" d="M571.985,600.762a171.787,171.787,0,0,0,55.435-58.6c82.863-144.126,64.148-356.851-95.432-448.035C458.229,51.989,352.055,25.315,272.352,68.6,207.7,103.714,168.063,169.8,135.286,229.951c-20.629,37.822-37.6,78.529-62.988,113.915-32.951,45.9-69.207,107.189-32.6,160.507C89.578,577,183.792,610.2,269.236,631.944c92.692,23.688,196.909,27.051,282.526-19.15Q562.156,607.242,571.985,600.762Z" transform="translate(-24.366 -46.511)" fill="#fff" opacity="0.7"/>
    </g>
    <g id="freepik--wifi-icon--inject-2" transform="translate(326.439 113.609)">
      <path id="Path_37231" data-name="Path 37231" d="M386.563,85.888c60.886.942,111.8,24.065,151.853,70.309a14.076,14.076,0,0,1-1.3,20.3,13.888,13.888,0,0,1-19.817-1.856,174.251,174.251,0,0,0-51.217-41.287,169.7,169.7,0,0,0-189.617,20.643c-7.364,6.219-13.917,13.453-20.556,20.484-5.8,6.1-14.221,7.074-20.3,1.841s-6.451-13.975-.971-20.3Q284.956,97.674,361.31,87.092c3.987-.551,8-.971,12.032-1.16C377.735,85.729,382.156,85.888,386.563,85.888Z" transform="translate(-230.776 -85.829)" fill="#263238"/>
      <path id="Path_37232" data-name="Path 37232" d="M378.031,124.85c38.518,1,74.745,17.4,103.231,50.391,5.625,6.495,4.972,14.874-1.276,20.3-5.929,5.1-14.5,4.422-20.02-1.928-14.874-17.222-32.893-29.849-54.87-35.778-44.78-12.09-83.5-1.073-115.974,32.081-1.2,1.232-2.32,2.551-3.465,3.842a14.079,14.079,0,0,1-21.281-18.44,141.3,141.3,0,0,1,45.418-35.6C329.786,129.75,350.908,124.951,378.031,124.85Z" transform="translate(-217.213 -68.282)" fill="#263238"/>
      <path id="Path_37233" data-name="Path 37233" d="M427.952,203.582a14.091,14.091,0,0,1-9,13.177,13.9,13.9,0,0,1-15.7-3.943,59.684,59.684,0,0,0-21.513-15.946c-23.195-9.8-48.636-3.711-65.844,15.714-4.074,4.61-9.162,6.277-15.048,4.494a14.076,14.076,0,0,1-6.538-22.687c29.457-35.517,83.646-40.591,119.09-10.931a85.539,85.539,0,0,1,11.148,11.177c1.957,2.377,2.8,5.668,4.146,8.553Z" transform="translate(-203.755 -50.625)" fill="#263238"/>
      <path id="Path_37234" data-name="Path 37234" d="M347,259.926a28.283,28.283,0,1,1,28.2-28.095A28.283,28.283,0,0,1,347,259.926Z" transform="translate(-191.271 -32.979)" fill="#263238"/>
    </g>
    <g id="freepik--globe-icon--inject-2" transform="translate(241.16 25.398)">
      <circle id="Ellipse_364" data-name="Ellipse 364" cx="33.705" cy="33.705" r="33.705" transform="translate(0 426.747) rotate(-45)" fill="none" stroke="#263238" stroke-linecap="round" stroke-linejoin="round" stroke-width="2"/>
      <ellipse id="Ellipse_365" data-name="Ellipse 365" cx="16.671" cy="33.705" rx="16.671" ry="33.705" transform="translate(30.995 393.049)" fill="none" stroke="#263238" stroke-linecap="round" stroke-linejoin="round" stroke-width="2"/>
      <path id="Path_37235" data-name="Path 37235" d="M188.83,303a33.7,33.7,0,0,0,46.708-.3" transform="translate(-164.359 99.902)" fill="none" stroke="#263238" stroke-linecap="round" stroke-linejoin="round" stroke-width="2"/>
      <path id="Path_37236" data-name="Path 37236" d="M235.441,338.77a33.69,33.69,0,0,0-46.911.319" transform="translate(-164.494 111.918)" fill="none" stroke="#263238" stroke-linecap="round" stroke-linejoin="round" stroke-width="2"/>
      <line id="Line_18" data-name="Line 18" x2="67.41" transform="translate(13.961 426.754)" fill="none" stroke="#263238" stroke-linecap="round" stroke-linejoin="round" stroke-width="2"/>
      <line id="Line_19" data-name="Line 19" y2="67.41" transform="translate(47.666 393.049)" fill="none" stroke="#263238" stroke-linecap="round" stroke-linejoin="round" stroke-width="2"/>
      <line id="Line_20" data-name="Line 20" y1="3.624" transform="translate(47.826 378.77)" fill="none" stroke="#263238" stroke-linecap="round" stroke-linejoin="round" stroke-width="1"/>
      <line id="Line_21" data-name="Line 21" y1="364.114" transform="translate(47.826 7.292)" fill="none" stroke="#263238" stroke-linecap="round" stroke-linejoin="round" stroke-width="1" stroke-dasharray="5.074 5.074"/>
      <line id="Line_22" data-name="Line 22" y1="3.624" transform="translate(47.826)" fill="none" stroke="#263238" stroke-linecap="round" stroke-linejoin="round" stroke-width="1"/>
    </g>
    <g id="freepik--ubication-icon--inject-2" transform="translate(213.689 25.398)">
      <path id="Path_37237" data-name="Path 37237" d="M173.919,153.23A20.948,20.948,0,0,0,153,174.178c0,11.6,20.948,35.212,20.948,35.212s20.933-23.644,20.933-35.212a20.933,20.933,0,0,0-20.962-20.948Zm0,30.443a9.517,9.517,0,1,1,0,.015Z" transform="translate(-153 32.69)" fill="#263238" stroke="#263238" stroke-linecap="round" stroke-linejoin="round" stroke-width="1"/>
      <line id="Line_23" data-name="Line 23" y1="3.624" transform="translate(20.919 182.296)" fill="none" stroke="#263238" stroke-linecap="round" stroke-linejoin="round" stroke-width="1"/>
      <line id="Line_24" data-name="Line 24" y1="167.959" transform="translate(20.919 7.19)" fill="none" stroke="#263238" stroke-linecap="round" stroke-linejoin="round" stroke-width="1" stroke-dasharray="4.93 4.93"/>
      <line id="Line_25" data-name="Line 25" y1="3.624" transform="translate(20.919)" fill="none" stroke="#263238" stroke-linecap="round" stroke-linejoin="round" stroke-width="1"/>
    </g>
    <g id="freepik--chat-icon--inject-2" transform="translate(131.348 26.688)">
      <path id="Path_37238" data-name="Path 37238" d="M149.939,271.76h-41.5A12.235,12.235,0,0,0,96.2,284v18.846a12.235,12.235,0,0,0,12.235,12.235h0l.42,18.991L121.9,315.076h28.066A12.235,12.235,0,0,0,162.2,302.841V284a12.235,12.235,0,0,0-12.264-12.235Z" transform="translate(-96.2 84.699)" fill="#fff" stroke="#263238" stroke-linecap="round" stroke-linejoin="round" stroke-width="1"/>
      <path id="Path_37239" data-name="Path 37239" d="M125.591,278.79H159.7a10.148,10.148,0,0,1,10.075,10.061v15.54A10.148,10.148,0,0,1,159.7,314.452h0l-.333,15.6-10.7-15.6H125.591a10.061,10.061,0,0,1-10.061-10.061v-15.54A10.061,10.061,0,0,1,125.591,278.79Z" transform="translate(-87.508 87.861)" fill="#263238" stroke="#263238" stroke-linecap="round" stroke-linejoin="round" stroke-width="1"/>
      <path id="Path_37240" data-name="Path 37240" d="M131.829,292.245a3.755,3.755,0,1,0-3.74,3.755A3.755,3.755,0,0,0,131.829,292.245Z" transform="translate(-83.555 92.222)" fill="#e0d1ff"/>
      <circle id="Ellipse_366" data-name="Ellipse 366" cx="3.755" cy="3.755" r="3.755" transform="translate(52.391 380.712)" fill="#e0d1ff"/>
      <circle id="Ellipse_367" data-name="Ellipse 367" cx="3.755" cy="3.755" r="3.755" transform="translate(64.003 380.712)" fill="#e0d1ff"/>
      <line id="Line_26" data-name="Line 26" y1="3.624" transform="translate(45.389 339.571)" fill="none" stroke="#263238" stroke-linecap="round" stroke-linejoin="round" stroke-width="1"/>
      <line id="Line_27" data-name="Line 27" y1="325.219" transform="translate(45.389 7.205)" fill="none" stroke="#263238" stroke-linecap="round" stroke-linejoin="round" stroke-width="1" stroke-dasharray="4.931 4.931"/>
      <line id="Line_28" data-name="Line 28" y1="3.624" transform="translate(45.389)" fill="none" stroke="#263238" stroke-linecap="round" stroke-linejoin="round" stroke-width="1"/>
    </g>
    <g id="freepik--email-icon--inject-2" transform="translate(87.96 192.951)">
      <rect id="Rectangle_4636" data-name="Rectangle 4636" width="73.295" height="42.838" transform="translate(0 70.439)" fill="#fff" stroke="#263238" stroke-linecap="round" stroke-linejoin="round" stroke-width="1"/>
      <path id="Path_37241" data-name="Path 37241" d="M66.27,229.033l36.082-33.313,37.228,33.313Z" transform="translate(-66.27 -115.756)" fill="#fff" stroke="#263238" stroke-linecap="round" stroke-linejoin="round" stroke-width="1"/>
      <path id="Path_37242" data-name="Path 37242" d="M66.27,189.15l36.662,21.426L139.58,189.15Z" transform="translate(-66.27 -118.711)" fill="#fff" stroke="#263238" stroke-linecap="round" stroke-linejoin="round" stroke-width="1"/>
      <line id="Line_29" data-name="Line 29" y1="3.624" transform="translate(36.01 64.858)" fill="none" stroke="#263238" stroke-linecap="round" stroke-linejoin="round" stroke-width="1"/>
      <line id="Line_30" data-name="Line 30" y1="51.043" transform="translate(36.01 7.016)" fill="none" stroke="#263238" stroke-linecap="round" stroke-linejoin="round" stroke-width="1" stroke-dasharray="4.694 4.694"/>
      <line id="Line_31" data-name="Line 31" y1="3.624" transform="translate(36.01)" fill="none" stroke="#263238" stroke-linecap="round" stroke-linejoin="round" stroke-width="1"/>
    </g>
    <g id="freepik--cloud-icon--inject-2" transform="translate(43.302 24.05)">
      <path id="Path_37243" data-name="Path 37243" d="M135.731,104.7a39.706,39.706,0,0,0-73.817,7.161c-.638,0-1.276-.1-1.914-.1a24.036,24.036,0,0,0-3.218,47.912v.29h74.151a27.761,27.761,0,0,0,4.8-55.2Z" transform="translate(-35.465 2.326)" fill="#fff" stroke="#263238" stroke-linecap="round" stroke-linejoin="round" stroke-width="1"/>
      <line id="Line_32" data-name="Line 32" y1="3.624" transform="translate(64.677 81.413)" fill="none" stroke="#263238" stroke-linecap="round" stroke-linejoin="round" stroke-width="1"/>
      <line id="Line_33" data-name="Line 33" y1="67.178" transform="translate(64.677 7.161)" fill="none" stroke="#263238" stroke-linecap="round" stroke-linejoin="round" stroke-width="1" stroke-dasharray="4.878 4.878"/>
      <line id="Line_34" data-name="Line 34" y1="3.624" transform="translate(64.677)" fill="none" stroke="#263238" stroke-linecap="round" stroke-linejoin="round" stroke-width="1"/>
    </g>
    <g id="freepik--share-icon--inject-2" transform="translate(23.275 25.036)">
      <path id="Path_37244" data-name="Path 37244" d="M59.24,268.093a7.611,7.611,0,0,0-4.6,1.566l-18.251-13.7a7.321,7.321,0,0,0,.507-2.711,7.625,7.625,0,1,0-3.015,6l18.251,13.685a7.77,7.77,0,0,0-.507,2.725,7.64,7.64,0,0,0,.507,2.711L33.885,292.056A7.611,7.611,0,1,0,36.9,298.13a7.466,7.466,0,0,0-.507-2.725L54.645,281.72a7.611,7.611,0,1,0,4.6-13.685Z" transform="translate(-21.65 74.566)" fill="#263238"/>
      <line id="Line_35" data-name="Line 35" y1="3.624" transform="translate(26.37 89.227)" fill="none" stroke="#263238" stroke-linecap="round" stroke-linejoin="round" stroke-width="1"/>
      <line id="Line_36" data-name="Line 36" y1="73.933" transform="translate(26.37 7.509)" fill="none" stroke="#263238" stroke-linecap="round" stroke-linejoin="round" stroke-width="1" stroke-dasharray="5.368 5.368"/>
      <line id="Line_37" data-name="Line 37" y1="3.624" transform="translate(26.37)" fill="none" stroke="#263238" stroke-linecap="round" stroke-linejoin="round" stroke-width="1"/>
      <line id="Line_38" data-name="Line 38" y1="3.624" transform="translate(26.37 322.914)" fill="none" stroke="#263238" stroke-linecap="round" stroke-linejoin="round" stroke-width="1"/>
      <line id="Line_39" data-name="Line 39" y1="141.821" transform="translate(26.37 173.83)" fill="none" stroke="#263238" stroke-linecap="round" stroke-linejoin="round" stroke-width="1" stroke-dasharray="5.017 5.017"/>
      <line id="Line_40" data-name="Line 40" y1="3.624" transform="translate(26.37 166.567)" fill="none" stroke="#263238" stroke-linecap="round" stroke-linejoin="round" stroke-width="1"/>
    </g>
    <g id="freepik--Plant--inject-2" transform="translate(18.036 456.848)">
      <ellipse id="Ellipse_368" data-name="Ellipse 368" cx="18.382" cy="48.216" rx="18.382" ry="48.216" transform="translate(90.857 23.297)" fill="#e0d1ff" stroke="#263238" stroke-width="1"/>
      <ellipse id="Ellipse_369" data-name="Ellipse 369" cx="34.357" cy="14.961" rx="34.357" ry="14.961" transform="translate(127.43 65.487) rotate(-72.37)" fill="#e0d1ff" stroke="#263238" stroke-width="1"/>
      <path id="Path_37245" data-name="Path 37245" d="M49.514,436.134C30.8,432.96,16.752,423.783,18.129,415.65S35.8,403.473,54.5,406.633s32.763,12.351,31.385,20.484S68.215,439.295,49.514,436.134Z" transform="translate(-18.036 -285.296)" fill="#e0d1ff" stroke="#263238" stroke-width="1"/>
      <path id="Path_37246" data-name="Path 37246" d="M158.4,409.552c-15.627,15.5-34.1,22.223-41.243,15s-.275-25.616,15.352-41.113,34.1-22.223,41.243-15S174.027,394.055,158.4,409.552Z" transform="translate(25.265 -303.291)" fill="#e0d1ff" stroke="#263238" stroke-width="1"/>
      <path id="Path_37247" data-name="Path 37247" d="M85.858,375.74c15.12,21.934,19.658,45.041,10.061,51.623s-29.544-5.842-44.664-27.8-19.672-44.94-10.061-51.594S70.724,353.821,85.858,375.74Z" transform="translate(-9.889 -311.998)" fill="#e0d1ff" stroke="#263238" stroke-width="1"/>
      <line id="Line_41" data-name="Line 41" x2="1.421" y2="66.293" transform="translate(110.529 117.322)" fill="none" stroke="#263238" stroke-linecap="round" stroke-width="1"/>
      <line id="Line_42" data-name="Line 42" x2="1.711" y2="63.742" transform="translate(108.818 53.58)" fill="none" stroke="#263238" stroke-linecap="round" stroke-width="1"/>
      <line id="Line_43" data-name="Line 43" x1="0.116" y2="4.885" transform="translate(108.818 43.186)" fill="none" stroke="#263238" stroke-linecap="round" stroke-width="1"/>
      <path id="Path_37248" data-name="Path 37248" d="M77.33,400a185.051,185.051,0,0,1,18.164,69.584" transform="translate(8.627 -287.795)" fill="none" stroke="#263238" stroke-linecap="round" stroke-width="1"/>
      <path id="Path_37249" data-name="Path 37249" d="M55.55,366.7a218.319,218.319,0,0,1,31.574,48.274" transform="translate(-1.167 -302.769)" fill="none" stroke="#263238" stroke-linecap="round" stroke-width="1"/>
      <path id="Path_37250" data-name="Path 37250" d="M48.7,359.45s1.9,1.754,5.03,5.074" transform="translate(-4.247 -306.029)" fill="none" stroke="#263238" stroke-linecap="round" stroke-width="1"/>
      <path id="Path_37251" data-name="Path 37251" d="M126.315,404.72A217.583,217.583,0,0,0,96.51,463.852" transform="translate(17.252 -285.672)" fill="none" stroke="#263238" stroke-linecap="round" stroke-width="1"/>
      <path id="Path_37252" data-name="Path 37252" d="M138.206,388a173.682,173.682,0,0,0-21.136,24.3" transform="translate(26.497 -293.191)" fill="none" stroke="#263238" stroke-linecap="round" stroke-width="1"/>
      <path id="Path_37253" data-name="Path 37253" d="M152.226,376.08a96.6,96.6,0,0,0-16.106,11.481" transform="translate(35.063 -298.551)" fill="none" stroke="#263238" stroke-linecap="round" stroke-width="1"/>
      <path id="Path_37254" data-name="Path 37254" d="M125.906,367.79c-10.148,32.052-23.847,79.4-30.226,120.511" transform="translate(16.879 -302.279)" fill="none" stroke="#263238" stroke-linecap="round" stroke-width="1"/>
      <path id="Path_37255" data-name="Path 37255" d="M122.735,354.68c-1.812,5.407-3.914,11.815-6.2,19.005" transform="translate(26.254 -308.174)" fill="none" stroke="#263238" stroke-linecap="round" stroke-width="1"/>
      <path id="Path_37256" data-name="Path 37256" d="M126.643,342s-1.783,4.914-4.653,13.323" transform="translate(28.709 -313.876)" fill="none" stroke="#263238" stroke-linecap="round" stroke-width="1"/>
      <path id="Path_37257" data-name="Path 37257" d="M64.19,417.37C76.918,422.2,89.327,431.5,95.372,449.132" transform="translate(2.718 -279.984)" fill="none" stroke="#263238" stroke-linecap="round" stroke-width="1"/>
      <path id="Path_37258" data-name="Path 37258" d="M48,414.07a80.459,80.459,0,0,1,23.5,4.784" transform="translate(-4.562 -281.468)" fill="none" stroke="#263238" stroke-linecap="round" stroke-width="1"/>
      <path id="Path_37259" data-name="Path 37259" d="M37.47,414.474s2.261-.319,6-.464" transform="translate(-9.297 -281.495)" fill="none" stroke="#263238" stroke-linecap="round" stroke-width="1"/>
      <path id="Path_37260" data-name="Path 37260" d="M161.511,436.134c18.715-3.175,32.763-12.351,31.385-20.484s-17.671-12.177-36.387-9.017-32.748,12.351-31.371,20.484S142.8,439.295,161.511,436.134Z" transform="translate(30.083 -285.296)" fill="#e0d1ff" stroke="#263238" stroke-width="1"/>
      <path id="Path_37261" data-name="Path 37261" d="M135.8,417.27c-12.873,4.769-25.485,14.091-31.588,31.893" transform="translate(20.714 -280.029)" fill="none" stroke="#263238" stroke-linecap="round" stroke-width="1"/>
      <path id="Path_37262" data-name="Path 37262" d="M151.123,414A81.182,81.182,0,0,0,126,418.74" transform="translate(30.513 -281.5)" fill="none" stroke="#263238" stroke-linecap="round" stroke-width="1"/>
      <path id="Path_37263" data-name="Path 37263" d="M153.725,414.442s-1.45-.2-4.045-.362" transform="translate(41.161 -281.464)" fill="none" stroke="#263238" stroke-linecap="round" stroke-width="1"/>
      <path id="Path_37264" data-name="Path 37264" d="M155.681,497.107a89.139,89.139,0,0,0,8.7-37.952A78.47,78.47,0,0,0,160.9,435.96H62.989a78.007,78.007,0,0,0-3.479,23.195,89.343,89.343,0,0,0,8.7,37.952Z" transform="translate(0.614 -271.625)" fill="#263238"/>
      <path id="Path_37265" data-name="Path 37265" d="M60.372,443.44c-.275,1.783-.493,3.581-.652,5.422H163.966c-.159-1.841-.377-3.639-.652-5.422Z" transform="translate(0.708 -268.261)" fill="#7a7a7a"/>
      <path id="Path_37266" data-name="Path 37266" d="M162.774,464.242c.319-1.8.609-3.61.826-5.422H59.92c.217,1.812.493,3.624.826,5.422Z" transform="translate(0.798 -261.345)" fill="#7a7a7a"/>
      <path id="Path_37267" data-name="Path 37267" d="M70.857,453.479a4.219,4.219,0,1,1-4.219-4.219,4.219,4.219,0,0,1,4.219,4.219Z" transform="translate(1.923 -265.644)" fill="#8c8c8c"/>
      <path id="Path_37268" data-name="Path 37268" d="M85.407,453.479a4.219,4.219,0,1,1-4.219-4.219,4.219,4.219,0,0,1,4.219,4.219Z" transform="translate(8.465 -265.644)" fill="#8c8c8c"/>
      <path id="Path_37269" data-name="Path 37269" d="M99.957,453.479a4.219,4.219,0,1,1-4.219-4.219A4.219,4.219,0,0,1,99.957,453.479Z" transform="translate(15.008 -265.644)" fill="#8c8c8c"/>
      <circle id="Ellipse_370" data-name="Ellipse 370" cx="4.219" cy="4.219" r="4.219" transform="translate(127.621 183.616)" fill="#8c8c8c"/>
      <path id="Path_37270" data-name="Path 37270" d="M129.057,453.479a4.219,4.219,0,1,1-4.219-4.219,4.219,4.219,0,0,1,4.219,4.219Z" transform="translate(28.093 -265.644)" fill="#8c8c8c"/>
    </g>
    <g id="freepik--Device--inject-2" transform="translate(211.428 351.682)">
      <path id="Path_37271" data-name="Path 37271" d="M454.285,250.092h0a5.6,5.6,0,0,0-6.19,4.856L420,472.022l18.295,2.059,20.948-217.871a5.625,5.625,0,0,0-4.958-6.118Z" transform="translate(-30.677 -250.054)" fill="#263238" stroke="#263238" stroke-linecap="round" stroke-linejoin="round" stroke-width="1"/>
      <path id="Path_37272" data-name="Path 37272" d="M250.316,250.092h0a5.6,5.6,0,0,1,6.19,4.856l28.124,217.074-18.295,2.059L245.358,256.209a5.625,5.625,0,0,1,4.958-6.118Z" transform="translate(-109.219 -250.054)" fill="#263238" stroke="#263238" stroke-linecap="round" stroke-linejoin="round" stroke-width="1"/>
      <rect id="Rectangle_4637" data-name="Rectangle 4637" width="299.284" height="113.045" rx="4.59" transform="translate(163.291 217.589)" fill="#fff" stroke="#263238" stroke-linecap="round" stroke-linejoin="round" stroke-width="1"/>
      <rect id="Rectangle_4638" data-name="Rectangle 4638" width="311.954" height="85.183" rx="4.17" transform="translate(156.956 231.535)" fill="#fff" stroke="#263238" stroke-linecap="round" stroke-linejoin="round" stroke-width="1"/>
      <rect id="Rectangle_4639" data-name="Rectangle 4639" width="299.284" height="113.045" rx="4.59" transform="translate(6.335 217.589)" fill="#fff" stroke="#263238" stroke-linecap="round" stroke-linejoin="round" stroke-width="1"/>
      <rect id="Rectangle_4640" data-name="Rectangle 4640" width="311.954" height="85.183" rx="4.17" transform="translate(0 231.535)" fill="#fff" stroke="#263238" stroke-linecap="round" stroke-linejoin="round" stroke-width="1"/>
      <rect id="Rectangle_4641" data-name="Rectangle 4641" width="262.158" height="45.781" rx="5.01" transform="translate(26.239 250.207)" fill="#263238" stroke="#263238" stroke-linecap="round" stroke-linejoin="round" stroke-width="1"/>
      <path id="Path_37273" data-name="Path 37273" d="M181.961,430.3a12.163,12.163,0,1,0,9.249.087" transform="translate(-141.153 -169.003)" fill="none" stroke="#e0d1ff" stroke-linecap="round" stroke-width="3"/>
      <line id="Line_44" data-name="Line 44" y2="9.002" transform="translate(45.447 256.585)" fill="none" stroke="#e0d1ff" stroke-linecap="round" stroke-width="3"/>
    </g>
    <g id="freepik--Character--inject-2" transform="translate(373.951 380.022)">
      <path id="Path_37274" data-name="Path 37274" d="M288.368,447.23s-11.844,3.726-14.352,4.2-10.148-1.45-10.452,1.45,4.436,5.7,11.873,8.7,15.6,5.451,21.136,5.2,4.479-11.163,4.784-13.047S288.368,447.23,288.368,447.23Z" transform="translate(-263.55 -189.731)" fill="#fff" stroke="#263238" stroke-linecap="round" stroke-linejoin="round" stroke-width="1"/>
      <path id="Path_37275" data-name="Path 37275" d="M279.32,457.4c-9.263-3.827-13.583-5.8-15.468-6.741a1.289,1.289,0,0,0-.29.739c-.232,3.03,4.436,5.7,11.873,8.7s15.6,5.451,21.136,5.2c2.073-.1,3.218-1.682,3.856-3.726A53.449,53.449,0,0,1,279.32,457.4Z" transform="translate(-263.549 -188.189)" fill="#fff" stroke="#263238" stroke-linecap="round" stroke-linejoin="round" stroke-width="1"/>
      <path id="Path_37276" data-name="Path 37276" d="M352.669,371.247l-3.1,1.7v4.508s-64.7,10.786-65.54,16.425-3.407,89.532-3.407,89.532,10.438,11.235,12.685,8.7,2.827-10.67,2.827-10.67l10.728-74.31s72.875,6.7,83.878,3.305,16.352-18.034,16.628-24.8.29-9.872.29-9.872L358,369Z" transform="translate(-255.875 -224.909)" fill="#e0d1ff" stroke="#263238" stroke-linecap="round" stroke-linejoin="round" stroke-width="1"/>
      <path id="Path_37277" data-name="Path 37277" d="M321.623,449.581l-.464.768a73.122,73.122,0,0,1-7.988,10.51c-4.8,5.074-12.685,9.307-12.409,10.988s5.639,2.827,23.963-2.812c8.249-2.537,14.381-2.537,15.222-5.364s-5.915-14.932-5.915-14.932Z" transform="translate(-246.821 -189.052)" fill="#fff" stroke="#263238" stroke-linecap="round" stroke-linejoin="round" stroke-width="1"/>
      <path id="Path_37278" data-name="Path 37278" d="M339.947,460.232a7.914,7.914,0,0,0-.725-3.972,111.51,111.51,0,0,1-19.281,7.074,123.927,123.927,0,0,1-18.28,3.61c-.609.594-.957,1.1-.9,1.45.275,1.7,5.639,2.827,23.963-2.812C333,463.131,339.106,463.131,339.947,460.232Z" transform="translate(-246.82 -185.67)" fill="#fff" stroke="#263238" stroke-linecap="round" stroke-linejoin="round" stroke-width="1"/>
      <path id="Path_37279" data-name="Path 37279" d="M363.428,380.02s-6.77-5.915-7.335-2.537-1.7,4.233-1.7,4.233-47.361,5.683-52.7,9.017-7.045,7.9-3.943,14.671,23.963,80.921,23.963,80.921a34.442,34.442,0,0,0,6.77,2.247c3.1.565,9.582-2.537,9.582-2.537s-.783-13.815-2.754-18.324-10.046-56.537-10.046-56.537,34.227.13,45.8.13,24.238-9.582,26.775-17.483,1.45-9.582,1.45-9.582" transform="translate(-248.862 -221.563)" fill="#e0d1ff" stroke="#263238" stroke-linecap="round" stroke-linejoin="round" stroke-width="1"/>
      <line id="Line_45" data-name="Line 45" x1="1.638" y1="8.872" transform="translate(74.744 180.754)" fill="none" stroke="#263238" stroke-linecap="round" stroke-linejoin="round" stroke-width="1"/>
      <path id="Path_37280" data-name="Path 37280" d="M353.37,387.51a17.64,17.64,0,0,1,2.189,4.1" transform="translate(-223.161 -216.585)" fill="none" stroke="#263238" stroke-linecap="round" stroke-linejoin="round" stroke-width="1"/>
      <path id="Path_37281" data-name="Path 37281" d="M344.48,380.76a32.718,32.718,0,0,1,11.076,7.538" transform="translate(-227.159 -219.621)" fill="none" stroke="#263238" stroke-linecap="round" stroke-linejoin="round" stroke-width="1"/>
      <path id="Path_37282" data-name="Path 37282" d="M351.87,381.86a22.659,22.659,0,0,1,10.322,9.51" transform="translate(-223.836 -219.126)" fill="none" stroke="#263238" stroke-linecap="round" stroke-linejoin="round" stroke-width="1"/>
      <path id="Path_37283" data-name="Path 37283" d="M332.162,328.212s0,.406-.072,1.1c-.246,3.987-4.668,9.916-2.03,17.4,5.987,16.874,4.769,29.269,4.233,25.659.841,5.639-4.233,17.758-4.233,21.745s-10.438,4.537,13.25,11.6,31.893,6.741,37.778,4.479,10.148-4.233,10.713-9.017-4.508-13.25-4.784-20.585-1.29-30.284-8.336-44.94-25.659-24.818-25.659-24.818Z" transform="translate(-234.673 -251.066)" fill="#fff" stroke="#263238" stroke-linecap="round" stroke-linejoin="round" stroke-width="1"/>
      <path id="Path_37284" data-name="Path 37284" d="M356.4,361.9a43.054,43.054,0,0,0,3.436-2.9" transform="translate(-221.799 -229.405)" fill="none" stroke="#263238" stroke-linecap="round" stroke-linejoin="round" stroke-width="1"/>
      <path id="Path_37285" data-name="Path 37285" d="M335.9,376.613a187.8,187.8,0,0,0,25.21-13.453" transform="translate(-231.017 -227.535)" fill="none" stroke="#263238" stroke-linecap="round" stroke-linejoin="round" stroke-width="1"/>
      <path id="Path_37286" data-name="Path 37286" d="M345.417,371.32a57.536,57.536,0,0,1-10.467,4.016" transform="translate(-231.444 -223.865)" fill="none" stroke="#263238" stroke-linecap="round" stroke-linejoin="round" stroke-width="1"/>
      <path id="Path_37287" data-name="Path 37287" d="M345.991,369.61s-.8.493-2.131,1.218" transform="translate(-227.438 -224.634)" fill="none" stroke="#263238" stroke-linecap="round" stroke-linejoin="round" stroke-width="1"/>
      <line id="Line_46" data-name="Line 46" y1="9.292" x2="7.611" transform="translate(122.453 98.412)" fill="none" stroke="#263238" stroke-linecap="round" stroke-linejoin="round" stroke-width="1"/>
      <path id="Path_37288" data-name="Path 37288" d="M333.641,280.427a40.593,40.593,0,0,0-5.074,6.509c-1.232,2.435-1.45,4.2-3.552,5.8s-6.451.565-6.335,3.073,2.725,4.9,2.725,4.9-2.117,15.309-1.319,17.744,11.757,2.9,11.757,2.9l5.581,18.179,19.7-13.351.522-5.291c.493-2.146,4.03-8.785,6.958-13.772s1.624-18.121-5.451-23.775-16.439-5.074-19.324-5.277S333.641,280.427,333.641,280.427Z" transform="translate(-238.761 -265.805)" fill="#fff" stroke="#263238" stroke-linecap="round" stroke-linejoin="round" stroke-width="1"/>
      <path id="Path_37289" data-name="Path 37289" d="M321.44,295.72a6.988,6.988,0,0,0,7.248,1.653" transform="translate(-237.519 -257.861)" fill="none" stroke="#263238" stroke-linecap="round" stroke-linejoin="round" stroke-width="1"/>
      <path id="Path_37290" data-name="Path 37290" d="M327.84,290.117c-.478,1.116-1.232,1.856-1.682,1.667s-.42-1.261.072-2.378,1.232-1.856,1.667-1.667S328.319,289,327.84,290.117Z" transform="translate(-235.54 -261.462)" fill="#263238"/>
      <path id="Path_37291" data-name="Path 37291" d="M326.69,285.571s4.248-.841,4.885,3.363" transform="translate(-235.159 -262.455)" fill="none" stroke="#263238" stroke-linecap="round" stroke-linejoin="round" stroke-width="1"/>
      <path id="Path_37292" data-name="Path 37292" d="M327.71,307.951l6.828-.261-4.682,5.712Z" transform="translate(-234.7 -252.478)" fill="#263238" stroke="#263238" stroke-linecap="round" stroke-linejoin="round" stroke-width="1"/>
      <path id="Path_37293" data-name="Path 37293" d="M339.921,303.264l-2.957-.884-1.754,2.754" transform="translate(-231.327 -254.866)" fill="none" stroke="#263238" stroke-linecap="round" stroke-linejoin="round" stroke-width="1"/>
      <path id="Path_37294" data-name="Path 37294" d="M344.036,277.5s4.262-4.9-.855-7.248-22.528,1.9-20.658,9.539,18.121,8.611,19.672,8.7-3.1,1.769-1.827,4.088,4.349,3.479,4.508,5.987-2.9,5.871-1.45,7.335,3.769-.725,5.248-1.29,5.523,3.508,2.334,8.7-5.335,4.653-5.335,4.653a4.842,4.842,0,0,0,1.45,5.523c2.9,2.45,8.7,1.725,10.148-.652s3.958-4.523,9.176-9.655,7.7-18.092,4.088-27.036S350.56,273.556,344.036,277.5Z" transform="translate(-237.095 -269.604)" fill="#263238" stroke="#263238" stroke-linecap="round" stroke-linejoin="round" stroke-width="1"/>
      <path id="Path_37295" data-name="Path 37295" d="M353.482,307.89,326.62,327.678l1.537,8.539,30.24-22.281Z" transform="translate(-235.19 -252.388)" fill="#fff" stroke="#263238" stroke-linecap="round" stroke-linejoin="round" stroke-width="1"/>
      <path id="Path_37296" data-name="Path 37296" d="M301.57,392.732l47.317-10.365L337.826,375.8l-44.9,10.017Z" transform="translate(-250.339 -221.851)" fill="#fff" stroke="#263238" stroke-linecap="round" stroke-linejoin="round" stroke-width="1"/>
      <path id="Path_37297" data-name="Path 37297" d="M287.148,357.8l21.064,44.9-8.64-6.915L278.16,353.65Z" transform="translate(-256.981 -231.811)" fill="#263238" stroke="#263238" stroke-linecap="round" stroke-linejoin="round" stroke-width="1"/>
      <path id="Path_37298" data-name="Path 37298" d="M316.087,374.31l-10.9,2.812-6.755,9.785a2.7,2.7,0,0,0,2.059.754c1.131-.188,4.132-2.827,4.132-2.827l7.9-2.073s-4.132,2.45-4.132,3.015.754.754,2.624.565,6.393-4.349,6.393-4.349l3.015-3.769Z" transform="translate(-247.866 -222.521)" fill="#fff" stroke="#263238" stroke-linecap="round" stroke-linejoin="round" stroke-width="1"/>
      <path id="Path_37299" data-name="Path 37299" d="M340.067,340.54,334.486,366,310.61,389.5l5.639,5.262,19.831-9.017,1.377-3.581,4.784-21.325Z" transform="translate(-242.389 -237.706)" fill="#fff" stroke="#263238" stroke-linecap="round" stroke-linejoin="round" stroke-width="1"/>
      <path id="Path_37300" data-name="Path 37300" d="M314.534,370.77s-7.611,1.131-10.423,1.131-9.582.565-10.713,1.131-6.495,3.943-6.2,6.48,5.074.29,5.074.29a35.905,35.905,0,0,0,3.668,6.48c2.247,3.1,3.378,1.971,7.886.29S315.1,379.8,315.1,379.8l3.958-3.668Z" transform="translate(-252.924 -224.113)" fill="#fff" stroke="#263238" stroke-linecap="round" stroke-linejoin="round" stroke-width="1"/>
      <path id="Path_37301" data-name="Path 37301" d="M372.549,316.164s-11.6-1.7-15.787,3.943a54.348,54.348,0,0,0-9.307,22.847c-.855,7.321-6.2,21.991-6.2,21.991L305.4,394.794l6.2,9.292s43.49-20.3,44.592-21.658,15.5-38.634,15.5-38.634" transform="translate(-244.732 -248.775)" fill="#fff" stroke="#263238" stroke-linecap="round" stroke-linejoin="round" stroke-width="1"/>
    </g>
  </g>
</svg>
