<svg xmlns="http://www.w3.org/2000/svg" width="447.999" height="506.276" viewBox="0 0 447.999 506.276">
  <path id="nodejs-original" d="M440.292,115.721,255.662,8.515a39.815,39.815,0,0,0-38.54,0L30.52,115.721C18.5,122.633,10,135.625,10,149.522V363.648c0,13.9,8.726,26.892,20.742,33.843l49.3,28C103.607,437.1,111.934,437.1,122.657,437.1c34.889,0,54.819-21.1,54.819-57.9v-211.4c0-2.985-1.553-7.428-4.484-7.428H149.449c-2.981,0-9.655,4.442-9.655,7.423V379.2c0,16.312-14.755,32.545-42.33,18.757L46.522,368.593a5.782,5.782,0,0,1-3.027-4.945V149.522c0-2.018,2.324-4.045,4.112-5.079l186-107.021a6.518,6.518,0,0,1,6.025,0l183.73,107c1.758,1.059,1.139,3.023,1.139,5.1V363.648c0,2.043.766,4.032-.971,5.016L238.944,475.748a5.243,5.243,0,0,1-5.28,0l-47.341-28.257a4.565,4.565,0,0,0-4.493-.36c-13.172,7.465-15.6,8.458-27.956,12.741-3.04,1.059-7.524,2.9,1.717,8.077L217.549,504.6a39.046,39.046,0,0,0,39,0L440.288,397.491c12.016-7,17.711-19.946,17.711-33.843V149.522c0-13.9-5.694-26.855-17.706-33.8Zm-145.96,214c-49.1,0-59.91-13.545-63.515-37.958-.419-2.629-2.65-5.774-5.326-5.774h-24c-2.969,0-5.355,3.6-5.355,6.557,0,31.259,16.995,69.134,98.2,69.134,58.78,0,92.48-22.84,92.48-63.26,0-40.077-27.077-50.595-84.081-58.139-57.62-7.616-63.474-11.464-63.474-24.962,0-11.129,4.957-25.971,47.622-25.971,38.122,0,52.173,8.181,57.955,33.876a5.285,5.285,0,0,0,5.192,4.149h24.091a5.509,5.509,0,0,0,3.936-1.658,5.418,5.418,0,0,0,1.4-4.1c-3.731-44.247-33.127-64.868-92.581-64.868-52.885,0-84.433,22.333-84.433,59.768,0,40.6,31.389,51.826,82.155,56.846,60.731,5.954,65.454,14.83,65.454,26.775,0,20.746-16.655,29.585-55.724,29.585Z" transform="translate(-10 -3.541)" fill="#83cd29"/>
</svg>
