<svg xmlns="http://www.w3.org/2000/svg" width="24.036" height="23.976" viewBox="0 0 24.036 23.976">
  <path id="Icon_material-data-usage" data-name="Icon material-data-usage" d="M16.22,3.075V6.716a8.407,8.407,0,0,1,7.211,8.316,8.561,8.561,0,0,1-.577,3.053l3.125,1.839a11.869,11.869,0,0,0,1.058-4.891A12.025,12.025,0,0,0,16.22,3.075Zm-1.2,20.37a8.407,8.407,0,0,1-1.2-16.729V3.075a12.017,12.017,0,1,0,10.876,19.06L21.568,20.3A8.353,8.353,0,0,1,15.018,23.445Z" transform="translate(-3 -3.075)" fill="#3c3c3c"/>
</svg>
