<svg xmlns="http://www.w3.org/2000/svg" width="72.056" height="58.157" viewBox="0 0 72.056 58.157"><g transform="translate(-1498.472 -1460.922)"><g transform="translate(841.407 18.922)"><path d="M218.75,266.209h4.071v4.071a4.653,4.653,0,1,0,9.305,0v-4.071h8.142v4.071a4.653,4.653,0,1,0,9.305,0v-4.071h4.071V240.62H218.75Z" transform="translate(456.71 1225.224)" fill="#c31f5d"/><path d="M242.094,61.564a2.286,2.286,0,0,0-1.163-.314,2.327,2.327,0,0,0-2.013,1.163l-3.489,6.066a17.446,17.446,0,0,0-22.972,0l-3.512-6.066a2.327,2.327,0,0,0-2.013-1.163,2.286,2.286,0,0,0-1.163.314,2.326,2.326,0,0,0-.855,3.175l4.321,7.479a17.276,17.276,0,0,0-2.751,9.387h34.894a17.277,17.277,0,0,0-2.751-9.387l4.321-7.479a2.326,2.326,0,0,0-.855-3.175ZM217.242,76.952a1.745,1.745,0,1,1,1.745-1.745,1.745,1.745,0,0,1-1.745,1.745Zm13.376,0a1.745,1.745,0,1,1,1.745-1.745,1.745,1.745,0,0,1-1.745,1.745Z" transform="translate(468.976 1380.75)" fill="#c31f5d"/></g><path d="M-9.412.312A8.5,8.5,0,0,0-5.33-.65,7.262,7.262,0,0,0-2.509-3.289,7.146,7.146,0,0,0-1.482-7.1V-19.37h-4.03V-7.358a4.221,4.221,0,0,1-.507,2.067A3.743,3.743,0,0,1-7.4-3.848a3.855,3.855,0,0,1-2.015.52,3.874,3.874,0,0,1-2-.52A3.713,3.713,0,0,1-12.8-5.291a4.221,4.221,0,0,1-.507-2.067V-19.37h-4.03V-7.1a7.146,7.146,0,0,0,1.027,3.809A7.262,7.262,0,0,0-13.494-.65,8.5,8.5,0,0,0-9.412.312Z" transform="translate(1515.814 1504.37)" fill="#c31f5d"/><path d="M-17.446,0h4.628L-8.84-6.032-4.914,0H-.286L-6.6-9.7-.286-19.37H-4.914l-3.952,6.032-3.952-6.032h-4.628L-11.1-9.7Z" transform="translate(1570.814 1504.37)" fill="#c31f5d"/></g></svg>