<svg id="Digital" xmlns="http://www.w3.org/2000/svg" width="60" height="60" viewBox="0 0 60 60">
  <g id="Сгруппировать_141" data-name="Сгруппировать 141">
    <path id="Контур_63" data-name="Контур 63" d="M17.351,37.349a5.5,5.5,0,1,1-5.5-5.5,5.5,5.5,0,0,1,5.5,5.5" transform="translate(-1.636 -7.35)" fill="#c31f5d"/>
    <g id="Сгруппировать_140" data-name="Сгруппировать 140" transform="translate(10.092 10.39)">
      <path id="Контур_64" data-name="Контур 64" d="M33.339,18.969c0-1.812.161-5.462-4.548-5.462-3.753,0-7.165,4.008-7.278,6.368a6.129,6.129,0,0,0-5.143,6.672c-2.692,1.317-4.64,8.355-1.131,11.692-.638,2.87,1.325,9.446,7.184,8.928,1.426,7.67,10.917,7.441,10.917,1.823V44.442" transform="translate(-13.343 -13.507)" fill="none" stroke="#4c2e88" stroke-linecap="round" stroke-linejoin="round" stroke-width="2"/>
      <path id="Контур_65" data-name="Контур 65" d="M30.331,27.248c-3.308,0-6.368-.515-6.368-5.462" transform="translate(-15.794 -15.418)" fill="none" stroke="#4c2e88" stroke-linecap="round" stroke-linejoin="round" stroke-width="2"/>
      <path id="Контур_66" data-name="Контур 66" d="M24.383,35.959A4.689,4.689,0,0,0,29.9,35.1c1.028-1.077,2.125-2.795,3.258-2.67H47.714" transform="translate(-15.891 -17.873)" fill="none" stroke="#4c2e88" stroke-linecap="round" stroke-linejoin="round" stroke-width="2"/>
      <path id="Контур_67" data-name="Контур 67" d="M33.425,53.329c.668-1.565,2.275-1.972,4.548-1.972H49.8" transform="translate(-17.977 -22.242)" fill="none" stroke="#4c2e88" stroke-linecap="round" stroke-linejoin="round" stroke-width="2"/>
      <path id="Контур_68" data-name="Контур 68" d="M26.01,49.717a3.447,3.447,0,0,1-2.87-2.87" transform="translate(-15.604 -21.201)" fill="none" stroke="#4c2e88" stroke-linecap="round" stroke-linejoin="round" stroke-width="2"/>
      <path id="Контур_69" data-name="Контур 69" d="M25.146,54.865c0-3.5,1.985-8.018,7.067-8.018" transform="translate(-16.067 -21.201)" fill="none" stroke="#4c2e88" stroke-linecap="round" stroke-linejoin="round" stroke-width="2"/>
      <path id="Контур_70" data-name="Контур 70" d="M20.652,33.5a2.735,2.735,0,0,1,2.87,2.707,3.091,3.091,0,0,1-1.91,2.87" transform="translate(-15.03 -18.12)" fill="none" stroke="#4c2e88" stroke-linecap="round" stroke-linejoin="round" stroke-width="2"/>
      <path id="Контур_71" data-name="Контур 71" d="M43.066,22.224H37.6c-2.473,0-4.907-.378-5.764-2.495" transform="translate(-17.612 -14.943)" fill="none" stroke="#4c2e88" stroke-linecap="round" stroke-linejoin="round" stroke-width="2"/>
      <line id="Линия_35" data-name="Линия 35" y2="5.458" transform="translate(19.996 9.1)" fill="none" stroke="#4c2e88" stroke-linecap="round" stroke-linejoin="round" stroke-width="2"/>
      <line id="Линия_36" data-name="Линия 36" y2="10.008" transform="translate(19.996 17.288)" fill="none" stroke="#4c2e88" stroke-linecap="round" stroke-linejoin="round" stroke-width="2"/>
      <line id="Линия_37" data-name="Линия 37" x2="5.458" transform="translate(19.996 21.837)" fill="none" stroke="#4c2e88" stroke-linecap="round" stroke-linejoin="round" stroke-width="2"/>
      <line id="Линия_38" data-name="Линия 38" x2="3.639" transform="translate(21.816 36.393)" fill="none" stroke="#4c2e88" stroke-linecap="round" stroke-linejoin="round" stroke-width="2"/>
      <circle id="Эллипс_13" data-name="Эллипс 13" cx="2.729" cy="2.729" r="2.729" transform="translate(31.823 11.83)" fill="none" stroke="#4c2e88" stroke-linecap="round" stroke-linejoin="round" stroke-width="2"/>
      <circle id="Эллипс_14" data-name="Эллипс 14" cx="2.729" cy="2.729" r="2.729" transform="translate(25.455 4.552)" fill="none" stroke="#4c2e88" stroke-linecap="round" stroke-linejoin="round" stroke-width="2"/>
      <circle id="Эллипс_15" data-name="Эллипс 15" cx="2.729" cy="2.729" r="2.729" transform="translate(25.455 19.108)" fill="none" stroke="#4c2e88" stroke-linecap="round" stroke-linejoin="round" stroke-width="2"/>
      <circle id="Эллипс_16" data-name="Эллипс 16" cx="2.729" cy="2.729" r="2.729" transform="translate(25.455 33.664)" fill="none" stroke="#4c2e88" stroke-linecap="round" stroke-linejoin="round" stroke-width="2"/>
      <circle id="Эллипс_17" data-name="Эллипс 17" cx="2.729" cy="2.729" r="2.729" transform="translate(31.823 26.386)" fill="none" stroke="#4c2e88" stroke-linecap="round" stroke-linejoin="round" stroke-width="2"/>
    </g>
    <rect id="Прямоугольник_61" data-name="Прямоугольник 61" width="60" height="60" transform="translate(0 0)" fill="none"/>
    <rect id="Прямоугольник_62" data-name="Прямоугольник 62" width="60" height="60" transform="translate(0 0)" fill="none"/>
  </g>
</svg>
