<svg xmlns="http://www.w3.org/2000/svg" xmlns:xlink="http://www.w3.org/1999/xlink" width="210" height="52.672" viewBox="0 0 210 52.672"><defs><linearGradient id="a" x1="0.029" y1="0.068" x2="0.92" y2="1.072" gradientUnits="objectBoundingBox"><stop offset="0.03" stop-color="#4c1a72"/><stop offset="1" stop-color="#c31f5d"/></linearGradient><linearGradient id="b" y1="0.5" x2="1" y2="0.5" gradientUnits="objectBoundingBox"><stop offset="0.02" stop-color="#4c1a88"/><stop offset="0.17" stop-color="#511a86"/><stop offset="0.36" stop-color="#611b80"/><stop offset="0.58" stop-color="#7b1c77"/><stop offset="0.81" stop-color="#9f1d6a"/><stop offset="1" stop-color="#c31f5d"/></linearGradient></defs><g transform="translate(0 0)"><g transform="translate(0 0)"><path d="M19.712,63.36v4.4H0v-4.4Zm0,21.91v4.4H0v-4.4L12.32,69.956h5.647L5.611,85.27Z" transform="translate(0 -48.076)" fill="#4c1a88"/><path d="M111.176,85.269v4.4h-5.5a12.614,12.614,0,0,1-5.118-1.043A13.443,13.443,0,0,1,96.387,85.8a13.145,13.145,0,0,1-2.8-4.171,13.3,13.3,0,0,1,0-10.234,13.118,13.118,0,0,1,2.8-4.171,13.443,13.443,0,0,1,4.171-2.822,12.654,12.654,0,0,1,5.118-1.043h5.5v4.4h-5.5a8.589,8.589,0,0,0-3.414.683A8.753,8.753,0,0,0,97.6,73.1a8.871,8.871,0,0,0,0,6.825,8.753,8.753,0,0,0,4.661,4.661,8.589,8.589,0,0,0,3.414.683Zm0-10.955v4.4H99.5a6.01,6.01,0,0,1,0-4.4Z" transform="translate(-70.309 -48.075)" fill="#4c1a88"/><path d="M200.794,80.341l5.418,9.438h-5.08l-4.993-8.755h-4.087v8.755H187.64V76.624h9.779a4.327,4.327,0,0,0,1.707-.339,4.632,4.632,0,0,0,1.4-.93,4.217,4.217,0,0,0,.947-1.382,4.415,4.415,0,0,0-2.349-5.765,4.276,4.276,0,0,0-1.707-.341H187.64V63.511h9.779a8.459,8.459,0,0,1,7.108,3.543,8.984,8.984,0,0,1,1.5,3.488,9.135,9.135,0,0,1-.038,3.789A8.447,8.447,0,0,1,200.794,80.341Z" transform="translate(-142.448 -48.189)" fill="#4c1a88"/><path d="M532.9,64v4.387H513.19V64Zm0,21.91v4.4H513.19V85.9l12.32-15.313h5.647L518.8,85.9Z" transform="translate(-389.589 -48.562)" fill="#c31f5d"/><path d="M617.048,64.12V90.388H612.69V64.12Z" transform="translate(-465.145 -48.653)" fill="#c31f5d"/><path d="M667.7,86.03v4.358H653.68V64.12h4.4V86.03Z" transform="translate(-496.25 -48.653)" fill="#c31f5d"/><path d="M736.615,86.03v4.358H722.59V64.12h4.4V86.03Z" transform="translate(-548.524 -48.653)" fill="#c31f5d"/><path d="M791.885,64.12,802.84,90.388H788.058l1.82-4.4h6.4l-4.4-10.5-4.4,10.5-1.82,4.4H780.93Z" transform="translate(-592.84 -48.653)" fill="#c31f5d"/><path d="M471.444,194.92h.928l-.63,3.144a3.416,3.416,0,0,0-.075.663c0,.721.288,1.113.993,1.113.591,0,1.039-.44,1.262-1.572l.668-3.344h.906l-.676,3.351c-.329,1.666-1.091,2.363-2.2,2.363a1.666,1.666,0,0,1-1.885-1.863,5.132,5.132,0,0,1,.1-.849Z" transform="translate(-357.378 -147.972)"/><path d="M492.1,200.4h.752l-.041.6h.034a2.309,2.309,0,0,1,1.442-.7c.7,0,1,.392,1,1.067a2.763,2.763,0,0,1-.07.591l-.531,2.659h-.921l.512-2.543a2.163,2.163,0,0,0,.067-.445.481.481,0,0,0-.524-.538c-.3,0-.625.2-1.07.651l-.567,2.885h-.921Z" transform="translate(-372.958 -152.059)"/><path d="M511.15,198.524a2.064,2.064,0,0,1,.055-.438l1-5.036h.921l-1.017,5.072a.743.743,0,0,0-.017.166c0,.127.065.178.151.178a.379.379,0,0,0,.147-.024l-.017.69a1.556,1.556,0,0,1-.517.082A.624.624,0,0,1,511.15,198.524Z" transform="translate(-388.06 -146.552)"/><path d="M522.546,200.3c.978,0,1.341.683,1.341,1.555a2.513,2.513,0,0,1-.185.892h-2.565c-.089.889.4,1.267,1.043,1.267a1.591,1.591,0,0,0,.858-.329l.337.591a2.507,2.507,0,0,1-1.442.445,1.613,1.613,0,0,1-1.683-1.784A2.516,2.516,0,0,1,522.546,200.3Zm.534,1.865a1.74,1.74,0,0,0,.043-.373c0-.406-.175-.774-.687-.774a1.384,1.384,0,0,0-1.214,1.147Z" transform="translate(-394.967 -152.059)"/><path d="M537.73,203.185c0-1.611,1.1-2.885,2.262-2.885a1.082,1.082,0,0,1,.962.594h.024l.176-.481h.74l-.844,4.214H540.3l.041-.587h-.024a2.029,2.029,0,0,1-1.39.69C538.192,204.721,537.73,204.175,537.73,203.185Zm2.685.067.344-1.683a.824.824,0,0,0-.721-.512c-.721,0-1.365.916-1.365,2,0,.618.24.9.627.9A1.341,1.341,0,0,0,540.415,203.252Z" transform="translate(-408.237 -152.059)"/><path d="M555.68,203.885l.548-.447a1.277,1.277,0,0,0,1,.567c.4,0,.736-.24.736-.546s-.216-.416-.748-.721-.906-.656-.906-1.159a1.421,1.421,0,0,1,1.541-1.32,1.8,1.8,0,0,1,1.315.606l-.512.481a1.123,1.123,0,0,0-.81-.4.6.6,0,0,0-.666.529c0,.288.361.459.721.663.625.339.933.668.933,1.188,0,.808-.7,1.344-1.668,1.344A1.877,1.877,0,0,1,555.68,203.885Z" transform="translate(-421.865 -152.029)"/><path d="M572.669,193.05h.918l-.365,1.789-.166.6h.034a2.19,2.19,0,0,1,1.387-.656c.7,0,1,.392,1,1.067a2.483,2.483,0,0,1-.067.591l-.531,2.659h-.921l.519-2.536a2.161,2.161,0,0,0,.067-.445.481.481,0,0,0-.524-.538c-.3,0-.625.2-1.072.651l-.565,2.885h-.921Z" transform="translate(-433.844 -146.552)"/><path d="M598.658,200.441a2.846,2.846,0,0,1,.055-.5l.428-2.063h-.591l.139-.683.637-.046.337-1.132h.772l-.219,1.132h1.01l-.144.721H600.05l-.43,2.108a1.749,1.749,0,0,0-.024.293c0,.313.137.466.481.466a.846.846,0,0,0,.389-.113l.18.654a2.339,2.339,0,0,1-.9.188A.951.951,0,0,1,598.658,200.441Z" transform="translate(-454.412 -148.808)"/><path d="M610.976,193.05h.918l-.365,1.789-.166.611h.034a2.19,2.19,0,0,1,1.387-.656c.7,0,1,.392,1,1.067a2.484,2.484,0,0,1-.07.591l-.531,2.659h-.921l.512-2.543a2.161,2.161,0,0,0,.067-.445.481.481,0,0,0-.524-.538c-.3,0-.625.2-1.07.651l-.567,2.885h-.921Z" transform="translate(-462.921 -146.552)"/><path d="M631.473,200.3c.978,0,1.341.683,1.341,1.555a2.515,2.515,0,0,1-.185.892h-2.563c-.089.889.4,1.267,1.043,1.267a1.6,1.6,0,0,0,.858-.329l.337.591a2.515,2.515,0,0,1-1.442.445,1.612,1.612,0,0,1-1.683-1.784A2.513,2.513,0,0,1,631.473,200.3Zm.536,1.865a1.755,1.755,0,0,0,.041-.373c0-.406-.175-.774-.685-.774a1.389,1.389,0,0,0-1.216,1.147Z" transform="translate(-477.665 -152.059)"/><path d="M654.628,194.92h1.683c1.077,0,1.844.406,1.844,1.442,0,1.474-1.1,2.082-2.524,2.082h-.779l-.413,2.1h-.928Zm1.075,2.774c.993,0,1.529-.416,1.529-1.2,0-.577-.392-.825-1.1-.825h-.721l-.4,2.036Z" transform="translate(-496.135 -147.972)"/><path d="M673.1,203a2.544,2.544,0,0,1,2.32-2.7,1.545,1.545,0,0,1,1.572,1.716,2.543,2.543,0,0,1-2.32,2.7A1.545,1.545,0,0,1,673.1,203Zm2.962-.962c0-.635-.257-1-.74-1-.671,0-1.291.846-1.291,1.923,0,.637.257,1,.74,1,.671,0,1.291-.844,1.291-1.921Z" transform="translate(-511.008 -152.059)"/><path d="M692.69,200.73h.911l.07,2.255v1.2h.034c.161-.406.31-.813.481-1.2l.983-2.255h.837l.108,2.255c.012.4,0,.805.017,1.2h.034c.161-.406.3-.808.464-1.2l.94-2.255h.858l-1.853,4.214h-1.1l-.075-2.027v-1.24h-.036c-.166.43-.313.844-.481,1.24l-.865,2.027h-1.07Z" transform="translate(-525.878 -152.386)"/><path d="M719.413,200.3c.978,0,1.344.683,1.344,1.555a2.5,2.5,0,0,1-.187.892h-2.563c-.089.889.4,1.267,1.043,1.267a1.6,1.6,0,0,0,.858-.329l.337.591a2.514,2.514,0,0,1-1.442.445,1.612,1.612,0,0,1-1.683-1.784A2.513,2.513,0,0,1,719.413,200.3Zm.536,1.865a1.751,1.751,0,0,0,.041-.373c0-.406-.175-.774-.685-.774a1.391,1.391,0,0,0-1.216,1.147Z" transform="translate(-544.369 -152.059)"/><path d="M735,200.4h.752l-.075.815h.034a1.7,1.7,0,0,1,1.3-.918.962.962,0,0,1,.423.079l-.308.81a.86.86,0,0,0-.392-.07c-.394,0-.8.313-1.147.962l-.49,2.536h-.921Z" transform="translate(-557.32 -152.056)"/><path d="M754.47,203a2.544,2.544,0,0,1,2.32-2.7,1.545,1.545,0,0,1,1.572,1.716,2.543,2.543,0,0,1-2.32,2.7A1.545,1.545,0,0,1,754.47,203Zm2.962-.962c0-.635-.257-1-.74-1-.668,0-1.291.846-1.291,1.923,0,.637.257,1,.74,1,.671,0,1.291-.844,1.291-1.921Z" transform="translate(-572.74 -152.059)"/><path d="M773.658,194.623l.56-.046.091-.481c.173-.858.647-1.466,1.488-1.466a1.656,1.656,0,0,1,.827.221l-.305.651a.873.873,0,0,0-.437-.135c-.346,0-.558.221-.651.7l-.1.514h.791l-.144.721h-.8l-.69,3.486h-.921l.7-3.486h-.548Z" transform="translate(-587.089 -146.233)"/><path d="M789.687,199.887l3.058-3.9h-2.2l.192-.988h3.606l-.147.707-3.027,3.9h2.426l-.207.986H789.54Z" transform="translate(-599.38 -148.033)"/><path d="M810.568,195h3.317l-.192.988h-2.164l-.24,1.2h1.827l-.192.988H811.1l-.3,1.418h2.226l-.192.986H809.45Z" transform="translate(-614.503 -148.033)"/><path d="M829.408,195h1.755c1.1,0,1.923.389,1.923,1.43,0,1.466-1.2,2.111-2.5,2.111h-.709l-.406,2.051H828.3Zm1.25,2.611c.832,0,1.255-.4,1.255-1.007,0-.469-.329-.673-.933-.673h-.589l-.327,1.683Zm-.195.659.849-.755,1.2,3.077h-1.233Z" transform="translate(-628.822 -148.033)"/><path d="M850.55,198a3.167,3.167,0,0,1,2.844-3.433,2.077,2.077,0,0,1,2.1,2.365,3.166,3.166,0,0,1-2.844,3.433A2.085,2.085,0,0,1,850.55,198Zm3.741-.99c0-.887-.337-1.428-.962-1.428-.793,0-1.579,1.046-1.579,2.341,0,.889.337,1.428.962,1.428.8,0,1.579-1.046,1.579-2.341Z" transform="translate(-645.723 -147.706)"/><path d="M314.047,49.053c-.6.434-1.2.848-1.846,1.245a25.019,25.019,0,0,1-3.255.212,24.792,24.792,0,0,1-3.825-49.28h-.029a23.177,23.177,0,0,0-10.753,19.8h0v.022a15.338,15.338,0,1,0,29.766,7.013C324.124,28.237,326.139,40.264,314.047,49.053Z" transform="translate(-215.74 -0.934)" fill="url(#a)"/><path d="M365.71,24.789a24.774,24.774,0,0,1-21.489,24.565c.649-.407,1.262-.824,1.846-1.245,12.092-8.788,10.077-20.815,10.051-20.969h0a15.553,15.553,0,0,0,.18-2.358,15.329,15.329,0,0,0-29.939-4.67A23.177,23.177,0,0,1,337.113.311h.029A24.665,24.665,0,0,1,365.71,24.789Z" transform="translate(-247.739 0)" fill="url(#b)"/></g></g></svg>