<svg xmlns="http://www.w3.org/2000/svg" width="110.525" height="66.094" viewBox="0 0 110.525 66.094">
  <g id="Amazon_Web_Services_Logo_1_" data-name="Amazon_Web_Services_Logo (1)" transform="translate(-1.668 -1.1)">
    <path id="Path_37270" data-name="Path 37270" d="M40.677,25.1a11.122,11.122,0,0,0,.4,3.272,19.676,19.676,0,0,0,1.176,2.647,1.6,1.6,0,0,1,.257.845,1.455,1.455,0,0,1-.7,1.1L39.5,34.514a1.762,1.762,0,0,1-.956.331,1.691,1.691,0,0,1-1.1-.515A11.373,11.373,0,0,1,36.119,32.6c-.368-.625-.735-1.323-1.14-2.169a13.579,13.579,0,0,1-10.807,5.073A10.072,10.072,0,0,1,16.82,32.86,9.443,9.443,0,0,1,14.1,25.8a9.463,9.463,0,0,1,3.345-7.572c2.242-1.911,5.22-2.867,9.006-2.867a29.1,29.1,0,0,1,3.9.294c1.36.184,2.757.478,4.227.809V13.782c0-2.794-.588-4.742-1.728-5.882-1.176-1.14-3.161-1.691-5.992-1.691a16.725,16.725,0,0,0-3.97.478,29.291,29.291,0,0,0-3.97,1.25,10.547,10.547,0,0,1-1.287.478,2.255,2.255,0,0,1-.588.11c-.515,0-.772-.368-.772-1.14v-1.8A2.326,2.326,0,0,1,16.526,4.3a2.752,2.752,0,0,1,1.029-.772,21.163,21.163,0,0,1,4.632-1.654,22.287,22.287,0,0,1,5.734-.7c4.374,0,7.572.993,9.631,2.978,2.022,1.985,3.051,5,3.051,9.043V25.1ZM25.753,30.691a11.913,11.913,0,0,0,3.786-.662,8.191,8.191,0,0,0,3.492-2.353,5.835,5.835,0,0,0,1.25-2.353,13.2,13.2,0,0,0,.368-3.2V20.583a30.7,30.7,0,0,0-3.382-.625,27.7,27.7,0,0,0-3.455-.221c-2.463,0-4.264.478-5.477,1.47a5.124,5.124,0,0,0-1.8,4.227,5.131,5.131,0,0,0,1.36,3.9A5.1,5.1,0,0,0,25.753,30.691Zm29.518,3.97a2.052,2.052,0,0,1-1.4-.368A3,3,0,0,1,53.1,32.86L44.463,4.445a6.439,6.439,0,0,1-.331-1.47.806.806,0,0,1,.882-.919h3.6a2.038,2.038,0,0,1,1.434.368,3.007,3.007,0,0,1,.735,1.434l6.176,24.335L62.7,3.857a2.578,2.578,0,0,1,.7-1.434,2.529,2.529,0,0,1,1.47-.368h2.941a2.212,2.212,0,0,1,1.47.368,2.477,2.477,0,0,1,.7,1.434l5.808,24.629L82.142,3.857a3.152,3.152,0,0,1,.735-1.434,2.4,2.4,0,0,1,1.434-.368h3.419a.817.817,0,0,1,.919.919,3.666,3.666,0,0,1-.074.588,5.23,5.23,0,0,1-.257.919L79.458,32.9a2.819,2.819,0,0,1-.772,1.434,2.352,2.352,0,0,1-1.4.368H74.128a2.212,2.212,0,0,1-1.47-.368,2.606,2.606,0,0,1-.7-1.47l-5.7-23.71L60.6,32.823a2.869,2.869,0,0,1-.7,1.47,2.278,2.278,0,0,1-1.47.368Zm47.236.993a24.326,24.326,0,0,1-5.661-.662,16.723,16.723,0,0,1-4.227-1.47,2.649,2.649,0,0,1-1.14-1.029,2.6,2.6,0,0,1-.221-1.029V29.589c0-.772.294-1.14.845-1.14a2.081,2.081,0,0,1,.662.11c.221.074.551.221.919.368a20,20,0,0,0,4.044,1.287,22.076,22.076,0,0,0,4.374.441,9.918,9.918,0,0,0,5.367-1.213,3.958,3.958,0,0,0,1.912-3.492,3.58,3.58,0,0,0-.993-2.573,9.223,9.223,0,0,0-3.713-1.911l-5.33-1.654a11.212,11.212,0,0,1-5.882-3.749,8.758,8.758,0,0,1-1.838-5.33,8.181,8.181,0,0,1,.993-4.08,9.452,9.452,0,0,1,2.647-3.014,11.667,11.667,0,0,1,3.823-1.911A16.021,16.021,0,0,1,103.72,1.1a18.454,18.454,0,0,1,2.463.147c.845.11,1.617.257,2.389.4.735.184,1.434.368,2.1.588a8.023,8.023,0,0,1,1.544.662,3.179,3.179,0,0,1,1.1.919,1.981,1.981,0,0,1,.331,1.213V6.761c0,.772-.294,1.176-.845,1.176a3.824,3.824,0,0,1-1.4-.441,16.817,16.817,0,0,0-7.058-1.434,9.488,9.488,0,0,0-4.889,1.029,3.55,3.55,0,0,0-1.728,3.272,3.471,3.471,0,0,0,1.1,2.61A10.98,10.98,0,0,0,102.874,15l5.22,1.654a11.18,11.18,0,0,1,5.7,3.529,8.318,8.318,0,0,1,1.691,5.146,9.45,9.45,0,0,1-.956,4.264,9.886,9.886,0,0,1-2.683,3.235,11.849,11.849,0,0,1-4.08,2.059A17.48,17.48,0,0,1,102.507,35.654Z" transform="translate(-7.862)" fill="#4c2e88"/>
    <g id="Group_11843" data-name="Group 11843" transform="translate(1.668 42.305)">
      <path id="Path_37271" data-name="Path 37271" d="M101.592,128.17C89.5,137.1,71.927,141.845,56.819,141.845A81,81,0,0,1,2.158,121c-1.14-1.029-.11-2.426,1.25-1.617a110.237,110.237,0,0,0,54.7,14.52,109.152,109.152,0,0,0,41.722-8.528C101.85,124.457,103.577,126.7,101.592,128.17Z" transform="translate(-1.668 -116.955)" fill="#4c2e88"/>
      <path id="Path_37272" data-name="Path 37272" d="M261.136,118.672c-1.544-1.985-10.219-.956-14.152-.478-1.176.147-1.36-.882-.294-1.654,6.911-4.852,18.27-3.455,19.593-1.838,1.323,1.654-.368,13.013-6.837,18.453-.992.845-1.948.4-1.507-.7C259.409,128.818,262.68,120.621,261.136,118.672Z" transform="translate(-156.176 -113.192)" fill="#4c2e88"/>
    </g>
  </g>
</svg>
