<svg xmlns="http://www.w3.org/2000/svg" width="80.248" height="79.894" viewBox="0 0 80.248 79.894"><path d="M40.124.053A40.124,40.124,0,0,0,34.8,79.947V78.73a38.92,38.92,0,1,1,10.646,0v1.217A40.124,40.124,0,0,0,40.124.053Zm0,5.671A34.278,34.278,0,0,0,34.8,73.865V72.641a33.072,33.072,0,1,1,10.64,0v1.224a34.276,34.276,0,0,0-5.32-68.137Zm0,5.8A28.472,28.472,0,0,0,34.8,67.97V66.743a27.264,27.264,0,1,1,10.646,0V67.97a28.472,28.472,0,0,0-5.323-56.441Zm0,5.768A22.706,22.706,0,0,0,34.8,62.075V60.831a21.5,21.5,0,1,1,10.646,0v1.244A22.706,22.706,0,0,0,40.124,17.3Zm0,5.848A16.853,16.853,0,0,0,34.8,55.989V54.719a15.645,15.645,0,1,1,10.64,0v1.271a16.85,16.85,0,0,0-5.32-32.842Zm0,5.808A11.045,11.045,0,0,0,34.8,49.676v-1.4a9.84,9.84,0,1,1,10.646,0v1.4a11.045,11.045,0,0,0-5.323-20.724Zm0,5.724A5.323,5.323,0,1,0,45.447,40,5.323,5.323,0,0,0,40.124,34.677Z" transform="translate(0 -0.053)" fill="#c31f5d"/></svg>