<svg xmlns="http://www.w3.org/2000/svg" width="80.062" height="68.78" viewBox="0 0 80.062 68.78"><g transform="translate(668.173 -1906.568)"><path d="M170.561,100.217A16.752,16.752,0,0,0,154.054,86.19H143.647V82.271a7.692,7.692,0,1,0-4.525-.09V86.19H128.715a16.751,16.751,0,0,0-16.5,14.045,10.86,10.86,0,0,0,0,21.72,16.752,16.752,0,0,0,16.5,14.009h25.339a16.752,16.752,0,0,0,16.507-14.027,10.859,10.859,0,0,0,0-21.719Zm-58.579,17.194a6.335,6.335,0,0,1,0-12.606Zm54.3,1.81a12.236,12.236,0,0,1-10.86,12.136v-3.991a7.7,7.7,0,0,0-7.692-7.693h-12.67a7.7,7.7,0,0,0-7.692,7.693v3.991a12.235,12.235,0,0,1-10.859-12.136V102.932a12.234,12.234,0,0,1,12.208-12.217h25.339a12.235,12.235,0,0,1,12.217,12.217Zm4.525-1.81V104.743a6.335,6.335,0,0,1,0,12.669Z" transform="translate(-769.531 1839.385)" fill="#c31f5d"/><path d="M242.891,257.6a7.7,7.7,0,1,0,5.436,2.255,7.692,7.692,0,0,0-5.436-2.255Z" transform="translate(-881.744 1679.74)" fill="#c31f5d"/><path d="M377.295,257.6a7.7,7.7,0,1,0,5.437,2.255,7.689,7.689,0,0,0-5.437-2.255Z" transform="translate(-994.428 1679.74)" fill="#c31f5d"/></g></svg>