<svg xmlns="http://www.w3.org/2000/svg" width="120.095" height="120.095" viewBox="0 0 120.095 120.095">
  <g id="Group_11761" data-name="Group 11761" transform="translate(-8233.123 -982.832)">
    <path id="Path_37208" data-name="Path 37208" d="M204.932,39.727h-71.3a23.923,23.923,0,0,0-23.9,23.9v71.3a23.923,23.923,0,0,0,23.9,23.9h71.3a23.923,23.923,0,0,0,23.9-23.9v-71.3a23.923,23.923,0,0,0-23.9-23.9Zm20.223,57.711H210.028a1.836,1.836,0,0,0,0,3.673h15.127v33.817a20.246,20.246,0,0,1-20.223,20.223H171.115v-6.711a1.836,1.836,0,0,0-3.673,0v6.711H133.625A20.246,20.246,0,0,1,113.4,134.927V101.11H137.84a1.836,1.836,0,0,0,0-3.673H113.4V63.621A20.246,20.246,0,0,1,133.625,43.4h33.817V54.686a1.836,1.836,0,1,0,3.673,0V43.4h33.817a20.246,20.246,0,0,1,20.223,20.223Z" transform="translate(8123.891 943.605)" fill="#4c2e88" stroke="#4c2e88" stroke-width="1"/>
    <path id="Path_37209" data-name="Path 37209" d="M306.625,154.476a83.555,83.555,0,0,1-14.61-14.445,25.116,25.116,0,0,0-4.094-4.137,18.309,18.309,0,0,1-2.569-5.666,8.166,8.166,0,0,0-7.075-5.958l-8.443-.869a13.835,13.835,0,0,0-10.93,3.709,38.161,38.161,0,0,0-9.29,13.387,19.674,19.674,0,0,0-.492,12.661c1.234,4.239,3.048,12.077,1.332,16.938a8.564,8.564,0,0,0,.663,7.089,1.836,1.836,0,0,0,3.192-1.816,4.9,4.9,0,0,1-.391-4.051c1.954-5.539.388-13.491-1.27-19.186a15.984,15.984,0,0,1,.382-10.286,34.488,34.488,0,0,1,8.4-12.067,10.174,10.174,0,0,1,8.031-2.725l8.443.87a4.572,4.572,0,0,1,3.913,3.29c.151.54.313,1.049.479,1.531a18.068,18.068,0,0,0-11.366-.268c-1.347.306-10.029,2.774-12.388,15.75a23.379,23.379,0,0,0,2.822,16.242,7.351,7.351,0,0,1-.434,8.217c-3.99,5.219-5.638,10.046-4.9,14.345a10.923,10.923,0,0,0,2.347,5.127c-5.266,4.2-4.931,9.706-3.88,12.248a1.838,1.838,0,0,0,1.7,1.135h44.075a1.837,1.837,0,0,0,1.836-1.836c0-6.041-2.124-9.624-3.63-11.405,1.717-2.383,2.209-5.331,1.505-8.955a12.358,12.358,0,0,0-5.041-7.713,32.086,32.086,0,0,1-10.2-11.61,12.78,12.78,0,0,0,6.082-1.547l3.5,2.118a8.584,8.584,0,0,0,10.2-1.017l2.434-2.236a4.477,4.477,0,0,0-.331-6.865Zm-2.151,4.161-2.434,2.236a4.895,4.895,0,0,1-5.817.58l-4.457-2.7a1.836,1.836,0,0,0-2.066.111,8.6,8.6,0,0,1-7.219,1.125,13.847,13.847,0,0,1-5.73-5.937,1.836,1.836,0,1,0-3.325,1.558,17.376,17.376,0,0,0,6.861,7.358c.833,2.362,3.938,9.551,12.525,15.657a8.826,8.826,0,0,1,3.565,5.42c.553,2.843.171,4.884-1.216,6.516h-8.575a1.836,1.836,0,1,0,0,3.673h8.7c.816.8,2.666,3.085,3.072,7.635H257.6c-.255-1.69-.046-4.946,4.2-7.635h15.423a1.836,1.836,0,0,0,0-3.673H261.905a7.208,7.208,0,0,1-2.268-4.228c-.516-3.192.939-7.141,4.21-11.42a11.01,11.01,0,0,0,.683-12.306,19.5,19.5,0,0,1-2.376-13.726c2.028-11.154,9.276-12.763,9.615-12.832a2.02,2.02,0,0,0,.328-.095c.376-.145,9.279-3.45,17.04,6.354a87.385,87.385,0,0,0,15.27,15.093.808.808,0,0,1,.323.611.8.8,0,0,1-.258.624Z" transform="translate(8019.658 880.724)" fill="#4c2e88" stroke="#4c2e88" stroke-width="1"/>
    <path id="Path_37210" data-name="Path 37210" d="M344.742,213.733a1.833,1.833,0,0,0-2.03,1.62c-.072.636-.113,1.266-.124,1.873a1.837,1.837,0,0,0,1.8,1.867h.032a1.836,1.836,0,0,0,1.836-1.806c.009-.491.043-1,.1-1.525a1.835,1.835,0,0,0-1.619-2.03Z" transform="translate(7948.745 812.733)" fill="#4c2e88" stroke="#4c2e88" stroke-width="1"/>
    <path id="Path_37211" data-name="Path 37211" d="M388.833,212.511a1.837,1.837,0,0,0-2.5,2.691l.455.422a1.836,1.836,0,0,0,2.5-2.691Z" transform="translate(7916.282 814.012)" fill="#4c2e88" stroke="#4c2e88" stroke-width="1"/>
    <path id="Path_37212" data-name="Path 37212" d="M331.824,323.183a1.837,1.837,0,0,0-.773,2.479c1.67,3.185,4.51,7.469,8.559,9.79a1.836,1.836,0,0,0,1.827-3.186c-3.454-1.982-5.952-6.057-7.133-8.309a1.837,1.837,0,0,0-2.479-.774Z" transform="translate(7957.581 730.557)" fill="#4c2e88" stroke="#4c2e88" stroke-width="1"/>
    <path id="Path_37213" data-name="Path 37213" d="M181.254,92.354c-4.952-2.274-6.114-8.587-6.124-8.646a1.836,1.836,0,0,0-3.637.13c-.552,5.7-6.215,9.307-6.307,9.365a1.836,1.836,0,0,0,1.931,3.123,19.891,19.891,0,0,0,6.322-6.728,14.665,14.665,0,0,0,4.089,4.8,25.316,25.316,0,0,0-3.876,5.756q-.2-.379-.424-.767a1.836,1.836,0,1,0-3.172,1.851,15.682,15.682,0,0,1,1.847,4.8,1.836,1.836,0,0,0,1.792,1.554h.023a1.836,1.836,0,0,0,1.806-1.509,20.5,20.5,0,0,1,6.15-10.659,1.834,1.834,0,0,0-.421-3.069Z" transform="translate(8082.834 911.675)" fill="#4c2e88" stroke="#4c2e88" stroke-width="1"/>
    <path id="Path_37214" data-name="Path 37214" d="M482.3,131.126c-4.952-2.274-6.114-8.587-6.123-8.646a1.836,1.836,0,0,0-3.638.13c-.551,5.681-6.188,9.29-6.307,9.365a1.836,1.836,0,0,0,1.931,3.123,19.89,19.89,0,0,0,6.322-6.728,14.665,14.665,0,0,0,4.089,4.8,25.315,25.315,0,0,0-3.876,5.756c-.133-.253-.274-.509-.424-.767a1.836,1.836,0,0,0-3.172,1.852,15.662,15.662,0,0,1,1.847,4.8,1.836,1.836,0,0,0,1.792,1.554h.023a1.837,1.837,0,0,0,1.806-1.509,20.509,20.509,0,0,1,6.15-10.659,1.834,1.834,0,0,0-.421-3.069Z" transform="translate(7856.395 882.512)" fill="#4c2e88" stroke="#4c2e88" stroke-width="1"/>
    <path id="Path_37215" data-name="Path 37215" d="M181.255,388.277c-4.952-2.274-6.114-8.588-6.124-8.646a1.836,1.836,0,0,0-3.637.13c-.555,5.713-6.251,9.33-6.308,9.366a1.836,1.836,0,0,0,1.932,3.123,19.88,19.88,0,0,0,6.322-6.728,14.668,14.668,0,0,0,4.089,4.8,25.347,25.347,0,0,0-3.877,5.756q-.2-.379-.424-.767a1.836,1.836,0,1,0-3.172,1.852,15.692,15.692,0,0,1,1.847,4.8,1.837,1.837,0,0,0,1.792,1.555h.023a1.836,1.836,0,0,0,1.806-1.509,20.515,20.515,0,0,1,6.15-10.66,1.836,1.836,0,0,0-.42-3.071Z" transform="translate(8082.833 689.092)" fill="#4c2e88" stroke="#4c2e88" stroke-width="1"/>
  </g>
</svg>
