<svg xmlns="http://www.w3.org/2000/svg" width="83.109" height="102.403" viewBox="0 0 83.109 102.403">
  <path id="Business_Strategy_1_" d="M51.447,87.721H86.515a2.592,2.592,0,0,1,2.367,2.37L90.858,101.7a2.257,2.257,0,0,1-2.367,2.37H14.181a2.257,2.257,0,0,1-2.367-2.37l1.979-11.612a2.545,2.545,0,0,1,2.367-2.37h6.989l6.716-39.6L20.58,37.284q0-15.811,0-31.614H31.9v9.346H43.09V5.67H59.82v9.346H70.769V5.67H82.088V37.284L72.8,48.123l5.346,31.486" transform="translate(-9.781 -3.67)" fill="none" stroke="#c31f5d" stroke-miterlimit="22.926" stroke-width="4" fill-rule="evenodd"/>
</svg>
