<svg xmlns="http://www.w3.org/2000/svg" width="107.817" height="114.142" viewBox="0 0 107.817 114.142">
  <g id="Сгруппировать_140" data-name="Сгруппировать 140" transform="translate(2.059 2)">
    <path id="Контур_64" data-name="Контур 64" d="M68.994,28.707c0-5.042.447-15.2-12.659-15.2-10.445,0-19.94,11.156-20.257,17.724A17.058,17.058,0,0,0,21.765,49.8c-7.493,3.665-12.913,23.252-3.147,32.541-1.775,7.987,3.687,26.289,19.993,24.846,3.969,21.346,30.383,20.708,30.383,5.074V99.6" transform="translate(-13.343 -13.507)" fill="none" stroke="#4c2e88" stroke-linecap="round" stroke-linejoin="round" stroke-width="4"/>
    <path id="Контур_65" data-name="Контур 65" d="M41.687,36.986c-9.206,0-17.724-1.434-17.724-15.2" transform="translate(-1.227 -4.062)" fill="none" stroke="#4c2e88" stroke-linecap="round" stroke-linejoin="round" stroke-width="4"/>
    <path id="Контур_66" data-name="Контур 66" d="M24.383,42.26c4.265,2.783,11.479,1.685,15.354-2.387,2.86-3,5.915-7.778,9.066-7.431H89.314" transform="translate(-0.748 8.075)" fill="none" stroke="#4c2e88" stroke-linecap="round" stroke-linejoin="round" stroke-width="4"/>
    <path id="Контур_67" data-name="Контур 67" d="M33.425,56.844c1.86-4.354,6.33-5.487,12.659-5.487H79" transform="translate(9.568 29.673)" fill="none" stroke="#4c2e88" stroke-linecap="round" stroke-linejoin="round" stroke-width="4"/>
    <path id="Контур_68" data-name="Контур 68" d="M31.127,54.834c-4.243-.666-7.987-4.665-7.987-7.987" transform="translate(-2.166 24.528)" fill="none" stroke="#4c2e88" stroke-linecap="round" stroke-linejoin="round" stroke-width="4"/>
    <path id="Контур_69" data-name="Контур 69" d="M25.146,69.161c0-9.734,5.523-22.314,19.668-22.314" transform="translate(0.123 24.528)" fill="none" stroke="#4c2e88" stroke-linecap="round" stroke-linejoin="round" stroke-width="4"/>
    <path id="Контур_70" data-name="Контур 70" d="M20.652,33.5a7.613,7.613,0,0,1,7.987,7.534,8.6,8.6,0,0,1-5.316,7.987" transform="translate(-5.004 9.297)" fill="none" stroke="#4c2e88" stroke-linecap="round" stroke-linejoin="round" stroke-width="4"/>
    <path id="Контур_71" data-name="Контур 71" d="M63.082,26.672h-15.2c-6.883,0-13.656-1.051-16.041-6.943" transform="translate(7.76 -6.409)" fill="none" stroke="#4c2e88" stroke-linecap="round" stroke-linejoin="round" stroke-width="4"/>
    <line id="Линия_35" data-name="Линия 35" y2="15.191" transform="translate(55.651 25.326)" fill="none" stroke="#4c2e88" stroke-linecap="round" stroke-linejoin="round" stroke-width="4"/>
    <line id="Линия_36" data-name="Линия 36" y2="27.852" transform="translate(55.651 48.115)" fill="none" stroke="#4c2e88" stroke-linecap="round" stroke-linejoin="round" stroke-width="4"/>
    <line id="Линия_37" data-name="Линия 37" x2="15.191" transform="translate(55.651 60.774)" fill="none" stroke="#4c2e88" stroke-linecap="round" stroke-linejoin="round" stroke-width="4"/>
    <line id="Линия_38" data-name="Линия 38" x2="10.128" transform="translate(60.716 101.285)" fill="none" stroke="#4c2e88" stroke-linecap="round" stroke-linejoin="round" stroke-width="4"/>
    <circle id="Эллипс_13" data-name="Эллипс 13" cx="7.596" cy="7.596" r="7.596" transform="translate(88.567 32.924)" fill="none" stroke="#4c2e88" stroke-linecap="round" stroke-linejoin="round" stroke-width="4"/>
    <circle id="Эллипс_14" data-name="Эллипс 14" cx="7.596" cy="7.596" r="7.596" transform="translate(70.843 12.667)" fill="none" stroke="#4c2e88" stroke-linecap="round" stroke-linejoin="round" stroke-width="4"/>
    <circle id="Эллипс_15" data-name="Эллипс 15" cx="7.596" cy="7.596" r="7.596" transform="translate(70.843 53.178)" fill="none" stroke="#4c2e88" stroke-linecap="round" stroke-linejoin="round" stroke-width="4"/>
    <circle id="Эллипс_16" data-name="Эллипс 16" cx="7.596" cy="7.596" r="7.596" transform="translate(70.843 93.689)" fill="none" stroke="#4c2e88" stroke-linecap="round" stroke-linejoin="round" stroke-width="4"/>
    <circle id="Эллипс_17" data-name="Эллипс 17" cx="7.596" cy="7.596" r="7.596" transform="translate(88.567 73.435)" fill="none" stroke="#4c2e88" stroke-linecap="round" stroke-linejoin="round" stroke-width="4"/>
  </g>
</svg>
