<svg xmlns="http://www.w3.org/2000/svg" width="31.767" height="37.225" viewBox="0 0 31.767 37.225">
  <g id="Group_11936" data-name="Group 11936" transform="translate(1.001 1.058)">
    <g id="XMLID_1501_" transform="translate(-0.001)">
      <g id="XMLID_1499_">
        <path id="XMLID_1500_" d="M33.767,24.159V7.787A2.617,2.617,0,0,0,30.79,5.307a12.077,12.077,0,0,1-2.977.248,12.572,12.572,0,0,1-7.442-2.233,2.253,2.253,0,0,0-2.481,0A13.719,13.719,0,0,1,10.45,5.555a15.255,15.255,0,0,1-3.473-.248A2.373,2.373,0,0,0,4,7.787v16.62" transform="translate(-4 -2.95)" fill="none" stroke="#3c3c3c" stroke-width="2"/>
      </g>
      <g id="XMLID_1503_" transform="translate(0 10.542)">
        <path id="XMLID_1504_" d="M4,7.2V21.587a4.94,4.94,0,0,0,2.729,4.465l9.922,5.209a4.744,4.744,0,0,0,4.465,0L31.038,26.3a4.686,4.686,0,0,0,2.729-4.465V7.2" transform="translate(-4 -7.2)" fill="none" stroke="#3c3c3c" stroke-width="2"/>
      </g>
    </g>
    <path id="XMLID_1498_" d="M14.951,7.3l1.736,3.473a1.364,1.364,0,0,0,1.24.744l3.721.5c.5,0,.5.5.248.744l-2.729,2.729a1.9,1.9,0,0,0-.5,1.24l.744,3.721c0,.5-.248.744-.744.5L15.2,19.2a1.581,1.581,0,0,0-1.488,0L10.238,20.94c-.248.248-.744,0-.744-.5l.744-3.721c0-.5,0-.992-.5-1.24L7.261,13c-.5-.248-.248-.744.248-.744l3.721-.5a2.109,2.109,0,0,0,1.24-.744l1.736-3.473C14.207,7.049,14.7,7.049,14.951,7.3Z" transform="translate(0.428 3.245)" fill="none" stroke="#3c3c3c" stroke-width="2"/>
  </g>
</svg>
