<svg xmlns="http://www.w3.org/2000/svg" width="30.752" height="32.521" viewBox="0 0 30.752 32.521">
  <g id="Group_11937" data-name="Group 11937" transform="translate(1.249 1.25)">
    <path id="Path_38365" data-name="Path 38365" d="M21.437,30.8H8.4c-4.789,0-8.463-1.73-7.42-8.692l1.215-9.435c.643-3.474,2.859-4.8,4.8-4.8H22.9c1.973,0,4.06,1.43,4.8,4.8l1.215,9.435C29.8,28.283,26.226,30.8,21.437,30.8Zm.214-23.274A6.748,6.748,0,0,0,14.9.778h0A6.748,6.748,0,0,0,8.127,7.526h0" transform="translate(-0.802 -0.778)" fill="none" stroke="#3c3c3c" stroke-linecap="round" stroke-linejoin="round" stroke-width="2.5"/>
    <line id="Line_47" data-name="Line 47" x1="0.07" transform="translate(18.663 13.782)" fill="none" stroke="#3c3c3c" stroke-linecap="round" stroke-linejoin="round" stroke-width="2.5"/>
    <line id="Line_48" data-name="Line 48" x1="0.072" transform="translate(9.556 13.782)" fill="none" stroke="#3c3c3c" stroke-linecap="round" stroke-linejoin="round" stroke-width="2.5"/>
  </g>
</svg>
