<svg xmlns="http://www.w3.org/2000/svg" width="35" height="35" viewBox="0 0 35 35">
  <path id="Path_38360" data-name="Path 38360" d="M34.572,32.561,28.557,26.68h0l-.141-.214a1.417,1.417,0,0,0-1.99,0h0a14.2,14.2,0,0,1-18.408.6A13.438,13.438,0,0,1,5.032,9.293,14.132,14.132,0,0,1,22.667,4.1a13.547,13.547,0,0,1,7.55,16.425,1.363,1.363,0,0,0,.318,1.35,1.438,1.438,0,0,0,1.355.406,1.4,1.4,0,0,0,1.037-.944h0A16.335,16.335,0,0,0,24.178,1.647a17.069,17.069,0,0,0-21.222,5.5,16.2,16.2,0,0,0,2.38,21.34,17.131,17.131,0,0,0,21.937.9L32.6,34.6a1.433,1.433,0,0,0,1.989,0,1.372,1.372,0,0,0,0-1.96h0Z" fill="#3c3c3c"/>
</svg>
