<svg xmlns="http://www.w3.org/2000/svg" width="61.67" height="46.251" viewBox="0 0 61.67 46.251"><path d="M305.2,232.211l-5.781,21.2a1.929,1.929,0,0,1-1.86,1.421H262.871a1.929,1.929,0,0,1-1.854-1.4l-7.308-25.583h-8.182a1.928,1.928,0,1,1,0-3.855h9.635a1.929,1.929,0,0,1,1.854,1.4l1.251,4.386h45.072a1.928,1.928,0,0,1,1.86,2.433Zm-37.508,24.545a6.745,6.745,0,1,0,6.745,6.745A6.753,6.753,0,0,0,267.691,256.756Zm25.051,0a6.745,6.745,0,1,0,6.745,6.745A6.753,6.753,0,0,0,292.742,256.756Z" transform="translate(-243.599 -223.995)" fill="#c31f5d"/></svg>