<svg xmlns="http://www.w3.org/2000/svg" width="80.008" height="80.008" viewBox="0 0 80.008 80.008">
  <path id="noun-management-3670229" d="M137.382,35a1.905,1.905,0,0,0-1.847,1.443l-2.1,8.4q-.8.306-1.593.653l-7.413-4.45a1.9,1.9,0,0,0-2.327.286L111.326,52.1a1.9,1.9,0,0,0-.286,2.327l4.456,7.427q-.349.781-.655,1.577l-8.4,2.1A1.905,1.905,0,0,0,105,67.383v3.81a1.905,1.905,0,1,0,3.81,0V68.871L116.69,66.9a1.9,1.9,0,0,0,1.338-1.222,28.578,28.578,0,0,1,1.308-3.146,1.906,1.906,0,0,0-.08-1.814l-4.183-6.971,8.674-8.674,6.954,4.174a1.905,1.905,0,0,0,1.806.084,28.667,28.667,0,0,1,3.16-1.3,1.9,1.9,0,0,0,1.232-1.341l1.972-7.884h12.263l1.972,7.882a1.9,1.9,0,0,0,1.222,1.338,28.577,28.577,0,0,1,3.146,1.308,1.906,1.906,0,0,0,1.814-.08l6.971-4.183,8.674,8.674L170.757,60.7a1.905,1.905,0,0,0-.084,1.806,28.663,28.663,0,0,1,1.3,3.16,1.9,1.9,0,0,0,1.341,1.232l7.884,1.972v2.322a1.905,1.905,0,1,0,3.81,0v-3.81a1.905,1.905,0,0,0-1.443-1.847l-8.4-2.1q-.306-.8-.653-1.593l4.45-7.413a1.9,1.9,0,0,0-.287-2.327L167.9,41.327a1.905,1.905,0,0,0-2.327-.286L158.146,45.5q-.781-.349-1.577-.655l-2.1-8.4A1.905,1.905,0,0,0,152.622,35Zm9.3,19.124a1.905,1.905,0,0,0-.145,3.8A17.146,17.146,0,0,1,161.8,71.572a1.906,1.906,0,0,0,3.736-.759,20.969,20.969,0,0,0-18.668-16.681,1.884,1.884,0,0,0-.189-.01Zm-6.535.577a1.9,1.9,0,1,0,1.767,1.41,1.9,1.9,0,0,0-1.767-1.41Zm-6,2.808a1.9,1.9,0,0,0-1.2.362,20.963,20.963,0,0,0-8.477,12.944,1.906,1.906,0,0,0,3.736.759,17.148,17.148,0,0,1,6.937-10.589,1.905,1.905,0,0,0-1-3.477ZM145,69.292A13.312,13.312,0,0,0,136.539,92.9a31.807,31.807,0,0,0-12.765,5.2c-4.491,3.208-6.571,6.655-7.248,8.686a7.2,7.2,0,0,0-.093,4.783,5.852,5.852,0,0,0,5.709,3.44h7.62a1.905,1.905,0,1,0,0-3.81h-7.62c-1.86,0-1.93-.378-2.125-.919a4.492,4.492,0,0,1,.121-2.289,16.931,16.931,0,0,1,5.849-6.792c3.843-2.745,9.838-5.241,19.014-5.241s15.171,2.5,19.014,5.241a16.93,16.93,0,0,1,5.849,6.792,4.492,4.492,0,0,1,.121,2.289c-.195.542-.265.919-2.125.919H145a1.905,1.905,0,1,0,0,3.81h22.859a5.853,5.853,0,0,0,5.709-3.44,7.2,7.2,0,0,0-.093-4.783c-.677-2.031-2.757-5.478-7.248-8.686a31.8,31.8,0,0,0-12.765-5.2A13.311,13.311,0,0,0,145,69.292Zm-28.574,3.8a11.433,11.433,0,1,0,11.433,11.433A11.458,11.458,0,0,0,116.423,73.094Zm28.574,0a9.527,9.527,0,0,1,.028,19.054h-.054A9.527,9.527,0,0,1,145,73.094Zm28.574,0a11.433,11.433,0,1,0,11.433,11.433A11.458,11.458,0,0,0,173.572,73.094Zm-57.149,3.812a7.622,7.622,0,1,1-7.614,7.621A7.594,7.594,0,0,1,116.423,76.906Zm57.149,0a7.622,7.622,0,1,1-7.614,7.621A7.594,7.594,0,0,1,173.572,76.906Z" transform="translate(-104.998 -34.999)" fill="#4c2e88"/>
</svg>
