<svg xmlns="http://www.w3.org/2000/svg" width="66.671" height="100.006" viewBox="0 0 66.671 100.006">
  <g id="_003-creativity" data-name="003-creativity" transform="translate(-10)">
    <path id="Path_37707" data-name="Path 37707" d="M76.67,33.335a33.335,33.335,0,1,0-66.67,0,33,33,0,0,0,10.1,23.9,28.091,28.091,0,0,1,8.157,18.106,4.957,4.957,0,0,0-1.96,8A4.979,4.979,0,0,0,30,91.671h.548a13.974,13.974,0,0,0,25.571,0h.548a4.979,4.979,0,0,0,3.7-8.334,4.957,4.957,0,0,0-1.96-8,28.09,28.09,0,0,1,8.155-18.1,33,33,0,0,0,10.106-23.9ZM48.335,40V68.337H45V40Zm-8.967-3.334,3.705-6.52a.3.3,0,0,1,.52,0l3.709,6.52ZM38.335,40h3.334V68.337H38.335Zm0,31.668h10V75h-10Zm18.334,6.667a1.667,1.667,0,0,1,0,3.334H30a1.667,1.667,0,1,1,0-3.334ZM43.335,96.672a10.667,10.667,0,0,1-9.057-5H52.392a10.667,10.667,0,0,1-9.057,5Zm13.334-8.334H30A1.667,1.667,0,1,1,30,85H56.669a1.667,1.667,0,0,1,0,3.334ZM55.091,75H51.669V39.35a6.814,6.814,0,0,0-.882-3.294l-4.3-7.569a3.63,3.63,0,0,0-6.31,0l-4.3,7.565A6.639,6.639,0,0,0,35,39.35V75H31.58a31.08,31.08,0,0,0-9.152-20.168,29.7,29.7,0,0,1-9.094-21.5,30,30,0,1,1,50.908,21.5A31.078,31.078,0,0,0,55.091,75Z" transform="translate(0)" fill="#4c2e88"/>
    <path id="Path_37708" data-name="Path 37708" d="M40.668,4A26.7,26.7,0,0,0,14,30.668a1.667,1.667,0,1,0,3.334,0A23.361,23.361,0,0,1,40.668,7.334a1.667,1.667,0,0,0,0-3.334Z" transform="translate(2.667 2.667)" fill="#4c2e88"/>
  </g>
</svg>
