<svg xmlns="http://www.w3.org/2000/svg" width="79.254" height="79.254" viewBox="0 0 79.254 79.254">
  <g id="trello_collaboration_group" data-name="trello collaboration group" transform="translate(-2 -2)">
    <path id="Path_38372" data-name="Path 38372" d="M67.1,2H16.152A14.152,14.152,0,0,0,2,16.152V67.1A14.152,14.152,0,0,0,16.152,81.254h36.8a2.83,2.83,0,1,0,0-5.661h-36.8A8.491,8.491,0,0,1,7.661,67.1V16.152a8.491,8.491,0,0,1,8.491-8.491H67.1a8.491,8.491,0,0,1,8.491,8.491V67.1A8.491,8.491,0,0,1,67.1,75.593H64.271a2.83,2.83,0,1,0,0,5.661H67.1A14.152,14.152,0,0,0,81.254,67.1V16.152A14.152,14.152,0,0,0,67.1,2Z" transform="translate(0 0)" fill="#4c2e88"/>
    <path id="Path_38373" data-name="Path 38373" d="M11.661,6A5.661,5.661,0,0,0,6,11.661V51.288a5.661,5.661,0,0,0,5.661,5.661H25.813a5.661,5.661,0,0,0,5.661-5.661V11.661A5.661,5.661,0,0,0,25.813,6Zm0,45.288V11.661H25.813V51.288ZM62.61,34.3V11.661A5.661,5.661,0,0,0,56.949,6H42.8a5.661,5.661,0,0,0-5.661,5.661V34.3A5.661,5.661,0,0,0,42.8,39.966H56.949A5.661,5.661,0,0,0,62.61,34.3ZM42.8,11.661H56.949V34.3H42.8Z" transform="translate(7.322 7.322)" fill="#4c2e88"/>
  </g>
</svg>
