<svg id="Data_Analytic" data-name="Data Analytic" xmlns="http://www.w3.org/2000/svg" width="76.786" height="76.786" viewBox="0 0 76.786 76.786" fill="#4C2E88">
  <path id="Path_37092" data-name="Path 37092" d="M73.187,64.788h-1.2V21.6a4.8,4.8,0,0,0-4.8-4.8h-6V1.2a1.2,1.2,0,0,0-1.2-1.2H16.8a1.2,1.2,0,0,0-1.2,1.2V16.8h-6a4.8,4.8,0,0,0-4.8,4.8V64.788H3.6a3.6,3.6,0,0,0-3.6,3.6v2.4a6,6,0,0,0,6,6H70.787a6,6,0,0,0,6-6v-2.4A3.6,3.6,0,0,0,73.187,64.788ZM12,59.989V24h3.6V59.989ZM18,9.6H58.789V59.989H18ZM61.189,24h3.6V59.989h-3.6ZM18,2.4H58.789V7.2H18ZM7.2,21.6a2.4,2.4,0,0,1,2.4-2.4h6v2.4H10.8a1.2,1.2,0,0,0-1.2,1.2V61.189a1.2,1.2,0,0,0,1.2,1.2h55.19a1.2,1.2,0,0,0,1.2-1.2V22.8a1.2,1.2,0,0,0-1.2-1.2h-4.8V19.2h6a2.4,2.4,0,0,1,2.4,2.4V64.788H7.2ZM48.147,67.188l-.8,1.2h-17.9l-.8-1.2Zm26.239,3.6a3.6,3.6,0,0,1-3.6,3.6H6a3.6,3.6,0,0,1-3.6-3.6v-2.4a1.2,1.2,0,0,1,1.2-1.2H25.747L27.8,70.247c.5.768-.492.54,20.192.54.828,0,.888-.36,3.047-3.6H73.187a1.2,1.2,0,0,1,1.2,1.2Z"/>
  <path id="Path_37093" data-name="Path 37093" d="M18.2,3a1.2,1.2,0,1,0,1.2,1.2A1.2,1.2,0,0,0,18.2,3Z" transform="translate(3.396 0.599)"/>
  <path id="Path_37094" data-name="Path 37094" d="M22.2,3a1.2,1.2,0,1,0,1.2,1.2A1.2,1.2,0,0,0,22.2,3Z" transform="translate(4.195 0.599)"/>
  <path id="Path_37095" data-name="Path 37095" d="M26.2,3a1.2,1.2,0,1,0,1.2,1.2A1.2,1.2,0,0,0,26.2,3Z" transform="translate(4.995 0.599)"/>
  <path id="Path_37096" data-name="Path 37096" d="M48.995,35.007H45.4v-12a1.2,1.2,0,0,0-2.4,0v12H39.4v-6a1.2,1.2,0,0,0-2.4,0v6H33.4v-9.6a1.2,1.2,0,0,0-2.4,0v9.6H27.4v-3.6a1.2,1.2,0,0,0-2.4,0v3.6H21.4V30.7L32.2,19.9l3.947,3.959a1.2,1.2,0,0,0,1.7,0L46.6,15.1V17.01a1.2,1.2,0,0,0,2.4,0c0-7.127,1.044-6-6-6a1.2,1.2,0,0,0,0,2.4H44.9L37,21.317l-3.947-3.959a1.2,1.2,0,0,0-1.7,0L21.4,27.316V12.211a1.2,1.2,0,0,0-2.4,0v24a1.2,1.2,0,0,0,1.2,1.2H48.995a1.2,1.2,0,1,0,0-2.4Z" transform="translate(3.796 2.187)"/>
  <path id="Path_37097" data-name="Path 37097" d="M48.2,37h-24a1.2,1.2,0,0,0,0,2.4h24a1.2,1.2,0,1,0,0-2.4Z" transform="translate(4.595 7.392)"/>
  <path id="Path_37098" data-name="Path 37098" d="M48.2,41h-24a1.2,1.2,0,0,0,0,2.4h24a1.2,1.2,0,1,0,0-2.4Z" transform="translate(4.595 8.191)"/>
  <path id="Path_37099" data-name="Path 37099" d="M48.2,45h-24a1.2,1.2,0,0,0,0,2.4h24a1.2,1.2,0,1,0,0-2.4Z" transform="translate(4.595 8.99)"/>
  <path id="Path_37100" data-name="Path 37100" d="M20.2,37a1.2,1.2,0,1,0,1.2,1.2A1.2,1.2,0,0,0,20.2,37Z" transform="translate(3.796 7.392)"/>
  <path id="Path_37101" data-name="Path 37101" d="M20.2,41a1.2,1.2,0,1,0,1.2,1.2A1.2,1.2,0,0,0,20.2,41Z" transform="translate(3.796 8.191)"/>
  <path id="Path_37102" data-name="Path 37102" d="M20.2,45a1.2,1.2,0,1,0,1.2,1.2A1.2,1.2,0,0,0,20.2,45Z" transform="translate(3.796 8.99)"/>
</svg>
