<svg id="_007-data-report" data-name="007-data-report" xmlns="http://www.w3.org/2000/svg" width="100.516" height="100.517" viewBox="0 0 100.516 100.517">
  <path id="Path_37724" data-name="Path 37724" d="M95.49,6.7H56.959V5.026A5.026,5.026,0,0,0,51.933,0H48.583a5.026,5.026,0,0,0-5.026,5.026V6.7H5.026A5.026,5.026,0,0,0,0,11.727V13.4A5.026,5.026,0,0,0,3.351,18.12v49.2A5.026,5.026,0,0,0,0,72.036v1.675a5.026,5.026,0,0,0,5.026,5.026H24.945L18.708,93.185a3.285,3.285,0,0,0-.049,2.545A3.351,3.351,0,0,0,20.465,97.6l6.145,2.644a3.325,3.325,0,0,0,2.583.03,3.29,3.29,0,0,0,1.814-1.789l8.54-19.745h4.009V97.165a3.351,3.351,0,0,0,3.351,3.351h6.7a3.351,3.351,0,0,0,3.351-3.351V78.737h4.009L69.5,98.455a3.335,3.335,0,0,0,4.406,1.787L80.054,97.6a3.351,3.351,0,0,0,1.8-1.866,3.273,3.273,0,0,0-.044-2.531L75.571,78.737H95.49a5.026,5.026,0,0,0,5.026-5.026V72.036a5.026,5.026,0,0,0-3.351-4.718V18.12a5.026,5.026,0,0,0,3.351-4.718V11.727A5.026,5.026,0,0,0,95.49,6.7ZM46.907,5.026a1.675,1.675,0,0,1,1.675-1.675h3.351a1.675,1.675,0,0,1,1.675,1.675V6.7h-6.7ZM6.7,67.01V18.428H93.815V67.01ZM27.938,97.165l-6.16-2.639L28.6,78.737h7.3Zm25.67,0h-6.7V78.737h6.7Zm25.117-2.647L72.584,97.15,64.618,78.737h7.3Zm18.44-20.807a1.675,1.675,0,0,1-1.675,1.675H5.026a1.675,1.675,0,0,1-1.675-1.675V72.036a1.675,1.675,0,0,1,1.675-1.675H95.49a1.675,1.675,0,0,1,1.675,1.675Zm0-60.309a1.675,1.675,0,0,1-1.675,1.675H5.026A1.675,1.675,0,0,1,3.351,13.4V11.727a1.675,1.675,0,0,1,1.675-1.675H95.49a1.675,1.675,0,0,1,1.675,1.675Z" fill="#4c2e88"/>
  <path id="Path_37725" data-name="Path 37725" d="M34.026,33.428A5.026,5.026,0,0,0,39.052,28.4a4.964,4.964,0,0,0-.335-1.739l2.808-2.329a4.88,4.88,0,0,0,5.093,0l2.808,2.329A4.964,4.964,0,0,0,49.1,28.4a5.026,5.026,0,0,0,10.052,0,4.964,4.964,0,0,0-.335-1.739l2.808-2.329a4.975,4.975,0,0,0,2.553.717,5.026,5.026,0,1,0-5.026-5.026,4.964,4.964,0,0,0,.335,1.739l-2.808,2.329a4.88,4.88,0,0,0-5.093,0l-2.821-2.329a4.964,4.964,0,0,0,.335-1.739,5.026,5.026,0,1,0-10.052,0,4.964,4.964,0,0,0,.335,1.739l-2.808,2.329a4.975,4.975,0,0,0-2.553-.717,5.026,5.026,0,0,0,0,10.052ZM64.18,18.351a1.675,1.675,0,1,1-1.675,1.675A1.675,1.675,0,0,1,64.18,18.351ZM54.129,26.727A1.675,1.675,0,1,1,52.454,28.4,1.675,1.675,0,0,1,54.129,26.727ZM44.077,18.351A1.675,1.675,0,1,1,42.4,20.026,1.675,1.675,0,0,1,44.077,18.351ZM34.026,26.727A1.675,1.675,0,1,1,32.351,28.4,1.675,1.675,0,0,1,34.026,26.727Z" transform="translate(19.583 10.129)" fill="#4c2e88"/>
  <path id="Path_37726" data-name="Path 37726" d="M22.753,16A16.753,16.753,0,1,0,39.505,32.753,16.753,16.753,0,0,0,22.753,16Zm0,3.351a13.292,13.292,0,0,1,4.436.771L22.139,30.24,13,23.586a13.353,13.353,0,0,1,9.75-4.235Zm-13.4,13.4a13.307,13.307,0,0,1,1.676-6.466l10.051,7.319V46.039A13.415,13.415,0,0,1,9.351,32.753ZM24.428,46.039V33.14L30.187,21.6a13.389,13.389,0,0,1-5.76,24.435Z" transform="translate(4.052 10.804)" fill="#4c2e88"/>
  <path id="Path_37727" data-name="Path 37727" d="M67.531,41.428H65.856V24.675a1.675,1.675,0,0,0-3.351,0V41.428H55.8V33.052a1.675,1.675,0,1,0-3.351,0v8.376h-6.7V26.351a1.675,1.675,0,1,0-3.351,0V41.428H35.7V33.052a1.675,1.675,0,1,0-3.351,0v8.376H30.675a1.675,1.675,0,0,0,0,3.351H67.531a1.675,1.675,0,1,0,0-3.351Z" transform="translate(19.583 15.531)" fill="#4c2e88"/>
</svg>
