<svg xmlns="http://www.w3.org/2000/svg" width="206" height="206" viewBox="0 0 206 206">
  <g id="Group_11955" data-name="Group 11955" transform="translate(-1479 -3777)">
    <path id="Ellipse_278" data-name="Ellipse 278" d="M103,4A99.753,99.753,0,0,0,83.044,6.011,98.436,98.436,0,0,0,47.651,20.905,99.3,99.3,0,0,0,11.778,64.466,98.473,98.473,0,0,0,6.011,83.044a100,100,0,0,0,0,39.912,98.436,98.436,0,0,0,14.894,35.393,99.3,99.3,0,0,0,43.561,35.873,98.473,98.473,0,0,0,18.578,5.767,100,100,0,0,0,39.912,0,98.436,98.436,0,0,0,35.393-14.894,99.3,99.3,0,0,0,35.873-43.561,98.473,98.473,0,0,0,5.767-18.578,100,100,0,0,0,0-39.912,98.436,98.436,0,0,0-14.894-35.393,99.3,99.3,0,0,0-43.561-35.873,98.473,98.473,0,0,0-18.578-5.767A99.753,99.753,0,0,0,103,4m0-4A103,103,0,1,1,0,103,103,103,0,0,1,103,0Z" transform="translate(1479 3777)" fill="#c31f5d"/>
    <g id="Group_11951" data-name="Group 11951" transform="translate(1540.425 3835.134)">
      <path id="Path_38513" data-name="Path 38513" d="M38.692-1.722h5.756A11.275,11.275,0,0,1,55.72,9.821a5.91,5.91,0,0,0,.825,2.908l.006.011a6.234,6.234,0,0,0,8.541,2.218l.026-.015a11.278,11.278,0,0,1,5.6-1.494h0A11.273,11.273,0,0,1,80.495,19.1l2.855,4.955a2.5,2.5,0,0,1,.159.329,11.276,11.276,0,0,1-4.253,15.044l-.02.011A6.114,6.114,0,0,0,76.971,41.7l-.009.016a6.234,6.234,0,0,0,2.278,8.541,11.234,11.234,0,0,1,4.1,15.392l-.016.028L80.313,70.7a11.272,11.272,0,0,1-15.363,4.087,6.462,6.462,0,0,0-2.993-.844h0a6.192,6.192,0,0,0-4.407,1.826,6.275,6.275,0,0,0-1.826,4.438q0,.012,0,.024A11.275,11.275,0,0,1,44.444,91.454H38.692a11.276,11.276,0,0,1-11.276-11.26,5.9,5.9,0,0,0-.825-2.938l-.02-.035a6.191,6.191,0,0,0-8.495-2.273l-.038.021A11.276,11.276,0,0,1,2.675,70.622L-.211,65.644l0,0A11.233,11.233,0,0,1,3.891,50.3a6.276,6.276,0,0,0,0-10.871l-.007,0a11.276,11.276,0,0,1-4.1-15.376L-.184,24l3.051-5.015a11.271,11.271,0,0,1,15.36-4.127l.033.019A5.905,5.905,0,0,0,21.2,15.7a6.3,6.3,0,0,0,6.262-6.165A11.234,11.234,0,0,1,38.692-1.722Zm13.55,17A10.916,10.916,0,0,1,50.72,9.832q0-.049,0-.1a6.275,6.275,0,0,0-6.273-6.455V.778l0,2.5H38.692a6.234,6.234,0,0,0-6.234,6.264q0,.024,0,.048A11.276,11.276,0,0,1,21.183,20.7h-.027a10.911,10.911,0,0,1-5.429-1.514,6.271,6.271,0,0,0-8.544,2.32l-.03.051L4.1,26.571A6.288,6.288,0,0,0,6.4,35.1a11.276,11.276,0,0,1,0,19.527,6.241,6.241,0,0,0-2.278,8.506l2.9,5,.024.042a6.276,6.276,0,0,0,8.542,2.441A11.192,11.192,0,0,1,30.9,74.72a10.911,10.911,0,0,1,1.515,5.432q0,.013,0,.026a6.283,6.283,0,0,0,6.276,6.275h5.752a6.289,6.289,0,0,0,6.275-6.235A11.233,11.233,0,0,1,61.952,68.945h.11a11.478,11.478,0,0,1,5.373,1.5l.007,0A6.272,6.272,0,0,0,76,68.172l.017-.029,3.014-5.024a6.233,6.233,0,0,0-2.285-8.528A11.257,11.257,0,0,1,76.739,35.1a6.3,6.3,0,0,0,2.274-8.523,2.5,2.5,0,0,1-.138-.281l-2.712-4.706a6.3,6.3,0,0,0-5.446-3.144h0a6.27,6.27,0,0,0-3.1.826,11.234,11.234,0,0,1-15.375-4Z" transform="translate(0 0)" fill="#c31f5d"/>
      <path id="Ellipse_499" data-name="Ellipse 499" d="M12.092-2.5A14.592,14.592,0,0,1,26.684,12.092,14.592,14.592,0,0,1,12.092,26.684,14.592,14.592,0,0,1-2.5,12.092,14.592,14.592,0,0,1,12.092-2.5Zm0,24.184A9.592,9.592,0,1,0,2.5,12.092,9.6,9.6,0,0,0,12.092,21.684Z" transform="translate(29.497 32.774)" fill="#c31f5d"/>
    </g>
  </g>
</svg>
