<svg xmlns="http://www.w3.org/2000/svg" xmlns:xlink="http://www.w3.org/1999/xlink" width="150" height="150" viewBox="0 0 150 150">
  <defs>
    <clipPath id="clip-path">
      <rect id="Rectangle_4701" data-name="Rectangle 4701" width="150" height="150" transform="translate(885 2851)" fill="#c31f5d"/>
    </clipPath>
  </defs>
  <g id="Mask_Group_23" data-name="Mask Group 23" transform="translate(-885 -2851)" clip-path="url(#clip-path)">
    <g id="dashboard" transform="translate(882.581 2848.581)">
      <path id="Path_37815" data-name="Path 37815" d="M137.9,83.54V36.1a16.926,16.926,0,1,0-19.355-16.742H2.419v96.774h72.7A38.685,38.685,0,1,0,137.9,83.54ZM135.484,7.258a12.1,12.1,0,1,1-12.1,12.1A12.11,12.11,0,0,1,135.484,7.258ZM7.258,24.194h112a16.924,16.924,0,0,0,2.678,5.286l-14.8,14.8a7.005,7.005,0,0,0-6.22,0L96.048,39.4a7.19,7.19,0,0,0,.726-3.111,7.258,7.258,0,1,0-14.516,0,7.139,7.139,0,0,0,.728,3.109L70.853,51.532a7.19,7.19,0,0,0-3.111-.726A7.258,7.258,0,1,0,75,58.065a7.139,7.139,0,0,0-.728-3.109L86.4,42.823a7.016,7.016,0,0,0,6.22,0L97.5,47.7a7.19,7.19,0,0,0-.726,3.111,7.258,7.258,0,0,0,14.516,0,7.139,7.139,0,0,0-.728-3.109l14.8-14.8a16.832,16.832,0,0,0,7.7,3.2V80.24a38.475,38.475,0,0,0-48.387,7.952V77.419H70.161v29.032h5.545a38.813,38.813,0,0,0-.583,4.839H7.258Zm96.774,24.194a2.419,2.419,0,1,1-2.419,2.419A2.422,2.422,0,0,1,104.032,48.387ZM87.1,36.29a2.419,2.419,0,1,1,2.419,2.419A2.422,2.422,0,0,1,87.1,36.29ZM70.161,58.065a2.419,2.419,0,1,1-2.419-2.419A2.422,2.422,0,0,1,70.161,58.065Zm43.548,75a19.355,19.355,0,1,1,19.355-19.355A19.377,19.377,0,0,1,113.71,133.065ZM79.839,95.01a38.418,38.418,0,0,0-2.877,6.6H75V82.258h4.839ZM111.29,79.962V89.64a24.144,24.144,0,0,0-19.619,34l-8.393,4.846A33.755,33.755,0,0,1,111.29,79.962Zm2.419,67.619A33.854,33.854,0,0,1,85.674,132.69l8.427-4.865a24.114,24.114,0,0,0,39.218,0l8.427,4.865A33.854,33.854,0,0,1,113.71,147.581Zm30.431-19.1-8.393-4.846a24.144,24.144,0,0,0-19.619-34V79.962a33.755,33.755,0,0,1,28.011,48.523Z" fill="#c31f5d"/>
      <path id="Path_37816" data-name="Path 37816" d="M113.71,99.194a14.516,14.516,0,1,0,14.516,14.516A14.531,14.531,0,0,0,113.71,99.194Zm0,24.194a9.677,9.677,0,1,1,9.677-9.677A9.687,9.687,0,0,1,113.71,123.387Z" fill="#c31f5d"/>
      <path id="Path_37817" data-name="Path 37817" d="M12.1,29.032h4.839v4.839H12.1Z" fill="#c31f5d"/>
      <path id="Path_37818" data-name="Path 37818" d="M21.774,29.032H55.645v4.839H21.774Z" fill="#c31f5d"/>
      <path id="Path_37819" data-name="Path 37819" d="M12.1,38.71h4.839v4.839H12.1Z" fill="#c31f5d"/>
      <path id="Path_37820" data-name="Path 37820" d="M21.774,38.71H55.645v4.839H21.774Z" fill="#c31f5d"/>
      <path id="Path_37821" data-name="Path 37821" d="M12.1,48.387h4.839v4.839H12.1Z" fill="#c31f5d"/>
      <path id="Path_37822" data-name="Path 37822" d="M21.774,48.387H55.645v4.839H21.774Z" fill="#c31f5d"/>
      <path id="Path_37823" data-name="Path 37823" d="M12.1,58.065h4.839V62.9H12.1Z" fill="#c31f5d"/>
      <path id="Path_37824" data-name="Path 37824" d="M21.774,58.065H55.645V62.9H21.774Z" fill="#c31f5d"/>
      <path id="Path_37825" data-name="Path 37825" d="M12.1,106.452H26.613V82.258H12.1ZM16.935,87.1h4.839v14.516H16.935Z" fill="#c31f5d"/>
      <path id="Path_37826" data-name="Path 37826" d="M31.452,106.452H45.968V87.1H31.452ZM36.29,91.935h4.839v9.677H36.29Z" fill="#c31f5d"/>
      <path id="Path_37827" data-name="Path 37827" d="M50.806,106.452H65.323V67.742H50.806Zm4.839-33.871h4.839v29.032H55.645Z" fill="#c31f5d"/>
    </g>
  </g>
</svg>
