<svg xmlns="http://www.w3.org/2000/svg" xmlns:xlink="http://www.w3.org/1999/xlink" width="150" height="150" viewBox="0 0 150 150">
  <defs>
    <clipPath id="clip-path">
      <rect id="Rectangle_4698" data-name="Rectangle 4698" width="150" height="150" transform="translate(885 2173)" fill="#c31f5d"/>
    </clipPath>
  </defs>
  <g id="Mask_Group_19" data-name="Mask Group 19" transform="translate(-885 -2173)" clip-path="url(#clip-path)">
    <g id="_005-branding" data-name="005-branding" transform="translate(868.528 2156.531)">
      <path id="Path_37777" data-name="Path 37777" d="M109.727,113.336a2.683,2.683,0,0,0,1.072-2.623l-2.948-17.187,12.485-12.17a2.68,2.68,0,0,0-1.483-4.57l-17.258-2.5L93.88,58.649a2.683,2.683,0,0,0-4.809,0L81.357,74.285,64.1,76.787a2.68,2.68,0,0,0-1.483,4.57L75.1,93.527l-2.948,17.187a2.68,2.68,0,0,0,3.888,2.826l15.432-8.115,15.436,8.115a2.666,2.666,0,0,0,2.819-.2ZM103.1,90.672a2.687,2.687,0,0,0-.768,2.373l2.265,13.221-11.874-6.242a2.683,2.683,0,0,0-2.5,0l-11.874,6.242L80.61,93.044a2.687,2.687,0,0,0-.768-2.373L70.233,81.31l13.278-1.929a2.676,2.676,0,0,0,2.015-1.469l5.946-12.031,5.939,12.031a2.676,2.676,0,0,0,2.015,1.469L112.7,81.31Z" fill="#c31f5d"/>
      <path id="Path_37778" data-name="Path 37778" d="M141.592,123.234c-3.741,1.072-9.258,2.737-14.871,4.459a1.937,1.937,0,0,1,.193-.461l.629-1.054a1.9,1.9,0,0,1,1.14-.872c4.166-1.126,10.655-2.276,10.719-2.287l.15-.032a6.1,6.1,0,0,0,4.381-7.889L140.1,103.707a.75.75,0,0,1,.193-.783l8.751-8.236a6.11,6.11,0,0,0-.154-9.026l-9.019-7.947a.747.747,0,0,1-.222-.772L143.1,65.428a6.11,6.11,0,0,0-4.645-7.739l-11.791-2.369a.75.75,0,0,1-.579-.561l-2.766-11.7a6.106,6.106,0,0,0-7.893-4.381L104.042,42.52a.747.747,0,0,1-.779-.193L95.02,33.566a6.11,6.11,0,0,0-9.026.154l-7.947,9.019a.747.747,0,0,1-.775.222L65.746,39.508a6.1,6.1,0,0,0-7.739,4.645L55.637,55.944a.75.75,0,0,1-.561.579l-11.7,2.766a6.106,6.106,0,0,0-4.366,7.886l3.838,11.391a.75.75,0,0,1-.193.783l-8.751,8.24a6.106,6.106,0,0,0,.154,9.022l9.019,7.947a.754.754,0,0,1,.222.775.893.893,0,0,1-.043.161L40.98,115.28a65.214,65.214,0,0,0-18.316,6.174,2.68,2.68,0,0,0,2.58,4.7c.143-.075,14.293-7.722,29.41-6.167,8.022.825,12.627,3.791,16.694,6.41,3.03,1.951,5.9,3.795,9.54,4.345,16.594,2.5,22.486,4.216,22.511,8.933a1.733,1.733,0,0,1-.754,1.561c-1.05.793-4.77,2.433-16.654.557a125.488,125.488,0,0,1-13.185-2.876,2.68,2.68,0,1,0-1.476,5.152A128.824,128.824,0,0,0,85.1,147.074a66.941,66.941,0,0,0,10.33.943c4.777,0,8.218-.836,10.444-2.5a7.053,7.053,0,0,0,2.884-5.853,5.8,5.8,0,0,0-.032-.754c6.01-1.894,25.369-7.961,34.348-10.526,4.513-1.29,6.878-.261,7.368.743.422.865-.107,2.5-2.265,4.088-3.162,2.3-15.607,9.2-29.092,15.811C103.66,156.582,92.262,161.1,88.6,161.112H88.4c-22.936,0-63.273-11.816-63.68-11.934a2.68,2.68,0,0,0-1.515,5.142c.1.029,10.5,3.087,23.643,6.074,17.608,4.027,31.586,6.074,41.548,6.074h.214c10.919-.032,56.166-24.161,62.719-28.942,4.055-2.948,5.635-7.278,3.93-10.769-1.554-3.126-5.953-5.731-13.671-3.523Zm-59.907,2.2c-2.5-.375-4.684-1.787-7.436-3.548-4.345-2.8-9.751-6.282-19.048-7.236a48.3,48.3,0,0,0-8.551-.093l1.808-7.779a6.117,6.117,0,0,0-1.837-6.242L37.6,92.591a.743.743,0,0,1,0-1.1l8.729-8.232a6.128,6.128,0,0,0,1.6-6.392l-3.841-11.4a.743.743,0,0,1,.536-.965l11.7-2.766A6.121,6.121,0,0,0,60.9,56.991L63.273,45.2a.75.75,0,0,1,.947-.568l11.53,3.462a6.124,6.124,0,0,0,6.335-1.812l7.943-9.022a.715.715,0,0,1,.55-.25.736.736,0,0,1,.554.232l8.243,8.747a6.121,6.121,0,0,0,6.389,1.6l11.391-3.841a.75.75,0,0,1,.965.536l2.766,11.7a6.121,6.121,0,0,0,4.738,4.581l11.791,2.373a.76.76,0,0,1,.568.954l-3.473,11.5a6.124,6.124,0,0,0,1.812,6.335l9.022,7.957a.747.747,0,0,1,.254.55.715.715,0,0,1-.236.554l-8.747,8.243a6.132,6.132,0,0,0-1.6,6.4l3.841,11.391a.74.74,0,0,1-.054.6.75.75,0,0,1-.436.357c-.893.161-6.928,1.251-11.077,2.373a7.246,7.246,0,0,0-4.345,3.3l-.625,1.051a7.339,7.339,0,0,0-1,4.488,2.6,2.6,0,0,0,.039.357c-6.167,1.912-11.77,3.67-14.439,4.509-3.891-5.224-13.621-6.675-25.237-8.422Z" fill="#c31f5d"/>
      <path id="Path_37779" data-name="Path 37779" d="M90.4,29.657a2.68,2.68,0,0,0,2.68-2.68V19.148a2.68,2.68,0,0,0-5.36,0v7.836a2.68,2.68,0,0,0,2.68,2.673Z" fill="#c31f5d"/>
      <path id="Path_37780" data-name="Path 37780" d="M73.46,38.107a2.676,2.676,0,0,0,2.587,1.987A2.74,2.74,0,0,0,76.74,40a2.683,2.683,0,0,0,1.9-3.284l-1.822-6.789a2.68,2.68,0,0,0-5.177,1.39Z" fill="#c31f5d"/>
      <path id="Path_37781" data-name="Path 37781" d="M49.5,54.179a2.683,2.683,0,1,0,3.791-3.8l-4.977-4.967a2.68,2.68,0,1,0-3.788,3.791Z" fill="#c31f5d"/>
      <path id="Path_37782" data-name="Path 37782" d="M28.1,74.975a2.676,2.676,0,0,0,1.894,3.284l6.789,1.822a2.734,2.734,0,0,0,.693.089,2.68,2.68,0,0,0,.693-5.267l-6.789-1.822a2.676,2.676,0,0,0-3.28,1.894Z" fill="#c31f5d"/>
      <path id="Path_37783" data-name="Path 37783" d="M27.531,109.717a2.683,2.683,0,0,0,2.587,1.987,2.633,2.633,0,0,0,.7-.093l7.5-2.012a2.68,2.68,0,1,0-1.39-5.177l-7.5,2.015a2.676,2.676,0,0,0-1.894,3.28Z" fill="#c31f5d"/>
      <path id="Path_37784" data-name="Path 37784" d="M142.879,103.524a2.676,2.676,0,0,0,1.894,3.28l6.789,1.822a2.733,2.733,0,0,0,.693.089,2.68,2.68,0,0,0,.693-5.267l-6.789-1.822a2.676,2.676,0,0,0-3.28,1.9Z" fill="#c31f5d"/>
      <path id="Path_37785" data-name="Path 37785" d="M151.015,71.02l-6.789,1.822a2.68,2.68,0,0,0,.693,5.267,2.616,2.616,0,0,0,.7-.093L152.4,76.2a2.68,2.68,0,0,0-1.39-5.177Z" fill="#c31f5d"/>
      <path id="Path_37786" data-name="Path 37786" d="M128.147,52.671a2.687,2.687,0,0,0,3.791,0l4.974-4.977a2.68,2.68,0,1,0-3.791-3.788l-4.974,4.974a2.68,2.68,0,0,0,0,3.791Z" fill="#c31f5d"/>
      <path id="Path_37787" data-name="Path 37787" d="M104.142,39.447a2.587,2.587,0,0,0,.693.093,2.683,2.683,0,0,0,2.587-1.987l1.822-6.789a2.68,2.68,0,0,0-5.177-1.386l-1.822,6.789a2.68,2.68,0,0,0,1.9,3.28Z" fill="#c31f5d"/>
      <path id="Path_37788" data-name="Path 37788" d="M56.291,37.414a2.676,2.676,0,0,0,2.323,1.34,2.64,2.64,0,0,0,1.34-.357,2.68,2.68,0,0,0,.979-3.659L57,27.949a2.681,2.681,0,1,0-4.645,2.68Z" fill="#c31f5d"/>
      <path id="Path_37789" data-name="Path 37789" d="M27.513,58.242l6.789,3.93a2.681,2.681,0,0,0,2.68-4.645L30.193,53.6a2.681,2.681,0,1,0-2.68,4.645Z" fill="#c31f5d"/>
      <path id="Path_37790" data-name="Path 37790" d="M30.282,91.922a2.68,2.68,0,0,0-2.68-2.68H19.767a2.68,2.68,0,0,0,0,5.36H27.6a2.68,2.68,0,0,0,2.68-2.68Z" fill="#c31f5d"/>
      <path id="Path_37791" data-name="Path 37791" d="M163.178,87.106h-7.836a2.68,2.68,0,0,0,0,5.36h7.836a2.68,2.68,0,1,0,0-5.36Z" fill="#c31f5d"/>
      <path id="Path_37792" data-name="Path 37792" d="M146.255,60.675a2.673,2.673,0,0,0,1.336-.357l6.789-3.93a2.681,2.681,0,0,0-2.68-4.645l-6.789,3.93a2.68,2.68,0,0,0,1.344,5Z" fill="#c31f5d"/>
      <path id="Path_37793" data-name="Path 37793" d="M121.129,37.328a2.68,2.68,0,0,0,3.659-.983l3.93-6.789a2.681,2.681,0,0,0-4.645-2.68l-3.93,6.789a2.68,2.68,0,0,0,.986,3.662Z" fill="#c31f5d"/>
    </g>
  </g>
</svg>
