<svg xmlns="http://www.w3.org/2000/svg" xmlns:xlink="http://www.w3.org/1999/xlink" width="150" height="150" viewBox="0 0 150 150">
  <defs>
    <clipPath id="clip-path">
      <rect id="Rectangle_4697" data-name="Rectangle 4697" width="150" height="150" transform="translate(1459 2173)" fill="#c31f5d"/>
    </clipPath>
  </defs>
  <g id="Mask_Group_20" data-name="Mask Group 20" transform="translate(-1459 -2173)" clip-path="url(#clip-path)">
    <g id="_006-content-marketing" data-name="006-content-marketing" transform="translate(1456.581 2170.581)">
      <path id="Path_37794" data-name="Path 37794" d="M140.889,50.806H137.9V14.516a12.11,12.11,0,0,0-12.1-12.1h-9.677a12.111,12.111,0,0,0-12.1,12.1v7.258H70.161V9.677A7.267,7.267,0,0,0,62.9,2.419H24.194a7.267,7.267,0,0,0-7.258,7.258V38.71a7.267,7.267,0,0,0,7.258,7.258H41.129v4.839H13.95A11.544,11.544,0,0,0,2.419,62.337a11.725,11.725,0,0,0,.09,1.43l8.61,68.877a11.544,11.544,0,0,0,11.439,10.1h13l12.973,8.649a6.135,6.135,0,0,0,9.535-5.107v-3.542h74.216a11.547,11.547,0,0,0,11.441-10.1l8.61-68.874a12.337,12.337,0,0,0,.087-1.432,11.544,11.544,0,0,0-11.531-11.531Zm-32.018-36.29a7.267,7.267,0,0,1,7.258-7.258h9.677a7.267,7.267,0,0,1,7.258,7.258v12.1H108.871Zm0,16.935h24.194V36.29H108.871ZM123.387,75V41.129h9.677V75Zm8.182,4.839-9.264,18.527a1.549,1.549,0,0,1-2.673,0l-9.266-18.527Zm-22.7-38.71h9.677V75h-9.677ZM70.161,38.71v-12.1h33.871V50.806H45.968V45.968H62.9A7.267,7.267,0,0,0,70.161,38.71ZM24.194,41.129a2.422,2.422,0,0,1-2.419-2.419V9.677a2.422,2.422,0,0,1,2.419-2.419H62.9a2.422,2.422,0,0,1,2.419,2.419V38.71A2.422,2.422,0,0,1,62.9,41.129ZM147.53,63.165l-8.61,68.877a6.7,6.7,0,0,1-6.639,5.862H53.226v8.381a1.342,1.342,0,0,1-2.015,1.079L37.023,137.9H22.558a6.7,6.7,0,0,1-6.639-5.86L7.309,63.165a6.782,6.782,0,0,1-.051-.827,6.7,6.7,0,0,1,6.692-6.692h90.082V77.99l10.6,21.2H101.613v4.839h19.355a6.305,6.305,0,0,0,5.666-3.5L137.9,77.99V55.645h2.985a6.7,6.7,0,0,1,6.692,6.692,6.781,6.781,0,0,1-.051.827Z" fill="#c31f5d"/>
      <path id="Path_37795" data-name="Path 37795" d="M84.677,82.5V67.742a7.251,7.251,0,0,0-14.385-1.3A49.836,49.836,0,0,1,39.167,77.419H29.032a12.111,12.111,0,0,0-12.1,12.1v9.677a12.111,12.111,0,0,0,12.1,12.1h2.9l4.841,21.774H50.806V112.713a49.8,49.8,0,0,1,19.485,9.549,7.25,7.25,0,0,0,14.385-1.294v-14.76a12.1,12.1,0,0,0,0-23.7ZM36.29,106.452H29.032a7.248,7.248,0,0,1-6.813-4.839h9.232V96.774H21.774V91.935h9.677V87.1H22.219a7.248,7.248,0,0,1,6.813-4.839H36.29Zm9.677,21.774H40.65L36.888,111.29h2.281a49.418,49.418,0,0,1,6.8.515v16.42ZM70.161,116.11a54.7,54.7,0,0,0-29.032-9.571V82.171A54.718,54.718,0,0,0,70.161,72.6Zm9.677,4.858a2.419,2.419,0,0,1-4.839,0V67.742a2.419,2.419,0,0,1,4.839,0Zm4.839-19.8V87.544a7.214,7.214,0,0,1,0,13.623Z" fill="#c31f5d"/>
      <path id="Path_37796" data-name="Path 37796" d="M52.144,18.527,40.619,12.765a6.336,6.336,0,0,0-9.167,5.666V29.956a6.336,6.336,0,0,0,9.167,5.666L52.144,29.86a6.336,6.336,0,0,0,0-11.332Zm-2.165,7L38.453,31.294a1.541,1.541,0,0,1-2.165-1.338V18.431a1.5,1.5,0,0,1,1.5-1.5,1.481,1.481,0,0,1,.668.157l11.526,5.763a1.5,1.5,0,0,1,0,2.676Z" fill="#c31f5d"/>
      <path id="Path_37797" data-name="Path 37797" d="M101.613,108.871h33.871v4.839H101.613Z" fill="#c31f5d"/>
      <path id="Path_37798" data-name="Path 37798" d="M101.613,118.548h33.871v4.839H101.613Z" fill="#c31f5d"/>
      <path id="Path_37799" data-name="Path 37799" d="M120.968,128.226h4.839v4.839h-4.839Z" fill="#c31f5d"/>
      <path id="Path_37800" data-name="Path 37800" d="M130.645,128.226h4.839v4.839h-4.839Z" fill="#c31f5d"/>
      <path id="Path_37801" data-name="Path 37801" d="M101.613,128.226h4.839v4.839h-4.839Z" fill="#c31f5d"/>
      <path id="Path_37802" data-name="Path 37802" d="M111.29,128.226h4.839v4.839H111.29Z" fill="#c31f5d"/>
    </g>
  </g>
</svg>
