<svg xmlns="http://www.w3.org/2000/svg" xmlns:xlink="http://www.w3.org/1999/xlink" width="150" height="150" viewBox="0 0 150 150">
  <defs>
    <clipPath id="clip-path">
      <rect id="Rectangle_4700" data-name="Rectangle 4700" width="150" height="150" transform="translate(1459 2851)" fill="#c31f5d"/>
    </clipPath>
  </defs>
  <g id="Mask_Group_22" data-name="Mask Group 22" transform="translate(-1459 -2851)" clip-path="url(#clip-path)">
    <g id="_008-email-marketing" data-name="008-email-marketing" transform="translate(1456.581 2848.581)">
      <path id="Path_37805" data-name="Path 37805" d="M79.839,79.594a12.1,12.1,0,0,0,0-23.7V41.129a7.25,7.25,0,0,0-14.385-1.294A49.841,49.841,0,0,1,34.331,50.806h-5.3a12.111,12.111,0,0,0-12.1,12.1v9.677A12.1,12.1,0,0,0,24.2,83.654L2.419,100.423v52H84.677v-52L79.5,96.435a7.137,7.137,0,0,0,.341-2.081Zm4.839-11.852a7.248,7.248,0,0,1-4.839,6.813V60.931A7.243,7.243,0,0,1,84.677,67.742Zm-57.2,58.065L7.258,144.474V107.139Zm9.755-2.419H49.86l26.209,24.194H11.027Zm22.379,2.419,20.223-18.668v37.335Zm-3.566-3.293-4.3-3.965H35.344l-4.3,3.965L8.586,101.78l18.963-14.6,4.338,21.692H45.968V86.1a49.8,49.8,0,0,1,19.485,9.549,7.239,7.239,0,0,0,11.2,4.706l1.853,1.427ZM65.323,89.5A54.7,54.7,0,0,0,36.29,79.923V55.558a54.7,54.7,0,0,0,29.032-9.573Zm-24.194-4.3v18.84H35.855L31.984,84.677h2.347A49.383,49.383,0,0,1,41.129,85.193ZM70.161,41.129a2.419,2.419,0,1,1,4.839,0V94.355a2.419,2.419,0,1,1-4.839,0ZM22.219,75h4.394V70.161H21.774V65.323h4.839V60.484H22.219a7.248,7.248,0,0,1,6.813-4.839h2.419V79.839H29.032A7.248,7.248,0,0,1,22.219,75Z" fill="#c31f5d"/>
      <path id="Path_37806" data-name="Path 37806" d="M94.355,65.323h9.677v4.839H94.355Z" fill="#c31f5d"/>
      <path id="Path_37807" data-name="Path 37807" d="M87.255,48.208h14.514v4.838H87.255Z" transform="translate(-8.117 81.67) rotate(-45)" fill="#c31f5d"/>
      <path id="Path_37808" data-name="Path 37808" d="M92.093,77.579h4.838V92.093H92.093Z" transform="translate(-32.31 91.694) rotate(-45)" fill="#c31f5d"/>
      <path id="Path_37809" data-name="Path 37809" d="M125.806,99.194a26.613,26.613,0,1,0,26.613,26.613A26.644,26.644,0,0,0,125.806,99.194Zm0,48.387a21.774,21.774,0,1,1,21.774-21.774A21.8,21.8,0,0,1,125.806,147.581Z" fill="#c31f5d"/>
      <path id="Path_37810" data-name="Path 37810" d="M142.742,55.645H108.871V89.516h33.871ZM137.9,84.677H113.71V60.484H137.9Z" fill="#c31f5d"/>
      <path id="Path_37811" data-name="Path 37811" d="M118.548,65.323h14.516v4.839H118.548Z" fill="#c31f5d"/>
      <path id="Path_37812" data-name="Path 37812" d="M118.548,75h14.516v4.839H118.548Z" fill="#c31f5d"/>
      <path id="Path_37813" data-name="Path 37813" d="M125.806,45.968V41.129a12.111,12.111,0,0,1-12.1-12.1V19.355a12.1,12.1,0,0,1,24.194,0V36.29a2.419,2.419,0,0,1-4.839,0V19.355a7.258,7.258,0,1,0-14.516,0v9.677a7.267,7.267,0,0,0,7.258,7.258,7.176,7.176,0,0,0,2.419-.445v.445a7.258,7.258,0,1,0,14.516,0V19.355a16.935,16.935,0,0,0-33.871,0v9.677A16.954,16.954,0,0,0,125.806,45.968Zm0-14.516a2.423,2.423,0,0,1-2.419-2.419V19.355a2.419,2.419,0,0,1,4.839,0v9.677A2.423,2.423,0,0,1,125.806,31.452Z" fill="#c31f5d"/>
      <path id="Path_37814" data-name="Path 37814" d="M134.4,120.14l-11.526-5.763a6.336,6.336,0,0,0-9.167,5.666v11.526a6.336,6.336,0,0,0,9.167,5.666l11.523-5.763a6.335,6.335,0,0,0,0-11.332Zm-2.165,7-11.526,5.763a1.536,1.536,0,0,1-2.163-1.338V120.044a1.5,1.5,0,0,1,2.163-1.338l11.526,5.763a1.5,1.5,0,0,1,0,2.676Z" fill="#c31f5d"/>
    </g>
  </g>
</svg>
