<svg xmlns="http://www.w3.org/2000/svg" xmlns:xlink="http://www.w3.org/1999/xlink" width="150" height="150" viewBox="0 0 150 150">
  <defs>
    <clipPath id="clip-path">
      <rect id="Rectangle_4699" data-name="Rectangle 4699" width="150" height="150" transform="translate(311 2173)" fill="#c31f5d"/>
    </clipPath>
  </defs>
  <g id="Mask_Group_18" data-name="Mask Group 18" transform="translate(-311 -2173)" clip-path="url(#clip-path)">
    <g id="_004-attraction" data-name="004-attraction" transform="translate(311 2173)">
      <path id="Path_37764" data-name="Path 37764" d="M133.008,33.447a11.426,11.426,0,1,0-11.426-11.426A11.439,11.439,0,0,0,133.008,33.447Zm0-18.457a7.031,7.031,0,1,1-7.031,7.031A7.039,7.039,0,0,1,133.008,14.99Z" fill="#c31f5d"/>
      <path id="Path_37765" data-name="Path 37765" d="M133,36.474h-.139A16.8,16.8,0,0,0,116.089,53.25v1.312a7.507,7.507,0,0,0,7.5,7.5h18.694A7.8,7.8,0,0,0,150,54.395V53.223A16.893,16.893,0,0,0,133,36.474Zm12.6,17.92a3.429,3.429,0,0,1-3.324,3.272H123.587a3.108,3.108,0,0,1-3.1-3.1V53.25a12.4,12.4,0,0,1,12.382-12.381H133a12.493,12.493,0,0,1,12.6,12.354Z" fill="#c31f5d"/>
      <path id="Path_37766" data-name="Path 37766" d="M144.434,99.365a11.426,11.426,0,1,0-11.426,11.426A11.439,11.439,0,0,0,144.434,99.365Zm-18.457,0a7.031,7.031,0,1,1,7.031,7.031A7.039,7.039,0,0,1,125.977,99.365Z" fill="#c31f5d"/>
      <path id="Path_37767" data-name="Path 37767" d="M133,113.818h-.139a16.8,16.8,0,0,0-16.776,16.776v1.312a7.507,7.507,0,0,0,7.5,7.5h18.694A7.8,7.8,0,0,0,150,131.738v-1.172A16.893,16.893,0,0,0,133,113.818Zm12.6,17.92a3.429,3.429,0,0,1-3.324,3.272H123.587a3.108,3.108,0,0,1-3.1-3.1v-1.312a12.4,12.4,0,0,1,12.382-12.381H133a12.493,12.493,0,0,1,12.6,12.354Z" fill="#c31f5d"/>
      <path id="Path_37768" data-name="Path 37768" d="M84.814,19.482h-29.3A55.577,55.577,0,0,0,0,74.992S0,75,0,75s0,0,0,.005,0,.015,0,.023a55.275,55.275,0,0,0,19.829,42.191,2.2,2.2,0,0,0,2.836-3.357A50.961,50.961,0,0,1,4.448,77.2H29.39a26.255,26.255,0,0,0,26.128,24.023h9.229v24.9H55.979a51.494,51.494,0,0,1-25.167-6.607,2.2,2.2,0,0,0-2.153,3.831,55.894,55.894,0,0,0,27.32,7.17H84.814a2.2,2.2,0,0,0,2.2-2.2v-29.3a2.2,2.2,0,0,0-2.2-2.2h-29.3a21.826,21.826,0,0,1-16.14-36.52,2.2,2.2,0,0,0-3.248-2.96A26.14,26.14,0,0,0,29.393,72.8H4.443A51.184,51.184,0,0,1,55.518,23.877h9.229v24.9H55.518a26.056,26.056,0,0,0-10.207,2.062,2.2,2.2,0,1,0,1.712,4.047,21.689,21.689,0,0,1,8.495-1.714h29.3a2.2,2.2,0,0,0,2.2-2.2V21.68a2.2,2.2,0,0,0-2.2-2.2Zm-2.2,106.641H69.141v-24.9H82.617Zm0-77.344H69.141v-24.9H82.617Z" fill="#c31f5d"/>
      <path id="Path_37769" data-name="Path 37769" d="M93.311,23.877h15.82a2.2,2.2,0,0,0,0-4.395H93.311a2.2,2.2,0,0,0,0,4.395Z" fill="#c31f5d"/>
      <path id="Path_37770" data-name="Path 37770" d="M91.7,50.977a2.2,2.2,0,0,0,2.2,2.2h12.3a2.2,2.2,0,0,0,0-4.395H93.9A2.2,2.2,0,0,0,91.7,50.977Z" fill="#c31f5d"/>
      <path id="Path_37771" data-name="Path 37771" d="M107.959,36.328a2.2,2.2,0,0,0,2.2,2.2h6.3a2.2,2.2,0,0,0,0-4.395h-6.3A2.2,2.2,0,0,0,107.959,36.328Z" fill="#c31f5d"/>
      <path id="Path_37772" data-name="Path 37772" d="M100.781,38.525a2.2,2.2,0,0,0,0-4.395H95.068a2.2,2.2,0,0,0,0,4.395Z" fill="#c31f5d"/>
      <path id="Path_37773" data-name="Path 37773" d="M109.131,126.123H93.311a2.2,2.2,0,0,0,0,4.395h15.82a2.2,2.2,0,0,0,0-4.395Z" fill="#c31f5d"/>
      <path id="Path_37774" data-name="Path 37774" d="M108.4,99.023a2.2,2.2,0,0,0-2.2-2.2H93.9a2.2,2.2,0,0,0,0,4.395h12.3A2.2,2.2,0,0,0,108.4,99.023Z" fill="#c31f5d"/>
      <path id="Path_37775" data-name="Path 37775" d="M107.227,115.869h9.229a2.2,2.2,0,0,0,0-4.395h-9.229a2.2,2.2,0,0,0,0,4.395Z" fill="#c31f5d"/>
      <path id="Path_37776" data-name="Path 37776" d="M95.068,111.475a2.2,2.2,0,0,0,0,4.395h2.783a2.2,2.2,0,0,0,0-4.395Z" fill="#c31f5d"/>
    </g>
  </g>
</svg>
