<svg xmlns="http://www.w3.org/2000/svg" xmlns:xlink="http://www.w3.org/1999/xlink" width="150" height="150" viewBox="0 0 150 150">
  <defs>
    <clipPath id="clip-path">
      <rect id="Rectangle_4693" data-name="Rectangle 4693" width="150" height="150" transform="translate(885 1495)" fill="#c31f5d"/>
    </clipPath>
  </defs>
  <g id="Mask_Group_16" data-name="Mask Group 16" transform="translate(-885 -1495)" clip-path="url(#clip-path)">
    <g id="_002-pay-per-click" data-name="002-pay-per-click" transform="translate(885 1495)">
      <g id="Group_11894" data-name="Group 11894">
        <path id="Path_37750" data-name="Path 37750" d="M136.929,24.68h-5.61a18.045,18.045,0,0,0-.507-14.424,2.2,2.2,0,0,0-3.962,1.9,13.535,13.535,0,0,1,1.337,5.9A13.666,13.666,0,1,1,114.522,4.395a13.518,13.518,0,0,1,6.137,1.457,2.2,2.2,0,0,0,1.978-3.925A17.877,17.877,0,0,0,114.522,0a18.049,18.049,0,0,0-16.8,24.68H89.936a18.044,18.044,0,0,0-29.871,0H13.071a6.6,6.6,0,0,0-6.592,6.592v80.85a5.133,5.133,0,0,0,5.127,5.127H51.95v5.214a10.855,10.855,0,0,0,8.638,10.612v1.489h-.543a3.666,3.666,0,0,0-3.662,3.662v8.111A3.666,3.666,0,0,0,60.045,150H89.955a3.666,3.666,0,0,0,3.662-3.662v-8.111a3.666,3.666,0,0,0-3.662-3.662H88.932v-1.4a10.854,10.854,0,0,0,9.118-10.7v-5.214H112.5a2.2,2.2,0,0,0,0-4.395H98.05V100.5a7.541,7.541,0,0,0-7.159-7.543h0a7.363,7.363,0,0,0-5.4,2.079l-.064.063A7.4,7.4,0,0,0,75,95.1,7.4,7.4,0,0,0,66.771,93.6V84.452h31.38a18.058,18.058,0,1,0,18.617-15.733,13.574,13.574,0,0,0-13.376-11.375H66.211a2.2,2.2,0,0,0,0,4.395h37.18a9.175,9.175,0,0,1,8.978,7.342A18.124,18.124,0,0,0,99.293,80.058h-33a7.423,7.423,0,0,0-7.184-4.776,7.478,7.478,0,0,0-6.63,4.776H46.609a9.159,9.159,0,0,1,0-18.319h9.348a2.2,2.2,0,0,0,0-4.395H46.609a13.554,13.554,0,0,0,0,27.108h5.341v28.4H11.606a.733.733,0,0,1-.732-.732V44.406H59.7a18.04,18.04,0,0,0,30.592,0h48.831v67.716a.733.733,0,0,1-.732.732h-15.64a2.2,2.2,0,0,0,0,4.395h15.64a5.133,5.133,0,0,0,5.127-5.127V31.272a6.6,6.6,0,0,0-6.592-6.592ZM116.058,73.1a13.666,13.666,0,1,1-13.666,13.666A13.681,13.681,0,0,1,116.058,73.1ZM89.223,138.959v6.647H60.777v-6.647ZM56.344,82.825a3.112,3.112,0,0,1,2.911-3.151,3.016,3.016,0,0,1,3.121,3.014v17.678a2.2,2.2,0,0,0,4.395,0,3.016,3.016,0,1,1,6.032,0,2.2,2.2,0,0,0,4.395,0,3.016,3.016,0,1,1,6.032,0,2.2,2.2,0,0,0,4.395,0,3.016,3.016,0,0,1,3.121-3.014,3.112,3.112,0,0,1,2.911,3.151v21.96a6.449,6.449,0,0,1-6.441,6.441h-.48a2.2,2.2,0,0,0-2.2,2.2v3.463H64.983V131.1a2.2,2.2,0,0,0-2.2-2.2,6.449,6.449,0,0,1-6.441-6.441ZM27.8,40.011H10.873V31.272a2.2,2.2,0,0,1,2.2-2.2H27.8V40.011Zm29.9,0H32.194V29.075H57.883A18,18,0,0,0,57.7,40.011ZM75,48.486A13.665,13.665,0,1,1,88.666,34.821,13.681,13.681,0,0,1,75,48.486Zm64.127-8.475H92.3a18,18,0,0,0-.179-10.937h8.107a18.03,18.03,0,0,0,28.595,0h8.11a2.2,2.2,0,0,1,2.2,2.2v8.739Z" fill="#c31f5d"/>
        <path id="Path_37751" data-name="Path 37751" d="M48.828,70.9a2.2,2.2,0,0,0,2.2,2.2h47.95a2.2,2.2,0,1,0,0-4.395H51.025a2.2,2.2,0,0,0-2.2,2.2Z" fill="#c31f5d"/>
        <path id="Path_37752" data-name="Path 37752" d="M114.19,88.958h3.737a1.183,1.183,0,0,1,0,2.367h-6.583a2.2,2.2,0,1,0,0,4.395h2.518v1.272a2.2,2.2,0,0,0,4.395,0V95.7a5.574,5.574,0,0,0-.329-11.139H114.19a1.183,1.183,0,0,1,0-2.367h6.584a2.2,2.2,0,0,0,0-4.395h-2.518V76.53a2.2,2.2,0,0,0-4.395,0v1.289a5.574,5.574,0,0,0,.329,11.139Z" fill="#c31f5d"/>
        <path id="Path_37753" data-name="Path 37753" d="M76.868,32.624H73.132a1.183,1.183,0,0,1,0-2.367h6.584a2.2,2.2,0,0,0,0-4.395H77.2V24.59a2.2,2.2,0,1,0-4.395,0v1.289a5.574,5.574,0,0,0,.329,11.139h3.737a1.183,1.183,0,0,1,0,2.367H70.285a2.2,2.2,0,0,0,0,4.395H72.8v1.272a2.2,2.2,0,0,0,4.395,0V43.763a5.574,5.574,0,0,0-.329-11.139Z" fill="#c31f5d"/>
        <path id="Path_37754" data-name="Path 37754" d="M114.522,30.488a2.2,2.2,0,0,0,2.2-2.2V27a5.574,5.574,0,0,0-.329-11.139h-3.737a1.183,1.183,0,0,1,0-2.367h6.584a2.2,2.2,0,0,0,0-4.395h-2.518V7.829a2.2,2.2,0,0,0-4.395,0V9.118a5.574,5.574,0,0,0,.329,11.139h3.737a1.183,1.183,0,0,1,0,2.367h-6.583a2.2,2.2,0,0,0,0,4.395h2.518v1.272a2.2,2.2,0,0,0,2.2,2.2Z" fill="#c31f5d"/>
        <path id="Path_37755" data-name="Path 37755" d="M15.527,102.1a6.592,6.592,0,1,0,6.592-6.592A6.6,6.6,0,0,0,15.527,102.1Zm8.789,0a2.2,2.2,0,1,1-2.2-2.2A2.2,2.2,0,0,1,24.316,102.1Z" fill="#c31f5d"/>
        <path id="Path_37756" data-name="Path 37756" d="M44.971,102.1a6.592,6.592,0,1,0-6.592,6.592A6.6,6.6,0,0,0,44.971,102.1Zm-8.789,0a2.2,2.2,0,1,1,2.2,2.2A2.2,2.2,0,0,1,36.182,102.1Z" fill="#c31f5d"/>
      </g>
    </g>
  </g>
</svg>
