<svg xmlns="http://www.w3.org/2000/svg" xmlns:xlink="http://www.w3.org/1999/xlink" width="150" height="150" viewBox="0 0 150 150">
  <defs>
    <clipPath id="clip-path">
      <rect id="Rectangle_4696" data-name="Rectangle 4696" width="150" height="150" transform="translate(1459 1495)" fill="#c31f5d"/>
    </clipPath>
  </defs>
  <g id="Mask_Group_17" data-name="Mask Group 17" transform="translate(-1459 -1495)" clip-path="url(#clip-path)">
    <g id="_003-social-media" data-name="003-social-media" transform="translate(1458.875 1495)">
      <path id="Path_37757" data-name="Path 37757" d="M131.052,93.1a59.012,59.012,0,0,0,.018-36.183,29.4,29.4,0,0,0-11.2-56.9,29.452,29.452,0,0,0-26.68,19.017,59.028,59.028,0,0,0-36.138,0A29.394,29.394,0,1,0,19.181,56.9,59.026,59.026,0,0,0,19.2,93.1,29.441,29.441,0,0,0,.146,120.607,29.125,29.125,0,0,0,3,133.249a2.2,2.2,0,1,0,3.967-1.893,24.76,24.76,0,0,1-2.423-10.749,25,25,0,1,1,8.08,18.4,2.2,2.2,0,0,0-2.975,3.234,29.394,29.394,0,0,0,47.422-11.326,59.035,59.035,0,0,0,36.115,0A29.394,29.394,0,1,0,131.052,93.1Zm-28.52-80.866a24.837,24.837,0,0,1,17.461-7.824c.243-.007.483-.01.726-.01a25,25,0,0,1,.7,49.985q-.364.01-.726.01a25,25,0,0,1-18.166-42.161ZM91.95,126.7a54.638,54.638,0,0,1-33.65,0A29.4,29.4,0,0,0,23.416,91.859,54.617,54.617,0,0,1,23.4,58.138a29.434,29.434,0,0,0,20.51-3.1,2.2,2.2,0,1,0-2.151-3.831,25.015,25.015,0,1,1,7.122-5.972,2.2,2.2,0,1,0,3.4,2.787,29.4,29.4,0,0,0,6.01-24.771,54.63,54.63,0,0,1,33.665,0A29.431,29.431,0,0,0,120.7,58.785c.283,0,.568,0,.853-.013a29.716,29.716,0,0,0,5.3-.631,54.614,54.614,0,0,1-.017,33.717A29.4,29.4,0,0,0,91.95,126.7Zm28.759,18.908a25,25,0,1,1,25-25,25.027,25.027,0,0,1-25,25Zm0,0" fill="#c31f5d"/>
      <path id="Path_37758" data-name="Path 37758" d="M44.5,16.422a2.2,2.2,0,0,0-2.5.022,12.362,12.362,0,0,1-2.392,1.317,8.169,8.169,0,0,0-13.149,5.523,11.979,11.979,0,0,1-8.049-4.976,2.2,2.2,0,0,0-3.806.371,18.594,18.594,0,0,0-1.353,7.655,13.42,13.42,0,0,0,5.4,10.392,13.34,13.34,0,0,1-4.621.639,2.2,2.2,0,0,0-1.155,4.116,22.16,22.16,0,0,0,10.748,2.874A19.376,19.376,0,0,0,33.5,41.7a18.367,18.367,0,0,0,8.018-9.786,2.281,2.281,0,0,0,.117-.328A22.83,22.83,0,0,0,42.8,24.228c0-.114,0-.23-.008-.344A12.5,12.5,0,0,0,45.4,18.759a2.2,2.2,0,0,0-.9-2.337Zm-6.166,7.121a3.752,3.752,0,0,1,.066.692,18.514,18.514,0,0,1-.93,5.951,2.1,2.1,0,0,0-.084.256,13.918,13.918,0,0,1-6.121,7.466,15.11,15.11,0,0,1-8.815,2.005,17.5,17.5,0,0,0,2.058-1.2,2.2,2.2,0,0,0-.342-3.827c-4.1-1.823-6.3-4.723-6.52-8.617a12.7,12.7,0,0,1,.08-2.265,16.377,16.377,0,0,0,10.935,3.8,2.2,2.2,0,0,0,2.141-2.2V24.245a3.773,3.773,0,0,1,6.619-2.526,2.194,2.194,0,0,0,1.007.656,2.205,2.205,0,0,0-.094,1.167Zm0,0" fill="#c31f5d"/>
      <path id="Path_37759" data-name="Path 37759" d="M113.479,31.126h3.115v13.1a2.2,2.2,0,1,0,4.395,0v-13.1h3.393a2.2,2.2,0,0,0,0-4.395h-3.393V20.583a3.833,3.833,0,0,1,3.829-3.828h2.845a2.2,2.2,0,1,0,0-4.395h-2.845a8.233,8.233,0,0,0-8.224,8.223v6.148h-3.115a2.2,2.2,0,0,0,0,4.395Zm0,0" fill="#c31f5d"/>
      <path id="Path_37760" data-name="Path 37760" d="M24.556,131.971a3.024,3.024,0,0,0,1.512-.4l14.956-8.639a3.022,3.022,0,0,0,0-5.236l-14.956-8.639a3.024,3.024,0,0,0-4.535,2.618v17.277a3.022,3.022,0,0,0,3.024,3.022Zm1.371-17.924,10.844,6.263-10.844,6.263Zm0,0" fill="#c31f5d"/>
      <path id="Path_37761" data-name="Path 37761" d="M130.257,105.045h-19.1a6.022,6.022,0,0,0-6.015,6.016v19.092a6.022,6.022,0,0,0,6.015,6.016h19.1a6.022,6.022,0,0,0,6.015-6.016V111.062A6.022,6.022,0,0,0,130.257,105.045Zm1.62,25.108a1.622,1.622,0,0,1-1.62,1.622h-19.1a1.622,1.622,0,0,1-1.62-1.622V111.062a1.623,1.623,0,0,1,1.62-1.622h19.1a1.623,1.623,0,0,1,1.62,1.622Zm0,0" fill="#c31f5d"/>
      <path id="Path_37762" data-name="Path 37762" d="M120.709,113.966a6.642,6.642,0,1,0,6.642,6.642A6.65,6.65,0,0,0,120.709,113.966Zm0,8.889a2.247,2.247,0,1,1,2.248-2.246A2.25,2.25,0,0,1,120.709,122.855Zm0,0" fill="#c31f5d"/>
      <path id="Path_37763" data-name="Path 37763" d="M91.026,52.176a2.2,2.2,0,0,0-2.2,2.2v.985a65.558,65.558,0,0,1-9.7,4.691,65.535,65.535,0,0,1-8.249,2.562,2.534,2.534,0,0,0-1.55-.531H59.27a4.412,4.412,0,0,0-4.407,4.407V78.027a4.411,4.411,0,0,0,4.407,4.407h2.011l.762,14.651a2.2,2.2,0,0,0,2.193,2.083c.038,0,.077,0,.116,0a2.2,2.2,0,0,0,2.081-2.308l-.751-14.422h3.65a2.53,2.53,0,0,0,1.548-.53c1.783.43,3.557.936,5.291,1.512a2.2,2.2,0,0,0,1.384-4.171c-1.862-.618-3.766-1.162-5.682-1.623V66.9a70.078,70.078,0,0,0,8.837-2.745,70.059,70.059,0,0,0,8.12-3.742V84.113q-1.449-.783-2.925-1.492A2.2,2.2,0,0,0,84,86.582c1.637.787,3.255,1.655,4.829,2.579v.981a2.2,2.2,0,0,0,4.395,0V54.373a2.2,2.2,0,0,0-2.2-2.2ZM67.478,78.038l-8.22-.011.013-11.552h8.208Zm0,0" fill="#c31f5d"/>
    </g>
  </g>
</svg>
