<svg xmlns="http://www.w3.org/2000/svg" xmlns:xlink="http://www.w3.org/1999/xlink" width="150" height="150" viewBox="0 0 150 150">
  <defs>
    <clipPath id="clip-path">
      <rect id="Rectangle_4702" data-name="Rectangle 4702" width="150" height="150" transform="translate(311 2851)" fill="#c31f5d"/>
    </clipPath>
  </defs>
  <g id="Mask_Group_21" data-name="Mask Group 21" transform="translate(-311 -2851)" clip-path="url(#clip-path)">
    <g id="_007-video" data-name="007-video" transform="translate(308.581 2848.581)">
      <path id="Path_37803" data-name="Path 37803" d="M145.161,16.935H137.9V9.677a7.267,7.267,0,0,0-7.258-7.258H9.677A7.267,7.267,0,0,0,2.419,9.677v111.29a7.267,7.267,0,0,0,7.258,7.258H92.792c.152.21.271.445.435.651l5.4,6.748A26.292,26.292,0,0,0,94.355,150v2.419H137.9V150a26.292,26.292,0,0,0-4.27-14.376l5.4-6.748a17.005,17.005,0,0,0,3.711-10.58v-25A7.226,7.226,0,0,0,137.9,86.48V70.161h7.258a7.267,7.267,0,0,0,7.258-7.258V24.194A7.267,7.267,0,0,0,145.161,16.935ZM9.677,7.258H130.645a2.422,2.422,0,0,1,2.419,2.419v7.258H87.1a7.248,7.248,0,0,0-6.813,4.839H65.323V12.1H50.806v9.677H45.968V12.1H31.452v9.677H26.613V12.1H12.1v9.677H7.258V9.677A2.422,2.422,0,0,1,9.677,7.258ZM104.032,54.15v-21.2a1.5,1.5,0,0,1,2.163-1.338l21.2,10.6a1.494,1.494,0,0,1,0,2.676l-21.2,10.6a1.536,1.536,0,0,1-2.163-1.338ZM99.194,90.073A12.886,12.886,0,0,0,91.011,87.1a6.091,6.091,0,0,0-6.225,7.258H82.1A20.138,20.138,0,0,0,66.114,77.023l-8.468-1.7-.54-2.153a12.093,12.093,0,0,0,5.572-7.848h2.669A7.267,7.267,0,0,0,72.6,58.065a7.165,7.165,0,0,0-.89-3.409l.365-1.461A17.49,17.49,0,0,0,55.106,31.452H41.715A17.5,17.5,0,0,0,24.74,53.192l.365,1.466a7.188,7.188,0,0,0-.888,3.406,7.267,7.267,0,0,0,7.258,7.258h2.669a12.088,12.088,0,0,0,5.572,7.846l-.54,2.153-8.487,1.7A20.141,20.141,0,0,0,14.7,94.352H7.258V26.613H79.839V62.9A7.267,7.267,0,0,0,87.1,70.161h12.1ZM33.9,60.484H31.476a2.419,2.419,0,1,1,0-4.839H33.9Zm.2-9.677H31.476a7.107,7.107,0,0,0-2.2.377A12.537,12.537,0,0,1,41.715,36.293H55.106A12.537,12.537,0,0,1,67.544,51.184a7.107,7.107,0,0,0-2.2-.377H57.685A26.73,26.73,0,0,1,45.784,48l-2.722-1.362a6.4,6.4,0,0,0-2.833-.668,6.33,6.33,0,0,0-6.135,4.839Zm28.834,4.839h2.419a2.419,2.419,0,1,1,0,4.839H62.927ZM38.734,52.3A1.5,1.5,0,0,1,40.9,50.964l2.722,1.362a31.641,31.641,0,0,0,14.066,3.319h.4v7.234a7.267,7.267,0,0,1-7.258,7.258H45.992a7.267,7.267,0,0,1-7.258-7.258ZM56.482,80.027l2.586.518-2.252,5.63-4.323-2.16Zm-10.49-5.052h4.839a11.882,11.882,0,0,0,1.7-.172l.467,1.868-4.582,4.582-4.582-4.582L44.3,74.8a11.881,11.881,0,0,0,1.7.172Zm-5.654,5.049,3.99,3.99L40,86.175l-2.252-5.632Zm-7.413,1.483,4.539,11.349,10.948-5.475,10.948,5.475L63.9,81.513l1.268.254A15.278,15.278,0,0,1,77.211,94.355H19.59A15.281,15.281,0,0,1,31.64,81.765ZM21.774,21.774H16.935V16.935h4.839Zm19.355,0H36.29V16.935h4.839Zm19.355,0H55.645V16.935h4.839ZM9.677,123.387a2.422,2.422,0,0,1-2.419-2.419V99.194H86.811l1.427,2.857a12.163,12.163,0,0,1,1.277,5.407v10.836a16.857,16.857,0,0,0,.825,5.09H9.677Zm89.652,24.194a21.5,21.5,0,0,1,3.484-9.535l.094-.143h26.444l.094.143a21.5,21.5,0,0,1,3.484,9.535ZM137.9,118.3a12.131,12.131,0,0,1-2.652,7.556l-5.77,7.212h-26.7l-5.77-7.212a12.136,12.136,0,0,1-2.652-7.556V107.46a17,17,0,0,0-1.788-7.573L89.673,94.1a1.5,1.5,0,0,1,1.338-2.165,8.193,8.193,0,0,1,8.182,8.182V111.29h4.839V62.9a2.419,2.419,0,1,1,4.839,0V111.29h4.839V85.357l4.839,1.21V111.29h4.839V87.777l4.839,1.21v22.3h4.839v-21.1l3,.752A2.42,2.42,0,0,1,137.9,93.3Zm-4.839-33.09-9.677-2.419-4.839-1.21-4.839-1.21V70.161h19.355Zm14.516-22.3a2.422,2.422,0,0,1-2.419,2.419H113.71V62.9a7.208,7.208,0,0,0-1.875-4.824l17.731-8.865a6.337,6.337,0,0,0,0-11.332l-21.2-10.6a6.336,6.336,0,0,0-9.167,5.666v21.2a6.286,6.286,0,0,0,1.64,4.215,7.185,7.185,0,0,0-1.64,4.539v2.419H87.1A2.422,2.422,0,0,1,84.677,62.9V24.194A2.422,2.422,0,0,1,87.1,21.774h58.065a2.422,2.422,0,0,1,2.419,2.419Z" fill="#c31f5d"/>
      <path id="Path_37804" data-name="Path 37804" d="M29.032,104.032a7.248,7.248,0,0,0-6.813,4.839H12.1v4.839H22.219a7.216,7.216,0,0,0,13.626,0H84.677v-4.839H35.845A7.248,7.248,0,0,0,29.032,104.032Zm0,9.677a2.419,2.419,0,1,1,2.419-2.419A2.422,2.422,0,0,1,29.032,113.71Z" fill="#c31f5d"/>
    </g>
  </g>
</svg>
