<svg xmlns="http://www.w3.org/2000/svg" width="80.184" height="73.872" viewBox="0 0 80.184 73.872">
  <path id="Path_38369" data-name="Path 38369" d="M44,78.732a3.316,3.316,0,0,1-2.354-.962L11.18,47.3A24.869,24.869,0,0,1,44,10.066a24.933,24.933,0,0,1,32.825,2.056h0a24.933,24.933,0,0,1,0,35.179L46.358,77.77A3.316,3.316,0,0,1,44,78.732ZM28.752,11.491a18.1,18.1,0,0,0-12.9,5.338,18.3,18.3,0,0,0,0,25.8L44,70.741l28.15-28.116a18.3,18.3,0,0,0,0-25.8h0a18.236,18.236,0,0,0-25.8,0,3.316,3.316,0,0,1-4.708,0,18.1,18.1,0,0,0-12.9-5.338Z" transform="translate(-3.906 -4.86)" fill="#4c2e88"/>
</svg>
