<svg xmlns="http://www.w3.org/2000/svg" width="47.089" height="81.155" viewBox="0 0 47.089 81.155"><path d="M8.229,0H38.86a8.23,8.23,0,0,1,8.229,8.229v64.7a8.23,8.23,0,0,1-8.229,8.229H8.229A8.23,8.23,0,0,1,0,72.925V8.229A8.23,8.23,0,0,1,8.229,0Zm26.55,29.852h4.729A2.158,2.158,0,0,1,41.66,32v4.729a2.158,2.158,0,0,1-2.153,2.153H34.779a2.158,2.158,0,0,1-2.153-2.153V32a2.162,2.162,0,0,1,2.153-2.153Zm-13.6,0h4.729A2.158,2.158,0,0,1,28.062,32v4.729a2.158,2.158,0,0,1-2.153,2.153H21.18a2.158,2.158,0,0,1-2.153-2.153V32a2.158,2.158,0,0,1,2.153-2.153Zm-13.6,0h4.729A2.158,2.158,0,0,1,14.464,32v4.729a2.158,2.158,0,0,1-2.153,2.153H7.582a2.158,2.158,0,0,1-2.153-2.153V32a2.153,2.153,0,0,1,2.153-2.153Zm27.2-13.519h4.729a2.158,2.158,0,0,1,2.153,2.153v4.729a2.158,2.158,0,0,1-2.153,2.153H34.779a2.158,2.158,0,0,1-2.153-2.153V18.486a2.162,2.162,0,0,1,2.153-2.153Zm-13.6,0h4.729a2.158,2.158,0,0,1,2.153,2.153v4.729a2.158,2.158,0,0,1-2.153,2.153H21.18a2.158,2.158,0,0,1-2.153-2.153V18.486a2.158,2.158,0,0,1,2.153-2.153Zm-13.6,0h4.729a2.158,2.158,0,0,1,2.153,2.153v4.729a2.158,2.158,0,0,1-2.153,2.153H7.582a2.158,2.158,0,0,1-2.153-2.153V18.486a2.153,2.153,0,0,1,2.153-2.153ZM21.656,57.266a.994.994,0,0,1-.112-.066c-.449-.357-.944-.753-1.367-1.1-.621-.509-1.334-1.1-1.836-1.512a2.658,2.658,0,0,0-1.1-.555,1.2,1.2,0,0,0-.621.026.634.634,0,0,0-.33.337,2.2,2.2,0,0,0-.125.991,3.9,3.9,0,0,0,.337,1.228,7.944,7.944,0,0,0,.9,1.519.176.176,0,0,1,.04.066l5.151,7.357H36.133a8.722,8.722,0,0,0,1.638-4.306l-.053-2.411a.5.5,0,0,1-.007-.1c0-.033,0-.264.007-.568.02-1.6.04-3.566-1.42-3.811h-.944c-.007.449-.033.911-.059,1.347-.026.4-.053.773-.053,1.136a.707.707,0,1,1-1.413,0c0-.363.026-.793.053-1.228.092-1.506.2-3.223-.991-3.441h-.931a.6.6,0,0,1-.152-.02c.007.542-.026,1.1-.059,1.644-.026.4-.053.773-.053,1.136a.707.707,0,1,1-1.413,0c0-.363.026-.793.053-1.228.092-1.506.2-3.223-.991-3.441h-.931a.57.57,0,0,1-.185-.026V52.98a.707.707,0,0,1-1.413,0V45.649a2.428,2.428,0,0,0-1.149-2.331,1.623,1.623,0,0,0-1.479,0,2.478,2.478,0,0,0-1.129,2.371V58.581a.707.707,0,1,1-1.413,0V57.273h.013Zm-.74,8.3L16.326,59l-.026-.026a9.6,9.6,0,0,1-1.063-1.79,5.224,5.224,0,0,1-.456-1.7,3.575,3.575,0,0,1,.244-1.664,1.973,1.973,0,0,1,1.1-1.07,2.4,2.4,0,0,1,1.42-.1,3.974,3.974,0,0,1,1.724.845c.423.357,1.136.931,1.836,1.506l.575.476V45.689a3.8,3.8,0,0,1,1.909-3.626,3.022,3.022,0,0,1,2.747,0,3.807,3.807,0,0,1,1.928,3.6v3.243l-.02-.007a.57.57,0,0,1,.185-.026H29.4a.613.613,0,0,1,.159.02,2.366,2.366,0,0,1,2.12,1.942.778.778,0,0,1,.3-.066h.977a.613.613,0,0,1,.159.02,2.409,2.409,0,0,1,2.166,2.166.569.569,0,0,1,.112-.007h.977a.613.613,0,0,1,.159.02c2.681.416,2.648,3.084,2.622,5.231v.561l.059,2.477v.079a8.761,8.761,0,0,1-1.42,4.266h7.318V12.687H1.975V65.575H20.916Zm-1.8,9.061a1,1,0,0,1,0-1.995h9.055a1,1,0,0,1,0,1.995ZM18.261,4.722a1.585,1.585,0,1,1-1.585,1.585,1.581,1.581,0,0,1,1.585-1.585Zm5.283,0A1.585,1.585,0,1,1,21.96,6.307a1.581,1.581,0,0,1,1.585-1.585Zm5.283,0a1.585,1.585,0,1,1-1.585,1.585,1.581,1.581,0,0,1,1.585-1.585ZM45.121,67.543H1.975V72.9A6.132,6.132,0,0,0,3.824,77.3a6.225,6.225,0,0,0,4.405,1.849H38.86A6.132,6.132,0,0,0,43.265,77.3,6.225,6.225,0,0,0,45.114,72.9V67.543ZM1.975,10.692H45.121V8.236a6.132,6.132,0,0,0-1.849-4.405,6.225,6.225,0,0,0-4.405-1.849H8.229A6.132,6.132,0,0,0,3.824,3.831,6.225,6.225,0,0,0,1.975,8.236v2.457Z" fill="#c31f5d"/></svg>