<svg xmlns="http://www.w3.org/2000/svg" width="110.57" height="110.5" viewBox="0 0 110.57 110.5">
  <g id="Group_11762" data-name="Group 11762" transform="translate(-8223.183 -1225.726)">
    <path id="Path_37216" data-name="Path 37216" d="M361.763,86.131l-.744,12.215a1.351,1.351,0,0,0,1.842,1.339L374.248,95.2l11.388,4.483a1.35,1.35,0,0,0,1.842-1.338l-.744-12.215,7.781-9.445a1.349,1.349,0,0,0-.7-2.165l-11.847-3.067-6.58-10.32a1.4,1.4,0,0,0-2.277,0l-6.578,10.32-11.847,3.067a1.349,1.349,0,0,0-.7,2.165Zm5.961-12.2a1.36,1.36,0,0,0,.8-.581l5.725-8.983,5.727,8.983a1.35,1.35,0,0,0,.8.581L391.086,76.6l-6.773,8.221a1.348,1.348,0,0,0-.306.941l.647,10.632-9.911-3.9a1.358,1.358,0,0,0-.989,0l-9.91,3.9.647-10.631a1.348,1.348,0,0,0-.306-.941L357.412,76.6Z" transform="translate(7925.68 1167.522)" fill="#4c2e88" stroke="#4c2e88" stroke-width="2.5"/>
    <path id="Path_37217" data-name="Path 37217" d="M153.292,140.915a1.346,1.346,0,0,0,.243,1.275l9.42,11.435-.9,14.788a1.351,1.351,0,0,0,1.842,1.339l13.787-5.426,13.787,5.426a1.35,1.35,0,0,0,1.842-1.338l-.9-14.788,9.42-11.435a1.349,1.349,0,0,0-.7-2.165l-14.343-3.713-7.966-12.493a1.4,1.4,0,0,0-2.277,0l-7.963,12.493-14.343,3.713a1.347,1.347,0,0,0-.945.889Zm16.48-2.122a1.36,1.36,0,0,0,.8-.581l7.11-11.156,7.113,11.156a1.349,1.349,0,0,0,.8.581l12.807,3.315-8.411,10.211a1.347,1.347,0,0,0-.306.94l.8,13.205-12.31-4.845a1.357,1.357,0,0,0-.989,0l-12.31,4.846.8-13.2a1.348,1.348,0,0,0-.306-.941l-8.411-10.211Z" transform="translate(8077.805 1119.949)" fill="#4c2e88" stroke="#4c2e88" stroke-width="2.5"/>
    <path id="Path_37218" data-name="Path 37218" d="M388.549,255.281a1.35,1.35,0,0,0,1.35-1.35V248.4h5.534a1.35,1.35,0,1,0,0-2.7H389.9v-5.536a1.35,1.35,0,0,0-2.7,0v5.536h-5.536a1.35,1.35,0,0,0,0,2.7H387.2v5.535A1.35,1.35,0,0,0,388.549,255.281Z" transform="translate(7905.463 1032.239)" fill="#4c2e88" stroke="#4c2e88" stroke-width="2.5"/>
    <path id="Path_37219" data-name="Path 37219" d="M281.319,65.586h5.534v5.535a1.35,1.35,0,0,0,2.7,0V65.586h5.536a1.35,1.35,0,0,0,0-2.7h-5.536V57.351a1.35,1.35,0,0,0-2.7,0v5.535h-5.534a1.35,1.35,0,1,0,0,2.7Z" transform="translate(7981.617 1170.976)" fill="#4c2e88" stroke="#4c2e88" stroke-width="2.5"/>
    <path id="Path_37220" data-name="Path 37220" d="M127.349,104.091h5.536v5.535a1.35,1.35,0,1,0,2.7,0v-5.535h5.534a1.35,1.35,0,1,0,0-2.7h-5.534V95.855a1.35,1.35,0,0,0-2.7,0v5.535h-5.536a1.35,1.35,0,1,0,0,2.7Z" transform="translate(8098.468 1141.755)" fill="#4c2e88" stroke="#4c2e88" stroke-width="2.5"/>
    <path id="Path_37221" data-name="Path 37221" d="M520.795,158.513h-5.536v-5.535a1.35,1.35,0,0,0-2.7,0v5.535h-5.534a1.35,1.35,0,0,0,0,2.7h5.534v5.536a1.35,1.35,0,1,0,2.7,0v-5.536h5.536a1.35,1.35,0,1,0,0-2.7Z" transform="translate(7810.324 1098.402)" fill="#4c2e88" stroke="#4c2e88" stroke-width="2.5"/>
    <path id="Path_37222" data-name="Path 37222" d="M232.653,341.953H221.431V321.328h11.221a1.35,1.35,0,0,0,.972-2.287l-23.757-24.609a1.392,1.392,0,0,0-1.944,0L184.168,319.04a1.35,1.35,0,0,0,.972,2.287h11.222v20.625H163.645V330.779h11.222a1.35,1.35,0,0,0,.972-2.287L152.081,303.88a1.392,1.392,0,0,0-1.944,0l-23.756,24.609a1.35,1.35,0,0,0,.972,2.287h11.222v11.175H127.353a1.35,1.35,0,1,0,0,2.7h105.3a1.35,1.35,0,1,0,0-2.7Zm-34.941-23.325h-9.392L208.9,297.313l20.577,21.315h-9.392a1.35,1.35,0,0,0-1.35,1.35v21.974h-19.67V319.978a1.35,1.35,0,0,0-1.349-1.35Zm-57.788,9.45h-9.392l20.577-21.315,20.577,21.315h-9.392a1.35,1.35,0,0,0-1.35,1.35l0,12.525h-19.67V329.428a1.35,1.35,0,0,0-1.35-1.35Z" transform="translate(8098.465 990.325)" fill="#4c2e88" stroke="#4c2e88" stroke-width="2.5"/>
  </g>
</svg>
