<svg xmlns="http://www.w3.org/2000/svg" width="55.549" height="27.562" viewBox="0 0 55.549 27.562"><path d="M.93,27.7H5.524V8.142H.93V27.7ZM3.218,5.578a2.5,2.5,0,1,0,0-5,2.5,2.5,0,1,0,0,5ZM20.818.633C13.052.633,8.181,5.928,8.181,14.4S13.051,28.14,20.818,28.14c7.748,0,12.619-5.276,12.619-13.744S28.567.633,20.818.633Zm0,4.059c4.741,0,7.767,3.763,7.767,9.7,0,5.922-3.025,9.685-7.767,9.685-4.76,0-7.767-3.763-7.767-9.685,0-5.94,3.007-9.7,7.767-9.7ZM35.375,20.207c.2,4.907,4.225,7.933,10.349,7.933,6.439,0,10.5-3.173,10.5-8.228,0-3.966-2.288-6.2-7.693-7.435l-3.062-.7C42.2,11,40.854,9.968,40.854,8.2c0-2.214,2.029-3.69,5.036-3.69,3.044,0,5.128,1.494,5.35,3.985h4.538C55.668,3.807,51.794.633,45.927.633c-5.793,0-9.907,3.192-9.907,7.914,0,3.8,2.324,6.162,7.231,7.287l3.45.812c3.358.793,4.723,1.9,4.723,3.819,0,2.214-2.232,3.8-5.442,3.8-3.247,0-5.7-1.6-6-4.059H35.375Z" transform="translate(-0.672 -0.578)" fill="#c31f5d"/></svg>