<svg xmlns="http://www.w3.org/2000/svg" width="62.47" height="56.632" viewBox="0 0 62.47 56.632"><path d="M25.526,19.639a8.729,8.729,0,1,1-6.185,2.549,8.729,8.729,0,0,1,6.185-2.549ZM46.42,47.818V43.385H34.3a22.369,22.369,0,0,0,2.867-3.137H47.981a1.571,1.571,0,0,1,1.566,1.561v6.009a4.575,4.575,0,1,1-3.127,0ZM45.327,15.643H38.388a22.765,22.765,0,0,0-2.293-3.132h7.671V8.953a4.575,4.575,0,1,1,3.127-.031v5.16a1.561,1.561,0,0,1-1.566,1.561ZM62.47,7.656a4.575,4.575,0,1,0-6.431,4.194V21H40.731a22.064,22.064,0,0,1,.646,3.132H57.6a1.571,1.571,0,0,0,1.561-1.566v-10.5a4.575,4.575,0,0,0,3.31-4.408ZM62.393,33.04A4.575,4.575,0,0,0,53.5,31.474H41.118a21.393,21.393,0,0,1-.885,3.127H53.5a4.575,4.575,0,0,0,8.892-1.561ZM25.2,53.563h-1.81a3.116,3.116,0,0,1-3.111-3.106V47.274a19.374,19.374,0,0,1-5.084-1.922l-2.125,2.125a3.116,3.116,0,0,1-4.4,0L6.1,44.89a3.121,3.121,0,0,1,0-4.4l1.937-1.937A19.318,19.318,0,0,1,5.765,33.3H3.111A3.116,3.116,0,0,1,0,30.2v-3.66a3.116,3.116,0,0,1,3.111-3.121h2.6a19.318,19.318,0,0,1,2.257-5.307L6.1,16.238a3.121,3.121,0,0,1,0-4.392L8.688,9.258a3.116,3.116,0,0,1,4.4,0l2.034,2.034a19.319,19.319,0,0,1,5.15-1.967V6.273a3.116,3.116,0,0,1,3.116-3.1h3.655a3.116,3.116,0,0,1,3.091,2.959V16.543a12.476,12.476,0,0,0-4.286-.752h-1.3a12.51,12.51,0,1,0,0,25.02c.214,0,.432,0,.646,0h.651a12.476,12.476,0,0,0,4.286-.752V50.6a3.116,3.116,0,0,1-3.106,2.959Z" transform="translate(0 -0.062)" fill="#c31f5d" fill-rule="evenodd"/></svg>