<svg xmlns="http://www.w3.org/2000/svg" width="84.93" height="19.515" viewBox="0 0 84.93 19.515"><g transform="translate(-6.8 -16.7)"><path d="M9.689,16.96a1.847,1.847,0,0,0-.969-.26,1.8,1.8,0,0,0-.969.26,1.9,1.9,0,0,0-.692.692,1.874,1.874,0,0,0,0,1.9,1.9,1.9,0,0,0,.692.692,1.847,1.847,0,0,0,.969.26,1.8,1.8,0,0,0,.969-.26,1.9,1.9,0,0,0,.692-.692,1.874,1.874,0,0,0,0-1.9A1.9,1.9,0,0,0,9.689,16.96Z" fill="#c31f5d"/><rect width="3.702" height="13.581" transform="translate(6.887 22.34)" fill="#c31f5d"/><path d="M56.707,23.83A5.778,5.778,0,0,0,54.7,22.55a7.169,7.169,0,0,0-2.561-.45H44.7V40.387h3.823V34.626h3.426a7.586,7.586,0,0,0,2.647-.45,5.839,5.839,0,0,0,2.059-1.28A6.061,6.061,0,0,0,58,30.923a6.749,6.749,0,0,0,.467-2.561,7.1,7.1,0,0,0-.45-2.561A5.718,5.718,0,0,0,56.707,23.83ZM53.662,30.8a3.654,3.654,0,0,1-2.561.848H48.523V25.145h2.6a3.6,3.6,0,0,1,2.561.848,3.107,3.107,0,0,1,.9,2.4A3.141,3.141,0,0,1,53.662,30.8Z" transform="translate(-31.343 -4.466)" fill="#c31f5d"/><path d="M136.937,48.171a7.472,7.472,0,0,0-3.045-.571,7.817,7.817,0,0,0-3.114.571,5.009,5.009,0,0,0-2.059,1.557,4.307,4.307,0,0,0-.813,2.318H131.3a1.868,1.868,0,0,1,.761-1.211,2.7,2.7,0,0,1,1.661-.467,2.449,2.449,0,0,1,1.661.519A1.823,1.823,0,0,1,136,52.358v.9l-3.426.208a6.986,6.986,0,0,0-3.91,1.211,3.447,3.447,0,0,0-1.367,2.907,3.879,3.879,0,0,0,.588,2.145,4.016,4.016,0,0,0,1.626,1.453,5.129,5.129,0,0,0,2.318.519,5.124,5.124,0,0,0,3.114-1.055,4.138,4.138,0,0,0,1.038-1.228h.069v2.076h3.581V52.15a4.1,4.1,0,0,0-.709-2.388A4.394,4.394,0,0,0,136.937,48.171Zm-.917,8.339a2.256,2.256,0,0,1-.4,1.3,2.748,2.748,0,0,1-1.073.9,3.458,3.458,0,0,1-1.471.329,2.485,2.485,0,0,1-1.522-.45,1.439,1.439,0,0,1-.571-1.211,1.388,1.388,0,0,1,.571-1.159,2.955,2.955,0,0,1,1.609-.519l2.872-.173v.986Z" transform="translate(-99.653 -25.554)" fill="#c31f5d"/><path d="M219.475,29.224h-.069a4.218,4.218,0,0,0-.934-1.332,4.612,4.612,0,0,0-1.419-.9,4.971,4.971,0,0,0-1.8-.329,5.088,5.088,0,0,0-2.958.848,5.421,5.421,0,0,0-1.92,2.422,9.336,9.336,0,0,0-.675,3.72,9.513,9.513,0,0,0,.675,3.754,5.421,5.421,0,0,0,1.92,2.422,5.033,5.033,0,0,0,2.941.848,4.807,4.807,0,0,0,1.834-.329,4.468,4.468,0,0,0,1.453-.9,4.008,4.008,0,0,0,.952-1.332h.069v2.336h3.65V22.2h-3.7v7.024Zm-.363,6.609a3.144,3.144,0,0,1-1.055,1.4,2.886,2.886,0,0,1-3.2,0,3.114,3.114,0,0,1-1.038-1.4,6.515,6.515,0,0,1,0-4.291,3.114,3.114,0,0,1,1.038-1.4,2.8,2.8,0,0,1,3.2,0,3.274,3.274,0,0,1,1.055,1.4,5.728,5.728,0,0,1,.381,2.145A5.4,5.4,0,0,1,219.112,35.833Z" transform="translate(-167.797 -4.548)" fill="#c31f5d"/><path d="M315.559,22.843a7.436,7.436,0,0,0-2.785-1.886,10.512,10.512,0,0,0-7.318,0,7.577,7.577,0,0,0-2.768,1.886,8.658,8.658,0,0,0-1.765,2.976,11.619,11.619,0,0,0-.623,3.927,11.619,11.619,0,0,0,.623,3.927,8.5,8.5,0,0,0,1.765,2.976,7.511,7.511,0,0,0,2.768,1.886,10.512,10.512,0,0,0,7.318,0,7.792,7.792,0,0,0,2.785-1.886,8.658,8.658,0,0,0,1.765-2.976,11.62,11.62,0,0,0,.623-3.927,11.62,11.62,0,0,0-.623-3.927A8.3,8.3,0,0,0,315.559,22.843Zm-2.128,10.242a4.8,4.8,0,0,1-1.713,2.163,4.373,4.373,0,0,1-2.6.761,4.553,4.553,0,0,1-2.612-.761,5.142,5.142,0,0,1-1.713-2.163,8.435,8.435,0,0,1-.606-3.322,8.435,8.435,0,0,1,.606-3.322,4.941,4.941,0,0,1,1.713-2.18,4.373,4.373,0,0,1,2.6-.761,4.459,4.459,0,0,1,2.6.761,5.2,5.2,0,0,1,1.713,2.18,8.5,8.5,0,0,1,.606,3.322A8.144,8.144,0,0,1,313.431,33.085Z" transform="translate(-242.722 -2.977)" fill="#c31f5d"/><path d="M425.843,30.075a8.657,8.657,0,0,0-4.221-1.8l-1.938-.4a6,6,0,0,1-2.336-.865,1.675,1.675,0,0,1-.709-1.384,1.894,1.894,0,0,1,.4-1.176,2.555,2.555,0,0,1,1.107-.779A4.4,4.4,0,0,1,419.8,23.4a4.8,4.8,0,0,1,1.713.294,2.675,2.675,0,0,1,1.194.865,2.37,2.37,0,0,1,.5,1.332h3.616a5.235,5.235,0,0,0-.9-2.941,5.708,5.708,0,0,0-2.422-1.955,8.952,8.952,0,0,0-3.7-.692,9.538,9.538,0,0,0-2.8.4,6.555,6.555,0,0,0-2.215,1.142,5.442,5.442,0,0,0-1.453,1.765,4.91,4.91,0,0,0-.519,2.266,4.419,4.419,0,0,0,1.349,3.339,8.089,8.089,0,0,0,4.083,1.851l1.92.381a6.492,6.492,0,0,1,2.439.9,1.711,1.711,0,0,1,.709,1.453,1.782,1.782,0,0,1-.432,1.194,3.015,3.015,0,0,1-1.211.83,4.778,4.778,0,0,1-1.8.311,5.721,5.721,0,0,1-1.868-.294,3.164,3.164,0,0,1-1.349-.848,2.481,2.481,0,0,1-.64-1.315H412.4a5.017,5.017,0,0,0,.986,2.958,5.78,5.78,0,0,0,2.561,1.9,10,10,0,0,0,3.823.657,10.1,10.1,0,0,0,3.945-.709,5.981,5.981,0,0,0,2.543-2.024,5.436,5.436,0,0,0,.9-3.1A4.2,4.2,0,0,0,425.843,30.075Z" transform="translate(-335.428 -2.977)" fill="#c31f5d"/></g></svg>