<svg xmlns="http://www.w3.org/2000/svg" width="480.451" height="480.93" viewBox="0 0 480.451 480.93">
  <g id="ISO_9001-2015" transform="translate(-57.645 -39.027)">
    <path id="Path_37861" data-name="Path 37861" d="M168.875,192.184V149.567H57.644v42.617H83.163v91.16H57.644v42.617H168.875V283.344H143.356v-91.16Z" fill="#fff"/>
    <path id="Path_37862" data-name="Path 37862" d="M291.625,217.25c-6.875-2-42.25-12.125-48.375-14.125s-11.125-4.875-11.125-8.5,5.625-7.5,17-7.5c35.875,0,53.109,22.125,53.109,22.125s1.942,2.587,2.593,3.515h34.612V152.4H302.282v10.982c-2.838-1.96-23.79-15.634-56.282-15.634-42.875,0-66.75,22.25-66.75,55.5s30.125,47,38.5,50.5,41.125,12.75,55.125,17.125,19.125,7.5,19.125,9.75-6.125,8.125-23.625,8.125c-30.483,0-46.181-17.976-48.936-21.457v-.027c-.876-1.174-1.9-2.563-2.253-3.086-.4-.605-1.341-1.948-1.991-2.876H180.583v64.461h38.856V312.3c4.521,3.009,27.664,17.446,55.436,17.446,31,0,70.5-13.5,70.5-55.625S298.5,219.25,291.625,217.25Z" fill="#fff"/>
    <path id="Path_37863" data-name="Path 37863" d="M444.035,147.157c-51.678,0-94.062,25.838-94.062,91.795s46.011,90.662,94.288,90.662S538.1,305.135,538.1,239.633,492.54,147.157,444.035,147.157Zm.454,138.486c-17.68,0-29.013-4.08-29.013-46.917s8.387-47.371,29.692-47.371c12.919,0,28.559.906,28.559,46.011S462.169,285.643,444.489,285.643Z" fill="#fff"/>
    <g id="Group_11988" data-name="Group 11988">
      <path id="Path_37864" data-name="Path 37864" d="M131.76,130.114a194.665,194.665,0,0,1,42.28-44.988A171.324,171.324,0,0,0,195.1,98.421c-12.4,13.82-23.506,29.131-25.346,31.693h7.439c4.465-6.018,13.7-18.124,23.44-28.857A192.984,192.984,0,0,0,234.4,114.03c-3.142,6.666-5.517,12.5-6.911,16.084h6.463c1.485-3.7,3.661-8.851,6.376-14.547a215.782,215.782,0,0,0,46.977,6.055v8.493h6v-8.464a216.887,216.887,0,0,0,46.719-5.374c2.558,5.411,4.617,10.3,6.04,13.837h6.463c-1.34-3.447-3.582-8.957-6.543-15.3a194.569,194.569,0,0,0,34.4-12.445c9.366,10.448,18.122,21.932,22.433,27.741h7.438c-1.783-2.483-12.316-17.006-24.285-30.5a172.3,172.3,0,0,0,23.324-14.483,194.644,194.644,0,0,1,42.28,44.988h7.217a198.861,198.861,0,0,0-334.248,0h7.219Zm105.313-21.571A187.879,187.879,0,0,1,204.916,96.67c1.38-1.434,2.759-2.823,4.122-4.138,13.907-13.411,36.781-28.137,41.795-31.307a74.069,74.069,0,0,0,13.232,5.625c-3.668,4.81-10.87,14.574-18.713,26.959C242.3,98.629,239.518,103.695,237.073,108.543ZM287.3,115.62a210.17,210.17,0,0,1-44.256-5.564c2.221-4.342,4.7-8.81,7.376-13.036,9.036-14.267,17.188-24.979,19.9-28.464A92.439,92.439,0,0,0,287.3,70.9V115.62Zm6,.03V70.965a93.679,93.679,0,0,0,16.856-1.8c3.1,4.015,10.872,14.339,19.431,27.854,2.816,4.447,5.413,9.161,7.722,13.716A211.217,211.217,0,0,1,293.3,115.65Zm50.024-6.335a177.248,177.248,0,0,0-8.669-15.506c-7.438-11.746-14.3-21.136-18.119-26.178a76.95,76.95,0,0,0,14.119-5.464c7.039,4.512,27.483,17.992,40.314,30.365,1.7,1.643,3.429,3.4,5.153,5.218A189.37,189.37,0,0,1,343.325,109.315Zm60.943-27.94A167.343,167.343,0,0,1,381.789,95.01c-2.213-2.374-4.445-4.667-6.654-6.8-12-11.573-29.87-23.714-38.625-29.415a54.945,54.945,0,0,0,8.119-6.381A192.4,192.4,0,0,1,404.268,81.375Zm-112.6-36.348a192.757,192.757,0,0,1,45.988,5.551C326.465,59.667,309.7,65,291.667,65c-18.113,0-34.834-5.315-46.009-14.416A192.756,192.756,0,0,1,291.667,45.027ZM238.7,52.417a53.864,53.864,0,0,0,6.476,5.294c-7.932,5.1-27.469,18.125-40.3,30.5-1.848,1.782-3.711,3.68-5.567,5.642a166.571,166.571,0,0,1-20.24-12.479A192.367,192.367,0,0,1,238.7,52.417Z" fill="#fff"/>
      <path id="Path_37865" data-name="Path 37865" d="M451.582,345.947a194.655,194.655,0,0,1-41.243,44.185,171.919,171.919,0,0,0-24.362-15.272c10.383-11.712,19.686-24.194,23.13-28.912h-7.472c-4.606,6.15-12.669,16.583-21.245,26.15a194.3,194.3,0,0,0-34.4-12.449c2.541-5.441,4.548-10.263,5.914-13.7h-6.482c-1.374,3.352-3.2,7.605-5.4,12.248a217,217,0,0,0-46.721-5.367v-6.881h-6v6.908a215.875,215.875,0,0,0-46.98,6.047c-2.344-4.917-4.287-9.434-5.73-12.955h-6.483c1.431,3.6,3.567,8.728,6.283,14.49a192.759,192.759,0,0,0-33.768,12.771c-8.944-9.859-17.461-20.872-22.248-27.262H170.9c3.558,4.875,13.385,18.057,24.2,30.107A171.286,171.286,0,0,0,173,390.131a194.611,194.611,0,0,1-41.243-44.185h-7.206a198.857,198.857,0,0,0,334.244,0h-7.208ZM343.328,365.155a189.087,189.087,0,0,1,32.8,11.565c-1.727,1.822-3.454,3.58-5.16,5.226-12.791,12.333-33.17,25.782-40.262,30.33a76.11,76.11,0,0,0-14.141-5.473c3.824-5.051,10.67-14.423,18.088-26.136A176.993,176.993,0,0,0,343.328,365.155ZM293.3,358.828a211.354,211.354,0,0,1,44.012,4.9c-2.31,4.558-4.907,9.273-7.726,13.724-8.547,13.5-16.3,23.809-19.416,27.836a94.417,94.417,0,0,0-16.871-1.779V358.828Zm-6,.03v44.718a92.927,92.927,0,0,0-17,2.32c-2.735-3.511-10.861-14.193-19.883-28.439-2.679-4.229-5.159-8.7-7.381-13.046A210.237,210.237,0,0,1,287.3,358.858Zm-50.231,7.071c2.446,4.851,5.229,9.917,8.282,14.739,7.837,12.375,15.034,22.133,18.705,26.947a73.306,73.306,0,0,0-13.232,5.632c-5.033-3.184-27.887-17.9-41.786-31.3-1.365-1.316-2.744-2.707-4.126-4.142A187.479,187.479,0,0,1,237.07,365.929Zm-59.09,27.964A166.028,166.028,0,0,1,199.3,380.616c1.858,1.964,3.725,3.865,5.575,5.649,12.832,12.373,32.363,25.391,40.3,30.5a53.12,53.12,0,0,0-7.694,6.517A192.47,192.47,0,0,1,177.98,393.893Zm113.687,37.141a192.714,192.714,0,0,1-47.437-5.906c11.086-9.742,28.69-15.649,47.437-15.649,18.724,0,36.345,5.911,47.432,15.65A192.679,192.679,0,0,1,291.667,431.034Zm54.186-7.755a54.117,54.117,0,0,0-9.3-7.626c8.77-5.711,26.6-17.833,38.586-29.389,2.21-2.131,4.442-4.425,6.657-6.8a167.069,167.069,0,0,1,23.561,14.429A192.422,192.422,0,0,1,345.853,423.279Z" fill="#fff"/>
    </g>
    <g id="Group_11989" data-name="Group 11989">
      <path id="Path_37866" data-name="Path 37866" d="M69.088,500.668q.4,7.446,5.747,10.293a12.717,12.717,0,0,0,6.2,1.5,13.925,13.925,0,0,0,10.993-5.371q4.546-5.371,6.446-21.811a16.668,16.668,0,0,1-7.42,6.67,23.592,23.592,0,0,1-9.519,1.924q-10.344,0-16.365-6.438t-6.021-16.573a26.516,26.516,0,0,1,5.946-17.121q5.946-7.387,17.539-7.388,15.639,0,21.586,14.082,3.3,7.74,3.3,19.375a63.827,63.827,0,0,1-3.947,23.27q-6.547,16.878-22.186,16.878-10.494,0-15.94-5.5a18.794,18.794,0,0,1-5.447-13.791h9.094ZM92.5,482.46q4.422-3.518,4.422-12.3,0-7.883-3.973-11.749a13.91,13.91,0,0,0-10.118-3.866,13.22,13.22,0,0,0-10.469,4.415q-3.873,4.414-3.873,11.8,0,6.984,3.4,11.1t10.843,4.115A15.33,15.33,0,0,0,92.5,482.46Z" fill="#fff"/>
      <path id="Path_37867" data-name="Path 37867" d="M160.181,457.895q4.8,8.844,4.8,24.235,0,14.59-4.347,24.135-6.3,13.691-20.587,13.691-12.893,0-19.188-11.193-5.247-9.344-5.247-25.084,0-12.192,3.148-20.938,5.9-16.289,21.336-16.289Q153.985,446.452,160.181,457.895Zm-9.051,47.669q4.153-6.2,4.154-23.085,0-12.192-3-20.062t-11.662-7.87q-7.959,0-11.637,7.471T125.3,484.029q0,10.943,2.352,17.589,3.6,10.145,12.312,10.144Q146.975,511.76,151.13,505.564Z" fill="#fff"/>
      <path id="Path_37868" data-name="Path 37868" d="M217.1,457.895q4.8,8.844,4.8,24.235,0,14.59-4.347,24.135-6.3,13.691-20.587,13.691-12.893,0-19.188-11.193-5.247-9.344-5.247-25.084,0-12.192,3.148-20.938,5.895-16.289,21.336-16.289Q210.9,446.452,217.1,457.895Zm-9.051,47.669q4.153-6.2,4.154-23.085,0-12.192-3-20.062t-11.662-7.87q-7.959,0-11.637,7.471t-3.679,22.011q0,10.943,2.352,17.589,3.6,10.145,12.312,10.144Q203.889,511.76,208.044,505.564Z" fill="#fff"/>
      <path id="Path_37869" data-name="Path 37869" d="M236.033,467.339v-6.9q9.744-.949,13.591-3.173t5.747-10.519h7.1v71.255h-9.594V467.338H236.033Z" fill="#fff"/>
      <path id="Path_37870" data-name="Path 37870" d="M294.5,465.19h10.444v10.893H294.5Zm0,41.923h10.444v10.894H294.5Z" fill="#fff"/>
      <path id="Path_37871" data-name="Path 37871" d="M318.606,501.917q3.322-6.844,12.967-12.442l9.594-5.546a45.08,45.08,0,0,0,9.045-6.4,13.185,13.185,0,0,0,4.1-9.513q0-6.258-3.747-9.938t-9.994-3.68q-9.244,0-12.792,7.017-1.9,3.759-2.1,10.423h-9.144q.15-9.344,3.447-15.24,5.846-10.393,20.637-10.394,12.293,0,17.964,6.646a22.24,22.24,0,0,1,5.672,14.791,20.107,20.107,0,0,1-6.046,14.69q-3.5,3.549-12.543,8.6l-6.846,3.8a44.376,44.376,0,0,0-7.694,5.146,18.744,18.744,0,0,0-6.3,9.644H363.9v8.5H314.784A41.723,41.723,0,0,1,318.606,501.917Z" fill="#fff"/>
      <path id="Path_37872" data-name="Path 37872" d="M416.27,457.895q4.8,8.844,4.8,24.235,0,14.59-4.347,24.135-6.3,13.691-20.587,13.691-12.893,0-19.188-11.193-5.246-9.344-5.246-25.084,0-12.192,3.147-20.938,5.9-16.289,21.337-16.289Q410.073,446.452,416.27,457.895Zm-9.051,47.669q4.155-6.2,4.154-23.085,0-12.192-3-20.062t-11.661-7.87q-7.959,0-11.637,7.471t-3.68,22.011q0,10.943,2.353,17.589,3.6,10.145,12.312,10.144Q403.066,511.76,407.219,505.564Z" fill="#fff"/>
      <path id="Path_37873" data-name="Path 37873" d="M435.208,467.339v-6.9q9.744-.949,13.592-3.173t5.746-10.519h7.1v71.255h-9.6V467.338H435.208Z" fill="#fff"/>
      <path id="Path_37874" data-name="Path 37874" d="M494.97,499.769q.9,7.7,7.146,10.644a17.255,17.255,0,0,0,7.4,1.5q7.995,0,11.843-5.1a18.307,18.307,0,0,0,3.848-11.292q0-7.5-4.572-11.593a15.868,15.868,0,0,0-10.968-4.1,16.52,16.52,0,0,0-7.97,1.8,17.069,17.069,0,0,0-5.672,5l-7.8-.45,5.448-38.525h37.175v8.694H500.418l-3.049,19.888a22.4,22.4,0,0,1,4.747-2.849,24.1,24.1,0,0,1,9.244-1.648,23.648,23.648,0,0,1,16.689,6.346,20.986,20.986,0,0,1,6.846,16.09,27.611,27.611,0,0,1-6.271,17.889q-6.272,7.746-20.013,7.745a25.5,25.5,0,0,1-15.465-4.922q-6.72-4.92-7.521-15.115h9.345Z" fill="#fff"/>
    </g>
  </g>
</svg>
