<svg xmlns="http://www.w3.org/2000/svg" width="44" height="44" viewBox="0 0 44 44">
  <g id="Group_11877" data-name="Group 11877" transform="translate(-140 -2161)">
    <g id="Group_11868" data-name="Group 11868" transform="translate(4.809 -188.191)">
      <g id="services_icon-2" transform="translate(145 2359)">
        <path id="Path_38452" data-name="Path 38452" d="M9.573,20.008A1.571,1.571,0,0,1,7.4,22.185l-.434.656a2.357,2.357,0,0,0,3.267-3.268Z" transform="translate(-1.969 -5.537)" fill="#4c2e88"/>
        <path id="Path_38453" data-name="Path 38453" d="M7.843,18.884a1.569,1.569,0,0,1,.866.261l.434-.655a2.357,2.357,0,0,0-3.267,3.268l.656-.434a1.57,1.57,0,0,1,1.311-2.439Z" transform="translate(-1.551 -5.119)" fill="#4c2e88"/>
        <path id="Path_38454" data-name="Path 38454" d="M19.742,23.032v2.36h1.573v-.786H20.53V23.032Z" transform="translate(-5.584 -6.515)" fill="#4c2e88"/>
        <path id="Path_38455" data-name="Path 38455" d="M19.211,19.741a4.335,4.335,0,0,0-2.738.977l.5.609a3.543,3.543,0,0,1,1.846-.775v.762H19.6v-.763a3.544,3.544,0,0,1,3.122,3.123h-.763v.786h.762a3.538,3.538,0,0,1-.774,1.846l.609.5a4.325,4.325,0,0,0-3.348-7.063Z" transform="translate(-4.66 -5.584)" fill="#4c2e88"/>
        <path id="Path_38456" data-name="Path 38456" d="M18.978,28.208v-.762h-.787v.762a3.543,3.543,0,0,1-3.123-3.122h.763V24.3h-.762a3.543,3.543,0,0,1,.775-1.846l-.609-.5a4.325,4.325,0,0,0,6.085,6.086l-.5-.61A3.521,3.521,0,0,1,18.978,28.208Z" transform="translate(-4.033 -6.21)" fill="#4c2e88"/>
        <path id="Path_38457" data-name="Path 38457" d="M22.023,19.642h-.786V8.63h-2.36v7.407a5.939,5.939,0,0,0-.786-.711V10.6h-2.36v3.658a5.842,5.842,0,0,0-.786-.1V12.562h-2.36v1.917a5.87,5.87,0,0,0-1.124.539,5.413,5.413,0,0,0-.272-.64l.622-.87-2.139-2.14L8.8,11.99a5.476,5.476,0,0,0-.82-.338l-.176-1.057H4.78L4.6,11.652a5.491,5.491,0,0,0-.82.338l-.87-.622-2.14,2.14.621.87a5.419,5.419,0,0,0-.338.82L0,15.376V18.4l1.057.176a5.466,5.466,0,0,0,.338.82l-.622.87,2.139,2.14.871-.621a5.474,5.474,0,0,0,.82.337l.176,1.057H7.806l.176-1.057a5.5,5.5,0,0,0,.82-.337l.157.112a5.893,5.893,0,0,0,11.472-1.47h3.952V5.483h-2.36ZM19.664,9.416h.787V19.642h-.02a5.863,5.863,0,0,0-.767-2.537V9.416Zm-3.146,1.966H17.3v3.439a5.861,5.861,0,0,0-.786-.341Zm-3.146,1.966h.787v.807a5.856,5.856,0,0,0-.787.1ZM8.635,20.982a4.7,4.7,0,0,1-1.1.456l-.244.066-.149.891H5.445L5.3,21.5l-.244-.066a4.668,4.668,0,0,1-1.1-.456l-.219-.126L3,21.38l-1.2-1.2.524-.734L2.2,19.23a4.688,4.688,0,0,1-.456-1.1l-.066-.243-.891-.149V16.041l.891-.149.066-.243a4.673,4.673,0,0,1,.455-1.1l.126-.219L1.8,13.592,3,12.4l.733.524.219-.126a4.722,4.722,0,0,1,1.1-.456l.244-.066.149-.891H7.139l.149.891.243.066a4.668,4.668,0,0,1,1.1.456l.219.126.733-.524,1.2,1.2-.524.734.126.219a4.645,4.645,0,0,1,.4.948,5.918,5.918,0,0,0-.64.625,3.948,3.948,0,1,0-1.5,3.9s0,.008,0,.01a5.93,5.93,0,0,0,.075.893Zm.794-3.862a5.883,5.883,0,0,0-.646,1.685,3.141,3.141,0,1,1,.656-1.917C9.439,16.966,9.435,17.044,9.429,17.12Zm5.122,8.027a5.112,5.112,0,1,1,5.112-5.112A5.118,5.118,0,0,1,14.552,25.147ZM22.809,6.27H23.6V19.641h-.786Z" transform="translate(0 -1.551)" fill="#4c2e88"/>
        <path id="Path_38458" data-name="Path 38458" d="M22.023,0V.787h.845L20.085,3.012,18.876,1.8,17.022,3.657a1.164,1.164,0,0,0-.505-.118,1.181,1.181,0,0,0-1.18,1.18,1.161,1.161,0,0,0,.148.559L13.429,7.562a1.183,1.183,0,0,0-.452-.09l-.022,0L11.374,3.257a1.177,1.177,0,1,0-1.936-.9,1.186,1.186,0,0,0,.027.248L6.241,4.591A1.167,1.167,0,0,0,4.4,5.113H2.287a1.18,1.18,0,1,0,0,.786H4.4a1.177,1.177,0,0,0,2.287-.393,1.125,1.125,0,0,0-.028-.248L9.882,3.275a1.169,1.169,0,0,0,.735.265l.022,0L12.22,7.754a1.177,1.177,0,1,0,1.936.9,1.15,1.15,0,0,0-.148-.559l2.056-2.285a1.174,1.174,0,0,0,1.513-1.594l1.3-1.3,1.15,1.15,3.568-2.855V2.36h.789V0ZM1.18,5.9a.394.394,0,1,1,.393-.394A.4.4,0,0,1,1.18,5.9Zm4.326,0A.394.394,0,1,1,5.9,5.506.394.394,0,0,1,5.507,5.9Zm4.719-3.54a.394.394,0,1,1,.394.393A.394.394,0,0,1,10.225,2.36Zm2.753,6.685a.393.393,0,1,1,.393-.394A.394.394,0,0,1,12.978,9.045Zm3.539-3.932a.394.394,0,1,1,.394-.394A.394.394,0,0,1,16.518,5.112Z" fill="#4c2e88"/>
      </g>
    </g>
    <g id="Ellipse_278" data-name="Ellipse 278" transform="translate(140 2161)" fill="none" stroke="#4c2e88" stroke-width="1">
      <circle cx="22" cy="22" r="22" stroke="none"/>
      <circle cx="22" cy="22" r="21.5" fill="none"/>
    </g>
  </g>
</svg>
