<svg xmlns="http://www.w3.org/2000/svg" width="44" height="44" viewBox="0 0 44 44">
  <g id="Group_11874" data-name="Group 11874" transform="translate(-728 -1937)">
    <g id="Group_11866" data-name="Group 11866" transform="translate(0 -193)">
      <g id="_x5B_product_development_-_ORANGE" transform="translate(737.967 2141.372)">
        <path id="Path_38431" data-name="Path 38431" d="M21.378,21.257H2.688A2.687,2.687,0,0,1,0,18.571V2.687A2.687,2.687,0,0,1,2.688,0H21.419a2.679,2.679,0,0,1,2.648,2.687V18.57A2.688,2.688,0,0,1,21.378,21.257ZM2.688.8A1.883,1.883,0,0,0,.8,2.687V18.57a1.884,1.884,0,0,0,1.886,1.886H21.419A1.884,1.884,0,0,0,23.3,18.57V2.687A1.945,1.945,0,0,0,21.379.8Z" transform="translate(0)" fill="#4c2e88"/>
        <path id="Path_38432" data-name="Path 38432" d="M23.665,8.678H.4a.4.4,0,0,1,0-.8H23.664a.4.4,0,0,1,.4.4A.378.378,0,0,1,23.665,8.678Z" transform="translate(0 -2.301)" fill="#4c2e88"/>
        <path id="Path_38433" data-name="Path 38433" d="M9.063,5.319a1.243,1.243,0,1,1,1.243-1.243A1.223,1.223,0,0,1,9.063,5.319Zm0-1.725a.481.481,0,1,0,.481.481A.463.463,0,0,0,9.063,3.594Z" transform="translate(-2.285 -0.828)" fill="#4c2e88"/>
        <path id="Path_38434" data-name="Path 38434" d="M3.623,5.263A1.243,1.243,0,1,1,4.867,4.02,1.25,1.25,0,0,1,3.623,5.263Zm0-1.725a.518.518,0,0,0-.481.481.481.481,0,0,0,.963,0A.553.553,0,0,0,3.623,3.538Z" transform="translate(-0.695 -0.811)" fill="#4c2e88"/>
        <path id="Path_38435" data-name="Path 38435" d="M14.56,5.319A1.243,1.243,0,1,1,15.8,4.076,1.25,1.25,0,0,1,14.56,5.319Zm0-1.725a.481.481,0,1,0,.481.481A.517.517,0,0,0,14.56,3.594Z" transform="translate(-3.891 -0.828)" fill="#4c2e88"/>
        <g id="Group_11865" data-name="Group 11865" transform="translate(6.79 7.862)">
          <path id="Path_38436" data-name="Path 38436" d="M15.838,21.855H13.712a.513.513,0,0,1-.441-.4v-.04l-.12-1.2a3.486,3.486,0,0,1-.722-.441l-1.083.482a.391.391,0,0,1-.361.039h-.04a.358.358,0,0,1-.241-.241l-1.043-1.8a.5.5,0,0,1,.12-.642h0l1-.682a2.973,2.973,0,0,1,0-.842L9.821,15.4a.516.516,0,0,1-.16-.642h0L10.7,12.911v-.04a.5.5,0,0,1,.562-.16h0l1.083.481a7,7,0,0,1,.722-.441l.12-1.243a.476.476,0,0,1,.481-.4h2.086a.514.514,0,0,1,.44.4v.04l.121,1.2a3.484,3.484,0,0,1,.721.441l1.083-.481a.478.478,0,0,1,.642.2l1.083,1.805a.557.557,0,0,1-.12.642h0l-.963.682a2.973,2.973,0,0,1,0,.842l.922.682a.5.5,0,0,1,.12.642h0l-.963,1.925v.04a.5.5,0,0,1-.561.161h0L17.2,19.851a6.814,6.814,0,0,1-.722.441l-.12,1.2A.586.586,0,0,1,15.838,21.855Zm-1.884-.721h1.685l.12-1.4.28-.121a3.294,3.294,0,0,0,.8-.481l.24-.2,1.284.6.842-1.444-1.123-.8.04-.28a3.533,3.533,0,0,0,0-.924h0l-.04-.28,1.163-.843-.842-1.444-1.284.6-.24-.16a2.88,2.88,0,0,0-.842-.481l-.28-.12-.12-1.4h-1.6l-.12,1.4-.281.08a3.278,3.278,0,0,0-.8.481l-.241.2-1.284-.6-.842,1.444,1.163.843-.04.28a3.267,3.267,0,0,0,0,.883h0l.04.321-.241.161-.963.682.842,1.444,1.284-.6.241.161a2.9,2.9,0,0,0,.842.481l.281.121Z" transform="translate(-9.593 -11.107)" fill="#4c2e88"/>
          <path id="Path_38437" data-name="Path 38437" d="M15.72,20.39a2.687,2.687,0,1,1,0-5.374h.04a2.611,2.611,0,0,1,1.886.8A2.694,2.694,0,0,1,15.72,20.39Zm0-4.733a2.006,2.006,0,1,0,.08,0Z" transform="translate(-10.598 -12.249)" fill="#4c2e88"/>
          <path id="Path_38438" data-name="Path 38438" d="M16.25,19.58a1.4,1.4,0,1,1,0-2.808h.04a1.4,1.4,0,0,1-.04,2.808Zm0-2.126a.722.722,0,1,0,.722.722.673.673,0,0,0-.722-.722Z" transform="translate(-11.128 -12.762)" fill="#4c2e88"/>
        </g>
      </g>
    </g>
    <g id="Ellipse_274" data-name="Ellipse 274" transform="translate(728 1937)" fill="none" stroke="#4c2e88" stroke-width="1">
      <circle cx="22" cy="22" r="22" stroke="none"/>
      <circle cx="22" cy="22" r="21.5" fill="none"/>
    </g>
  </g>
</svg>
