<svg xmlns="http://www.w3.org/2000/svg" width="44" height="44" viewBox="0 0 44 44">
  <g id="Group_11872" data-name="Group 11872" transform="translate(-140 -2130)">
    <g id="Group_11864" data-name="Group 11864">
      <g id="app_developmet_-_ORANGE" transform="translate(148.529 2140.101)">
        <path id="Path_38423" data-name="Path 38423" d="M12.571,20.28a.485.485,0,0,1-.269-.089l-2.874-2.47a.547.547,0,0,1,0-.719l2.874-2.47a.446.446,0,1,1,.584.673l-2.47,2.111,2.469,2.11a.437.437,0,0,1,.045.629C12.8,20.235,12.706,20.28,12.571,20.28Z" transform="translate(-1.929 -2.993)" fill="#4c2e88"/>
        <path id="Path_38424" data-name="Path 38424" d="M20.445,20.3a.51.51,0,0,1-.359-.135.436.436,0,0,1,.044-.628L22.6,17.43l-2.47-2.11a.446.446,0,0,1,.584-.673l2.874,2.47a.545.545,0,0,1,0,.718L20.76,20.214A.381.381,0,0,1,20.445,20.3Z" transform="translate(-4.146 -3.017)" fill="#4c2e88"/>
        <path id="Path_38425" data-name="Path 38425" d="M15.577,21.667h-.09a.465.465,0,0,1-.359-.539l1.8-8.531a.458.458,0,1,1,.9.179l-1.8,8.531A.438.438,0,0,1,15.577,21.667Z" transform="translate(-3.139 -2.539)" fill="#4c2e88"/>
        <path id="Path_38426" data-name="Path 38426" d="M23.932,23.8H3.009A3.008,3.008,0,0,1,0,20.789V3.009A3.008,3.008,0,0,1,3.009,0H23.978a3,3,0,0,1,2.964,3.008V20.789A3.009,3.009,0,0,1,23.932,23.8ZM3.009.9A2.108,2.108,0,0,0,.9,3.009V20.789a2.108,2.108,0,0,0,2.11,2.11H23.978a2.108,2.108,0,0,0,2.11-2.11V3.009A2.175,2.175,0,0,0,23.933.9Z" transform="translate(0)" fill="#4c2e88"/>
        <path id="Path_38427" data-name="Path 38427" d="M26.491,8.774H.449a.449.449,0,0,1,0-.9H26.491a.449.449,0,0,1,.449.449A.424.424,0,0,1,26.491,8.774Z" transform="translate(0 -1.635)" fill="#4c2e88"/>
        <path id="Path_38428" data-name="Path 38428" d="M9.212,5.617A1.392,1.392,0,1,1,10.6,4.226,1.369,1.369,0,0,1,9.212,5.617Zm0-1.93a.539.539,0,1,0,.539.539A.518.518,0,0,0,9.212,3.687Z" transform="translate(-1.623 -0.588)" fill="#4c2e88"/>
        <path id="Path_38429" data-name="Path 38429" d="M3.771,5.561A1.392,1.392,0,1,1,5.164,4.169,1.4,1.4,0,0,1,3.771,5.561Zm0-1.931a.579.579,0,0,0-.539.539.539.539,0,0,0,1.078,0A.618.618,0,0,0,3.771,3.63Z" transform="translate(-0.494 -0.576)" fill="#4c2e88"/>
        <path id="Path_38430" data-name="Path 38430" d="M14.709,5.617A1.392,1.392,0,1,1,16.1,4.226,1.4,1.4,0,0,1,14.709,5.617Zm0-1.93a.539.539,0,1,0,.539.539A.578.578,0,0,0,14.709,3.687Z" transform="translate(-2.765 -0.588)" fill="#4c2e88"/>
      </g>
    </g>
    <g id="Ellipse_271" data-name="Ellipse 271" transform="translate(140 2130)" fill="none" stroke="#4c2e88" stroke-width="1">
      <circle cx="22" cy="22" r="22" stroke="none"/>
      <circle cx="22" cy="22" r="21.5" fill="none"/>
    </g>
  </g>
</svg>
