<svg xmlns="http://www.w3.org/2000/svg" width="44" height="44" viewBox="0 0 44 44">
  <g id="Group_11873" data-name="Group 11873" transform="translate(-1316 -2161)">
    <g id="Group_11871" data-name="Group 11871" transform="translate(0 -193)">
      <g id="services_icon-4" transform="translate(1321.561 2361.1)">
        <path id="Path_38476" data-name="Path 38476" d="M28.384,13.84l-1.992-.484V13.14A3.372,3.372,0,0,0,27.845,10.4V9.535a3.43,3.43,0,0,0-3.228-3.444h-.269a3.53,3.53,0,0,0-.592.054c-.323.054-.7.161-.7.161a4.092,4.092,0,0,0-1.023.646l-.054.054a3.262,3.262,0,0,0-.485.861,3.622,3.622,0,0,0-.322,1.507v.968a3.37,3.37,0,0,0,1.452,2.744V13.3l-1.884.484L18.859,13.3v-.215a3.372,3.372,0,0,0,1.453-2.744V9.48a3.43,3.43,0,0,0-3.229-3.444A3.374,3.374,0,0,0,14.662,7a3.421,3.421,0,0,0-1.023,2.421v.968a3.37,3.37,0,0,0,1.453,2.744v.216l-1.884.484-1.884-.484v-.216a3.371,3.371,0,0,0,1.452-2.744V9.533a9.242,9.242,0,0,0-.592-1.614,5.981,5.981,0,0,0-.592-.861,3,3,0,0,0-1.076-.753s-.43-.108-.592-.161a4.439,4.439,0,0,0-.538-.108H9.334A3.374,3.374,0,0,0,6.912,7,3.424,3.424,0,0,0,5.89,9.426v.968a3.371,3.371,0,0,0,1.453,2.744v.216l-1.291.323,1.13.592L8.258,14V12.492l-.215-.161a2.369,2.369,0,0,1-1.184-2.045V9.371a2.593,2.593,0,0,1,.7-1.722A2.306,2.306,0,0,1,9.28,7a2.488,2.488,0,0,1,2.314,2.529v.861a2.421,2.421,0,0,1-1.184,2.045l-.215.161v1.507l1.614.431a2.361,2.361,0,0,0-.7,1.668v.377l.968-.377v-.161a1.439,1.439,0,0,1,1.076-1.4l2.744-.7V12.438l-.215-.161A2.37,2.37,0,0,1,14.5,10.232V9.371a2.6,2.6,0,0,1,.7-1.722A2.307,2.307,0,0,1,16.921,7a2.489,2.489,0,0,1,2.314,2.529v.861a2.421,2.421,0,0,1-1.184,2.045l-.214.161v1.507l2.744.7a1.438,1.438,0,0,1,1.076,1.4v1.775l.915-.646V16.044a2.362,2.362,0,0,0-.7-1.668l1.614-.431V12.439l-.161-.054A2.371,2.371,0,0,1,22.14,10.34V9.372a2.593,2.593,0,0,1,.7-1.722A2.306,2.306,0,0,1,24.562,7a2.4,2.4,0,0,1,2.314,2.475v.861a2.421,2.421,0,0,1-1.183,2.045l-.216.108V14l2.368.592,1.13-.538A1.968,1.968,0,0,0,28.384,13.84Z" transform="translate(-0.537 -0.741)" fill="#4c2e88"/>
        <g id="Group_11870" data-name="Group 11870" transform="translate(1.535 0.022)">
          <path id="Path_38477" data-name="Path 38477" d="M17.67,3.828A6.209,6.209,0,0,0,12.4,6.787a5.948,5.948,0,0,1,.592.861A5.247,5.247,0,0,1,22.3,7.595a3.3,3.3,0,0,1,.485-.861A5.812,5.812,0,0,0,17.67,3.828Z" transform="translate(-2.874 -0.492)" fill="#4c2e88"/>
          <path id="Path_38478" data-name="Path 38478" d="M10.343,5.4c.161.054.592.161.592.161L10.4,4.274,11.9,2.767l1.345.861.269-.161a7.527,7.527,0,0,1,2.045-.861l.269-.054.323-1.56h2.1l.323,1.56.269.054a6.889,6.889,0,0,1,2.045.861l.269.161L22.5,2.767l1.507,1.507-.538,1.292a2.131,2.131,0,0,1,.7-.161,4.268,4.268,0,0,0,.592-.054L25.3,4.112,22.774,1.583l-1.506.968A8.372,8.372,0,0,0,19.492,1.8L19.115.022H15.456l-.376,1.722A6.536,6.536,0,0,0,13.3,2.5L11.8,1.53,9.268,4.059,9.806,5.3A4.479,4.479,0,0,1,10.343,5.4Z" transform="translate(-2.488 -0.022)" fill="#4c2e88"/>
          <path id="Path_38479" data-name="Path 38479" d="M31.129,14.072H30.052l-1.614.861-1.13.538-5.273,2.744-.915.646-.108.054h-.269l-2.96-.861a1.9,1.9,0,0,0-.753-.161l-2.152-.7a5.919,5.919,0,0,0-3.067-.161l-.269.054-.968.377-1.507.322.054-.161v-.861L6.646,15.149l-1.13-.592-2.368-1.4H1.535v9.9l4.681,1.56h.915l.108-.378,1.453.861a1.482,1.482,0,0,0,1.452,1.453A1.562,1.562,0,0,0,11.6,28.008,1.562,1.562,0,0,0,13.05,29.46a1.529,1.529,0,0,0,1.507,1.452,1.632,1.632,0,0,0,.861-.269l.43.377a1.549,1.549,0,0,0,.969.376h.107a1.447,1.447,0,0,0,1.453-1.452,1.482,1.482,0,0,0,1.453-1.452,1.481,1.481,0,0,0,1.452-1.452,1.446,1.446,0,0,0,1.452-1.452v-.161l8.609-4.305V14.072ZM2.5,22.3V14.072h.323l3.444,1.991L4.547,23ZM6.377,23.6l-.915-.323L7.13,16.547l1.076.646v.161Zm4.2,1.776a.488.488,0,0,1-.377.161.539.539,0,0,1-.538-.538.488.488,0,0,1,.161-.376l.861-.861a.488.488,0,0,1,.376-.161.539.539,0,0,1,.538.538.488.488,0,0,1-.161.376Zm1.4,1.4a.492.492,0,0,1-.378.161.539.539,0,0,1-.538-.538.491.491,0,0,1,.161-.377l.861-.861a.488.488,0,0,1,.376-.161.539.539,0,0,1,.538.538.487.487,0,0,1-.161.376Zm1.452,1.453a.49.49,0,0,1-.376.161.539.539,0,0,1-.538-.538.491.491,0,0,1,.161-.378l.861-.86a.487.487,0,0,1,.376-.161.539.539,0,0,1,.538.538.489.489,0,0,1-.161.377Zm2.314.538-.861.861a.584.584,0,0,1-.377.161.539.539,0,0,1-.538-.538.49.49,0,0,1,.161-.377l.861-.86a.488.488,0,0,1,.376-.161.539.539,0,0,1,.538.538A.484.484,0,0,1,15.739,28.761Zm1.023,1.507h-.108a.761.761,0,0,1-.323-.108l-.376-.323.376-.376a3.04,3.04,0,0,0,.323-.431l.431.377a.487.487,0,0,1,.161.377C17.3,30.053,17.085,30.269,16.762,30.269Zm4.3-4.306h-.108a.763.763,0,0,1-.322-.108L18.054,23.7l-.592.754,2.529,2.1a.49.49,0,0,1,.161.377.482.482,0,0,1-.484.484H19.56a.761.761,0,0,1-.323-.108l-2.583-2.152-.646.7,2.529,2.1a.5.5,0,0,1-.323.861.754.754,0,0,1-.485-.161l-1.076-.915a1.521,1.521,0,0,0-1.291-.861,1.561,1.561,0,0,0-1.452-1.452,1.56,1.56,0,0,0-1.453-1.452,1.53,1.53,0,0,0-1.506-1.453,1.709,1.709,0,0,0-1.077.431l-.861.861c-.054.054-.107.108-.107.161l-1.453-.861,1.292-4.521,3.228-.7A4.7,4.7,0,0,1,14.556,18l.7.215L12.887,19.4a1.574,1.574,0,0,0-.861,1.453v.108a1.62,1.62,0,0,0,1.614,1.614,1.4,1.4,0,0,0,.807-.215l1.776-1.077a.962.962,0,0,1,1.13.108L21.388,25a.575.575,0,0,1-.322.968Zm9.094-5.542-8.017,4.036c0-.054-.054-.054-.108-.054L18,20.8a1.926,1.926,0,0,0-1.291-.484,2.012,2.012,0,0,0-.968.269l-1.776,1.076a.761.761,0,0,1-.323.108A.621.621,0,0,1,13,21.121v-.108a.663.663,0,0,1,.376-.592l2.636-1.345a2.4,2.4,0,0,1,1.506-.161l3.014.861h.753l8.879-4.681v5.326Z" transform="translate(-1.535 -1.642)" fill="#4c2e88"/>
        </g>
      </g>
    </g>
    <g id="Ellipse_282" data-name="Ellipse 282" transform="translate(1316 2161)" fill="none" stroke="#4c2e88" stroke-width="1">
      <circle cx="22" cy="22" r="22" stroke="none"/>
      <circle cx="22" cy="22" r="21.5" fill="none"/>
    </g>
  </g>
</svg>
