<svg xmlns="http://www.w3.org/2000/svg" width="44" height="44" viewBox="0 0 44 44">
  <g id="Group_11875" data-name="Group 11875" transform="translate(-728 -2161)">
    <g id="Group_11869" data-name="Group 11869" transform="translate(0 -193)">
      <g id="services_icon-3" transform="translate(737.719 2363.719)">
        <path id="Path_38459" data-name="Path 38459" d="M24.165,4.754H18.224V1.981a.4.4,0,0,0-.4-.4H16.639V.4a.4.4,0,0,0-.4-.4H3.565a.394.394,0,0,0-.28.116L.116,3.285A.394.394,0,0,0,0,3.565V22.58a.4.4,0,0,0,.4.4H1.585v1.188a.4.4,0,0,0,.4.4H17.827a.4.4,0,0,0,.4-.4v-10.7h5.942a.4.4,0,0,0,.4-.4V5.15A.4.4,0,0,0,24.165,4.754ZM17.43,2.377V4.753h-.791V2.377ZM3.169,1.352V3.169H1.352ZM.792,3.961H3.566a.4.4,0,0,0,.4-.4V.792H15.847V4.753H6.734a.4.4,0,0,0-.4.4v7.923a.4.4,0,0,0,.4.4h9.111v8.715H.792ZM17.43,23.769H2.377v-.791H16.243a.4.4,0,0,0,.4-.4V13.469h.792v10.3Zm6.339-11.091H7.131V5.546H23.769Z" fill="#4c2e88"/>
        <path id="Path_38460" data-name="Path 38460" d="M2.194,6.58H6.155v.792H2.194Z" transform="translate(-0.609 -1.826)" fill="#4c2e88"/>
        <path id="Path_38461" data-name="Path 38461" d="M2.194,8.774H6.155v.792H2.194Z" transform="translate(-0.609 -2.435)" fill="#4c2e88"/>
        <path id="Path_38462" data-name="Path 38462" d="M2.194,10.967H6.155v.792H2.194Z" transform="translate(-0.609 -3.044)" fill="#4c2e88"/>
        <path id="Path_38463" data-name="Path 38463" d="M2.194,13.161H6.155v.792H2.194Z" transform="translate(-0.609 -3.653)" fill="#4c2e88"/>
        <path id="Path_38464" data-name="Path 38464" d="M2.194,15.354H6.155v.792H2.194Z" transform="translate(-0.609 -4.262)" fill="#4c2e88"/>
        <path id="Path_38465" data-name="Path 38465" d="M6.58,2.194h10.3v.792H6.58Z" transform="translate(-1.826 -0.609)" fill="#4c2e88"/>
        <path id="Path_38466" data-name="Path 38466" d="M6.58,4.387h10.3V5.18H6.58Z" transform="translate(-1.826 -1.218)" fill="#4c2e88"/>
        <path id="Path_38467" data-name="Path 38467" d="M4.174,25.683V24.495a.393.393,0,0,0-.116-.279l-.909-.909.909-.909a.393.393,0,0,0,.116-.28V20.929a.4.4,0,0,1,.4-.4H5.758v-.792H4.57a1.19,1.19,0,0,0-1.188,1.188v1.025L2.309,23.026a.4.4,0,0,0,0,.561l1.072,1.073v1.024A1.19,1.19,0,0,0,4.57,26.873H5.758v-.792H4.57A.4.4,0,0,1,4.174,25.683Z" transform="translate(-0.609 -5.48)" fill="#4c2e88"/>
        <path id="Path_38468" data-name="Path 38468" d="M18.28,21.954V20.929a1.19,1.19,0,0,0-1.188-1.188H15.9v.792h1.188a.4.4,0,0,1,.4.4v1.189a.391.391,0,0,0,.115.28l.909.909-.909.909a.39.39,0,0,0-.115.279v1.189a.4.4,0,0,1-.4.4H15.9v.792h1.188a1.19,1.19,0,0,0,1.188-1.189V24.659l1.073-1.073a.4.4,0,0,0,0-.56Z" transform="translate(-4.414 -5.48)" fill="#4c2e88"/>
        <path id="Path_38469" data-name="Path 38469" d="M12.155,14.32a1.189,1.189,0,0,0,1.188-1.188V9.566h.792V8.774H11.758v.792h.792v3.565a.4.4,0,0,1-.793,0v-.792h-.792v.792A1.192,1.192,0,0,0,12.155,14.32Z" transform="translate(-3.044 -2.435)" fill="#4c2e88"/>
        <path id="Path_38470" data-name="Path 38470" d="M17.244,12.735h1.585V14.32h.792V10.359a1.585,1.585,0,1,0-3.17,0V14.32h.792V12.735h0Zm.791-3.169a.793.793,0,0,1,.792.792v1.585H17.242V10.358A.8.8,0,0,1,18.035,9.566Z" transform="translate(-4.566 -2.435)" fill="#4c2e88"/>
        <path id="Path_38471" data-name="Path 38471" d="M28.211,12.735H29.8V14.32h.792V10.359a1.585,1.585,0,1,0-3.17,0V14.32h.792V12.735ZM29,9.566a.792.792,0,0,1,.791.792v1.585H28.21V10.358A.794.794,0,0,1,29,9.566Z" transform="translate(-7.61 -2.435)" fill="#4c2e88"/>
        <path id="Path_38472" data-name="Path 38472" d="M23.239,14.2a.395.395,0,0,0,.559,0l1.189-1.188a.4.4,0,0,0,.116-.28V8.776h-.792v3.8l-.792.792-.791-.792v-3.8h-.792v3.961a.4.4,0,0,0,.115.28Z" transform="translate(-6.089 -2.436)" fill="#4c2e88"/>
        <path id="Path_38473" data-name="Path 38473" d="M9.364,26.179l2.378-5.545.728.312-2.378,5.546Z" transform="translate(-2.599 -5.727)" fill="#4c2e88"/>
        <path id="Path_38474" data-name="Path 38474" d="M7.733,22.1,6.148,23.68a.4.4,0,0,0,0,.561l1.585,1.585.56-.56-1.3-1.3,1.3-1.3Z" transform="translate(-1.674 -6.133)" fill="#4c2e88"/>
        <path id="Path_38475" data-name="Path 38475" d="M16.015,23.68,14.43,22.1l-.56.56,1.3,1.3-1.3,1.3.56.56,1.585-1.585A.4.4,0,0,0,16.015,23.68Z" transform="translate(-3.85 -6.133)" fill="#4c2e88"/>
      </g>
    </g>
    <g id="Ellipse_280" data-name="Ellipse 280" transform="translate(728 2161)" fill="none" stroke="#4c2e88" stroke-width="1">
      <circle cx="22" cy="22" r="22" stroke="none"/>
      <circle cx="22" cy="22" r="21.5" fill="none"/>
    </g>
  </g>
</svg>
