<svg xmlns="http://www.w3.org/2000/svg" width="109.575" height="109.506" viewBox="0 0 109.575 109.506">
  <g id="Group_11763" data-name="Group 11763" transform="translate(-8103.249 -1123.643)">
    <path id="Path_37223" data-name="Path 37223" d="M134.707,198.488a1.711,1.711,0,0,0-2.387,0l-11,11a17.854,17.854,0,0,1-25.213-.353c-6.765-6.766-7.193-18.374-.353-25.213l11-11a1.71,1.71,0,0,0,0-2.387L94.33,158.112a1.738,1.738,0,0,0-2.387,0l-11,11c-14.848,14.848-14.549,39.306.667,54.521a39.378,39.378,0,0,0,27.874,11.61A37.5,37.5,0,0,0,136.134,224.3l11-11h0a1.7,1.7,0,0,0,0-2.387Zm-.96,23.42C120.215,235.439,97.9,235.14,84,221.242s-14.2-36.216-.667-49.748l9.8-9.8,10.037,10.037-9.8,9.8a21.459,21.459,0,0,0,30.339,30.34l9.8-9.8L143.549,212.1Z" transform="translate(8033.997 997.158)" fill="#4c2e88" stroke="#4c2e88" stroke-width="1.5"/>
    <path id="Path_37224" data-name="Path 37224" d="M242.333,118.5a1.682,1.682,0,0,0,1.193-.48l5.205-5.2.74,2.488h0a1.689,1.689,0,0,0,2.812.712L260.4,107.9a1.688,1.688,0,1,0-2.387-2.387l-6.119,6.119-.74-2.489h0a1.688,1.688,0,0,0-2.811-.713l-7.208,7.209a1.693,1.693,0,0,0,1.193,2.867Z" transform="translate(7896.25 1039.63)" fill="#4c2e88" stroke="#4c2e88" stroke-width="1.5"/>
    <path id="Path_37225" data-name="Path 37225" d="M465.591,284.92l-8.123,8.123h0a1.688,1.688,0,0,0,.713,2.812l2.488.739-5.2,5.205a1.688,1.688,0,0,0,0,2.387,1.713,1.713,0,0,0,2.387,0l7.208-7.209h0a1.688,1.688,0,0,0-.713-2.812l-2.488-.739,6.119-6.119a1.688,1.688,0,0,0-2.387-2.387Z" transform="translate(7723.277 894.822)" fill="#4c2e88" stroke="#4c2e88" stroke-width="1.5"/>
    <path id="Path_37226" data-name="Path 37226" d="M380,40.334a21.09,21.09,0,0,1,7.335-20.542,13.407,13.407,0,0,1,2.025-5.359,24.435,24.435,0,0,0-10.454,32.852Z" transform="translate(7786.851 1112.743)" fill="#4c2e88" stroke="#4c2e88" stroke-width="1.5"/>
    <path id="Path_37227" data-name="Path 37227" d="M561.769,14.434a13.409,13.409,0,0,1,2.025,5.359,21.089,21.089,0,0,1,7.335,20.542l1.094,6.951a24.435,24.435,0,0,0-10.454-32.852Z" transform="translate(7637.075 1112.742)" fill="#4c2e88" stroke="#4c2e88" stroke-width="1.5"/>
    <path id="Path_37228" data-name="Path 37228" d="M432.583,222.162a20.963,20.963,0,0,1-11.427-3.376h-5.426a24.406,24.406,0,0,0,33.7,0h-5.426A20.964,20.964,0,0,1,432.583,222.162Z" transform="translate(7754.948 947.802)" fill="#4c2e88" stroke="#4c2e88" stroke-width="1.5"/>
    <path id="Path_37229" data-name="Path 37229" d="M442.357,120.126a3.893,3.893,0,0,0-3.418-3.176l-7.41-1.165a.871.871,0,0,1-.339-.125,13.373,13.373,0,0,1-3.3,1.083l.011.027a4.013,4.013,0,0,0,3.1,2.35l7.448,1.171c.371.05.555.248.567.332l1.286,8.175H410.5l1.291-8.2c.008-.056.192-.255.6-.31l7.412-1.165a4.013,4.013,0,0,0,3.1-2.351l.011-.026h0a13.374,13.374,0,0,1-3.3-1.083.875.875,0,0,1-.338.125l-7.375,1.159h0a3.9,3.9,0,0,0-3.451,3.154l-1.593,10.125h0a1.688,1.688,0,0,0,1.667,1.951h33.757a1.688,1.688,0,0,0,1.667-1.951Z" transform="translate(7762.129 1031.039)" fill="#4c2e88" stroke="#4c2e88" stroke-width="1.5"/>
    <path id="Path_37230" data-name="Path 37230" d="M460.726,20.258a10.138,10.138,0,1,0-7.158-2.969,10.127,10.127,0,0,0,7.158,2.969Zm0-16.879h0a6.76,6.76,0,1,1-4.772,1.98,6.752,6.752,0,0,1,4.772-1.98Z" transform="translate(7726.806 1124.389)" fill="#4c2e88" stroke="#4c2e88" stroke-width="1.5"/>
  </g>
</svg>
