<svg xmlns="http://www.w3.org/2000/svg" width="206" height="206" viewBox="0 0 206 206">
  <g id="Group_11953" data-name="Group 11953" transform="translate(-651 -3777)">
    <path id="Ellipse_276" data-name="Ellipse 276" d="M103,4A99.753,99.753,0,0,0,83.044,6.011,98.436,98.436,0,0,0,47.651,20.905,99.3,99.3,0,0,0,11.778,64.466,98.473,98.473,0,0,0,6.011,83.044a100,100,0,0,0,0,39.912,98.436,98.436,0,0,0,14.894,35.393,99.3,99.3,0,0,0,43.561,35.873,98.473,98.473,0,0,0,18.578,5.767,100,100,0,0,0,39.912,0,98.436,98.436,0,0,0,35.393-14.894,99.3,99.3,0,0,0,35.873-43.561,98.473,98.473,0,0,0,5.767-18.578,100,100,0,0,0,0-39.912,98.436,98.436,0,0,0-14.894-35.393,99.3,99.3,0,0,0-43.561-35.873,98.473,98.473,0,0,0-18.578-5.767A99.753,99.753,0,0,0,103,4m0-4A103,103,0,1,1,0,103,103,103,0,0,1,103,0Z" transform="translate(651 3777)" fill="#c31f5d"/>
    <path id="Path_38511" data-name="Path 38511" d="M82,70.2V27.74a8.016,8.016,0,1,0-8.88-3.68l-2.53,2.53a2,2,0,1,0,2.82,2.82l2.53-2.53a8,8,0,0,0,2.06.86V70.2a10.09,10.09,0,0,0-3.51,1.46L58.34,55.51a10,10,0,0,0,0-11l7.07-7.08a2,2,0,0,0-2.82-2.82l-7.08,7.07a10,10,0,0,0-11,0L35.2,32.37A14,14,0,1,0,22,37.84V68.26a8.016,8.016,0,1,0,8.88,3.68l4-4a2,2,0,0,0-2.82-2.82l-4,4A8,8,0,0,0,26,68.26V37.84a13.9,13.9,0,0,0,6.37-2.64l9.29,9.29a10,10,0,0,0,0,11l-1.07,1.08a2,2,0,1,0,2.82,2.82l1.08-1.07a10,10,0,0,0,11,0L71.66,74.49A10,10,0,1,0,82,70.2ZM80,16a4,4,0,1,1-4,4A4,4,0,0,1,80,16ZM14,24A10,10,0,1,1,24,34,10,10,0,0,1,14,24ZM28,76a4,4,0,1,1-4-4A4,4,0,0,1,28,76ZM45.76,54.24a6,6,0,1,1,8.48,0,6,6,0,0,1-8.48,0ZM80,86a6,6,0,1,1,6-6A6,6,0,0,1,80,86ZM66,32a2,2,0,1,1,2,2A2,2,0,0,1,66,32ZM39.5,62.5a2,2,0,1,1-2-2A2,2,0,0,1,39.5,62.5Z" transform="translate(704.004 3830.01)" fill="#c31f5d"/>
  </g>
</svg>
