<svg xmlns="http://www.w3.org/2000/svg" xmlns:xlink="http://www.w3.org/1999/xlink" viewBox="0 0 872.07 218.69"><defs><style>.cls-1{fill:url(#linear-gradient);}.cls-2{fill:url(#linear-gradient-2);}.cls-3{fill:#fff;}</style><linearGradient id="linear-gradient" x1="272.71" y1="36.87" x2="475.87" y2="188.43" gradientUnits="userSpaceOnUse"><stop offset="0" stop-color="#fff"/><stop offset="0.26" stop-color="#fafafa"/><stop offset="0.58" stop-color="#ebebeb"/><stop offset="0.92" stop-color="#d3d3d3"/><stop offset="1" stop-color="#ccc"/></linearGradient><linearGradient id="linear-gradient-2" x1="488.17" y1="208.01" x2="359.71" y2="1.64" gradientUnits="userSpaceOnUse"><stop offset="0.02" stop-color="#fff"/><stop offset="0.31" stop-color="#ececec"/><stop offset="0.92" stop-color="#bababa"/><stop offset="1" stop-color="#b3b3b3"/></linearGradient></defs><g id="Layer_2" data-name="Layer 2"><g id="Layer_1-2" data-name="Layer 1"><path class="cls-1" d="M408.34,199.8c-2.48,1.8-5,3.52-7.68,5.17a104.27,104.27,0,0,1-13.54.88A102.93,102.93,0,0,1,371.21,1.23l-.06,0-.06,0c-2.61,1.49-44.37,26.12-44.73,82.22h0l0,.09a63.79,63.79,0,1,0,123.82,29.12C450.26,113.37,458.64,163.31,408.34,199.8Z"/><path class="cls-2" d="M490.05,102.93a102.93,102.93,0,0,1-89.39,102c2.7-1.69,5.25-3.42,7.68-5.17,50.3-36.49,41.92-86.43,41.81-87.07h0a64.46,64.46,0,0,0,.75-9.79A63.78,63.78,0,0,0,326.36,83.51c.36-56.1,42.12-80.73,44.73-82.22l.06,0,.06,0h0A104.12,104.12,0,0,1,387.12,0,102.93,102.93,0,0,1,490.05,102.93Z"/><path class="cls-3" d="M82,63.36V81.65H0V63.36Zm0,91.14v18.29H0V154.5L51.25,90.8H74.74l-51.4,63.7Z"/><path class="cls-3" d="M170,154.5v18.29H147.12a52.47,52.47,0,0,1-21.29-4.34,55.92,55.92,0,0,1-17.35-11.74,54.68,54.68,0,0,1-11.66-17.35,55.31,55.31,0,0,1,0-42.57,54.57,54.57,0,0,1,11.66-17.35A55.92,55.92,0,0,1,125.83,67.7a52.64,52.64,0,0,1,21.29-4.34H170V81.65H147.12a35.73,35.73,0,0,0-14.2,2.84,36.41,36.41,0,0,0-19.39,19.39,36.9,36.9,0,0,0,0,28.39,36.41,36.41,0,0,0,19.39,19.39,35.73,35.73,0,0,0,14.2,2.84Zm0-45.57v18.29H121.41a25,25,0,0,1,0-18.29Z"/><path class="cls-3" d="M242.36,133.53l22.54,39.26H243.77L223,136.37h-17v36.42H187.64V118.07h40.68a18,18,0,0,0,7.1-1.41,19.27,19.27,0,0,0,5.83-3.87,17.54,17.54,0,0,0,3.94-5.75,18.44,18.44,0,0,0,0-14.19A18.35,18.35,0,0,0,241.25,87a18.59,18.59,0,0,0-5.83-3.94,17.79,17.79,0,0,0-7.1-1.42H187.64V63.52h40.68a35.19,35.19,0,0,1,29.57,14.74,37.37,37.37,0,0,1,6.23,14.51,38,38,0,0,1-.16,15.76,35.14,35.14,0,0,1-21.6,25Z"/><path class="cls-3" d="M595.19,64V82.25h-82V64Zm0,91.14v18.29h-82V155.1l51.25-63.7h23.49l-51.4,63.7Z"/><path class="cls-3" d="M630.82,64.12V173.39H612.69V64.12Z"/><path class="cls-3" d="M712,155.26v18.13H653.68V64.12H672v91.14Z"/><path class="cls-3" d="M780.93,155.26v18.13H722.59V64.12h18.29v91.14Z"/><path class="cls-3" d="M826.5,64.12l45.57,109.27H810.58l7.57-18.29h26.64L826.5,111.42,808.21,155.1l-7.57,18.29H780.93Z"/><path class="cls-3" d="M473.67,194.92h3.86L474.91,208a14.21,14.21,0,0,0-.31,2.76c0,3,1.2,4.63,4.13,4.63,2.46,0,4.32-1.83,5.25-6.54l2.78-13.91h3.77l-2.81,13.94c-1.37,6.93-4.54,9.83-9.14,9.83-5.12,0-7.84-2.58-7.84-7.75a21.36,21.36,0,0,1,.42-3.53Z"/><path class="cls-3" d="M494.74,200.73h3.13l-.17,2.49h.14c1.84-1.6,3.81-2.92,6-2.92,2.93,0,4.16,1.63,4.16,4.44a11.5,11.5,0,0,1-.29,2.46l-2.21,11.06h-3.83l2.13-10.58a9,9,0,0,0,.28-1.85,2,2,0,0,0-2.18-2.24c-1.23,0-2.6.84-4.45,2.71l-2.36,12h-3.83Z"/><path class="cls-3" d="M511.15,215.82a8.57,8.57,0,0,1,.23-1.82l4.18-20.95h3.83l-4.23,21.1a3.09,3.09,0,0,0-.07.69c0,.53.27.74.63.74a1.58,1.58,0,0,0,.61-.1l-.07,2.87a6.47,6.47,0,0,1-2.15.34C512.07,218.69,511.15,217.62,511.15,215.82Z"/><path class="cls-3" d="M529.8,200.3c4.07,0,5.58,2.84,5.58,6.47a10.46,10.46,0,0,1-.77,3.71H523.94c-.37,3.7,1.67,5.27,4.34,5.27a6.62,6.62,0,0,0,3.57-1.37l1.4,2.46a10.43,10.43,0,0,1-6,1.85c-4.18,0-7-2.73-7-7.42C520.25,204.73,525.19,200.3,529.8,200.3Zm2.22,7.76a7.25,7.25,0,0,0,.18-1.55c0-1.69-.73-3.22-2.86-3.22s-4.21,1.77-5.05,4.77Z"/><path class="cls-3" d="M537.73,212.3c0-6.7,4.57-12,9.41-12a4.5,4.5,0,0,1,4,2.47h.1l.73-2h3.08l-3.51,17.53h-3.13l.17-2.44h-.1a8.44,8.44,0,0,1-5.78,2.87C539.65,218.69,537.73,216.42,537.73,212.3Zm11.17.28,1.43-7a3.43,3.43,0,0,0-3-2.13c-3,0-5.68,3.81-5.68,8.32,0,2.57,1,3.76,2.61,3.76S547.48,214.71,548.9,212.58Z"/><path class="cls-3" d="M555.68,215.34l2.28-1.86a5.31,5.31,0,0,0,4.14,2.36c1.65,0,3.06-1,3.06-2.27s-.9-1.73-3.11-3-3.77-2.73-3.77-4.82c0-3.2,2.9-5.49,6.41-5.49a7.49,7.49,0,0,1,5.47,2.52l-2.13,2a4.67,4.67,0,0,0-3.37-1.66c-1.6,0-2.77,1-2.77,2.2s1.5,1.91,3,2.76c2.6,1.41,3.88,2.78,3.88,4.94,0,3.36-2.93,5.59-6.94,5.59A7.81,7.81,0,0,1,555.68,215.34Z"/><path class="cls-3" d="M576.49,193.05h3.82l-1.52,7.44L578.1,203h.14c1.77-1.54,3.66-2.73,5.77-2.73,2.93,0,4.15,1.63,4.15,4.44a10.32,10.32,0,0,1-.28,2.46l-2.21,11.06h-3.83L584,207.68a9,9,0,0,0,.28-1.85,2,2,0,0,0-2.18-2.24c-1.23,0-2.6.84-4.46,2.71l-2.35,12h-3.83Z"/><path class="cls-3" d="M599,214.41a11.82,11.82,0,0,1,.23-2.07l1.78-8.58h-2.46l.58-2.84,2.65-.19,1.4-4.71h3.21l-.91,4.71h4.2l-.6,3h-4.29L603,212.5a7.26,7.26,0,0,0-.1,1.22c0,1.3.57,1.94,2,1.94a3.52,3.52,0,0,0,1.62-.47l.75,2.72a9.73,9.73,0,0,1-3.73.78C600.24,218.69,599,216.85,599,214.41Z"/><path class="cls-3" d="M614.82,193.05h3.82l-1.52,7.44-.69,2.54h.14c1.77-1.54,3.66-2.73,5.77-2.73,2.93,0,4.16,1.63,4.16,4.44a10.35,10.35,0,0,1-.29,2.46L624,218.26h-3.83l2.13-10.58a9,9,0,0,0,.28-1.85,2,2,0,0,0-2.18-2.24c-1.23,0-2.6.84-4.45,2.71l-2.36,12h-3.83Z"/><path class="cls-3" d="M638.72,200.3c4.07,0,5.58,2.84,5.58,6.47a10.46,10.46,0,0,1-.77,3.71H632.87c-.37,3.7,1.67,5.27,4.34,5.27a6.65,6.65,0,0,0,3.57-1.37l1.4,2.46a10.46,10.46,0,0,1-6,1.85c-4.19,0-7-2.73-7-7.42C629.17,204.73,634.11,200.3,638.72,200.3Zm2.23,7.76a7.28,7.28,0,0,0,.17-1.55c0-1.69-.73-3.22-2.85-3.22s-4.22,1.77-5.06,4.77Z"/><path class="cls-3" d="M658.16,194.92h7c4.48,0,7.67,1.69,7.67,6,0,6.13-4.58,8.66-10.5,8.66h-3.24l-1.72,8.73h-3.86Zm4.47,11.54c4.13,0,6.36-1.73,6.36-5,0-2.4-1.63-3.43-4.58-3.43h-3l-1.66,8.47Z"/><path class="cls-3" d="M673.1,211.55c0-6.69,4.84-11.25,9.65-11.25,3.94,0,6.54,2.77,6.54,7.14,0,6.7-4.84,11.25-9.65,11.25C675.7,218.69,673.1,215.92,673.1,211.55Zm12.32-4c0-2.64-1.07-4.15-3.08-4.15-2.79,0-5.37,3.52-5.37,8,0,2.65,1.07,4.16,3.08,4.16C682.84,215.58,685.42,212.05,685.42,207.57Z"/><path class="cls-3" d="M692.69,200.73h3.79l.29,9.38c0,1.68,0,3.35,0,5h.14c.67-1.69,1.29-3.38,2-5l4.09-9.38h3.48l.45,9.38c.05,1.68,0,3.35.07,5h.14c.67-1.69,1.23-3.36,1.93-5l3.91-9.38h3.57l-7.71,17.53h-4.58l-.31-8.43c0-1.65,0-3.37,0-5.16h-.15c-.69,1.79-1.3,3.51-2,5.16l-3.6,8.43h-4.45Z"/><path class="cls-3" d="M726.66,200.3c4.07,0,5.59,2.84,5.59,6.47a10.42,10.42,0,0,1-.78,3.71H720.81c-.37,3.7,1.67,5.27,4.34,5.27a6.65,6.65,0,0,0,3.57-1.37l1.4,2.46a10.46,10.46,0,0,1-6,1.85c-4.19,0-7-2.73-7-7.42C717.11,204.73,722.05,200.3,726.66,200.3Zm2.23,7.76a7.28,7.28,0,0,0,.17-1.55c0-1.69-.73-3.22-2.85-3.22s-4.21,1.77-5.06,4.77Z"/><path class="cls-3" d="M737.61,200.73h3.13l-.31,3.39h.14c1.38-2.17,3.31-3.82,5.39-3.82a4,4,0,0,1,1.76.33L746.44,204a3.58,3.58,0,0,0-1.63-.29c-1.64,0-3.33,1.3-4.77,4L738,218.26h-3.83Z"/><path class="cls-3" d="M754.47,211.55c0-6.69,4.84-11.25,9.65-11.25,3.94,0,6.54,2.77,6.54,7.14,0,6.7-4.84,11.25-9.65,11.25C757.07,218.69,754.47,215.92,754.47,211.55Zm12.32-4c0-2.64-1.07-4.15-3.08-4.15-2.78,0-5.37,3.52-5.37,8,0,2.65,1.07,4.16,3.08,4.16C764.21,215.58,766.79,212.05,766.79,207.57Z"/><path class="cls-3" d="M774.6,200.92l2.33-.19.38-2c.72-3.57,2.69-6.1,6.19-6.1a6.89,6.89,0,0,1,3.44.92l-1.27,2.71a3.63,3.63,0,0,0-1.82-.56c-1.44,0-2.32.92-2.71,2.9l-.43,2.14H784l-.6,3h-3.34l-2.87,14.5h-3.83l2.92-14.5H774Z"/><path class="cls-3" d="M790.15,215.33l12.72-16.22h-9.16l.8-4.11h15l-.61,2.94-12.59,16.22h10.09l-.86,4.1h-16Z"/><path class="cls-3" d="M814.1,195h13.8l-.8,4.11h-9l-1,5h7.6l-.8,4.11h-7.59l-1.23,5.9h9.26l-.8,4.1H809.45Z"/><path class="cls-3" d="M832.91,195h7.3c4.56,0,8,1.62,8,5.95,0,6.1-5,8.78-10.38,8.78h-2.95l-1.69,8.53h-4.89Zm5.2,10.86c3.46,0,5.22-1.66,5.22-4.19,0-1.95-1.37-2.8-3.88-2.8H837l-1.36,7Zm-.81,2.74,3.53-3.14,5,12.8H840.7Z"/><path class="cls-3" d="M850.55,208.85c0-8.22,5.53-14.28,11.83-14.28,5.32,0,8.74,3.66,8.74,9.84,0,8.22-5.52,14.28-11.83,14.28C854,218.69,850.55,215,850.55,208.85Zm15.56-4.12c0-3.69-1.4-5.94-4-5.94-3.3,0-6.57,4.35-6.57,9.74,0,3.7,1.4,5.94,4,5.94C862.85,214.47,866.11,210.12,866.11,204.73Z"/></g></g></svg>