<svg id="Networking" xmlns="http://www.w3.org/2000/svg" width="77.969" height="77.932" viewBox="0 0 77.969 77.932">
  <path id="Path_37118" data-name="Path 37118" d="M68.361,37.748H62.1A22.722,22.722,0,0,0,56.2,23.5l4.469-4.457a4.872,4.872,0,1,0-1.729-1.729l-4.505,4.469A22.381,22.381,0,0,0,40.184,15.83V9.571C45.809,8.11,44.519,0,38.966,0a4.871,4.871,0,0,0-1.218,9.571V15.83A22.734,22.734,0,0,0,23.5,21.724l-4.457-4.457A4.871,4.871,0,1,0,17.316,19l4.469,4.469A23.136,23.136,0,0,0,15.83,37.748H9.571C8.122,32.171,0,33.34,0,38.966s8.122,6.783,9.571,1.218H15.83a22.917,22.917,0,0,0,5.894,14.259l-4.457,4.445a4.761,4.761,0,0,0-5.5.414.84.84,0,0,0-.28.231c-4.615,4.347,1.8,11.69,6.9,6.843A4.871,4.871,0,0,0,19,60.617l4.445-4.457A22.844,22.844,0,0,0,37.748,62.1V68.41a4.871,4.871,0,0,0,1.218,9.522c5.626,0,6.795-8.122,1.218-9.571V62.1a22.893,22.893,0,0,0,14.259-5.894l4.445,4.457a4.872,4.872,0,1,0,1.729-1.729L56.16,54.492A22.868,22.868,0,0,0,62.1,40.184h6.3c1.461,5.626,9.571,4.335,9.571-1.218a4.871,4.871,0,0,0-9.608-1.218Zm-39.977,19a32.719,32.719,0,0,0,9.742-4.384,3.58,3.58,0,0,0,3.921-.073,32.646,32.646,0,0,0,7.562,4.432,20.628,20.628,0,0,1-21.224.024ZM18.265,39.77a30.9,30.9,0,0,1,9.742-7.306,3.653,3.653,0,0,0,2.119,1.218,32.878,32.878,0,0,0,6.722,13.565,3.653,3.653,0,0,0-.317,3.227,30.3,30.3,0,0,1-10.825,4.384,20.7,20.7,0,0,1-7.44-15.087ZM29.748,20.421a32.878,32.878,0,0,0-.524,6.369,3.653,3.653,0,0,0-2.119,3.446,33.206,33.206,0,0,0-8.682,5.881,20.835,20.835,0,0,1,11.361-15.7Zm20.518,1.218a25.571,25.571,0,0,1,.1,4.871,3.653,3.653,0,0,0-2.009,1.5,33.279,33.279,0,0,0-14.539,0,3.714,3.714,0,0,0-2.155-1.461,29.931,29.931,0,0,1,.792-7.233A20.555,20.555,0,0,1,50.3,21.663Zm-20.7,8.524a.984.984,0,1,0,.012-.037ZM40.987,48.427a1.218,1.218,0,1,1-1.351-.373A1.218,1.218,0,0,1,40.987,48.427Zm.877-2.435a3.5,3.5,0,0,0-3.117-.292,30.3,30.3,0,0,1-6.174-12.335,3.653,3.653,0,0,0,1.936-3.056,30.71,30.71,0,0,1,13.151,0,3.653,3.653,0,0,0,1.62,2.886,30.333,30.333,0,0,1-7.4,12.859ZM51.326,31.38a1.254,1.254,0,1,1,.012,0Zm1.5-4.591a19.289,19.289,0,0,0,0-3.081,20.969,20.969,0,0,1,5.626,8.4,31.527,31.527,0,0,0-3.458-1.863,3.653,3.653,0,0,0-2.167-3.458Zm11.97-13.614a1.379,1.379,0,1,1,0-.037Zm-28.263-8.3a2.435,2.435,0,1,1,2.435,2.435,2.435,2.435,0,0,1-2.435-2.435ZM13.139,16.585a2.435,2.435,0,1,1,3.446,0,2.508,2.508,0,0,1-3.446,0ZM4.871,41.4a2.435,2.435,0,1,1,2.435-2.435A2.435,2.435,0,0,1,4.871,41.4Zm8.268,23.392a2.435,2.435,0,1,1,1.723.714,2.435,2.435,0,0,1-1.723-.714ZM41.4,73.061a2.435,2.435,0,1,1-2.435-2.435A2.435,2.435,0,0,1,41.4,73.061ZM64.793,61.347a2.435,2.435,0,1,1-2.653-.521A2.435,2.435,0,0,1,64.793,61.347ZM52.007,55.04a29.931,29.931,0,0,1-8.524-4.676,3.653,3.653,0,0,0,0-2.435,32.78,32.78,0,0,0,8.171-14.113A3.653,3.653,0,0,0,54.09,32.6a29.761,29.761,0,0,1,5.273,3.154A20.567,20.567,0,0,1,52.007,55.04ZM73.061,41.4A2.435,2.435,0,1,1,75.5,38.966,2.435,2.435,0,0,1,73.061,41.4Z"/>
  <path id="Path_37119" data-name="Path 37119" d="M6.263,25.571a1.218,1.218,0,1,0-.836.973A1.218,1.218,0,0,0,6.263,25.571Z" transform="translate(0.836 5.261)"/>
  <path id="Path_37120" data-name="Path 37120" d="M9.174,18.527A1.218,1.218,0,0,0,7.079,17.31a1.218,1.218,0,0,0,2.094,1.218Z" transform="translate(1.518 3.659)"/>
  <path id="Path_37121" data-name="Path 37121" d="M7.47,21.972a1.22,1.22,0,1,0-1.6.658,1.22,1.22,0,0,0,1.6-.658Z" transform="translate(1.115 4.415)"/>
  <path id="Path_37122" data-name="Path 37122" d="M47.544,8.737A1.218,1.218,0,0,0,45.449,7.52a1.218,1.218,0,0,0,2.094,1.218Z" transform="translate(9.87 1.528)"/>
  <path id="Path_37123" data-name="Path 37123" d="M44.06,6.812a1.22,1.22,0,1,0-1.6.658,1.22,1.22,0,0,0,1.6-.658Z" transform="translate(9.08 1.115)"/>
  <path id="Path_37124" data-name="Path 37124" d="M40.3,5.335a1.218,1.218,0,0,0-2.3-.6,1.218,1.218,0,0,0,2.3.6Z" transform="translate(8.272 0.887)"/>
  <path id="Path_37125" data-name="Path 37125" d="M58.55,41.806a1.218,1.218,0,1,0,.664,1.589,1.218,1.218,0,0,0-.664-1.589Z" transform="translate(12.38 9.081)"/>
  <path id="Path_37126" data-name="Path 37126" d="M56.9,45.449a1.218,1.218,0,1,0,.337,1.6A1.218,1.218,0,0,0,56.9,45.449Z" transform="translate(12.012 9.87)"/>
  <path id="Path_37127" data-name="Path 37127" d="M59.651,38.007a1.218,1.218,0,1,0,.883,1.479,1.218,1.218,0,0,0-.883-1.479Z" transform="translate(12.655 8.265)"/>
  <path id="Path_37128" data-name="Path 37128" d="M21.963,57.017a1.218,1.218,0,1,0,.717,1.357A1.218,1.218,0,0,0,21.963,57.017Z" transform="translate(4.412 12.391)"/>
  <path id="Path_37129" data-name="Path 37129" d="M18.527,55.239a1.218,1.218,0,0,0-1.218,2.094,1.218,1.218,0,0,0,1.218-2.094Z" transform="translate(3.659 12.001)"/>
  <path id="Path_37130" data-name="Path 37130" d="M25.6,58.179a1.218,1.218,0,1,0,.828,1.473,1.218,1.218,0,0,0-.828-1.473Z" transform="translate(5.232 12.654)"/>
  <path id="Path_37131" data-name="Path 37131" d="M9.174,45.87a1.218,1.218,0,0,0-2.094,1.218A1.218,1.218,0,0,0,9.174,45.87Z" transform="translate(1.518 9.876)"/>
  <path id="Path_37132" data-name="Path 37132" d="M7.47,42.464a1.22,1.22,0,1,0-.658,1.6,1.22,1.22,0,0,0,.658-1.6Z" transform="translate(1.115 9.08)"/>
  <path id="Path_37133" data-name="Path 37133" d="M6.253,38.825a1.218,1.218,0,0,0-2.35.6,1.218,1.218,0,0,0,2.35-.6Z" transform="translate(0.846 8.276)"/>
  <path id="Path_37134" data-name="Path 37134" d="M45.887,55.25a1.218,1.218,0,1,0,1.668.426A1.218,1.218,0,0,0,45.887,55.25Z" transform="translate(9.859 11.99)"/>
  <path id="Path_37135" data-name="Path 37135" d="M42.464,57.017a1.218,1.218,0,1,0,.934,0A1.218,1.218,0,0,0,42.464,57.017Z" transform="translate(9.081 12.391)"/>
  <path id="Path_37136" data-name="Path 37136" d="M38.845,58.177a1.218,1.218,0,1,0,1.473.877A1.218,1.218,0,0,0,38.845,58.177Z" transform="translate(8.255 12.656)"/>
  <path id="Path_37137" data-name="Path 37137" d="M57.011,21.957a1.218,1.218,0,0,0,2.241-.938h0a1.218,1.218,0,0,0-2.241.938Z" transform="translate(12.397 4.43)"/>
  <path id="Path_37138" data-name="Path 37138" d="M56.9,18.964a1.218,1.218,0,1,0-1.554-.5A1.218,1.218,0,0,0,56.9,18.964Z" transform="translate(12.012 3.649)"/>
  <path id="Path_37139" data-name="Path 37139" d="M58.179,25.589a1.218,1.218,0,0,0,2.35-.6C60.529,23.6,57.716,23.811,58.179,25.589Z" transform="translate(12.654 5.243)"/>
  <path id="Path_37140" data-name="Path 37140" d="M21.5,7.566a1.218,1.218,0,1,0-1.21-.982A1.218,1.218,0,0,0,21.5,7.566Z" transform="translate(4.412 1.116)"/>
  <path id="Path_37141" data-name="Path 37141" d="M18.964,7.5a1.218,1.218,0,0,0-2.094,1.218A1.218,1.218,0,0,0,18.964,7.5Z" transform="translate(3.649 1.523)"/>
  <path id="Path_37142" data-name="Path 37142" d="M25.562,6.263h0a1.218,1.218,0,0,0-.6-2.35,1.218,1.218,0,0,0,.6,2.338Z" transform="translate(5.269 0.849)"/>
</svg>
