<svg xmlns="http://www.w3.org/2000/svg" width="77.717" height="96" viewBox="0 0 77.717 96">
  <path id="noun-graph-3670182" d="M217.936,35a11.471,11.471,0,0,0-11.442,11.424,11.281,11.281,0,0,0,.866,4.313l-8.822,5.875a11.4,11.4,0,0,0-18.6,12.4l-8.825,5.88a11.37,11.37,0,0,0-8.027-3.331A11.433,11.433,0,1,0,174.5,83a11.327,11.327,0,0,0-.857-4.295l8.831-5.893a11.4,11.4,0,0,0,18.6-12.4l8.822-5.879A11.42,11.42,0,1,0,217.936,35Zm0,4.571a6.859,6.859,0,1,1-6.871,6.853A6.811,6.811,0,0,1,217.936,39.57ZM190.5,57.86a6.851,6.851,0,1,1-6.848,6.853A6.831,6.831,0,0,1,190.5,57.86Zm22.862,4.567a6.893,6.893,0,0,0-6.857,6.857v54.857A6.893,6.893,0,0,0,213.359,131H222.5a6.893,6.893,0,0,0,6.857-6.857V69.285a6.893,6.893,0,0,0-6.857-6.857Zm0,4.571H222.5a2.233,2.233,0,0,1,2.286,2.286v54.857a2.233,2.233,0,0,1-2.286,2.286h-9.142a2.233,2.233,0,0,1-2.286-2.286V69.285A2.233,2.233,0,0,1,213.359,67Zm-50.276,9.139A6.857,6.857,0,1,1,156.212,83,6.823,6.823,0,0,1,163.083,76.137Zm22.848,4.576a6.893,6.893,0,0,0-6.857,6.857v36.572A6.893,6.893,0,0,0,185.931,131h9.142a6.893,6.893,0,0,0,6.857-6.857V101.284a2.286,2.286,0,1,0-4.571,0v22.858a2.233,2.233,0,0,1-2.286,2.286h-9.142a2.233,2.233,0,0,1-2.286-2.286V87.57a2.232,2.232,0,0,1,2.286-2.285h9.142a2.232,2.232,0,0,1,2.286,2.285v4.572a2.286,2.286,0,1,0,4.571,0V87.57a6.893,6.893,0,0,0-6.857-6.857ZM158.5,99a6.892,6.892,0,0,0-6.857,6.857v18.285A6.893,6.893,0,0,0,158.5,131h9.142a6.893,6.893,0,0,0,6.857-6.857V105.856A6.892,6.892,0,0,0,167.645,99Zm0,4.571h9.142a2.232,2.232,0,0,1,2.286,2.286v18.285a2.233,2.233,0,0,1-2.286,2.286H158.5a2.233,2.233,0,0,1-2.286-2.286V105.856A2.232,2.232,0,0,1,158.5,103.57Z" transform="translate(-151.642 -34.999)" fill="#4c2e88" fill-rule="evenodd"/>
</svg>
