<svg xmlns="http://www.w3.org/2000/svg" width="87.024" height="87.023" viewBox="0 0 87.024 87.023">
  <path id="noun-marketing-3670234" d="M111.215,35A6.249,6.249,0,0,0,105,41.214v20.72a2.072,2.072,0,1,0,4.144,0V55.717h78.736v60.089a2.024,2.024,0,0,1-2.072,2.072H111.215a2.024,2.024,0,0,1-2.072-2.072v-37.3a2.072,2.072,0,1,0-4.144,0v37.3a6.249,6.249,0,0,0,6.216,6.216h74.591a6.249,6.249,0,0,0,6.216-6.216V41.214A6.249,6.249,0,0,0,185.807,35Zm0,4.144h74.591a2.024,2.024,0,0,1,2.072,2.072V51.572H109.142V41.214a2.024,2.024,0,0,1,2.072-2.072Zm4.144,4.144a2.072,2.072,0,1,0,2.072,2.072A2.072,2.072,0,0,0,115.358,43.286Zm8.288,0a2.072,2.072,0,1,0,2.072,2.072A2.072,2.072,0,0,0,123.647,43.286Zm8.288,0a2.072,2.072,0,1,0,2.072,2.072A2.072,2.072,0,0,0,131.935,43.286Zm49.845,0c-.04,0-.08,0-.119,0H160.941a2.072,2.072,0,1,0,0,4.136H181.66a2.072,2.072,0,1,0,.119-4.14ZM160.942,68.154a2.073,2.073,0,1,0,0,4.144h3.28l-11.57,11.57-6.821-6.821a2.073,2.073,0,0,0-2.93,0L130.467,89.483a2.073,2.073,0,1,0,2.936,2.928L144.37,81.444l6.822,6.823a2.073,2.073,0,0,0,2.93,0L167.16,75.222v3.295a2.072,2.072,0,1,0,4.144,0v-8.29a2.073,2.073,0,0,0-2.071-2.072Zm8.26,14.476a2.073,2.073,0,0,0-2.044,2.1v18.651a2.073,2.073,0,1,0,4.146,0V84.726A2.073,2.073,0,0,0,169.2,82.629Zm-24.871,3.106a2.073,2.073,0,0,0-2.035,2.1v15.54a2.072,2.072,0,1,0,4.137,0V87.838A2.072,2.072,0,0,0,144.331,85.735Zm16.58,1.032a2.072,2.072,0,0,0-2.044,2.1v14.508a2.073,2.073,0,0,0,4.147,0V88.87A2.073,2.073,0,0,0,160.91,86.768Zm-8.29,4.144a2.073,2.073,0,0,0-2.044,2.1v10.362a2.073,2.073,0,0,0,4.146,0V93.016A2.072,2.072,0,0,0,152.621,90.911Zm-24.832,2.1a2.072,2.072,0,1,0,2.072,2.072A2.072,2.072,0,0,0,127.789,93.016Zm8.258,1.009A2.073,2.073,0,0,0,134,96.12v7.258a2.073,2.073,0,1,0,4.147,0V96.12A2.073,2.073,0,0,0,136.047,94.026Zm-8.29,5.176a2.072,2.072,0,0,0-2.042,2.1v2.072a2.073,2.073,0,1,0,4.146,0v-2.072A2.072,2.072,0,0,0,127.757,99.2Z" transform="translate(-104.998 -34.998)" fill="#4c2e88" fill-rule="evenodd"/>
</svg>
