<svg xmlns="http://www.w3.org/2000/svg" width="100.67" height="100.669" viewBox="0 0 100.67 100.669">
  <g id="_001-organic-search" data-name="001-organic-search" transform="translate(0.072 0.072)">
    <path id="Path_37702" data-name="Path 37702" d="M78.784,69.309a43.632,43.632,0,1,0-9.475,9.475L89.65,99.125a5.027,5.027,0,0,0,7.109,0l2.366-2.365a5.027,5.027,0,0,0,0-7.111ZM3.4,43.62A40.22,40.22,0,1,1,43.62,83.84,40.22,40.22,0,0,1,3.4,43.62ZM76.684,71.941,80,75.253,75.26,80l-3.318-3.313a43.57,43.57,0,0,0,4.743-4.743ZM96.755,94.4l-2.368,2.366a1.713,1.713,0,0,1-2.368,0L77.629,82.375l4.738-4.738,14.389,14.39a1.676,1.676,0,0,1,0,2.37Z" transform="translate(0 0)" fill="#4c2e88"/>
    <path id="Path_37703" data-name="Path 37703" d="M49.611,5.051a1.676,1.676,0,1,0-.794,3.256,33.516,33.516,0,0,1-7.982,66.078c-.563,0-1.113-.057-1.676-.084a15.287,15.287,0,0,1,6.517-12.642,9.008,9.008,0,0,0,5.155,3.99,9.449,9.449,0,0,0,2.608.357,12.054,12.054,0,0,0,5.885-1.667,10.375,10.375,0,0,0,5.23-7.6,14.6,14.6,0,0,1,2.725-6,1.676,1.676,0,0,0-.526-2.532c-.372-.2-9.178-4.734-16.629-.555-4.536,2.525-6.653,6.747-5.751,10.893a21.105,21.105,0,0,0-5.213,5.046V49.247a16.354,16.354,0,0,1,1.914-7.9,10.851,10.851,0,0,0,7.5,2.872,15.225,15.225,0,0,0,7.184-1.937c4.585-2.465,5.487-5.741,6.358-8.91a17.417,17.417,0,0,1,3.467-7.318,1.676,1.676,0,0,0-.531-2.571c-.454-.233-11.238-5.569-20.338-.67a13.093,13.093,0,0,0-6.841,7.781,10.348,10.348,0,0,0,.987,7.927,18.305,18.305,0,0,0-2.179,4.664,13.056,13.056,0,0,0-6.368-3.528c-8.89-2.279-17.045,4.525-17.387,4.81a1.676,1.676,0,0,0,.1,2.634,15.161,15.161,0,0,1,4.464,5.4c1.445,2.532,2.936,5.151,7.444,6.3a14.521,14.521,0,0,0,3.63.468,11.345,11.345,0,0,0,6.971-2.207c.092-.072.168-.154.261-.23V73.966A33.495,33.495,0,0,1,40.835,7.352a1.676,1.676,0,0,0,0-3.352,36.826,36.826,0,1,0,8.776,1.051Zm2.148,45.537a11.022,11.022,0,0,1,5.45-1.341,18.769,18.769,0,0,1,6.214,1.173,19.911,19.911,0,0,0-2.108,5.458c-.654,2.474-1.086,4.107-3.628,5.53a7.752,7.752,0,0,1-5.926,1.005A5.621,5.621,0,0,1,48.5,59.864a25,25,0,0,1,6.073-2.271,1.676,1.676,0,0,0-.659-3.285,28.38,28.38,0,0,0-6.345,2.346,7.236,7.236,0,0,1,4.186-6.066ZM41.1,31.514a9.867,9.867,0,0,1,5.2-5.75,14.732,14.732,0,0,1,7.038-1.647A25.057,25.057,0,0,1,61.677,25.7a22.288,22.288,0,0,0-2.792,6.789c-.809,2.939-1.394,5.063-4.716,6.849-4.314,2.324-8.558,1.949-11.163-.791a21.38,21.38,0,0,1,10.32-6.259,1.676,1.676,0,0,0-.746-3.266,25.875,25.875,0,0,0-11.374,6.573A6.759,6.759,0,0,1,41.1,31.514Zm-7.607,22.9a9.009,9.009,0,0,1-7.709,1.143h0c-3.13-.8-4.022-2.361-5.363-4.717a20.421,20.421,0,0,0-3.662-5c2.527-1.637,7.61-4.252,12.745-2.936a8.455,8.455,0,0,1,5.74,4.022,44.685,44.685,0,0,0-9.49-1.032,1.676,1.676,0,1,0,0,3.352,41.332,41.332,0,0,1,9.936,1.235A5.941,5.941,0,0,1,33.491,54.417Z" transform="translate(2.785 2.752)" fill="#4c2e88"/>
  </g>
</svg>
