<svg xmlns="http://www.w3.org/2000/svg" width="113.315" height="100.199" viewBox="0 0 113.315 100.199">
  <path id="SEO_Monitoring_1_" d="M98.786,27.289l7.455,1.446m-28.278,3.2L87.418,28.3m-33.8,21.745L67.906,37.909m-32.892,7.5,9,5.413M24,42.049l-9.585-.491m78.542-21.33a5.933,5.933,0,1,1-5.932,5.932,5.937,5.937,0,0,1,5.932-5.932ZM72.431,28.138a5.932,5.932,0,1,1-5.937,5.928,5.93,5.93,0,0,1,5.937-5.928ZM49.1,47.949a5.933,5.933,0,1,1-5.934,5.934A5.931,5.931,0,0,1,49.1,47.949ZM29.932,36.426A5.93,5.93,0,1,1,24,42.352a5.931,5.931,0,0,1,5.935-5.927ZM42.839,105.61a21.959,21.959,0,0,0,6.928-8.744m28.054,8.744a21.825,21.825,0,0,1-8.745-17.493M8.96,9.411H111.7a3.307,3.307,0,0,1,3.289,3.29V84.826A3.326,3.326,0,0,1,111.7,88.12H8.96a3.313,3.313,0,0,1-3.29-3.294V12.7a3.294,3.294,0,0,1,3.29-3.29Zm25.076,96.2H86.51m19.731-34.983H14.415" transform="translate(-3.67 -7.411)" fill="none" stroke="#c31f5d" stroke-miterlimit="22.926" stroke-width="4" fill-rule="evenodd"/>
</svg>
