<svg xmlns="http://www.w3.org/2000/svg" width="106.491" height="86.206" viewBox="0 0 106.491 86.206">
  <path id="noun-target-3670220" d="M148.1,81.668a43.1,43.1,0,1,0,41.577,54.3,72.422,72.422,0,0,0,20.68-9.085,2.535,2.535,0,0,0,0-4.219,72.426,72.426,0,0,0-20.69-9.087,43.1,43.1,0,0,0-41.566-31.906Zm-.005,5.071a37.987,37.987,0,0,1,35.935,25.745,41.761,41.761,0,0,0-5.507-.391h-.057A32.878,32.878,0,0,0,132.5,95.746a2.536,2.536,0,1,0,2.4,4.466,27.789,27.789,0,0,1,38.2,12.327,28.532,28.532,0,0,0-5,1.295,22.815,22.815,0,1,0,.005,21.874A28.408,28.408,0,0,0,173.115,137a27.871,27.871,0,0,1-13.942,13.334,2.536,2.536,0,1,0,2.02,4.65,32.966,32.966,0,0,0,17.293-17.538h.042a41.734,41.734,0,0,0,5.515-.393A38.011,38.011,0,1,1,148.1,86.738Zm-21.475,13.982a2.536,2.536,0,1,0,1.756.743,2.536,2.536,0,0,0-1.756-.743Zm21.477,6.3a17.714,17.714,0,0,1,15.424,9.018,23.767,23.767,0,0,0-2.429,1.678,21.16,21.16,0,0,0-4.224,4.511H148.1a2.537,2.537,0,0,0,0,5.074h8.763a21.154,21.154,0,0,0,4.229,4.519,23.772,23.772,0,0,0,2.434,1.681A17.74,17.74,0,1,1,148.1,107.022Zm-26.814.8a2.534,2.534,0,0,0-2.2,1.364,32.894,32.894,0,0,0,15.834,45.8,2.536,2.536,0,1,0,2.03-4.645,27.827,27.827,0,0,1-13.4-38.749,2.536,2.536,0,0,0-2.266-3.771Zm26.814,4.276a12.677,12.677,0,0,0,0,25.354h.008a12.636,12.636,0,0,0,3.169-.411A2.536,2.536,0,1,0,150,132.13a7.61,7.61,0,1,1-.008-14.713,2.536,2.536,0,1,0,1.3-4.9,12.679,12.679,0,0,0-3.169-.42H148.1Zm30.426,5.071c11.029,0,20.52,5.021,25.012,7.606-4.493,2.586-13.985,7.607-25.012,7.607-7.043,0-11.478-2.29-14.262-4.516-.241-.193-.44-.374-.651-.557h17.452a2.537,2.537,0,0,0,0-5.074H163.623c.209-.182.406-.358.643-.549,2.784-2.227,7.219-4.516,14.262-4.516Zm10.142,5.071a2.536,2.536,0,1,0,1.793.743A2.536,2.536,0,0,0,188.671,122.235Z" transform="translate(-105 -81.668)" fill="#4c2e88" fill-rule="evenodd"/>
</svg>
