<svg xmlns="http://www.w3.org/2000/svg" width="81" height="72.134" viewBox="0 0 81 72.134"><path d="M81,36.077c0-5.366-6.717-10.448-17.02-13.605C66.36,11.971,65.3,3.619,60.644.943a7.25,7.25,0,0,0-3.7-.923V3.7a3.888,3.888,0,0,1,1.885.428c2.248,1.285,3.217,6.19,2.459,12.5-.185,1.549-.481,3.184-.844,4.852a80.208,80.208,0,0,0-10.481-1.8A80.655,80.655,0,0,0,43.1,11.43C48.476,6.42,53.525,3.685,56.96,3.685V0h0C52.418,0,46.479,3.237,40.467,8.853,34.455,3.27,28.516.066,23.974.066V3.751c3.415,0,8.484,2.722,13.869,7.693a77.067,77.067,0,0,0-6.816,8.24,77.772,77.772,0,0,0-10.5,1.813c-.382-1.648-.659-3.25-.857-4.786C18.892,10.4,19.854,5.5,22.082,4.192a3.68,3.68,0,0,1,1.9-.428V.086h0a7.373,7.373,0,0,0-3.731.923c-4.641,2.676-5.682,11.015-3.283,21.483C6.684,25.655,0,30.724,0,36.077S6.717,46.525,17.02,49.682c-2.38,10.5-1.318,18.853,3.335,21.529a7.273,7.273,0,0,0,3.718.923c4.542,0,10.481-3.237,16.493-8.853,6.012,5.583,11.951,8.787,16.493,8.787a7.373,7.373,0,0,0,3.731-.923c4.641-2.676,5.682-11.015,3.283-21.483C74.316,46.512,81,41.423,81,36.077Zm-32.972,0a7.548,7.548,0,1,0-7.548,7.548,7.546,7.546,0,0,0,7.548-7.548ZM23.955.066Zm35.55,25c-.613,2.129-1.371,4.324-2.228,6.519-.679-1.318-1.384-2.643-2.162-3.962-.758-1.318-1.569-2.61-2.38-3.863,2.347.349,4.608.778,6.77,1.305ZM51.943,42.649c-1.285,2.228-2.61,4.344-3.981,6.308-2.459.218-4.95.33-7.462.33-2.492,0-4.983-.119-7.429-.316C31.7,47.006,30.362,44.91,29.076,42.7q-1.879-3.243-3.434-6.572c1.022-2.215,2.182-4.423,3.415-6.585,1.285-2.228,2.61-4.344,3.981-6.308,2.459-.218,4.95-.33,7.462-.33,2.492,0,4.983.119,7.429.316,1.371,1.964,2.709,4.061,3.995,6.275q1.879,3.243,3.434,6.572c-1.042,2.208-2.175,4.417-3.415,6.585ZM57.276,40.5c.89,2.215,1.648,4.423,2.281,6.572-2.162.527-4.443.976-6.8,1.318.811-1.272,1.615-2.577,2.38-3.916.751-1.318,1.463-2.656,2.142-3.975ZM40.533,58.113a66.817,66.817,0,0,1-4.588-5.28c1.483.066,3.006.119,4.542.119s3.085-.033,4.588-.119a65.246,65.246,0,0,1-4.542,5.28ZM28.252,48.39c-2.347-.349-4.608-.778-6.77-1.305.613-2.129,1.371-4.324,2.228-6.519.679,1.318,1.384,2.643,2.162,3.962s1.569,2.61,2.38,3.863ZM40.447,14.034a66.817,66.817,0,0,1,4.588,5.28c-1.483-.066-3.006-.119-4.542-.119s-3.085.033-4.588.119a65.245,65.245,0,0,1,4.542-5.28ZM28.233,23.757c-.811,1.272-1.615,2.577-2.38,3.916-.758,1.318-1.47,2.643-2.149,3.962-.89-2.215-1.648-4.423-2.281-6.572,2.169-.514,4.449-.956,6.809-1.305ZM13.289,44.429c-5.847-2.492-9.624-5.761-9.624-8.352s3.784-5.88,9.624-8.352c1.417-.613,2.973-1.154,4.575-1.668A79.263,79.263,0,0,0,21.582,36.11a78.153,78.153,0,0,0-3.665,10.006c-1.635-.514-3.19-1.074-4.627-1.688Zm8.886,23.592c-2.248-1.285-3.217-6.19-2.459-12.5.185-1.549.481-3.184.844-4.852a80.209,80.209,0,0,0,10.481,1.8,80.655,80.655,0,0,0,6.869,8.253c-5.385,5-10.435,7.745-13.869,7.745a3.936,3.936,0,0,1-1.865-.448ZM61.337,55.444c.778,6.308-.185,11.213-2.413,12.518a3.68,3.68,0,0,1-1.9.428c-3.415,0-8.484-2.722-13.869-7.693a77.067,77.067,0,0,0,6.816-8.24,76.727,76.727,0,0,0,10.5-1.819,46.384,46.384,0,0,1,.864,4.805Zm6.354-11.015c-1.417.613-2.973,1.154-4.575,1.668A79.263,79.263,0,0,0,59.4,36.044a78.151,78.151,0,0,0,3.665-10.006q2.452.771,4.641,1.681c5.847,2.492,9.624,5.761,9.624,8.352s-3.79,5.88-9.637,8.358Z" fill="#c31f5d" fill-rule="evenodd"/></svg>