<svg xmlns="http://www.w3.org/2000/svg" width="98" height="98.001" viewBox="0 0 98 98.001">
  <path id="noun-pie-chart-3670138" d="M154,35a49.074,49.074,0,1,0,40.824,21.952,2.334,2.334,0,1,0-3.887,2.58,44.283,44.283,0,0,1,7.328,22.134h-14.03a30.372,30.372,0,0,0-27.9-27.9V39.729a44.282,44.282,0,0,1,22.136,7.33,2.334,2.334,0,1,0,2.58-3.888A48.947,48.947,0,0,0,154,34.994Zm-2.334,4.728V53.76a30.193,30.193,0,0,0-17.386,7.216l-9.944-9.944a44.122,44.122,0,0,1,27.33-11.309Zm35.368,8.941a2.332,2.332,0,1,0,1.616.681A2.334,2.334,0,0,0,187.034,48.665Zm-66,5.665,9.944,9.946a30.208,30.208,0,0,0-6.918,24.589L110.49,92.5a44.7,44.7,0,0,1-.823-8.5,44.184,44.184,0,0,1,11.371-29.666Zm32.962,4a25.666,25.666,0,1,1-25.666,25.666A25.63,25.63,0,0,1,154,58.329Zm-4.662,9.335A2.333,2.333,0,0,0,147.005,70V81.657h-7a2.334,2.334,0,0,0-2.334,2.334V98A2.334,2.334,0,0,0,140,100.329h28A2.334,2.334,0,0,0,170.334,98V79.333A2.334,2.334,0,0,0,168,77h-7V70a2.333,2.333,0,0,0-2.334-2.334Zm2.324,4.667h4.67v23.33h-4.67ZM161,81.657h4.669v14H161Zm-18.662,4.67h4.669v9.335h-4.669Zm41.9,0h14.037a44.123,44.123,0,0,1-11.309,27.33l-9.944-9.941a30.192,30.192,0,0,0,7.216-17.388Zm-59.07,7.066a30.3,30.3,0,0,0,48.556,13.619l9.941,9.944a44.36,44.36,0,0,1-72.05-19.927Z" transform="translate(-105 -34.994)" fill="#4c2e88" fill-rule="evenodd"/>
</svg>
