<svg xmlns="http://www.w3.org/2000/svg" width="62.588" height="85.347" viewBox="0 0 62.588 85.347">
  <g id="Group_11946" data-name="Group 11946" transform="translate(-5 -1)">
    <path id="Path_38374" data-name="Path 38374" d="M21.339,31.351l-6.523-6.523L10.793,28.85,21.339,39.4,40.42,20.316,36.4,16.293Z" transform="translate(10.688 28.214)" fill="#4c2e88"/>
    <path id="Path_38375" data-name="Path 38375" d="M59.053,33.62v-9.86a22.759,22.759,0,0,0-45.518,0v9.863a31.293,31.293,0,1,0,45.518,0Zm-39.829-9.86a17.069,17.069,0,0,1,34.139,0v5.087a31.183,31.183,0,0,0-34.139,0Zm17.069,56.9a25.6,25.6,0,1,1,25.6-25.6A25.6,25.6,0,0,1,36.294,80.657Z" transform="translate(0)" fill="#4c2e88"/>
  </g>
</svg>
