<svg xmlns="http://www.w3.org/2000/svg" width="121.431" height="101.491" viewBox="0 0 121.431 101.491">
  <path id="E-Commerce_Solutions_1_" d="M62.925,96.638A11.736,11.736,0,1,1,51.192,84.905,11.728,11.728,0,0,1,62.925,96.638ZM86,96.6A11.734,11.734,0,1,0,97.728,84.862,11.738,11.738,0,0,0,86,96.6Zm26.119-21.048H35.564l-1.631-9.488L101.6,66.1A16.594,16.594,0,0,0,117.41,52.71l5.331-32.03H26.129l-1.684-9.8H12.453A6.783,6.783,0,0,0,5.67,17.668V20.64m21.949,8.682,4.826,28.1" transform="translate(-3.67 -8.884)" fill="none" stroke="#c31f5d" stroke-miterlimit="22.926" stroke-width="4" fill-rule="evenodd"/>
</svg>
