<svg xmlns="http://www.w3.org/2000/svg" width="100.883" height="100.846" viewBox="0 0 100.883 100.846">
  <g id="_005-search-results" data-name="005-search-results" transform="translate(0.024 0.002)">
    <path id="Path_37711" data-name="Path 37711" d="M94.136,16.809H78.123a43.7,43.7,0,1,0-8.644,62.158l20.4,20.4a5.042,5.042,0,0,0,7.13,0L99.382,97a5.042,5.042,0,0,0,0-7.131L80.109,70.592H94.136a6.723,6.723,0,0,0,6.723-6.723V57.146a6.723,6.723,0,0,0-6.723-6.723H86.9a43.9,43.9,0,0,0,.518-6.723h6.723a6.723,6.723,0,0,0,6.723-6.723V23.532A6.723,6.723,0,0,0,94.136,16.809ZM3.378,43.7A40.337,40.337,0,1,1,43.715,84.037,40.337,40.337,0,0,1,3.378,43.7ZM84.711,28.574h4.383a1.681,1.681,0,0,1,1.681,1.681,1.77,1.77,0,0,1-1.681,1.681h-3.3C85.472,30.8,85.118,29.673,84.711,28.574ZM76.876,72.1,80.2,75.425l-4.751,4.758-3.328-3.323A43.7,43.7,0,0,0,76.876,72.1ZM97.5,93.429a1.68,1.68,0,0,1-.492,1.188l-2.375,2.373a1.718,1.718,0,0,1-2.375,0L77.823,82.56l4.751-4.751L97.005,92.241a1.669,1.669,0,0,1,.492,1.188ZM94.136,53.784A3.361,3.361,0,0,1,97.5,57.146v6.723a3.361,3.361,0,0,1-3.361,3.361H80.509A43.34,43.34,0,0,0,83.3,62.188h9.158a1.681,1.681,0,0,0,0-3.361H84.711a42.77,42.77,0,0,0,1.513-5.042ZM97.5,36.977a3.361,3.361,0,0,1-3.361,3.361H87.271A43.254,43.254,0,0,0,86.6,35.3h2.5a5.109,5.109,0,0,0,5.042-5.042,5.042,5.042,0,0,0-5.042-5.042H83.3a43.34,43.34,0,0,0-2.788-5.042H94.136A3.361,3.361,0,0,1,97.5,23.532Z" transform="translate(0 0)" fill="#4c2e88"/>
    <path id="Path_37712" data-name="Path 37712" d="M32.953,24.577l-1.918-1.918a5.8,5.8,0,0,0,.729-2.777,5.883,5.883,0,1,0-5.883,5.883,5.8,5.8,0,0,0,2.777-.729l1.918,1.918a1.681,1.681,0,1,0,2.377-2.377Zm-9.592-4.694A2.521,2.521,0,1,1,25.883,22.4,2.521,2.521,0,0,1,23.361,19.883Z" transform="translate(13.631 9.532)" fill="#4c2e88"/>
    <path id="Path_37713" data-name="Path 37713" d="M25.042,35H21.681a1.681,1.681,0,1,0,0,3.361h3.361a1.681,1.681,0,0,0,0-3.361Z" transform="translate(13.631 23.827)" fill="#4c2e88"/>
    <path id="Path_37714" data-name="Path 37714" d="M73.607,58.353a36.962,36.962,0,0,0-23.824-53.3,1.681,1.681,0,1,0-.8,3.266,33.559,33.559,0,0,1,12.184,5.765H29.215a6.723,6.723,0,0,0-6.723,6.723V34.253a6.723,6.723,0,0,0,6.723,6.723H74.595a33.693,33.693,0,0,1-.672,6.723H29.215a6.723,6.723,0,0,0-6.723,6.723v6.723a6.723,6.723,0,0,0,6.723,6.723H61.063A33.592,33.592,0,1,1,40.98,7.361,1.681,1.681,0,1,0,40.98,4,36.976,36.976,0,1,0,73.472,58.612a1.512,1.512,0,0,0,.134-.259Zm-1.14-29.142H62.83a1.681,1.681,0,0,1-1.681-1.681,1.726,1.726,0,0,1,1.681-1.681H71A33.612,33.612,0,0,1,72.467,29.211ZM25.854,34.253V20.807a3.361,3.361,0,0,1,3.361-3.361H49.384V37.614H29.215A3.361,3.361,0,0,1,25.854,34.253Zm26.891,3.361V17.446H64.995a33.478,33.478,0,0,1,4.091,5.042H62.83a5.109,5.109,0,0,0-5.042,5.042,5.042,5.042,0,0,0,5.042,5.042H73.538a33.809,33.809,0,0,1,.876,5.042Zm12.2,26.891H29.215a3.361,3.361,0,0,1-3.361-3.361V54.421a3.361,3.361,0,0,1,3.361-3.361h43.83A33.43,33.43,0,0,1,70.958,56.1H49.384a1.681,1.681,0,0,0,0,3.361H69.025a33.859,33.859,0,0,1-4.079,5.042Z" transform="translate(2.735 2.724)" fill="#4c2e88"/>
  </g>
</svg>
