<svg xmlns="http://www.w3.org/2000/svg" width="221.998" height="44.204" viewBox="0 0 221.998 44.204">
  <g id="Group_342" data-name="Group 342" transform="translate(-348.122 -272.249)">
    <g id="Group_337" data-name="Group 337" transform="translate(348.122 272.438)">
      <path id="Path_2204" data-name="Path 2204" d="M357.605,306.645v7.719h19.577a10.033,10.033,0,0,1-.323-2.509c0-5.915,5.241-10.881,11.463-10.881a11.781,11.781,0,0,1,1.685.124V282.685l-3.837,6.84-5.93-10.571v11.861h-6.253V272.479H360.082c.156.114.31.231.462.352l-2.822,3.987a10,10,0,0,0-5.7-2.008c-1.368,0-2.037.553-2.037,1.309,0,1.019.7,1.339,3.55,1.95,4.656.989,7.566,2.241,7.566,6.052,0,4.219-3.23,6.693-8.235,6.693a15.871,15.871,0,0,1-4.74-.707v11.235h15.706v5.3Z" transform="translate(-348.122 -272.479)" fill="#fff"/>
      <path id="Path_2205" data-name="Path 2205" d="M353.066,288.185c1.542,0,2.357-.523,2.357-1.4,0-.961-.7-1.106-3.463-1.746a25.772,25.772,0,0,1-3.838-1.113v2.924A10,10,0,0,0,353.066,288.185Z" transform="translate(-348.122 -274.535)" fill="#fff"/>
      <path id="Path_2206" data-name="Path 2206" d="M397.64,314.09a4.919,4.919,0,0,0-1.685-.3,5.487,5.487,0,0,0-4.725,8h6.41Z" transform="translate(-355.754 -279.897)" fill="#fff"/>
      <rect id="Rectangle_752" data-name="Rectangle 752" width="3.537" height="7.719" transform="translate(0 34.166)" fill="#fff"/>
      <path id="Path_2207" data-name="Path 2207" d="M397.463,272.479h-7.589l3.795,6.764Z" transform="translate(-355.619 -272.479)" fill="#fff"/>
    </g>
    <g id="Group_338" data-name="Group 338" transform="translate(401.037 272.249)">
      <path id="Path_2208" data-name="Path 2208" d="M432.011,280.178c-.985-1.643-3.7-3.2-6.82-3.2-4.027,0-5.957,1.684-5.957,3.822,0,2.506,2.958,3.2,6.409,3.615,6,.74,11.586,2.3,11.586,9.162,0,6.409-5.67,9.163-12.079,9.163-5.876,0-10.395-1.808-12.531-7.067l4.519-2.342c1.274,3.164,4.6,4.562,8.094,4.562,3.41,0,6.615-1.192,6.615-4.315,0-2.711-2.835-3.821-6.656-4.232-5.876-.7-11.3-2.259-11.3-8.711,0-5.917,5.834-8.34,11.134-8.381,4.479,0,9.121,1.273,11.3,5.711Z" transform="translate(-412.619 -272.249)" fill="#fff"/>
      <path id="Path_2209" data-name="Path 2209" d="M452.687,273.5v16.6l6.82-8.135h6v.288l-8.258,9.245,9.409,10.354v.369h-6.04l-7.929-9.162v9.162h-5.013V273.5Z" transform="translate(-418.914 -272.474)" fill="#fff"/>
      <path id="Path_2210" data-name="Path 2210" d="M478.982,276.215c0,3.9-5.917,3.9-5.917,0S478.982,272.312,478.982,276.215Zm-5.465,5.629v20.338h5.014V281.844Z" transform="translate(-423.473 -272.436)" fill="#fff"/>
      <path id="Path_2211" data-name="Path 2211" d="M490.206,273.5V302.22h-4.972V273.5Z" transform="translate(-425.659 -272.474)" fill="#fff"/>
      <path id="Path_2212" data-name="Path 2212" d="M501.624,273.5V302.22h-4.972V273.5Z" transform="translate(-427.709 -272.474)" fill="#fff"/>
      <path id="Path_2213" data-name="Path 2213" d="M521.546,303.992V293.146c0-2.671-1.4-5.095-4.15-5.095-2.711,0-4.313,2.424-4.313,5.095v10.846H508.07V283.7h4.643l.371,2.465a5.866,5.866,0,0,1,5.34-2.794,6.068,6.068,0,0,1,6,3.78,7.336,7.336,0,0,1,6.78-3.7c5.751,0,8.586,3.533,8.586,9.614v10.929h-5.012V293.063c0-2.67-1.109-4.93-3.821-4.93s-4.4,2.342-4.4,5.013v10.846Z" transform="translate(-429.759 -274.245)" fill="#fff"/>
      <path id="Path_2214" data-name="Path 2214" d="M558.309,276.215c0,3.9-5.917,3.9-5.917,0S558.309,272.312,558.309,276.215Zm-5.466,5.629v20.338h5.014V281.844Z" transform="translate(-437.718 -272.436)" fill="#fff"/>
      <path id="Path_2215" data-name="Path 2215" d="M579.448,304V293.4c0-3.082-1.684-5.423-4.889-5.423-3.082,0-5.177,2.588-5.177,5.669V304H564.41V283.7h4.479l.329,2.753a9.129,9.129,0,0,1,6.656-3.041c4.765,0,8.587,3.574,8.587,9.943V304Z" transform="translate(-439.877 -274.254)" fill="#fff"/>
      <path id="Path_2216" data-name="Path 2216" d="M598.183,295.6c.33,2.506,2.507,4.315,6.041,4.315a8.36,8.36,0,0,0,5.423-1.89l3.2,3.164a12.443,12.443,0,0,1-8.71,3.287c-6.985,0-11.134-4.314-11.134-10.806,0-6.162,4.191-10.6,10.765-10.6,6.779,0,11.011,4.191,10.231,12.531Zm11.012-4.15c-.328-2.629-2.383-3.944-5.259-3.944-2.712,0-4.931,1.314-5.67,3.944Z" transform="translate(-445.012 -274.191)" fill="#fff"/>
    </g>
    <g id="Group_339" data-name="Group 339" transform="translate(401.085 307.013)">
      <path id="Path_2217" data-name="Path 2217" d="M418.23,315.846h-2.388v6.1h-.775v-6.1h-2.388V315.1h5.552Z" transform="translate(-412.678 -314.708)" fill="#fff"/>
      <path id="Path_2218" data-name="Path 2218" d="M421.442,321.674a1.563,1.563,0,0,0,1.5-.868h.848a2.5,2.5,0,0,1-.853,1.137,2.456,2.456,0,0,1-1.5.434,2.5,2.5,0,0,1-1.9-.774,2.649,2.649,0,0,1-.714-1.893,2.7,2.7,0,0,1,.683-1.893,2.671,2.671,0,0,1,3.763,0,2.691,2.691,0,0,1,.683,1.893v.31h-4.332a1.874,1.874,0,0,0,.569,1.179A1.747,1.747,0,0,0,421.442,321.674Zm-.062-3.929a1.711,1.711,0,0,0-1.2.445,1.836,1.836,0,0,0-.559,1.107h3.516a1.846,1.846,0,0,0-.559-1.107A1.711,1.711,0,0,0,421.38,317.745Z" transform="translate(-413.78 -315.057)" fill="#fff"/>
      <path id="Path_2219" data-name="Path 2219" d="M428.545,321.674a1.452,1.452,0,0,0,.879-.279,1.6,1.6,0,0,0,.559-.724h.838a2.359,2.359,0,0,1-.869,1.231,2.618,2.618,0,0,1-1.571.475,2.4,2.4,0,0,1-1.851-.774,2.93,2.93,0,0,1,0-3.785,2.4,2.4,0,0,1,1.851-.775,2.618,2.618,0,0,1,1.571.476,2.36,2.36,0,0,1,.869,1.231h-.838a1.616,1.616,0,0,0-.559-.724,1.457,1.457,0,0,0-.879-.279,2.062,2.062,0,0,0-.843.155,1.7,1.7,0,0,0-.584.424,2.15,2.15,0,0,0,0,2.771A1.814,1.814,0,0,0,428.545,321.674Z" transform="translate(-415.041 -315.057)" fill="#fff"/>
      <path id="Path_2220" data-name="Path 2220" d="M433.858,314.622V317.5a2.6,2.6,0,0,1,.683-.631,1.668,1.668,0,0,1,.92-.258,2.443,2.443,0,0,1,.889.145,1.787,1.787,0,0,1,.651.434,2.228,2.228,0,0,1,.642,1.665v3.009h-.776v-2.989a1.582,1.582,0,0,0-.4-1.137,1.374,1.374,0,0,0-1.044-.424,1.542,1.542,0,0,0-1.107.435,1.52,1.52,0,0,0-.455,1.137v2.978h-.775v-7.239Z" transform="translate(-416.342 -314.622)" fill="#fff"/>
      <path id="Path_2221" data-name="Path 2221" d="M440.992,317.125v.806a2.6,2.6,0,0,1,.683-.631,1.665,1.665,0,0,1,.92-.258,2.447,2.447,0,0,1,.889.145,1.789,1.789,0,0,1,.651.434,2.228,2.228,0,0,1,.642,1.665V322.3H444v-2.989a1.582,1.582,0,0,0-.4-1.137,1.375,1.375,0,0,0-1.044-.424,1.542,1.542,0,0,0-1.106.435,1.52,1.52,0,0,0-.455,1.137V322.3h-.775v-5.17Z" transform="translate(-417.623 -315.057)" fill="#fff"/>
      <path id="Path_2222" data-name="Path 2222" d="M449.524,317.042a2.456,2.456,0,0,1,1.881.775,2.965,2.965,0,0,1,0,3.785,2.673,2.673,0,0,1-3.763,0,2.965,2.965,0,0,1,0-3.785A2.456,2.456,0,0,1,449.524,317.042Zm0,4.632a1.636,1.636,0,0,0,1.323-.578,2.3,2.3,0,0,0,0-2.771,1.8,1.8,0,0,0-2.647,0,2.293,2.293,0,0,0,0,2.771A1.633,1.633,0,0,0,449.524,321.674Z" transform="translate(-418.834 -315.057)" fill="#fff"/>
      <path id="Path_2223" data-name="Path 2223" d="M455.234,321.861h-.775v-7.239h.775Z" transform="translate(-420.181 -314.622)" fill="#fff"/>
      <path id="Path_2224" data-name="Path 2224" d="M459.217,317.042a2.455,2.455,0,0,1,1.881.775,2.965,2.965,0,0,1,0,3.785,2.673,2.673,0,0,1-3.763,0,2.966,2.966,0,0,1,0-3.785A2.457,2.457,0,0,1,459.217,317.042Zm0,4.632a1.638,1.638,0,0,0,1.324-.578,2.3,2.3,0,0,0,0-2.771,1.8,1.8,0,0,0-2.648,0,2.3,2.3,0,0,0,0,2.771A1.636,1.636,0,0,0,459.217,321.674Z" transform="translate(-420.574 -315.057)" fill="#fff"/>
      <path id="Path_2225" data-name="Path 2225" d="M468.113,317.952v-.827h.776v5.015a2.194,2.194,0,0,1-.636,1.7,2.432,2.432,0,0,1-1.711.584,2.948,2.948,0,0,1-1.68-.413,2.047,2.047,0,0,1-.822-1.1h.857a1.447,1.447,0,0,0,1.51.806,1.759,1.759,0,0,0,1.3-.414,1.679,1.679,0,0,0,.4-1.22v-.714a2.1,2.1,0,0,1-1.85.921,2.356,2.356,0,0,1-1.82-.765,2.878,2.878,0,0,1,0-3.722,2.423,2.423,0,0,1,1.876-.765A2.037,2.037,0,0,1,468.113,317.952Zm-1.747,3.64a1.8,1.8,0,0,0,.754-.15,1.741,1.741,0,0,0,.569-.409,2.234,2.234,0,0,0,0-2.73,1.7,1.7,0,0,0-1.323-.559,1.728,1.728,0,0,0-1.345.559,2.161,2.161,0,0,0,0,2.73A1.728,1.728,0,0,0,466.367,321.592Z" transform="translate(-421.851 -315.057)" fill="#fff"/>
      <path id="Path_2226" data-name="Path 2226" d="M472.887,324.36h-.837l.94-2.12-2.109-5.1h.858l1.665,4.24,1.7-4.24h.849Z" transform="translate(-423.13 -315.075)" fill="#fff"/>
    </g>
    <g id="Group_340" data-name="Group 340" transform="translate(468.283 307.084)">
      <path id="Path_2227" data-name="Path 2227" d="M498.068,321.344a2.222,2.222,0,0,0,2.109-1.375h.816a3.064,3.064,0,0,1-1.127,1.53,3.3,3.3,0,0,1-1.975.6,3.132,3.132,0,0,1-2.43-1.024,3.944,3.944,0,0,1,0-4.964,3.134,3.134,0,0,1,2.43-1.023,3.3,3.3,0,0,1,1.975.6,3.064,3.064,0,0,1,1.127,1.53h-.816a2.219,2.219,0,0,0-2.109-1.375,3.06,3.06,0,0,0-1.22.212,2.294,2.294,0,0,0-.817.585,3.175,3.175,0,0,0,0,3.909A2.574,2.574,0,0,0,498.068,321.344Z" transform="translate(-494.583 -314.777)" fill="#fff"/>
      <path id="Path_2228" data-name="Path 2228" d="M505.781,317.129a2.457,2.457,0,0,1,1.881.776,2.964,2.964,0,0,1,0,3.785,2.671,2.671,0,0,1-3.763,0,2.964,2.964,0,0,1,0-3.785A2.456,2.456,0,0,1,505.781,317.129Zm0,4.633a1.637,1.637,0,0,0,1.323-.579,2.3,2.3,0,0,0,0-2.771,1.8,1.8,0,0,0-2.648,0,2.3,2.3,0,0,0,0,2.771A1.637,1.637,0,0,0,505.781,321.762Z" transform="translate(-496.133 -315.144)" fill="#fff"/>
      <path id="Path_2229" data-name="Path 2229" d="M511.491,317.212v.807a2.6,2.6,0,0,1,.683-.63,1.666,1.666,0,0,1,.92-.259,2.445,2.445,0,0,1,.889.145,1.8,1.8,0,0,1,.651.434,2.229,2.229,0,0,1,.642,1.665v3.009H514.5v-2.988a1.583,1.583,0,0,0-.4-1.138,1.377,1.377,0,0,0-1.045-.423,1.541,1.541,0,0,0-1.106.434,1.52,1.52,0,0,0-.455,1.137v2.978h-.775v-5.17Z" transform="translate(-497.48 -315.144)" fill="#fff"/>
      <path id="Path_2230" data-name="Path 2230" d="M520.81,318.6q-.1-.806-1.3-.807t-1.195.745a.521.521,0,0,0,.253.47,2.3,2.3,0,0,0,.637.263c.254.07.532.133.832.192a4.283,4.283,0,0,1,.833.248,1.769,1.769,0,0,1,.635.44,1.1,1.1,0,0,1,.254.765,1.321,1.321,0,0,1-.569,1.153,2.643,2.643,0,0,1-1.54.4,2.458,2.458,0,0,1-1.644-.517,1.582,1.582,0,0,1-.6-1.19h.807a1.077,1.077,0,0,0,.806.962,1.806,1.806,0,0,0,.532.083,3.67,3.67,0,0,0,.491-.031,2.046,2.046,0,0,0,.445-.114.689.689,0,0,0,.5-.672.558.558,0,0,0-.253-.491,2.218,2.218,0,0,0-.636-.279q-.384-.108-.833-.2a4.51,4.51,0,0,1-.833-.243,1.768,1.768,0,0,1-.636-.424,1.041,1.041,0,0,1-.253-.744,1.289,1.289,0,0,1,.512-1.091,2.488,2.488,0,0,1,1.515-.388,2.276,2.276,0,0,1,1.5.455,1.5,1.5,0,0,1,.527,1.013Z" transform="translate(-498.682 -315.144)" fill="#fff"/>
      <path id="Path_2231" data-name="Path 2231" d="M527.646,322.4v-.806a2.585,2.585,0,0,1-.682.631,1.67,1.67,0,0,1-.921.258,2.465,2.465,0,0,1-.889-.144,1.8,1.8,0,0,1-.651-.435,2.228,2.228,0,0,1-.642-1.665V317.23h.776v2.989a1.579,1.579,0,0,0,.4,1.137,1.374,1.374,0,0,0,1.044.424,1.543,1.543,0,0,0,1.107-.434,1.523,1.523,0,0,0,.455-1.138V317.23h.775v5.17Z" transform="translate(-499.84 -315.162)" fill="#fff"/>
      <path id="Path_2232" data-name="Path 2232" d="M531.834,321.948h-.775v-7.239h.775Z" transform="translate(-501.133 -314.709)" fill="#fff"/>
      <path id="Path_2233" data-name="Path 2233" d="M534.092,322v-4.488h-1.055v-.683h1.055v-1.851h.776v1.851h1.189v.683h-1.189V322Z" transform="translate(-501.488 -314.757)" fill="#fff"/>
      <path id="Path_2234" data-name="Path 2234" d="M538.551,314.937v1.013h-.838v-1.013Zm-.807,1.881h.775v5.17h-.775Z" transform="translate(-502.328 -314.75)" fill="#fff"/>
      <path id="Path_2235" data-name="Path 2235" d="M541.11,317.212v.807a2.6,2.6,0,0,1,.683-.63,1.666,1.666,0,0,1,.92-.259,2.442,2.442,0,0,1,.889.145,1.8,1.8,0,0,1,.651.434,2.229,2.229,0,0,1,.642,1.665v3.009h-.776v-2.988a1.583,1.583,0,0,0-.4-1.138,1.376,1.376,0,0,0-1.044-.423,1.541,1.541,0,0,0-1.107.434,1.52,1.52,0,0,0-.455,1.137v2.978h-.775v-5.17Z" transform="translate(-502.799 -315.144)" fill="#fff"/>
      <path id="Path_2236" data-name="Path 2236" d="M551.431,318.04v-.828h.775v5.015a2.2,2.2,0,0,1-.635,1.7,2.436,2.436,0,0,1-1.711.583,2.957,2.957,0,0,1-1.681-.413,2.058,2.058,0,0,1-.822-1.1h.858a1.446,1.446,0,0,0,1.51.806,1.762,1.762,0,0,0,1.3-.413,1.681,1.681,0,0,0,.4-1.221v-.713a2.1,2.1,0,0,1-1.851.92,2.357,2.357,0,0,1-1.82-.765,2.88,2.88,0,0,1,0-3.723,2.424,2.424,0,0,1,1.876-.766A2.039,2.039,0,0,1,551.431,318.04Zm-1.747,3.639a1.808,1.808,0,0,0,.755-.15,1.726,1.726,0,0,0,.569-.408,2.233,2.233,0,0,0,0-2.73,1.7,1.7,0,0,0-1.323-.558,1.727,1.727,0,0,0-1.345.558,2.161,2.161,0,0,0,0,2.73A1.73,1.73,0,0,0,549.684,321.679Z" transform="translate(-504.01 -315.144)" fill="#fff"/>
    </g>
    <g id="Group_341" data-name="Group 341" transform="translate(531.094 307.271)">
      <path id="Path_2237" data-name="Path 2237" d="M572.434,316.22a.846.846,0,0,0-.263.377,1.4,1.4,0,0,0-.068.439.593.593,0,0,0,.2.43,1.63,1.63,0,0,0,.533.331,5.444,5.444,0,0,0,.755.238l.863.212q.439.108.863.249a3.167,3.167,0,0,1,.755.356,1.439,1.439,0,0,1,.735,1.273,1.686,1.686,0,0,1-.719,1.469,3.418,3.418,0,0,1-1.991.506,3.456,3.456,0,0,1-2.192-.6,2.114,2.114,0,0,1-.765-1.53h.806a1.272,1.272,0,0,0,.682,1.076,2.966,2.966,0,0,0,1.479.32q1.922,0,1.924-1.209a.751.751,0,0,0-.347-.651,3.062,3.062,0,0,0-.869-.393q-.522-.155-1.127-.29a6.989,6.989,0,0,1-1.126-.347,2.6,2.6,0,0,1-.87-.558,1.267,1.267,0,0,1-.345-.936,1.687,1.687,0,0,1,.641-1.365,3,3,0,0,1,1.934-.527,3.046,3.046,0,0,1,2.016.6,1.782,1.782,0,0,1,.693,1.354h-.8a1.32,1.32,0,0,0-1.1-1.127,3.138,3.138,0,0,0-.873-.1,2.822,2.822,0,0,0-.879.119A1.616,1.616,0,0,0,572.434,316.22Z" transform="translate(-571.142 -314.964)" fill="#fff"/>
      <path id="Path_2238" data-name="Path 2238" d="M581.544,321.762a1.563,1.563,0,0,0,1.5-.869h.848a2.49,2.49,0,0,1-.853,1.138,2.455,2.455,0,0,1-1.5.434,2.5,2.5,0,0,1-1.9-.775,2.648,2.648,0,0,1-.713-1.893,2.69,2.69,0,0,1,.683-1.892,2.669,2.669,0,0,1,3.763,0,2.69,2.69,0,0,1,.683,1.892v.31h-4.332a1.875,1.875,0,0,0,.568,1.179A1.748,1.748,0,0,0,581.544,321.762Zm-.061-3.929a1.714,1.714,0,0,0-1.2.444,1.843,1.843,0,0,0-.559,1.107h3.517a1.849,1.849,0,0,0-.559-1.107A1.714,1.714,0,0,0,581.483,317.833Z" transform="translate(-572.538 -315.331)" fill="#fff"/>
      <path id="Path_2239" data-name="Path 2239" d="M589.058,317.129v.776h-.093a1.657,1.657,0,0,0-1.365.672,2.428,2.428,0,0,0-.5,1.53v2.275h-.775v-5.17h.775v1.272a1.962,1.962,0,0,1,1.9-1.355Z" transform="translate(-573.869 -315.331)" fill="#fff"/>
      <path id="Path_2240" data-name="Path 2240" d="M594.874,317.23l-2.017,5.17h-.91l-2.026-5.17h.847l1.633,4.343,1.624-4.343Z" transform="translate(-574.514 -315.349)" fill="#fff"/>
      <path id="Path_2241" data-name="Path 2241" d="M597.64,314.937v1.013H596.8v-1.013Zm-.807,1.881h.775v5.17h-.775Z" transform="translate(-575.75 -314.937)" fill="#fff"/>
      <path id="Path_2242" data-name="Path 2242" d="M601.742,321.762a1.45,1.45,0,0,0,.879-.279,1.611,1.611,0,0,0,.559-.724h.838a2.356,2.356,0,0,1-.869,1.231,2.616,2.616,0,0,1-1.571.476,2.4,2.4,0,0,1-1.851-.775,2.929,2.929,0,0,1,0-3.785,2.4,2.4,0,0,1,1.851-.776,2.621,2.621,0,0,1,1.571.476,2.355,2.355,0,0,1,.869,1.231h-.838a1.613,1.613,0,0,0-.559-.724,1.449,1.449,0,0,0-.879-.279,2.057,2.057,0,0,0-.843.155,1.687,1.687,0,0,0-.584.423,2.15,2.15,0,0,0,0,2.771A1.814,1.814,0,0,0,601.742,321.762Z" transform="translate(-576.151 -315.331)" fill="#fff"/>
      <path id="Path_2243" data-name="Path 2243" d="M608.516,321.762a1.564,1.564,0,0,0,1.5-.869h.848a2.5,2.5,0,0,1-.853,1.138,2.456,2.456,0,0,1-1.5.434,2.5,2.5,0,0,1-1.9-.775,2.648,2.648,0,0,1-.713-1.893,2.69,2.69,0,0,1,.683-1.892,2.669,2.669,0,0,1,3.763,0,2.694,2.694,0,0,1,.683,1.892v.31h-4.333a1.875,1.875,0,0,0,.569,1.179A1.748,1.748,0,0,0,608.516,321.762Zm-.062-3.929a1.713,1.713,0,0,0-1.2.444,1.844,1.844,0,0,0-.559,1.107h3.516a1.847,1.847,0,0,0-.558-1.107A1.714,1.714,0,0,0,608.455,317.833Z" transform="translate(-577.382 -315.331)" fill="#fff"/>
      <path id="Path_2244" data-name="Path 2244" d="M616.261,318.6q-.1-.806-1.3-.807t-1.195.745a.52.52,0,0,0,.253.47,2.3,2.3,0,0,0,.637.263c.255.07.532.133.832.192a4.253,4.253,0,0,1,.833.248,1.76,1.76,0,0,1,.635.44,1.1,1.1,0,0,1,.254.765,1.321,1.321,0,0,1-.568,1.153,2.648,2.648,0,0,1-1.541.4,2.458,2.458,0,0,1-1.644-.517,1.585,1.585,0,0,1-.6-1.19h.807a1.077,1.077,0,0,0,.807.962,1.806,1.806,0,0,0,.532.083,3.659,3.659,0,0,0,.491-.031,2.042,2.042,0,0,0,.444-.114.688.688,0,0,0,.5-.672.558.558,0,0,0-.254-.491,2.216,2.216,0,0,0-.636-.279q-.384-.108-.833-.2a4.507,4.507,0,0,1-.833-.243,1.769,1.769,0,0,1-.636-.424,1.04,1.04,0,0,1-.254-.744,1.289,1.289,0,0,1,.512-1.091,2.488,2.488,0,0,1,1.515-.388,2.274,2.274,0,0,1,1.5.455,1.5,1.5,0,0,1,.527,1.013Z" transform="translate(-578.633 -315.331)" fill="#fff"/>
    </g>
    <rect id="Rectangle_753" data-name="Rectangle 753" width="3.184" height="3.184" rx="1" transform="translate(459.161 310.218)" fill="#fff"/>
    <rect id="Rectangle_754" data-name="Rectangle 754" width="3.184" height="3.184" rx="1" transform="translate(522.836 310.218)" fill="#fff"/>
  </g>
</svg>
