<svg xmlns="http://www.w3.org/2000/svg" width="100.524" height="100.516" viewBox="0 0 100.524 100.516">
  <g id="_004-marketing" data-name="004-marketing" transform="translate(0 -0.008)">
    <path id="Path_37709" data-name="Path 37709" d="M99.644,5.382a5.442,5.442,0,0,0-4.482-4.5c-16.723-2.708-30.607.9-40.151,10.449l-12.7,12.7L19.437,20.772a5.461,5.461,0,0,0-4.595,1.535L1.585,35.566a5.437,5.437,0,0,0,0,7.676L12.551,54.2a5.424,5.424,0,0,0-.61,2.426,5.34,5.34,0,0,0,1.56,3.834L9.628,62.4a5.429,5.429,0,0,0-1.411,8.7l1.594,1.592c-.193.2-.39.4-.571.613C3.636,80,3.266,90.7,3.375,94.951a2.22,2.22,0,0,0,3.648,1.635,12.167,12.167,0,0,1,5.209-2.837c.3-.07.5.154.382.5a2.2,2.2,0,0,0,2.466,2.885,25.419,25.419,0,0,0,12.978-6.2l1.376,1.376a5.362,5.362,0,0,0,3.817,1.592,5.8,5.8,0,0,0,.9-.077A5.377,5.377,0,0,0,38.137,90.9l1.942-3.884a5.392,5.392,0,0,0,3.81,1.567,5.464,5.464,0,0,0,2.443-.6L57.294,98.939a5.439,5.439,0,0,0,7.676,0L78.234,85.677a5.489,5.489,0,0,0,1.537-4.6L76.507,58.237l12.706-12.7c9.543-9.543,13.148-23.42,10.431-40.151ZM94.617,4.19a2.063,2.063,0,0,1,1.714,1.729c1.662,10.221.813,19.269-2.418,26.758L67.882,6.647a42.3,42.3,0,0,1,16.9-3.284,61.663,61.663,0,0,1,9.834.821ZM3.955,37.935,17.219,24.673a2.1,2.1,0,0,1,1.761-.586l20.367,2.907L14.715,51.625,3.955,40.879A2.081,2.081,0,0,1,3.955,37.935Zm12.093,55.58a3.381,3.381,0,0,0-.883-2.083,3.727,3.727,0,0,0-3.706-.942A14.8,14.8,0,0,0,6.731,92.58c.132-4.372.982-12.232,5.077-17.131.119-.141.246-.265.37-.4L25.7,88.574A20.761,20.761,0,0,1,16.048,93.515ZM35.139,89.4a2.081,2.081,0,0,1-3.329.543L10.587,68.724a2.079,2.079,0,0,1,.541-3.329L16,62.96,37.579,84.525Zm41.312-7.862a2.106,2.106,0,0,1-.586,1.773L62.6,96.576a2.084,2.084,0,0,1-2.937,0L48.915,85.827,73.546,61.2ZM45.387,84.613a2.1,2.1,0,0,1-2.959.018L15.885,58.113a2.1,2.1,0,0,1,.034-2.959L57.38,13.7a33.229,33.229,0,0,1,7.331-5.488L92.358,35.861a33.2,33.2,0,0,1-5.521,7.3Z" transform="translate(0 0)" fill="#4c2e88"/>
    <path id="Path_37710" data-name="Path 37710" d="M44.241,16.311a5.54,5.54,0,0,0-7.678,0,5.431,5.431,0,0,0-.739,6.741l-3.46,8.076-6.548,6.547a3.341,3.341,0,0,0-.791,3.442L21.842,44.3a3.351,3.351,0,0,0,0,4.74l5.59,5.588a3.351,3.351,0,0,0,4.739,0l3.184-3.184a3.324,3.324,0,0,0,1.072.191,3.378,3.378,0,0,0,1.074-.189l3.046,3.046a3.556,3.556,0,0,0,5.027,0l2.656-2.654a3.556,3.556,0,0,0,0-5.027l-2.76-2.761,7.964-3.408a5.419,5.419,0,0,0,6.736-8.408Zm.528,24.4L35.763,31.7l2.555-5.963,12.425,12.41ZM29.8,52.271l-5.59-5.59,2.937-2.936,5.59,5.588Zm-1.61-12.22,5.59-5.588L42.016,42.7l-5.588,5.581Zm17.669,9.425L43.2,52.122h-.283l-2.793-2.795,2.936-2.936,2.793,2.793a.2.2,0,0,1,0,.285ZM57.8,37.533a2.093,2.093,0,0,1-2.932-.008L38.94,21.618a2.086,2.086,0,0,1,1.48-3.554,2.056,2.056,0,0,1,1.459.617L57.805,34.6a2.068,2.068,0,0,1-.007,2.927Z" transform="translate(14.093 9.97)" fill="#4c2e88"/>
  </g>
</svg>
