<svg xmlns="http://www.w3.org/2000/svg" xmlns:xlink="http://www.w3.org/1999/xlink" width="46" height="46" viewBox="0 0 46 46">
  <defs>
    <clipPath id="clip-path">
      <circle id="Ellipse_45" data-name="Ellipse 45" cx="23" cy="23" r="23" transform="translate(766 2568)" fill="#fff" stroke="#707070" stroke-width="1"/>
    </clipPath>
  </defs>
  <g id="Mask_Group_54" data-name="Mask Group 54" transform="translate(-766 -2568)" clip-path="url(#clip-path)">
    <g id="chart-pie-alt" transform="translate(774.458 2575.946)">
      <path id="Path_37599" data-name="Path 37599" d="M22.9,16.3H17.139a2.446,2.446,0,0,1-2.446-2.446V8.08a3.669,3.669,0,0,0-1.426-2.914,3.511,3.511,0,0,0-3.034-.653A13.414,13.414,0,1,0,26.482,20.777a3.517,3.517,0,0,0-.652-3.039A3.736,3.736,0,0,0,22.9,16.3Zm1.208,3.874A10.968,10.968,0,1,1,10.832,6.889a1.065,1.065,0,0,1,.934.21,1.242,1.242,0,0,1,.489.986v5.774a4.891,4.891,0,0,0,4.891,4.891h5.762a1.273,1.273,0,0,1,1,.489,1.081,1.081,0,0,1,.2.939Z" transform="translate(0 -1.415)" fill="#4c2e88"/>
      <path id="Path_37600" data-name="Path 37600" d="M38.988,9.321A12.318,12.318,0,0,0,30.344.67a2.568,2.568,0,0,0-.665-.088A2.446,2.446,0,0,0,27.21,3.028V8.775a3.669,3.669,0,0,0,3.669,3.669h5.771a2.455,2.455,0,0,0,2.339-3.123ZM35.934,10h-5.06a1.223,1.223,0,0,1-1.223-1.223l-.01-5.739a.059.059,0,0,1,.031-.011H29.7A9.871,9.871,0,0,1,36.644,10Z" transform="translate(-10.048)" fill="#4c2e88"/>
    </g>
  </g>
</svg>
