<svg xmlns="http://www.w3.org/2000/svg" xmlns:xlink="http://www.w3.org/1999/xlink" width="173" height="173" viewBox="0 0 173 173">
  <defs>
    <clipPath id="clip-path">
      <rect id="Rectangle_4555" data-name="Rectangle 4555" width="74" height="74" transform="translate(1141 1750)" fill="#c31f5d"/>
    </clipPath>
  </defs>
  <g id="Group_11845" data-name="Group 11845" transform="translate(-1093 -1569)">
    <g id="Ellipse_40" data-name="Ellipse 40" transform="translate(1093 1569)" fill="none" stroke="#c31f5d" stroke-width="3">
      <circle cx="85" cy="85" r="82" stroke="none"/>
      <circle cx="85" cy="85" r="83.5" fill="none"/>
    </g>
    <g id="Mask_Group_50" data-name="Mask Group 50" transform="translate(0 -133)" clip-path="url(#clip-path)">
      <g id="checked" transform="translate(1141 1750)">
        <path id="Path_37569" data-name="Path 37569" d="M39.682,13.44a1.084,1.084,0,1,0-.243,2.154,21.542,21.542,0,1,1-4.906,0,1.084,1.084,0,1,0-.245-2.154,23.711,23.711,0,1,0,5.394,0Z" fill="#c31f5d"/>
        <path id="Path_37570" data-name="Path 37570" d="M63.647,46.668a4.58,4.58,0,0,1,1.264-4.717,6.728,6.728,0,0,0,0-9.9,4.579,4.579,0,0,1-1.264-4.717A6.728,6.728,0,0,0,58.7,18.757,4.579,4.579,0,0,1,55.243,15.3a6.728,6.728,0,0,0-8.575-4.951A4.58,4.58,0,0,1,41.951,9.09a6.728,6.728,0,0,0-9.9,0,4.579,4.579,0,0,1-4.717,1.264A6.728,6.728,0,0,0,18.757,15.3,4.579,4.579,0,0,1,15.3,18.757a6.728,6.728,0,0,0-4.951,8.575A4.58,4.58,0,0,1,9.09,32.049a6.728,6.728,0,0,0,0,9.9,4.579,4.579,0,0,1,1.264,4.717A6.728,6.728,0,0,0,15.3,55.243,4.579,4.579,0,0,1,18.757,58.7a6.728,6.728,0,0,0,8.575,4.951,4.58,4.58,0,0,1,4.717,1.264,6.728,6.728,0,0,0,9.9,0,4.579,4.579,0,0,1,4.717-1.264A6.728,6.728,0,0,0,55.243,58.7,4.579,4.579,0,0,1,58.7,55.243a6.728,6.728,0,0,0,4.951-8.575Zm-2.069.647a4.56,4.56,0,0,1-3.355,5.812,6.756,6.756,0,0,0-5.095,5.095,4.56,4.56,0,0,1-5.812,3.355,6.756,6.756,0,0,0-6.96,1.865,4.56,4.56,0,0,1-6.711,0,6.759,6.759,0,0,0-4.965-2.169,6.681,6.681,0,0,0-1.995.3,4.56,4.56,0,0,1-5.812-3.355,6.756,6.756,0,0,0-5.095-5.095,4.56,4.56,0,0,1-3.355-5.812,6.756,6.756,0,0,0-1.865-6.96,4.56,4.56,0,0,1,0-6.711,6.757,6.757,0,0,0,1.865-6.96,4.56,4.56,0,0,1,3.355-5.812,6.756,6.756,0,0,0,5.095-5.095,4.56,4.56,0,0,1,5.812-3.355,6.757,6.757,0,0,0,6.96-1.865,4.56,4.56,0,0,1,6.711,0,6.757,6.757,0,0,0,6.96,1.865,4.56,4.56,0,0,1,5.812,3.355,6.756,6.756,0,0,0,5.095,5.095,4.56,4.56,0,0,1,3.355,5.812,6.756,6.756,0,0,0,1.865,6.96,4.56,4.56,0,0,1,0,6.711,6.756,6.756,0,0,0-1.865,6.96Z" fill="#c31f5d"/>
        <path id="Path_37571" data-name="Path 37571" d="M63.548,11.235a1.08,1.08,0,0,0,.766-.318l9.067-9.067A1.084,1.084,0,0,0,71.848.318L62.782,9.385a1.084,1.084,0,0,0,.766,1.85Z" fill="#c31f5d"/>
        <path id="Path_37572" data-name="Path 37572" d="M73.66,15.176a1.084,1.084,0,0,0-1.331-.76L67.8,15.653a1.084,1.084,0,1,0,.571,2.091L72.9,16.507A1.084,1.084,0,0,0,73.66,15.176Z" fill="#c31f5d"/>
        <path id="Path_37573" data-name="Path 37573" d="M56.619,6.663A1.082,1.082,0,0,0,57.95,5.9L59.187,1.37A1.084,1.084,0,1,0,57.1.8L55.859,5.332a1.083,1.083,0,0,0,.76,1.331Z" fill="#c31f5d"/>
        <path id="Path_37574" data-name="Path 37574" d="M9.686,10.918a1.084,1.084,0,0,0,1.533-1.533L2.152.318A1.084,1.084,0,0,0,.619,1.851Z" fill="#c31f5d"/>
        <path id="Path_37575" data-name="Path 37575" d="M6.2,15.653,1.671,14.416A1.084,1.084,0,0,0,1.1,16.507l4.533,1.237A1.084,1.084,0,1,0,6.2,15.653Z" fill="#c31f5d"/>
        <path id="Path_37576" data-name="Path 37576" d="M16.051,5.9a1.084,1.084,0,0,0,2.091-.571L16.905.8a1.084,1.084,0,0,0-2.091.571Z" fill="#c31f5d"/>
        <path id="Path_37577" data-name="Path 37577" d="M64.315,63.083a1.084,1.084,0,0,0-1.533,1.533l9.067,9.067a1.084,1.084,0,1,0,1.533-1.533Z" fill="#c31f5d"/>
        <path id="Path_37578" data-name="Path 37578" d="M72.9,57.493l-4.533-1.237a1.084,1.084,0,1,0-.571,2.091l4.533,1.237a1.084,1.084,0,1,0,.571-2.091Z" fill="#c31f5d"/>
        <path id="Path_37579" data-name="Path 37579" d="M57.95,68.1a1.084,1.084,0,1,0-2.091.571L57.1,73.2a1.084,1.084,0,0,0,2.091-.571Z" fill="#c31f5d"/>
        <path id="Path_37580" data-name="Path 37580" d="M9.686,63.083.619,72.15a1.084,1.084,0,1,0,1.533,1.533l9.067-9.067a1.084,1.084,0,0,0-1.533-1.533Z" fill="#c31f5d"/>
        <path id="Path_37581" data-name="Path 37581" d="M5.633,56.256,1.1,57.493a1.084,1.084,0,1,0,.571,2.091L6.2,58.348a1.084,1.084,0,1,0-.571-2.091Z" fill="#c31f5d"/>
        <path id="Path_37582" data-name="Path 37582" d="M17.382,67.337a1.084,1.084,0,0,0-1.331.76l-1.237,4.533a1.084,1.084,0,1,0,2.091.571l1.237-4.533A1.084,1.084,0,0,0,17.382,67.337Z" fill="#c31f5d"/>
        <path id="Path_37583" data-name="Path 37583" d="M41.667,40.508A1.084,1.084,0,0,0,43.2,42.041l8.895-8.895a3.358,3.358,0,0,0,0-4.749l-2.8-2.8a3.362,3.362,0,0,0-4.749,0L33.529,36.623l-3.856-3.856a3.358,3.358,0,0,0-4.749,0l-3.018,3.018a3.358,3.358,0,0,0,0,4.749l7.732,7.732a5.193,5.193,0,0,0,7.336,0L39.64,45.6a1.084,1.084,0,0,0-1.533-1.533l-2.665,2.665a3.023,3.023,0,0,1-4.27,0L23.439,39a1.19,1.19,0,0,1,0-1.683L26.457,34.3a1.19,1.19,0,0,1,1.683,0l4.622,4.622a1.084,1.084,0,0,0,1.533,0L46.083,27.135a1.192,1.192,0,0,1,1.683,0l2.8,2.8a1.19,1.19,0,0,1,0,1.683Z" fill="#c31f5d"/>
      </g>
    </g>
  </g>
</svg>
