<svg xmlns="http://www.w3.org/2000/svg" xmlns:xlink="http://www.w3.org/1999/xlink" width="46" height="46" viewBox="0 0 46 46">
  <defs>
    <clipPath id="clip-path">
      <circle id="Ellipse_41" data-name="Ellipse 41" cx="23" cy="23" r="23" transform="translate(209 2288)" fill="#fff" stroke="#4c2e88" stroke-width="1"/>
    </clipPath>
  </defs>
  <g id="Mask_Group_52" data-name="Mask Group 52" transform="translate(-209 -2288)" clip-path="url(#clip-path)">
    <path id="document" d="M20.515,15.569A1.112,1.112,0,0,1,19.4,16.681h-8.9a1.112,1.112,0,0,1,0-2.224h8.9A1.112,1.112,0,0,1,20.515,15.569Zm-4.448,3.336h-5.56a1.112,1.112,0,1,0,0,2.224h5.56a1.112,1.112,0,0,0,0-2.224ZM26.075,11.66V21.13a5.567,5.567,0,0,1-5.56,5.56H9.394a5.567,5.567,0,0,1-5.56-5.56V5.56A5.567,5.567,0,0,1,9.394,0h5.021a7.738,7.738,0,0,1,5.5,2.28l3.875,3.877A7.73,7.73,0,0,1,26.075,11.66ZM18.347,3.852a5.571,5.571,0,0,0-1.169-.867v4.8A1.112,1.112,0,0,0,18.29,8.9h4.8a5.542,5.542,0,0,0-.869-1.168Zm5.5,7.808c0-.183-.036-.359-.052-.539H18.29a3.336,3.336,0,0,1-3.336-3.336V2.276c-.18-.017-.357-.052-.539-.052H9.394A3.336,3.336,0,0,0,6.058,5.56V21.13a3.336,3.336,0,0,0,3.336,3.336H20.515a3.336,3.336,0,0,0,3.336-3.336Z" transform="translate(217.046 2297.655)" fill="#4c2e88"/>
  </g>
</svg>
