<svg xmlns="http://www.w3.org/2000/svg" xmlns:xlink="http://www.w3.org/1999/xlink" width="46" height="46" viewBox="0 0 46 46">
  <defs>
    <clipPath id="clip-path">
      <circle id="Ellipse_43" data-name="Ellipse 43" cx="23" cy="23" r="23" transform="translate(1323 2288)" fill="#fff" stroke="#707070" stroke-width="1"/>
    </clipPath>
  </defs>
  <g id="Mask_Group_55" data-name="Mask Group 55" transform="translate(-1323 -2288)" clip-path="url(#clip-path)">
    <path id="resources" d="M29.8,5.193H16.84a1.3,1.3,0,0,0-1.3,1.3v4.236L12.435,5.336a2.591,2.591,0,0,0-4.5,0h0L.166,18.8A1.3,1.3,0,0,0,1.293,20.74H6.851a8.952,8.952,0,0,0-.376,2.591,9.069,9.069,0,1,0,18.138,0,8.952,8.952,0,0,0-.376-2.591H29.8a1.3,1.3,0,0,0,1.3-1.3V6.489A1.3,1.3,0,0,0,29.8,5.193ZM3.534,18.149,10.181,6.631l4.444,7.631a9.069,9.069,0,0,0-6.478,3.887Zm12.01,11.66a6.478,6.478,0,1,1,6.478-6.478A6.478,6.478,0,0,1,15.544,29.809ZM28.5,18.149H22.981a9.16,9.16,0,0,0-4.845-3.511V7.784H28.5Z" transform="translate(1330.459 2292.783)" fill="#4c2e88"/>
  </g>
</svg>
