<svg xmlns="http://www.w3.org/2000/svg" xmlns:xlink="http://www.w3.org/1999/xlink" width="173" height="173" viewBox="0 0 173 173">
  <defs>
    <clipPath id="clip-path">
      <rect id="Rectangle_4556" data-name="Rectangle 4556" width="74" height="74" transform="translate(1578 1750)" fill="#c31f5d"/>
    </clipPath>
  </defs>
  <g id="Group_11846" data-name="Group 11846" transform="translate(-1530 -1569)">
    <g id="Ellipse_39" data-name="Ellipse 39" transform="translate(1530 1569)" fill="none" stroke="#c31f5d" stroke-width="3">
      <circle cx="85" cy="85" r="82" stroke="none"/>
      <circle cx="85" cy="85" r="83.5" fill="none"/>
    </g>
    <g id="Mask_Group_51" data-name="Mask Group 51" transform="translate(0 -133)" clip-path="url(#clip-path)">
      <g id="delivery-time" transform="translate(1578 1750)">
        <g id="Group_11570" data-name="Group 11570">
          <path id="Path_37584" data-name="Path 37584" d="M27.358,21.752v-8.97a1.121,1.121,0,0,0-2.242,0v8.97a4.579,4.579,0,0,0-3.476,4.485A5.051,5.051,0,0,0,22.985,29.6l-4.036,6.839a1.154,1.154,0,1,0,2.018,1.121L25,30.721a5.628,5.628,0,0,0,1.345.224,4.618,4.618,0,0,0,4.6-4.6A4.857,4.857,0,0,0,27.358,21.752Zm-1.121,6.839a2.355,2.355,0,1,1,2.355-2.355A2.446,2.446,0,0,1,26.236,28.591Z" fill="#c31f5d"/>
        </g>
        <g id="Group_11571" data-name="Group 11571">
          <path id="Path_37585" data-name="Path 37585" d="M26.236,8.745a1.059,1.059,0,0,0,1.121-1.121V5.382a1.121,1.121,0,0,0-2.242,0V7.624A1.124,1.124,0,0,0,26.236,8.745Z" fill="#c31f5d"/>
        </g>
        <g id="Group_11572" data-name="Group 11572">
          <path id="Path_37586" data-name="Path 37586" d="M26.236,43.615a1.059,1.059,0,0,0-1.121,1.121v2.242a1.121,1.121,0,0,0,2.242,0V44.736A1.206,1.206,0,0,0,26.236,43.615Z" fill="#c31f5d"/>
        </g>
        <g id="Group_11573" data-name="Group 11573">
          <path id="Path_37587" data-name="Path 37587" d="M8.745,26.236a1.059,1.059,0,0,0-1.121-1.121H5.382a1.121,1.121,0,0,0,0,2.242H7.624A1.206,1.206,0,0,0,8.745,26.236Z" fill="#c31f5d"/>
        </g>
        <g id="Group_11574" data-name="Group 11574">
          <path id="Path_37588" data-name="Path 37588" d="M43.615,26.236a1.059,1.059,0,0,0,1.121,1.121h2.242a1.121,1.121,0,0,0,0-2.242H44.736A1.124,1.124,0,0,0,43.615,26.236Z" fill="#c31f5d"/>
        </g>
        <g id="Group_11575" data-name="Group 11575">
          <path id="Path_37589" data-name="Path 37589" d="M7.512,16.706,9.53,17.827a1.154,1.154,0,0,0,1.121-2.018L8.633,14.688a1.134,1.134,0,0,0-1.57.448C6.839,15.809,6.952,16.482,7.512,16.706Z" fill="#c31f5d"/>
        </g>
        <g id="Group_11576" data-name="Group 11576">
          <path id="Path_37590" data-name="Path 37590" d="M17.491,41.261a1.134,1.134,0,0,0-1.57.448L14.8,43.727a1.154,1.154,0,1,0,2.018,1.121l1.121-2.018A1.241,1.241,0,0,0,17.491,41.261Z" fill="#c31f5d"/>
        </g>
        <g id="Group_11577" data-name="Group 11577">
          <path id="Path_37591" data-name="Path 37591" d="M34.87,11.1a1.134,1.134,0,0,0,1.57-.448l1.121-2.018a1.154,1.154,0,0,0-2.018-1.121L34.421,9.53a1.241,1.241,0,0,0,.448,1.57Z" fill="#c31f5d"/>
        </g>
        <g id="Group_11578" data-name="Group 11578">
          <path id="Path_37592" data-name="Path 37592" d="M17.267,11.212a1.1,1.1,0,0,0,.336-1.57L16.482,7.624a1.135,1.135,0,1,0-1.906,1.233L15.7,10.876A1.207,1.207,0,0,0,17.267,11.212Z" fill="#c31f5d"/>
        </g>
        <g id="Group_11579" data-name="Group 11579">
          <path id="Path_37593" data-name="Path 37593" d="M9.642,34.758,7.624,35.879a1.135,1.135,0,0,0,1.233,1.906l2.018-1.121a1.135,1.135,0,1,0-1.233-1.906Z" fill="#c31f5d"/>
        </g>
        <g id="Group_11580" data-name="Group 11580">
          <path id="Path_37594" data-name="Path 37594" d="M42.718,17.715l2.018-1.121A1.135,1.135,0,0,0,43.5,14.688l-2.018,1.121a1.1,1.1,0,0,0-.336,1.57A1.35,1.35,0,0,0,42.718,17.715Z" fill="#c31f5d"/>
        </g>
        <g id="Group_11581" data-name="Group 11581">
          <path id="Path_37595" data-name="Path 37595" d="M45.858,2.242h19.4V29.152l-4.6-4.6a1.11,1.11,0,1,0-1.57,1.57l6.5,6.5a1.084,1.084,0,0,0,1.57,0l6.5-6.5a1.11,1.11,0,0,0-1.57-1.57l-4.6,4.6V1.121A1.059,1.059,0,0,0,66.376,0H45.858a1.059,1.059,0,0,0-1.121,1.121,1.124,1.124,0,0,0,1.121,1.121Z" fill="#c31f5d"/>
        </g>
        <g id="Group_11582" data-name="Group 11582">
          <path id="Path_37596" data-name="Path 37596" d="M73.215,40.812c-.224-.112-20.855-11.436-21.079-11.436.112-1.121.224-2.13.224-3.139A26.18,26.18,0,1,0,26.124,52.473a23.954,23.954,0,0,0,3.812-.336v7.624a1,1,0,0,0,.561.9L51.239,73.776c.224.112.336.224.561.224a4.856,4.856,0,0,0,.561-.112l20.967-11.1a1.177,1.177,0,0,0,.561-1.009V41.821a1.077,1.077,0,0,0-.673-1.009Zm-2.8,1.009-4.933,2.691-18.612-10.2L51.8,31.73Zm-9.418,5.718L41.709,37l2.8-1.57L64.358,46.306v5.606l-2.691,1.682V48.548a1.136,1.136,0,0,0-.673-1.009Zm-9.082,4.373-18.5-10.427,5.942-3.139,18.836,10.2ZM26.124,50.118A23.938,23.938,0,1,1,50.118,26.236a26.68,26.68,0,0,1-.336,4.036s-19.061,10.2-19.285,10.2a1.338,1.338,0,0,0-.561,1.009v8.409c-1.345.112-2.691.224-3.812.224Zm6.055,8.97v-15.7l18.5,10.427V70.861ZM52.921,70.973V53.93l6.391-3.476V55.5a1.177,1.177,0,0,0,.561,1.009,1.018,1.018,0,0,0,1.121,0l5.045-2.8A1.177,1.177,0,0,0,66.6,52.7V46.418l4.933-2.691V61.106Z" fill="#c31f5d"/>
        </g>
        <g id="Group_11583" data-name="Group 11583">
          <path id="Path_37597" data-name="Path 37597" d="M48.212,57.294,35.991,50.23a1.154,1.154,0,0,0-1.121,2.018L47.091,59.2a1.135,1.135,0,0,0,1.57-.448,1.226,1.226,0,0,0-.448-1.458Z" fill="#c31f5d"/>
        </g>
        <g id="Group_11584" data-name="Group 11584">
          <path id="Path_37598" data-name="Path 37598" d="M48.1,61.891,35.879,54.715a1.154,1.154,0,0,0-1.121,2.018L46.979,63.8a1.134,1.134,0,0,0,1.57-.448A1.181,1.181,0,0,0,48.1,61.891Z" fill="#c31f5d"/>
        </g>
      </g>
    </g>
  </g>
</svg>
