<svg xmlns="http://www.w3.org/2000/svg" width="52.525" height="57.768" viewBox="0 0 52.525 57.768"><g transform="translate(0)"><path d="M71.479,13.753a.846.846,0,0,0-1.441.888,27.1,27.1,0,0,1,4.012,13.4h-10.4A16.827,16.827,0,0,0,47.718,12.1V1.705A27.127,27.127,0,0,1,67.806,11.53a.846.846,0,0,0,1.3-1.081A28.817,28.817,0,0,0,46.872,0a.846.846,0,0,0-.846.846V5.259a23.371,23.371,0,0,0-13.834,5.093A23.761,23.761,0,0,0,23.92,23.188a.846.846,0,1,0,1.643.407A21.9,21.9,0,0,1,46.026,6.952V12.1a16.8,16.8,0,0,0-11.619,28.05l-3.641,3.641a21.792,21.792,0,0,1-5.843-14.909c0-.519.018-1.035.053-1.535a.846.846,0,1,0-1.688-.119c-.038.539-.057,1.1-.057,1.654a23.473,23.473,0,0,0,6.338,16.107l-3.121,3.121a.846.846,0,0,0,0,1.2,28.885,28.885,0,0,0,40.848,0,.846.846,0,0,0,0-1.2l-3.12-3.121A23.456,23.456,0,0,0,70.5,29.73H74.91a.846.846,0,0,0,.846-.846,28.808,28.808,0,0,0-4.277-15.131ZM46.872,56.076A27,27,0,0,1,28.252,48.7L35.6,41.348a16.847,16.847,0,0,0,9.217,4.213.846.846,0,0,0,.2-1.68,15.144,15.144,0,0,1-8.838-4.313l-.006-.005A15.11,15.11,0,0,1,46.867,13.774h.005a15.127,15.127,0,0,1,15.11,15.108v0a15.011,15.011,0,0,1-4.426,10.684l0,0a15.161,15.161,0,0,1-8.787,4.306.846.846,0,0,0,.21,1.679,16.863,16.863,0,0,0,9.162-4.208L65.491,48.7a27,27,0,0,1-18.619,7.375ZM62.978,43.793l-3.641-3.641A16.664,16.664,0,0,0,63.653,29.73H68.8a21.773,21.773,0,0,1-5.825,14.063Z" transform="translate(-23.23 0)" fill="#4c2e88"/><path d="M168.229,179.861a.846.846,0,0,0,.846-.846v-3.875a5.411,5.411,0,0,0-5.359-5.4,5.405,5.405,0,1,0-7.843,0,5.411,5.411,0,0,0-5.359,5.4v3.875a.846.846,0,0,0,.846.846ZM159.8,162.308a3.713,3.713,0,1,1-3.713,3.713A3.717,3.717,0,0,1,159.8,162.308Zm-7.588,12.831a3.717,3.717,0,0,1,3.713-3.713h7.75a3.717,3.717,0,0,1,3.713,3.713v3.029h-3.095v-1.433a.846.846,0,1,0-1.692,0v1.433h-5.6v-1.433a.846.846,0,1,0-1.692,0v1.433h-3.095Z" transform="translate(-136.154 -142.494)" fill="#4c2e88"/></g></svg>