<svg xmlns="http://www.w3.org/2000/svg" xmlns:xlink="http://www.w3.org/1999/xlink" width="173" height="173" viewBox="0 0 173 173">
  <defs>
    <clipPath id="clip-path">
      <rect id="Rectangle_4554" data-name="Rectangle 4554" width="74" height="74" transform="translate(705 1750)" fill="#c31f5d"/>
    </clipPath>
  </defs>
  <g id="Group_11844" data-name="Group 11844" transform="translate(-657 -1569)">
    <g id="Ellipse_38" data-name="Ellipse 38" transform="translate(657 1569)" fill="none" stroke="#c31f5d" stroke-width="3">
     <circle cx="85" cy="85" r="82" stroke="none"/>
      <circle cx="85" cy="85" r="83.5" fill="none"/>
    </g>
    <g id="Mask_Group_49" data-name="Mask Group 49" transform="translate(0 -133)" clip-path="url(#clip-path)">
      <g id="binary-code" transform="translate(705 1751.766)">
        <path id="Path_37545" data-name="Path 37545" d="M66.452,60.039H64.319c-1.538,0-1.235-1.949.059-2.179a12.474,12.474,0,0,1,2.074,0,5.514,5.514,0,0,0,5.369-5.637V7.888a5.514,5.514,0,0,0-5.369-5.637H7.547A5.514,5.514,0,0,0,2.179,7.888V14.04A1.09,1.09,0,0,1,0,14.04V7.888A7.694,7.694,0,0,1,7.547.072H66.453A7.694,7.694,0,0,1,74,7.888V52.223a7.694,7.694,0,0,1-7.548,7.816Zm0,0" fill="#c31f5d"/>
        <path id="Path_37546" data-name="Path 37546" d="M62.913,70.4a2.6,2.6,0,0,1-1.541-.509l-13.4-9.847H7.548A7.694,7.694,0,0,1,0,52.223V19.85a1.09,1.09,0,0,1,2.179,0V52.223A5.514,5.514,0,0,0,7.548,57.86H48.33a1.086,1.086,0,0,1,.645.212L62.662,68.131c.343.252.723-.085.717-.456L63.331,64.9a1.09,1.09,0,0,1,2.179-.038l.048,2.779A2.71,2.71,0,0,1,62.913,70.4Zm0,0" fill="#c31f5d"/>
        <path id="Path_37547" data-name="Path 37547" d="M11.855,20.589a3.478,3.478,0,0,1-3.474-3.474v-3.66a3.474,3.474,0,0,1,6.948,0v3.66A3.478,3.478,0,0,1,11.855,20.589Zm0-8.429a1.3,1.3,0,0,0-1.3,1.3v3.66a1.295,1.295,0,0,0,2.59,0v-3.66a1.3,1.3,0,0,0-1.295-1.3Zm0,0" fill="#c31f5d"/>
        <path id="Path_37548" data-name="Path 37548" d="M28.378,20.589A3.478,3.478,0,0,1,24.9,17.115v-3.66a3.474,3.474,0,0,1,6.948,0v3.66A3.478,3.478,0,0,1,28.378,20.589Zm0-8.429a1.3,1.3,0,0,0-1.3,1.3v3.66a1.3,1.3,0,0,0,2.59,0v-3.66a1.3,1.3,0,0,0-1.3-1.3Zm0,0" fill="#c31f5d"/>
        <path id="Path_37549" data-name="Path 37549" d="M61.422,20.589a3.478,3.478,0,0,1-3.474-3.474v-3.66a3.474,3.474,0,1,1,6.948,0v3.66A3.478,3.478,0,0,1,61.422,20.589Zm0-8.429a1.3,1.3,0,0,0-1.295,1.3v3.66a1.295,1.295,0,0,0,2.59,0v-3.66a1.3,1.3,0,0,0-1.3-1.3Zm0,0" fill="#c31f5d"/>
        <path id="Path_37550" data-name="Path 37550" d="M44.9,20.589a3.478,3.478,0,0,1-3.474-3.474v-3.66a3.474,3.474,0,1,1,6.948,0v3.66A3.478,3.478,0,0,1,44.9,20.589Zm0-8.429a1.3,1.3,0,0,0-1.3,1.3v3.66a1.295,1.295,0,0,0,2.59,0v-3.66a1.3,1.3,0,0,0-1.295-1.3Zm0,0" fill="#c31f5d"/>
        <path id="Path_37551" data-name="Path 37551" d="M20.116,20.589A1.089,1.089,0,0,1,19.027,19.5V11.071a1.09,1.09,0,0,1,2.179,0V19.5a1.089,1.089,0,0,1-1.09,1.089Zm0,0" fill="#c31f5d"/>
        <path id="Path_37552" data-name="Path 37552" d="M53.161,20.589a1.089,1.089,0,0,1-1.09-1.089V11.071a1.09,1.09,0,0,1,2.179,0V19.5a1.089,1.089,0,0,1-1.09,1.089Zm0,0" fill="#c31f5d"/>
        <path id="Path_37553" data-name="Path 37553" d="M36.639,20.589A1.089,1.089,0,0,1,35.55,19.5V11.071a1.09,1.09,0,0,1,2.179,0V19.5a1.089,1.089,0,0,1-1.09,1.089Zm0,0" fill="#c31f5d"/>
        <path id="Path_37554" data-name="Path 37554" d="M18.527,35.066a3.478,3.478,0,0,1-3.474-3.474v-3.66a3.474,3.474,0,1,1,6.948,0v3.66A3.478,3.478,0,0,1,18.527,35.066Zm0-8.429a1.3,1.3,0,0,0-1.3,1.3v3.66a1.3,1.3,0,1,0,2.59,0v-3.66A1.3,1.3,0,0,0,18.527,26.637Zm0,0" fill="#c31f5d"/>
        <path id="Path_37555" data-name="Path 37555" d="M9.471,35.038a1.09,1.09,0,0,1-1.09-1.09V25.52a1.09,1.09,0,0,1,2.179,0v8.429a1.089,1.089,0,0,1-1.089,1.09Zm0,0" fill="#c31f5d"/>
        <path id="Path_37556" data-name="Path 37556" d="M36.639,35.066a3.478,3.478,0,0,1-3.474-3.474v-3.66a3.474,3.474,0,1,1,6.948,0v3.66A3.478,3.478,0,0,1,36.639,35.066Zm0-8.429a1.3,1.3,0,0,0-1.3,1.3v3.66a1.3,1.3,0,1,0,2.59,0v-3.66A1.3,1.3,0,0,0,36.639,26.637Zm0,0" fill="#c31f5d"/>
        <path id="Path_37557" data-name="Path 37557" d="M27.583,35.038a1.09,1.09,0,0,1-1.09-1.09V25.52a1.09,1.09,0,0,1,2.179,0v8.429a1.089,1.089,0,0,1-1.089,1.09Zm0,0" fill="#c31f5d"/>
        <path id="Path_37558" data-name="Path 37558" d="M54.751,35.216a3.478,3.478,0,0,1-3.474-3.474v-3.66a3.474,3.474,0,1,1,6.948,0v3.66A3.478,3.478,0,0,1,54.751,35.216Zm0-8.429a1.3,1.3,0,0,0-1.3,1.3v3.66a1.295,1.295,0,1,0,2.59,0v-3.66A1.3,1.3,0,0,0,54.751,26.787Zm0,0" fill="#c31f5d"/>
        <path id="Path_37559" data-name="Path 37559" d="M45.694,35.189a1.089,1.089,0,0,1-1.089-1.09V25.671a1.09,1.09,0,0,1,2.179,0V34.1a1.09,1.09,0,0,1-1.09,1.09Zm0,0" fill="#c31f5d"/>
        <path id="Path_37560" data-name="Path 37560" d="M52.369,49.487a1.09,1.09,0,0,0,0-2.179A1.09,1.09,0,0,0,52.369,49.487Zm0,0" fill="#c31f5d"/>
        <path id="Path_37561" data-name="Path 37561" d="M58.106,49.487a1.09,1.09,0,0,0,0-2.179A1.09,1.09,0,0,0,58.106,49.487Zm0,0" fill="#c31f5d"/>
        <path id="Path_37562" data-name="Path 37562" d="M63.843,49.487a1.09,1.09,0,0,0,0-2.179A1.09,1.09,0,0,0,63.843,49.487Zm0,0" fill="#c31f5d"/>
        <path id="Path_37563" data-name="Path 37563" d="M63.807,35.189a1.09,1.09,0,0,1-1.09-1.09V25.671a1.09,1.09,0,0,1,2.179,0V34.1a1.089,1.089,0,0,1-1.089,1.09Zm0,0" fill="#c31f5d"/>
        <path id="Path_37564" data-name="Path 37564" d="M11.855,49.487a3.478,3.478,0,0,1-3.474-3.474v-3.66a3.474,3.474,0,0,1,6.948,0v3.66A3.478,3.478,0,0,1,11.855,49.487Zm0-8.429a1.3,1.3,0,0,0-1.3,1.3v3.66a1.295,1.295,0,1,0,2.59,0v-3.66A1.3,1.3,0,0,0,11.855,41.059Zm0,0" fill="#c31f5d"/>
        <path id="Path_37565" data-name="Path 37565" d="M28.378,49.487A3.478,3.478,0,0,1,24.9,46.013v-3.66a3.474,3.474,0,0,1,6.948,0v3.66A3.478,3.478,0,0,1,28.378,49.487Zm0-8.429a1.3,1.3,0,0,0-1.3,1.3v3.66a1.3,1.3,0,0,0,2.59,0v-3.66A1.3,1.3,0,0,0,28.378,41.059Zm0,0" fill="#c31f5d"/>
        <path id="Path_37566" data-name="Path 37566" d="M44.9,49.487a3.478,3.478,0,0,1-3.474-3.474v-3.66a3.474,3.474,0,1,1,6.948,0v3.66A3.478,3.478,0,0,1,44.9,49.487Zm0-8.429a1.3,1.3,0,0,0-1.3,1.3v3.66a1.295,1.295,0,1,0,2.59,0v-3.66A1.3,1.3,0,0,0,44.9,41.059Zm0,0" fill="#c31f5d"/>
        <path id="Path_37567" data-name="Path 37567" d="M20.116,49.487a1.089,1.089,0,0,1-1.089-1.09V39.969a1.09,1.09,0,0,1,2.179,0V48.4a1.09,1.09,0,0,1-1.09,1.09Zm0,0" fill="#c31f5d"/>
        <path id="Path_37568" data-name="Path 37568" d="M36.639,49.487A1.089,1.089,0,0,1,35.55,48.4V39.969a1.09,1.09,0,0,1,2.179,0V48.4a1.09,1.09,0,0,1-1.09,1.09Zm0,0" fill="#c31f5d"/>
      </g>
    </g>
  </g>
</svg>
