<svg xmlns="http://www.w3.org/2000/svg" xmlns:xlink="http://www.w3.org/1999/xlink" width="46" height="46" viewBox="0 0 46 46">
  <defs>
    <clipPath id="clip-path">
      <circle id="Ellipse_42" data-name="Ellipse 42" cx="23" cy="23" r="23" transform="translate(766 2288)" fill="#4c2e88"/>
    </clipPath>
  </defs>
  <g id="Mask_Group_53" data-name="Mask Group 53" transform="translate(-766 -2288)" clip-path="url(#clip-path)">
    <path id="mobile" d="M21.7,0H11.886A6.143,6.143,0,0,0,5.75,6.136v17.18a6.143,6.143,0,0,0,6.136,6.136H21.7a6.143,6.143,0,0,0,6.136-6.136V6.136A6.143,6.143,0,0,0,21.7,0Zm3.681,23.316A3.681,3.681,0,0,1,21.7,27H18.022V25.77a1.227,1.227,0,1,0-2.454,0V27H11.886A3.681,3.681,0,0,1,8.2,23.316V6.136a3.681,3.681,0,0,1,3.681-3.681H21.7a3.681,3.681,0,0,1,3.681,3.681ZM21.7,19.635a1.227,1.227,0,0,1-1.227,1.227H13.113a1.227,1.227,0,1,1,0-2.454h7.363A1.227,1.227,0,0,1,21.7,19.635ZM14.34,15.953a1.227,1.227,0,0,0,1.227-1.227V13.5h2.454v1.227a1.227,1.227,0,0,0,2.454,0V9.817a3.681,3.681,0,1,0-7.363,0v4.909A1.227,1.227,0,0,0,14.34,15.953ZM16.794,8.59a1.227,1.227,0,0,1,1.227,1.227v1.227H15.567V9.817A1.227,1.227,0,0,1,16.794,8.59Z" transform="translate(772.206 2296.274)" fill="#4c2e88"/>
  </g>
</svg>
