<svg xmlns="http://www.w3.org/2000/svg" width="26.707" height="24.497" viewBox="0 0 26.707 24.497">
  <g id="Group_11588" data-name="Group 11588" transform="translate(-218.646 -2578.752)">
    <path id="dashboard_1_" data-name="dashboard (1)" d="M26.591,13.514A13.351,13.351,0,0,0,0,15.253a13.215,13.215,0,0,0,4.182,9.693,5.385,5.385,0,0,0,3.732,1.433H18.781a5.556,5.556,0,0,0,3.9-1.59,13.289,13.289,0,0,0,3.906-11.275Zm-5.462,9.68a3.338,3.338,0,0,1-2.349.96H7.914a3.184,3.184,0,0,1-2.2-.824,11.015,11.015,0,0,1-3.485-8.076,11.142,11.142,0,0,1,3.714-8.3,10.994,10.994,0,0,1,7.4-2.829,11.741,11.741,0,0,1,1.306.073,11.119,11.119,0,0,1,6.488,19ZM8.686,20.021a1.113,1.113,0,1,1-1.558,1.591A8.9,8.9,0,0,1,14.623,6.443,1.113,1.113,0,0,1,15.565,7.7a1.1,1.1,0,0,1-1.261.943A6.676,6.676,0,0,0,8.686,20.021Zm13.476-6.039a8.98,8.98,0,0,1,.09,1.272,8.824,8.824,0,0,1-2.679,6.36,1.114,1.114,0,1,1-1.558-1.593,6.653,6.653,0,0,0,1.94-5.72,1.113,1.113,0,0,1,2.2-.318Zm-6.668.7a2.262,2.262,0,1,1-1.573-1.573L18.127,8.9A1.113,1.113,0,1,1,19.7,10.477Z" transform="translate(218.646 2576.869)" fill="#4c2e88"/>
  </g>
</svg>
