<svg xmlns="http://www.w3.org/2000/svg" width="61.437" height="57.768" viewBox="0 0 61.437 57.768"><g transform="translate(0)"><path d="M254.094,112.251a.958.958,0,0,1-.96-.96v-4.08h-5.192a.96.96,0,1,1,0-1.92h6.152a.958.958,0,0,1,.96.96v5.04A.96.96,0,0,1,254.094,112.251Z" transform="translate(-217.074 -94.375)" fill="#4c2e88"/><path d="M65.617,148.175H33.5a.958.958,0,0,1-.96-.96v-41a.958.958,0,0,1,.96-.96h6.152a.96.96,0,0,1,0,1.92H34.457v39.072h30.2v-3.64a.96.96,0,1,1,1.92,0v4.6A.961.961,0,0,1,65.617,148.175Z" transform="translate(-28.597 -94.347)" fill="#4c2e88"/><path d="M104.116,57.161H84.3a.958.958,0,0,1-.96-.96v-7.16a2.714,2.714,0,0,1,2.712-2.712h2.88a.96.96,0,0,1,0,1.92h-2.88a.794.794,0,0,0-.792.792v6.2h17.9v-6.2a.794.794,0,0,0-.792-.792h-2.88a.96.96,0,0,1,0-1.92h2.88a2.714,2.714,0,0,1,2.712,2.712V56.2a.958.958,0,0,1-.96.96Z" transform="translate(-73.248 -42.553)" fill="#4c2e88"/><path d="M40.964,123.518H.96a.958.958,0,0,1-.96-.96V73.682a.958.958,0,0,1,.96-.96H11.052a.96.96,0,0,1,0,1.92H1.92V121.6H40v-7.392a.96.96,0,0,1,1.92,0v8.352A.963.963,0,0,1,40.964,123.518Z" transform="translate(0 -65.75)" fill="#4c2e88"/><path d="M258.038,83.438a.958.958,0,0,1-.96-.96V74.642h-9.136a.96.96,0,1,1,0-1.92h10.092a.958.958,0,0,1,.96.96v8.8A.957.957,0,0,1,258.038,83.438Z" transform="translate(-217.074 -65.75)" fill="#4c2e88"/><path d="M133.1,22.935H122.552a.958.958,0,0,1-.96-.96V16.107a.958.958,0,0,1,.96-.96H133.1a.958.958,0,0,1,.96.96v5.868A.958.958,0,0,1,133.1,22.935Zm-9.592-1.92h8.632V17.067h-8.632Z" transform="translate(-106.868 -15.147)" fill="#4c2e88"/><g transform="translate(9.182 18.778)"><path d="M150.887,190.023H140.819a.96.96,0,0,1,0-1.92h10.068a.96.96,0,0,1,0,1.92Z" transform="translate(-132.105 -185.937)" fill="#4c2e88"/><path d="M78.035,175.027a.959.959,0,0,1-.68-.28L76.107,173.5a.959.959,0,0,1,1.356-1.356l.568.568,2.212-2.212a.959.959,0,0,1,1.356,1.356l-2.892,2.892A.944.944,0,0,1,78.035,175.027Z" transform="translate(-75.825 -170.217)" fill="#4c2e88"/><g transform="translate(0 7.748)"><path d="M147.034,254.04h-6.216a.96.96,0,1,1,0-1.92h6.216a.96.96,0,1,1,0,1.92Z" transform="translate(-132.104 -249.95)" fill="#4c2e88"/><path d="M78.036,239.011a.959.959,0,0,1-.68-.28l-1.248-1.248a.959.959,0,0,1,1.356-1.356l.568.568,2.212-2.212a.959.959,0,0,1,1.356,1.356l-2.892,2.892A.928.928,0,0,1,78.036,239.011Z" transform="translate(-75.826 -234.201)" fill="#4c2e88"/></g><g transform="translate(0 15.5)"><path d="M147.5,318.023h-6.684a.96.96,0,1,1,0-1.92H147.5a.96.96,0,0,1,0,1.92Z" transform="translate(-132.104 -313.937)" fill="#4c2e88"/><path d="M78.035,303.027a.959.959,0,0,1-.68-.28L76.107,301.5a.959.959,0,1,1,1.356-1.356l.568.568,2.212-2.212a.959.959,0,1,1,1.356,1.356l-2.892,2.892A.928.928,0,0,1,78.035,303.027Z" transform="translate(-75.825 -298.217)" fill="#4c2e88"/></g><g transform="translate(0 23.252)"><path d="M152.91,382.04H140.818a.96.96,0,1,1,0-1.92H152.91a.96.96,0,1,1,0,1.92Z" transform="translate(-132.104 -377.954)" fill="#4c2e88"/><path d="M78.036,367.044a.959.959,0,0,1-.68-.28l-1.248-1.248a.959.959,0,0,1,1.356-1.356l.568.568,2.212-2.212a.959.959,0,1,1,1.356,1.356l-2.892,2.892A.944.944,0,0,1,78.036,367.044Z" transform="translate(-75.826 -362.234)" fill="#4c2e88"/></g></g><g transform="translate(22.876 10.9)"><path d="M205.784,178.675a16.818,16.818,0,1,1,6.568-1.328A16.774,16.774,0,0,1,205.784,178.675Zm0-31.82a14.95,14.95,0,1,0,14.948,14.952A14.966,14.966,0,0,0,205.784,146.855Z" transform="translate(-188.912 -140.115)" fill="#4c2e88"/><path d="M244.6,212.176a11.526,11.526,0,1,1,8.148-3.376A11.446,11.446,0,0,1,244.6,212.176Zm0-21.128a9.6,9.6,0,1,0,6.792,2.812A9.556,9.556,0,0,0,244.6,191.048Z" transform="translate(-227.728 -178.96)" fill="#4c2e88"/><path d="M283.416,245.644a6.183,6.183,0,0,1-2.368-.464,6.152,6.152,0,0,1-3.808-5.712,6.169,6.169,0,0,1,.464-2.368,6.152,6.152,0,0,1,5.712-3.808,6.169,6.169,0,0,1,2.368.464,6.152,6.152,0,0,1,3.808,5.712,6.168,6.168,0,0,1-.464,2.368,6.152,6.152,0,0,1-5.712,3.808Zm0-10.436a4.2,4.2,0,1,0,1.632.32A4.239,4.239,0,0,0,283.416,235.208Z" transform="translate(-266.544 -217.776)" fill="#4c2e88"/><g transform="translate(15.91)"><path d="M321.259,169.488a.958.958,0,0,1-.68-1.636l14.988-14.992a.959.959,0,0,1,1.356,1.356L321.935,169.2A.941.941,0,0,1,321.259,169.488Z" transform="translate(-320.297 -146.836)" fill="#4c2e88"/><path d="M445.033,112.822a.959.959,0,0,1-.96-1.016l.168-2.856a.948.948,0,0,1,.28-.624l2.888-2.888a.96.96,0,0,1,1.636.736l-.1,1.776,1.776-.1a.96.96,0,0,1,.736,1.636l-2.888,2.888a.967.967,0,0,1-.624.28l-2.856.168A.2.2,0,0,1,445.033,112.822Zm1.1-3.4-.084,1.412,1.412-.084.844-.844-.336.02a.961.961,0,0,1-1.016-1.016l.02-.336Z" transform="translate(-429.083 -105.157)" fill="#4c2e88"/></g></g></g></svg>