<svg xmlns="http://www.w3.org/2000/svg" width="44.931" height="57.768" viewBox="0 0 44.931 57.768"><g transform="translate(-5.5 -128.5)"><path d="M5.5,180.919v-47.07a5.347,5.347,0,0,1,5.349-5.349H45.082a5.347,5.347,0,0,1,5.349,5.349v47.07a5.347,5.347,0,0,1-5.349,5.349H10.849A5.347,5.347,0,0,1,5.5,180.919Zm42.791-3.209H7.64v3.209a3.207,3.207,0,0,0,3.209,3.209H45.082a3.207,3.207,0,0,0,3.209-3.209Zm-24.6,4.279h8.558a1.07,1.07,0,0,0,0-2.14H23.686a1.07,1.07,0,0,0,0,2.14Zm24.6-6.419V133.849a3.207,3.207,0,0,0-3.209-3.209H10.849a3.207,3.207,0,0,0-3.209,3.209V175.57ZM40.8,167.012H27.965a1.07,1.07,0,1,0,0,2.14H40.8a1.07,1.07,0,0,0,0-2.14Zm-23.535-.443,3.522-3.524A1.071,1.071,0,1,1,22.3,164.56l-4.279,4.279a1.073,1.073,0,0,1-1.515,0l-2.14-2.14a1.071,1.071,0,0,1,1.515-1.515Zm19.256-3.836H27.965a1.07,1.07,0,0,0,0,2.14h8.558a1.07,1.07,0,0,0,0-2.14Zm4.279-8.558H27.965a1.07,1.07,0,1,0,0,2.14H40.8a1.07,1.07,0,0,0,0-2.14Zm-23.535-.443,3.522-3.524a1.071,1.071,0,1,1,1.515,1.515L18.025,156a1.073,1.073,0,0,1-1.515,0l-2.14-2.14a1.071,1.071,0,1,1,1.515-1.515ZM36.524,149.9H27.965a1.07,1.07,0,1,0,0,2.14h8.558a1.07,1.07,0,1,0,0-2.14Zm4.279-8.558H27.965a1.07,1.07,0,1,0,0,2.14H40.8a1.07,1.07,0,1,0,0-2.14Zm-23.535-.443,3.522-3.524a1.071,1.071,0,0,1,1.515,1.515l-4.279,4.279a1.073,1.073,0,0,1-1.515,0l-2.14-2.14a1.071,1.071,0,0,1,1.515-1.515Zm19.256-3.836H27.965a1.07,1.07,0,1,0,0,2.14h8.558a1.07,1.07,0,1,0,0-2.14Z" transform="translate(0 0)" fill="#4c2e88" fill-rule="evenodd"/></g></svg>