<svg xmlns="http://www.w3.org/2000/svg" width="57.769" height="57.768" viewBox="0 0 57.769 57.768"><g transform="translate(-1 -1)"><path d="M53.178,32.241V13.97a6.519,6.519,0,1,0-7.454-6.448H1v37.27H29A14.9,14.9,0,1,0,53.178,32.241ZM52.246,2.863a4.659,4.659,0,1,1-4.659,4.659A4.664,4.664,0,0,1,52.246,2.863ZM2.863,9.386H46a6.518,6.518,0,0,0,1.031,2.036l-5.7,5.7a2.7,2.7,0,0,0-2.4,0l-1.877-1.877a2.769,2.769,0,0,0,.28-1.2,2.8,2.8,0,1,0-5.59,0,2.749,2.749,0,0,0,.28,1.2l-4.673,4.673a2.769,2.769,0,0,0-1.2-.28,2.8,2.8,0,1,0,2.8,2.8,2.749,2.749,0,0,0-.28-1.2l4.673-4.673a2.7,2.7,0,0,0,2.4,0l1.877,1.877a2.769,2.769,0,0,0-.28,1.2,2.8,2.8,0,1,0,5.59,0,2.749,2.749,0,0,0-.28-1.2l5.7-5.7a6.482,6.482,0,0,0,2.967,1.232v17a14.817,14.817,0,0,0-18.635,3.063V29.884h-5.59V41.065h2.136A14.947,14.947,0,0,0,29,42.928H2.863ZM40.133,18.7a.932.932,0,1,1-.932.932A.933.933,0,0,1,40.133,18.7Zm-6.522-4.659a.932.932,0,1,1,.932.932A.933.933,0,0,1,33.611,14.044ZM27.089,22.43a.932.932,0,1,1-.932-.932A.933.933,0,0,1,27.089,22.43ZM43.86,51.314a7.454,7.454,0,1,1,7.454-7.454A7.463,7.463,0,0,1,43.86,51.314ZM30.816,36.659A14.8,14.8,0,0,0,29.708,39.2h-.756V31.748h1.863Zm12.113-5.8V34.59a9.3,9.3,0,0,0-7.556,13.094L32.141,49.55A13,13,0,0,1,42.928,30.863ZM43.86,56.9a13.038,13.038,0,0,1-10.8-5.735L36.308,49.3a9.287,9.287,0,0,0,15.1,0l3.245,1.874A13.038,13.038,0,0,1,43.86,56.9ZM55.58,49.55l-3.232-1.866A9.3,9.3,0,0,0,44.792,34.59V30.863A13,13,0,0,1,55.58,49.55Z" fill="#4c2e88"/><path d="M46.59,41a5.59,5.59,0,1,0,5.59,5.59A5.6,5.6,0,0,0,46.59,41Zm0,9.317a3.727,3.727,0,1,1,3.727-3.727A3.731,3.731,0,0,1,46.59,50.317Z" transform="translate(-2.73 -2.73)" fill="#4c2e88"/><path d="M5,12H6.863v1.863H5Z" transform="translate(-0.273 -0.751)" fill="#4c2e88"/><path d="M9,12H22.044v1.863H9Z" transform="translate(-0.546 -0.751)" fill="#4c2e88"/><path d="M5,16H6.863v1.863H5Z" transform="translate(-0.273 -1.024)" fill="#4c2e88"/><path d="M9,16H22.044v1.863H9Z" transform="translate(-0.546 -1.024)" fill="#4c2e88"/><path d="M5,20H6.863v1.863H5Z" transform="translate(-0.273 -1.297)" fill="#4c2e88"/><path d="M9,20H22.044v1.863H9Z" transform="translate(-0.546 -1.297)" fill="#4c2e88"/><path d="M5,24H6.863v1.863H5Z" transform="translate(-0.273 -1.57)" fill="#4c2e88"/><path d="M9,24H22.044v1.863H9Z" transform="translate(-0.546 -1.57)" fill="#4c2e88"/><path d="M5,43.317h5.59V34H5Zm1.863-7.454H8.727v5.59H6.863Z" transform="translate(-0.273 -2.252)" fill="#4c2e88"/><path d="M13,43.454h5.59V36H13Zm1.863-5.59h1.863V41.59H14.863Z" transform="translate(-0.819 -2.389)" fill="#4c2e88"/><path d="M21,42.908h5.59V28H21Zm1.863-13.044h1.863V41.044H22.863Z" transform="translate(-1.365 -1.843)" fill="#4c2e88"/></g></svg>