<svg id="Target_Audience" data-name="Target Audience" xmlns="http://www.w3.org/2000/svg" width="78" height="78" viewBox="0 0 78 78">
  <path id="Path_37090" data-name="Path 37090" d="M74.344,35.344H72.918A34.283,34.283,0,0,0,42.656,5.082V3.656a3.656,3.656,0,1,0-7.312,0V5.082A34.283,34.283,0,0,0,5.082,35.344H3.656a3.656,3.656,0,1,0,0,7.313H5.082A34.283,34.283,0,0,0,35.344,72.918v1.426a3.656,3.656,0,0,0,7.313,0V72.918A34.283,34.283,0,0,0,72.918,42.656h1.426a3.656,3.656,0,0,0,0-7.312Zm-3.912,0H67.994A29.092,29.092,0,0,0,42.656,10.006V7.568A31.761,31.761,0,0,1,70.432,35.344Zm-5.838,7.313h.938A26.63,26.63,0,0,1,42.656,65.532v-.938a3.656,3.656,0,0,0-7.312,0v.938A26.63,26.63,0,0,1,12.468,42.656h.938a3.656,3.656,0,0,0,0-7.312h-.938A26.63,26.63,0,0,1,35.344,12.468v.938a3.656,3.656,0,0,0,7.313,0v-.938A26.63,26.63,0,0,1,65.532,35.344h-.938a3.656,3.656,0,0,0,0,7.313Zm-26.812-39a1.219,1.219,0,1,1,2.438,0v9.75a1.219,1.219,0,0,1-2.437,0ZM35.344,7.568v2.438A29.092,29.092,0,0,0,10.006,35.344H7.568A31.761,31.761,0,0,1,35.344,7.568ZM3.656,37.781h9.75a1.219,1.219,0,0,1,0,2.438H3.656a1.219,1.219,0,0,1,0-2.437Zm3.912,4.875h2.438A29.092,29.092,0,0,0,35.344,67.994v2.437A31.761,31.761,0,0,1,7.568,42.656Zm32.65,31.688a1.219,1.219,0,0,1-2.437,0v-9.75a1.219,1.219,0,0,1,2.438,0Zm2.438-3.912V67.994A29.092,29.092,0,0,0,67.994,42.656h2.437A31.761,31.761,0,0,1,42.656,70.432ZM74.344,40.219h-9.75a1.219,1.219,0,0,1,0-2.437h9.75a1.219,1.219,0,0,1,0,2.438Z"/>
  <path id="Path_37091" data-name="Path 37091" d="M35.282,17C18.292,17,10.553,38.231,23.435,49.212a18.281,18.281,0,0,0,23.693,0h0C60.01,38.231,52.271,17,35.282,17ZM25.653,47.847l.573-1.731a9.555,9.555,0,0,1,18.111,0l.573,1.718a15.844,15.844,0,0,1-19.256.012ZM30.3,32.173V30.626a4.985,4.985,0,0,1,9.969,0v1.548a4.985,4.985,0,1,1-9.969,0ZM46.884,46.067A12.066,12.066,0,0,0,39.8,38.048c2.9-2.243,2.9-4.973,2.9-7.422a7.422,7.422,0,1,0-14.844,0c0,2.584,0,5.192,2.9,7.422a12.078,12.078,0,0,0-7.081,8.019,15.844,15.844,0,1,1,23.156,0Z" transform="translate(3.718 3.719)"/>
</svg>
