<svg xmlns="http://www.w3.org/2000/svg" width="100.098" height="100.562" viewBox="0 0 100.098 100.562">
  <path id="Target_Audience_1_" d="M89.169,29.466a28.121,28.121,0,0,1-15.1-12.182A30.553,30.553,0,0,1,53.848,24.5a30.544,30.544,0,0,1-20.22-7.217,28.181,28.181,0,0,1-15.3,12.253L14.4,40.075m-3.929,10.54-4.728-39.6a4.864,4.864,0,0,1,4.679-5.35H97.1a4.834,4.834,0,0,1,4.688,5.225L97.046,50.613,93.107,40.038M67.67,69.724a33.068,33.068,0,0,1-3.843-1.629c-.111-.315.1-.757.164-1.709.048-.736-.173-.913-.8-.913-.8,0-1.854.458-2.586.241l-.45-3.311c1.8-.673,2.174-3.331,2.174-5.328,3.025-.623,3.548-7.531,1.308-7.931-.3-.778,2.044-7.564-.4-11.386C61.5,35.034,56.466,33.516,52.8,33.516c-2.96,0-5.981.452-4.912,3C40,38.161,43.751,43.768,43.751,49.155c-2.658.906-.583,7.77,1.682,7.974.332,3.041,1.39,5.3,2.575,5.49l-.347,3.038c-.69,0-3.44-.807-3.283.56l.16,1.412a25.36,25.36,0,0,1-4.691,2.095A38.511,38.511,0,0,0,30.709,74.1l1.359,14.16L53.755,101.87,75.445,88.26,76.806,74.1a38.768,38.768,0,0,0-9.136-4.377Zm12.064,18.54H97.865L99.3,76.259a30.9,30.9,0,0,0-7.277-3.486c-4.176-1.523-6.032-2.851-6.581-5.117V67.12a10.816,10.816,0,0,0,5.185-1.776,2.269,2.269,0,0,1-.691-1.945,6.372,6.372,0,0,0,3.428.682C89.476,60.9,89.621,56.694,88.744,52.3c-.375-1.9-.773-3.9-2.22-5.321a8.361,8.361,0,0,0-11.12,0c-1.447,1.425-1.848,3.42-2.22,5.321-.878,4.4-.491,8.307-4.384,11.493a11.17,11.17,0,0,0,3.187-.393,2.274,2.274,0,0,1-.693,1.945,10.8,10.8,0,0,0,5.185,1.776v.487a4.736,4.736,0,0,1-.379,1.077m-44.688,0a5.436,5.436,0,0,1-.523-2.042c.123-1.507,2.7-2.317,3.051-6.07,2.754-1.842,1.7-6.151.506-5.787a43.635,43.635,0,0,0,.108-5.333c-.642-4.34-7.374-3.443-7.255-6.439-2,.932-2.117,1.827-2.039,2.453a2.941,2.941,0,0,1-1.777-.548c-1.487.637-3.911,1.768-4.539,4.7-.126.176-.261.376-.409.608-.29.446-1.527.545-1.905,2.211.483-.444,1.3-.164,1.813-.08a3.988,3.988,0,0,0,.13,2.459c-1.492.381-.929,5.182,1.16,5.751.039,3.152,1.661,3.983,2.373,5.635a4.623,4.623,0,0,1-.157,1.871c-.622,2.481-4.363,3.932-6.462,4.7a30.8,30.8,0,0,0-7.274,3.486L9.647,88.267H27.778" transform="translate(-3.698 -3.669)" fill="none" stroke="#c31f5d" stroke-miterlimit="22.926" stroke-width="4" fill-rule="evenodd"/>
</svg>
