<svg xmlns="http://www.w3.org/2000/svg" xmlns:xlink="http://www.w3.org/1999/xlink" width="102" height="102" viewBox="0 0 102 102">
  <defs>
    <clipPath id="clip-path">
      <rect id="Rectangle_4470" data-name="Rectangle 4470" width="102" height="102" transform="translate(208 3860)" fill="#c31f5d"/>
    </clipPath>
  </defs>
  <g id="Mask_Group_16" data-name="Mask Group 16" transform="translate(-208 -3860)" clip-path="url(#clip-path)">
    <path id="nodejs-plain" d="M95.048,25.588,57.812,3.989a8.058,8.058,0,0,0-7.783,0L12.5,25.588A8.016,8.016,0,0,0,8.435,32.4v43.14a8.072,8.072,0,0,0,4.1,6.818L22.431,88c4.747,2.338,6.062,2.338,8.221,2.338,7.03,0,10.681-4.251,10.681-11.664V36.082c0-.6.376-1.5-.215-1.5H36.375c-.6,0-1.79.895-1.79,1.5v42.59c0,3.286-3.05,6.557-8.606,3.779L15.754,76.534a1.131,1.131,0,0,1-.57-1V32.4a1.391,1.391,0,0,1,.752-1.023L53.37,9.813a1.272,1.272,0,0,1,1.194,0L91.648,31.37c.355.213.3.609.3,1.028v43.14c0,.412.078.812-.272,1.011L54.446,98.123a1.094,1.094,0,0,1-1.084,0L43.816,92.43a.931.931,0,0,0-.911-.073,24.835,24.835,0,0,1-5.634,2.567c-.613.213-1.518.584.344,1.627L50.1,103.936a7.865,7.865,0,0,0,7.856,0l37.1-21.579a7.663,7.663,0,0,0,3.646-6.818V32.4a7.64,7.64,0,0,0-3.647-6.81ZM65.566,68.7c-9.892,0-12.07-2.729-12.8-7.648-.086-.53-.535-1.163-1.075-1.163H46.861c-.6,0-1.08.725-1.08,1.321,0,6.3,3.425,13.929,19.784,13.929,11.842,0,18.632-4.6,18.632-12.745,0-8.074-5.455-10.193-16.94-11.713-11.609-1.534-12.788-2.31-12.788-5.029,0-2.242,1-5.232,9.594-5.232,7.68,0,10.511,1.648,11.675,6.825a1.066,1.066,0,0,0,1.047.836H81.64a1.108,1.108,0,0,0,.792-.334,1.092,1.092,0,0,0,.283-.826c-.753-8.915-6.675-13.07-18.652-13.07-10.656,0-17.011,4.5-17.011,12.042,0,8.181,6.324,10.441,16.552,11.453,12.236,1.2,13.187,2.988,13.187,5.394C76.792,66.921,73.436,68.7,65.566,68.7Z" transform="translate(205.435 3857.013)" fill="#83cd29"/>
  </g>
</svg>
