<svg xmlns="http://www.w3.org/2000/svg" xmlns:xlink="http://www.w3.org/1999/xlink" width="102" height="102" viewBox="0 0 102 102">
  <defs>
    <clipPath id="clip-path">
      <rect id="Rectangle_4475" data-name="Rectangle 4475" width="102" height="102" transform="translate(1616 3860)" fill="#c31f5d"/>
    </clipPath>
  </defs>
  <g id="Mask_Group_21" data-name="Mask Group 21" transform="translate(-1616 -3860)" clip-path="url(#clip-path)">
    <path id="drupal-plain" d="M74.682,20.44c-5.208-3.244-10.121-4.521-15.034-7.764C56.6,10.612,52.377,5.7,48.837,1.473c-.687,6.781-2.751,9.532-5.108,11.5-5.012,3.931-8.157,5.11-12.481,7.469C27.612,22.306,7.861,34.1,7.861,59.45s21.324,44.023,45.006,44.023,44.221-17.2,44.221-43.237S77.827,22.4,74.682,20.44Zm.568,73.787a21.322,21.322,0,0,1-10.318,4.127c-5.307.491-12.48.787-16.8-3.144a1.417,1.417,0,0,1,0-2.064,2.3,2.3,0,0,1,1.475-.689c.59,0,.492,0,.786.2,1.965,1.572,4.913,2.85,11.2,2.85S72.3,93.734,74.267,92.261c.885-.689,1.278-.1,1.376.294A1.487,1.487,0,0,1,75.25,94.226Zm-17.2-8.942a17.785,17.785,0,0,1,4.521-3.243,8.809,8.809,0,0,1,4.127-.59,8.14,8.14,0,0,1,4.423.885c1.179.785,1.867,2.555,2.26,3.537a1.381,1.381,0,0,1-.786,1.965c-.687.394-.786.2-1.473-1.079S69.846,84.2,66.407,84.2s-4.521,1.179-6.191,2.556-2.26,1.867-2.849,1.079-.394-1.571.687-2.554Zm26.041.786c-3.537-.294-10.614-11.3-15.135-11.5-5.7-.2-18.081,11.89-27.81,11.89-5.9,0-7.664-.883-9.63-2.162C28.572,82.239,27.1,79.093,27.2,74.77c.1-7.665,7.272-14.839,16.312-14.937,11.5-.1,19.456,11.4,25.256,11.3,4.913-.1,14.347-9.727,18.965-9.727,4.913,0,6.29,5.11,6.29,8.156s-.983,8.549-3.342,11.988-3.832,4.718-6.584,4.521Z" transform="translate(1614.525 3858.527)" fill="#0073ba"/>
  </g>
</svg>
