<svg xmlns="http://www.w3.org/2000/svg" xmlns:xlink="http://www.w3.org/1999/xlink" width="102" height="102" viewBox="0 0 102 102">
  <defs>
    <clipPath id="clip-path">
      <rect id="Rectangle_4469" data-name="Rectangle 4469" width="102" height="102" transform="translate(491 3860)" fill="#c31f5d"/>
    </clipPath>
  </defs>
  <g id="Mask_Group_17" data-name="Mask Group 17" transform="translate(-491 -3860)" clip-path="url(#clip-path)">
    <path id="codeigniter-plain" d="M73.855,40.232l-.624-.341a5.079,5.079,0,0,1,.424,2.075,7.1,7.1,0,0,0,.2-1.521,6.768,6.768,0,0,1-.225,1.837l.021-.317a7.014,7.014,0,0,1-.884,2.106l.193-.206c-2.371,3.967-8.84,4.834-12.03.737-5.121-6.578.105-13.67.837-20.635.915-8.73-4.559-17.206-11.347-22.278,3.739,6.048-1.187,14.05-5.128,18.522-3.822,4.338-8.468,7.959-12.687,11.9A105.837,105.837,0,0,0,20,45.765c-7.45,9.94-12.012,22.443-8.659,34.845S25.423,100.9,37.546,103.684c-6.116-2.644-11.84-9.363-11.853-16.238-.016-7.5,4.734-13.86,10.643-18.041-.71,2.683-1.1,5.137.661,7.537A7.127,7.127,0,0,0,44.2,79.669c6.322-1.382,6.611-8.332,2.864-12.38-3.706-4.008-7.29-8.538-5.881-14.352a14.955,14.955,0,0,1,4.764-7.6c-1.744,4.58,3.208,9.1,6.47,11.344,5.661,3.9,11.868,6.854,17.073,11.428,5.473,4.808,9.516,11.309,8.7,18.85-.886,8.173-7.38,13.857-14.663,16.727,15.392-3.4,31.3-15.345,31.623-32.417.271-14.043-9.363-24.852-21.3-31.04Z" transform="translate(489.311 3858.311)" fill="#ee4323"/>
  </g>
</svg>
