<svg xmlns="http://www.w3.org/2000/svg" xmlns:xlink="http://www.w3.org/1999/xlink" width="102" height="102" viewBox="0 0 102 102">
  <defs>
    <clipPath id="clip-path">
      <rect id="Rectangle_4467" data-name="Rectangle 4467" width="102" height="102" transform="translate(1340 3860)" fill="#c31f5d"/>
    </clipPath>
  </defs>
  <g id="Mask_Group_20" data-name="Mask Group 20" transform="translate(-1340 -3860)" clip-path="url(#clip-path)">
    <path id="wordpress-plain" d="M52.46,103.312A50.919,50.919,0,0,0,103.223,52.3c0-27.692-22.6-50.5-49.611-50.98C25.25.814,1.55,23.828,1.543,51.736,1.535,80.448,24.143,103.353,52.46,103.312ZM52.377,3.79c26.934-.009,48.394,21.874,48.385,49.338-.009,25.929-22.038,47.619-48.366,47.625A48.461,48.461,0,0,1,4,51.965C4.006,25.615,25.912,3.8,52.377,3.79ZM32.049,29.38c.44,1.468-.792,1.978-2.1,2.081-1.379.106-2.757.21-4.358.332,5.284,15.743,10.489,31.252,15.817,47.122a8.008,8.008,0,0,0,.6-1c2.925-8.743,5.867-17.48,8.718-26.248a4.527,4.527,0,0,0-.154-2.681c-1.508-4.354-3.316-8.614-4.638-13.02-.9-3.017-2.1-4.969-5.67-4.62-.607.06-1.349-1.247-2.029-1.923.823-.491,1.639-1.395,2.469-1.407q10.893-.167,21.786.007c.833.014,1.65.941,2.473,1.445-.72.658-1.341,1.645-2.184,1.9a23.2,23.2,0,0,1-4.467.475L74.15,78.954c2.4-7.969,4.631-15.286,6.8-22.622,1.937-6.549.782-12.664-2.719-18.432a25.943,25.943,0,0,1-2.942-5.309,15.242,15.242,0,0,1-.882-6.76c.61-3.658,3.416-5.474,7.214-5.822C60.84.721,28.181,7.626,16.147,28.583c4.633-.214,9.056-.494,13.482-.555A3.024,3.024,0,0,1,32.049,29.38ZM40.33,93.2a7.52,7.52,0,0,0-.178,1.066,44.294,44.294,0,0,0,26.731-.725L53.148,55.921C48.753,68.7,44.538,80.946,40.33,93.2Zm-6.921-1.7L12.717,34.736C3.382,52.97,10.483,80.79,33.409,91.5ZM95.964,55.024c.656-8.622-2.318-20.559-4.886-22.2-.286,3.172-.087,6.7-1,9.915C87.938,50.313,85.319,57.756,82.8,65.22,80.055,73.333,77.2,81.409,74.4,89.5,87.573,81.693,94.81,70.17,95.964,55.024Z" transform="translate(1338.617 3858.688)" fill="#494949"/>
  </g>
</svg>
