<svg xmlns="http://www.w3.org/2000/svg" xmlns:xlink="http://www.w3.org/1999/xlink" width="102" height="102" viewBox="0 0 102 102">
  <defs>
    <clipPath id="clip-path">
      <rect id="Rectangle_4488" data-name="Rectangle 4488" width="102" height="102" transform="translate(491 4093)" fill="#edf9ff"/>
    </clipPath>
  </defs>
  <g id="Mask_Group_23" data-name="Mask Group 23" transform="translate(-491 -4093)" clip-path="url(#clip-path)">
    <path id="django-plain" d="M74.174,50.266l.082-1.632v-.49H73.6a5.219,5.219,0,0,0-2.774.734,3.85,3.85,0,0,0-1.8,3.59c0,2.448,1.224,3.835,3.346,3.835a5.677,5.677,0,0,0,1.877-.326V52.469l-.082-2.2ZM13.3,52.387c0,2.611,1.306,4,3.835,4a6.431,6.431,0,0,0,1.632-.163V48.47a6.6,6.6,0,0,0-1.632-.245c-2.448,0-3.835,1.55-3.835,4.162ZM37.454,55.57c0,.979.571,1.387,1.877,1.387a11.477,11.477,0,0,0,2.285-.245V53.448c-3.264.326-4.162.816-4.162,2.122Zm51.408-7.426c-1.877,0-3.019,1.55-3.019,4.243S86.9,56.63,88.862,56.63c1.877,0,2.938-1.55,2.938-4.243C91.8,49.776,90.739,48.144,88.862,48.144Zm13.954-12.322a5.642,5.642,0,0,0-5.63-5.63H6.446a5.642,5.642,0,0,0-5.63,5.63V68.544a5.66,5.66,0,0,0,5.63,5.712H97.1a5.642,5.642,0,0,0,5.63-5.63v-32.8ZM8.4,52.469c0-4.9,3.264-8.16,8.323-8.16a9.408,9.408,0,0,1,2.122.245V37.536h4.9V59.568a30.44,30.44,0,0,1-6.283.653C11.506,60.221,8.4,57.61,8.4,52.469Zm22.6,3.427c0,3.835-.163,5.712-.979,7.344a7.542,7.542,0,0,1-3.835,3.59l-4.488-2.122c2.122-.979,3.019-1.877,3.672-3.264s.734-3.019.734-7.181V44.88h4.9Zm0-13.464h-4.9v-4.9h4.9ZM45.7,59.813a42.823,42.823,0,0,1-6.773.571c-4.08,0-5.794-1.387-5.794-4.57,0-3.427,2.693-4.978,8.4-5.467V49.286c0-.9-.408-1.224-1.632-1.224a11.908,11.908,0,0,0-5.712,1.469V45.778a15.945,15.945,0,0,1,6.365-1.469c2.448,0,3.917.653,4.651,1.958.408.734.408,1.632.408,3.672v9.874Zm17.136.571h-4.9V50.755c0-1.877-.816-2.53-2.53-2.53a8.647,8.647,0,0,0-2.366.326V60.384h-4.9V45.451a32.874,32.874,0,0,1,7.67-1.061c2.448,0,4.406.571,5.467,1.632s1.55,2.122,1.55,4.57Zm15.749-9.466.571,4.57v1.387c0,4.162-.49,6.12-1.55,7.67-1.469,2.366-4.162,3.509-7.915,3.509a12.79,12.79,0,0,1-5.3-.979V62.587A10.78,10.78,0,0,0,69.6,63.893c3.182,0,4.57-1.306,4.57-4.325v-.082a6.34,6.34,0,0,1-3.182.653c-4.243,0-6.936-2.774-6.936-7.181,0-5.467,4-8.568,11.016-8.568a34.988,34.988,0,0,1,6.283.653l-1.877,3.509c-1.306-.245,1.061,0-.571-.163m9.874,12.077c-4.814,0-7.834-3.019-7.834-7.915,0-5.059,3.1-8.242,8-8.242,4.814,0,7.752,3.019,7.752,8,.082,4.978-3.019,8.16-7.915,8.16Z" transform="translate(490.184 4091.776)" fill="#003a2b"/>
  </g>
</svg>
