<svg xmlns="http://www.w3.org/2000/svg" xmlns:xlink="http://www.w3.org/1999/xlink" width="102" height="102" viewBox="0 0 102 102">
  <defs>
    <clipPath id="clip-path">
      <rect id="Rectangle_4471" data-name="Rectangle 4471" width="102" height="102" transform="translate(774 3860)" fill="#c31f5d"/>
    </clipPath>
  </defs>
  <g id="Mask_Group_18" data-name="Mask Group 18" transform="translate(-774 -3860)" clip-path="url(#clip-path)">
    <path id="php-plain" d="M53.426,27.58c-28.165,0-51,11.572-51,25.846s22.835,25.846,51,25.846,51-11.572,51-25.846S81.591,27.58,53.426,27.58ZM40.155,58.461A9.97,9.97,0,0,1,36.1,60.554a19.978,19.978,0,0,1-5.686.385h-5.22l-1.447,8.348H17.651L23.09,40.9H34.81c3.526,0,6.1,1.014,7.715,2.865s2.1,4.478,1.458,7.794a12.276,12.276,0,0,1-3.828,6.9Zm17.79,2.478L60.35,48.9c.274-1.409.174-2.456-.3-2.968a4.2,4.2,0,0,0-3.034-.856H52.181L49.067,60.939H43.02l5.439-27.548h6.047L53.059,40.9h5.387c3.39,0,5.727.68,7.014,1.862s1.672,2.8,1.158,5.449l-2.53,12.723Zm33.607-9.331a12.16,12.16,0,0,1-3.827,6.854,9.976,9.976,0,0,1-4.057,2.093,19.982,19.982,0,0,1-5.687.385h-5.22l-1.446,8.348H65.222L70.66,40.9H82.381c3.526,0,6.1,1.014,7.714,2.865S92.2,48.292,91.553,51.608Zm-11.482-6.53H75.9L73.62,56.765h3.708c2.456,0,4.287-.242,5.49-1.169a7.066,7.066,0,0,0,2.436-4.525c.4-2.079.22-3.7-.551-4.556s-2.316-1.437-4.631-1.437Zm-47.57,0H28.326L26.049,56.765h3.707c2.457,0,4.287-.242,5.49-1.169a7.066,7.066,0,0,0,2.435-4.525c.4-2.079.22-3.7-.551-4.556S34.817,45.078,32.5,45.078Z" transform="translate(771.574 3857.574)" fill="#6181b6"/>
  </g>
</svg>
