<svg xmlns="http://www.w3.org/2000/svg" xmlns:xlink="http://www.w3.org/1999/xlink" width="102" height="102" viewBox="0 0 102 102">
  <defs>
    <clipPath id="clip-path">
      <rect id="Rectangle_4463" data-name="Rectangle 4463" width="102" height="102" rx="6" transform="translate(1192 3568)" fill="#c31f5d"/>
    </clipPath>
  </defs>
  <g id="Mask_Group_13" data-name="Mask Group 13" transform="translate(-1192 -3568)" clip-path="url(#clip-path)">
    <g id="javascript-original" transform="translate(1190.853 3566.853)">
      <path id="Path_37282" data-name="Path 37282" d="M1.147,1.147h102v102h-102Z" fill="#f0db4f"/>
      <path id="Path_37283" data-name="Path 37283" d="M94.8,78.82c-.747-4.653-3.781-8.562-12.769-12.206-3.122-1.435-6.6-2.462-7.64-4.828A5.265,5.265,0,0,1,74.2,58.8c.669-2.705,3.9-3.548,6.457-2.773a7.105,7.105,0,0,1,4.15,3.849c4.4-2.85,4.393-2.831,7.466-4.79a19.084,19.084,0,0,0-2.462-3.3c-2.647-2.957-6.254-4.48-12.023-4.363l-3,.389a13.635,13.635,0,0,0-7.233,4.265c-4.828,5.479-3.451,15.067,2.424,19.013,5.788,4.344,14.291,5.333,15.378,9.4,1.057,4.974-3.655,6.584-8.339,6.012-3.451-.718-5.371-2.472-7.446-5.662-3.82,2.211-3.82,2.211-7.747,4.469A17.239,17.239,0,0,0,65.3,90.029c7.389,7.494,25.878,7.126,29.194-4.217a14.029,14.029,0,0,0,.31-6.992ZM56.6,48.026h-9.54l-.039,24.665c0,5.246.271,10.055-.582,11.529-1.4,2.9-5.013,2.54-6.661,1.978a8.186,8.186,0,0,1-3.519-3.654,4.806,4.806,0,0,0-.543-.873l-7.757,4.75a15.327,15.327,0,0,0,5.624,6.438,18.517,18.517,0,0,0,13.632,1.678,12.039,12.039,0,0,0,7.7-6.03c2.172-4,1.706-8.852,1.687-14.213C56.645,65.546,56.6,56.8,56.6,48.026Z" fill="#323330"/>
    </g>
  </g>
</svg>
