<svg xmlns="http://www.w3.org/2000/svg" xmlns:xlink="http://www.w3.org/1999/xlink" width="102" height="102" viewBox="0 0 102 102">
  <defs>
    <clipPath id="clip-path">
      <rect id="Rectangle_4489" data-name="Rectangle 4489" width="102" height="102" transform="translate(774 4093)" fill="#edf9ff"/>
    </clipPath>
  </defs>
  <g id="Mask_Group_24" data-name="Mask Group 24" transform="translate(-774 -4093)" clip-path="url(#clip-path)">
    <path id="express-original" d="M103.058,80.09c-3.71.944-6,.041-8.063-3.051-4.621-6.924-9.722-13.53-14.645-20.258-.635-.871-1.294-1.725-2.115-2.807-5.825,7.859-11.643,15.344-17.1,23.13-1.953,2.782-4,3.995-7.648,3.01l21.9-29.4L55,24.172c3.507-.683,5.931-.334,8.079,2.807,4.743,6.932,9.975,13.53,15.19,20.511,5.248-6.956,10.414-13.563,15.3-20.429,1.961-2.782,4.068-3.84,7.591-2.815-2.669,3.539-5.28,7.021-7.908,10.479C89.7,39.386,86.216,44.1,82.539,48.669c-1.31,1.627-1.1,2.685.073,4.223C89.414,61.833,96.134,70.864,103.058,80.09ZM1.082,50.231c.586-2.937.976-5.931,1.79-8.811,4.882-17.435,24.9-24.684,38.646-13.88,8.055,6.338,10.056,15.271,9.657,25.343H5.777C5.093,70.953,18.1,81.864,34.683,76.3c5.817-1.953,9.242-6.509,10.959-12.2.871-2.856,2.311-3.3,5-2.49-1.375,7.127-4.491,13.083-11,16.809-9.763,5.581-23.7,3.775-31.03-3.978C4.279,69.879,2.441,64.209,1.627,58.082c-.122-.976-.374-1.936-.57-2.9q.024-2.473.024-4.947Zm4.776-1.212H46.887c-.268-13.066-8.4-22.349-19.526-22.431-12.2-.1-20.974,8.966-21.5,22.431Z" transform="translate(772.942 4091.943)"/>
  </g>
</svg>
