<svg xmlns="http://www.w3.org/2000/svg" xmlns:xlink="http://www.w3.org/1999/xlink" width="102" height="102" viewBox="0 0 102 102">
  <defs>
    <clipPath id="clip-path">
      <rect id="Rectangle_4464" data-name="Rectangle 4464" width="102" height="102" transform="translate(1475 3568)" fill="#c31f5d"/>
    </clipPath>
  </defs>
  <g id="Mask_Group_14" data-name="Mask Group 14" transform="translate(-1475 -3568)" clip-path="url(#clip-path)">
    <path id="html5-plain" d="M7.4,1.639l8.2,91.84,36.784,10.16L89.267,93.49,97.472,1.639ZM80.422,23.382l-.514,5.876-.226,2.695H36.533l1.03,11.47H78.657l-.275,2.844L75.733,75.861l-.195,1.86-23.1,6.349v0l-.028.015L29.323,78,27.755,60.629H39.074l.8,8.946L52.4,72.919h.035v-.447L65.017,69.3l1.314-14.4H27.251L24.48,23.664l-.27-3.181H80.693l-.27,2.9Z" transform="translate(1473.564 3566.361)" fill="#e44d26"/>
  </g>
</svg>
