<svg xmlns="http://www.w3.org/2000/svg" xmlns:xlink="http://www.w3.org/1999/xlink" width="102" height="102" viewBox="0 0 102 102">
  <defs>
    <clipPath id="clip-path">
      <rect id="Rectangle_4468" data-name="Rectangle 4468" width="102" height="102" transform="translate(1057 3860)" fill="#c31f5d"/>
    </clipPath>
  </defs>
  <g id="Mask_Group_19" data-name="Mask Group 19" transform="translate(-1057 -3860)" clip-path="url(#clip-path)">
    <g id="laravel-plain" transform="translate(1056.191 3858.922)">
      <path id="Path_37284" data-name="Path 37284" d="M13.7,1.391a14.162,14.162,0,0,0-2.691.3A13.057,13.057,0,0,0,1.465,11.885c.139.244.286.5.441.759.986,1.649,1.974,3.287,2.962,4.934l2.6,4.322q1.2,2,2.4,4l3.729,6.221,2.543,4.243q1.853,3.089,3.708,6.177l4.539,7.583q1.963,3.276,3.93,6.549l.175.254a.851.851,0,0,0,.5-.028q2.59-.621,5.18-1.239,4.2-1,8.4-2.006L46.953,52.6q4.247-1.015,8.495-2.029,4.293-1.027,8.586-2.058,2.17-.521,4.341-1.038,4.2-1,8.4-2l9.15-2.179.494-.134-.135-.268-2.5-3.53-2.466-3.492-2.638-3.725-2.521-3.571-2.5-3.529L71.085,21.4q-1.264-1.784-2.529-3.566l-1.333-1.882a3.459,3.459,0,0,1-.475-.938,1.509,1.509,0,0,1,.515-1.765,2.883,2.883,0,0,1,1.05-.566q.8-.247,1.626-.413c1.1-.208,2.207-.384,3.31-.568l3.742-.61c.789-.13,1.577-.267,2.366-.4q1.608-.272,3.217-.542,1.562-.262,3.124-.519l3.409-.558,2.366-.4q1.35-.226,2.7-.447c1.122-.183,2.242-.367,3.364-.543a4.124,4.124,0,0,1,3.373.724l.583.407c.058-.134-.026-.207-.065-.284A13.456,13.456,0,0,0,93.42,1.644,13.151,13.151,0,0,0,90.362,1.4m-45.3,101.368c-.05,0-.095-.364-.151-.46-1.214-2.071-2.44-4.3-3.64-6.374Q39.006,92,36.775,88.05q-2.385-4.222-4.744-8.458-2.249-4.021-4.49-8.048-1.354-2.436-2.7-4.873L24.6,66.3l-.439.087q-1.3.336-2.6.678c-1.206.317-2.411.64-3.617.955q-4.062,1.057-8.125,2.108c-2.754.715-5.625,1.432-8.38,2.144-.167.043.177.057-.632.086v17.11c.333.531.3.281.323.456.064.507.167,1.017.257,1.519a12.913,12.913,0,0,0,2.168,5.139,13.364,13.364,0,0,0,6.3,4.921,12.18,12.18,0,0,0,2.882.728l1,.265" fill="#fd4f31"/>
      <path id="Path_37285" data-name="Path 37285" d="M4.026,62.907l9.563-2.272c1.4-.332,2.8-.659,4.2-.993.7-.167,1.4-.325,2.1-.513.618-.167.694-.371.376-.929-.46-.806-.927-1.607-1.393-2.411l-4.1-7.056-4.1-7.057Q8.591,38.086,6.5,34.5l-3.57-6.142C2.42,27.47,1.8,26.582,1.278,25.7c-.1-.161.34-.354-.469-.439V63.61c0-.026.367-.048.49-.078l2.727-.625ZM102.138,90.32q-1.874.666-3.748,1.339l-8.533,3.059c-1.58.567-3.157,1.141-4.739,1.706q-4.833,1.725-9.669,3.443c-1.868.665-3.736,1.487-5.6,2.156-.511.184-1.016.742-1.522.742H89.76l.461-.265a12,12,0,0,0,1.618-.283,13.23,13.23,0,0,0,5.916-2.745,13.455,13.455,0,0,0,3.286-3.866,13.775,13.775,0,0,0,1.652-4.937.551.551,0,0,0-.057-.477,1.215,1.215,0,0,0-.5.127ZM100.3,61.537q-1.418-1.94-2.836-3.878-1.953-2.679-3.9-5.36c-.528-.725-1.064-1.444-1.58-2.177a.476.476,0,0,0-.575-.214l-.138.04q-3.59.873-7.182,1.742l-4.29,1.041L71.4,54.769q-4.15,1.009-8.3,2.016l-8.627,2.089q-4.245,1.03-8.487,2.064L37.78,62.931q-2.169.527-4.336,1.054a1.562,1.562,0,0,0-.668.236l.193.368q3.873,6.695,7.767,13.376,2.274,3.9,4.555,7.8c.873,1.493,1.741,2.987,2.621,4.476q1.465,2.482,2.956,4.948c.3.491.637.96.979,1.423a2.945,2.945,0,0,0,.846.774,1.459,1.459,0,0,0,1.108.185,5.682,5.682,0,0,0,.6-.18l.72-.267q3.929-1.344,7.858-2.684,3.066-1.044,6.136-2.08Q72.156,91.324,75.2,90.3l6.048-2.042q3.093-1.045,6.184-2.092,3.794-1.288,7.589-2.577,3.66-1.238,7.322-2.47a.752.752,0,0,0,.439-.235l.015-.355q0-7.592,0-15.185a1.117,1.117,0,0,0-.234-.706c-.767-1.027-1.519-2.064-2.275-3.1Zm-.42-47.691A1.936,1.936,0,0,0,97.7,13.13c-.386.1-.782.165-1.176.237q-1.935.354-3.871.7-2.833.515-5.665,1.029-2.243.4-4.488.8l-6,1.05a5.585,5.585,0,0,0-.748.165c-.354.113-.456.335-.294.668a5.144,5.144,0,0,0,.474.776q1.862,2.566,3.735,5.125,2.578,3.531,5.158,7.059Q87,33.722,89.188,36.708,90.9,39.053,92.622,41.4l.226.274,9.929-2.454.023-.515q0-10.33,0-20.662a1.184,1.184,0,0,0-.265-.79c-.835-1.054-1.655-2.121-2.481-3.182l-.183-.222Zm2.671,33.371c-1.5.361-3.009.7-4.548,1.111.163.289,4.382,5.984,4.627,6.254l.154.085.017-.347v-2.4c0-1.391,0-2.782,0-4.173a.825.825,0,0,0-.069-.523Z" fill="#fd4f31"/>
    </g>
  </g>
</svg>
