<svg xmlns="http://www.w3.org/2000/svg" xmlns:xlink="http://www.w3.org/1999/xlink" width="102" height="102" viewBox="0 0 102 102">
  <defs>
    <clipPath id="clip-path">
      <rect id="Rectangle_4465" data-name="Rectangle 4465" width="102" height="102" transform="translate(626 3568)" fill="#c31f5d"/>
    </clipPath>
  </defs>
  <g id="Mask_Group_12" data-name="Mask Group 12" transform="translate(-626 -3568)" clip-path="url(#clip-path)">
    <g id="react-original" transform="translate(624.859 3566.859)">
      <circle id="Ellipse_28" data-name="Ellipse 28" cx="9.288" cy="9.288" r="9.288" transform="translate(42.853 42.853)" fill="#61dafb"/>
      <path id="Path_37281" data-name="Path 37281" d="M87.417,36.824c-1.792-.652-3.666-1.3-5.621-1.874.489-1.955.9-3.911,1.222-5.784,1.711-10.754-.163-18.331-5.377-21.264a10.12,10.12,0,0,0-5.214-1.3c-5.7,0-12.954,4.236-20.286,11.324C44.808,10.835,37.558,6.6,31.855,6.6a10.12,10.12,0,0,0-5.214,1.3c-5.214,3.014-7.088,10.591-5.377,21.264C21.589,31.04,22,33,22.486,34.95a56.815,56.815,0,0,0-5.621,1.874C6.681,40.735,1.141,46.112,1.141,52.141S6.762,63.546,16.864,67.457c1.792.652,3.666,1.3,5.621,1.874-.489,1.955-.9,3.911-1.222,5.784-1.711,10.754.163,18.331,5.377,21.264a10.12,10.12,0,0,0,5.214,1.3c5.784,0,13.035-4.236,20.286-11.324,7.332,7.088,14.583,11.324,20.286,11.324a10.12,10.12,0,0,0,5.214-1.3c5.214-3.014,7.088-10.591,5.377-21.264-.326-1.874-.733-3.829-1.222-5.784a56.815,56.815,0,0,0,5.621-1.874c10.184-3.911,15.724-9.288,15.724-15.316S97.6,40.735,87.417,36.824ZM75.359,11.976c3.34,1.955,4.481,7.984,3.1,16.538a49.057,49.057,0,0,1-1.141,5.377,96.79,96.79,0,0,0-13.442-2.037A117.547,117.547,0,0,0,55.4,21.264c6.029-5.947,12.139-10.021,17.109-10.021a5.5,5.5,0,0,1,2.851.733ZM66.235,60.288c-1.466,2.607-3.177,5.214-4.97,7.821-3.014.244-6.029.326-9.125.326-3.177,0-6.192-.081-9.125-.326q-2.688-3.911-4.888-7.821c-1.548-2.689-3.014-5.458-4.318-8.147,1.3-2.688,2.77-5.458,4.318-8.147,1.466-2.607,3.177-5.214,4.97-7.821,3.014-.244,6.029-.326,9.125-.326,3.177,0,6.192.081,9.125.326q2.688,3.911,4.888,7.821c1.548,2.688,3.014,5.458,4.318,8.147C69.168,54.829,67.783,57.518,66.235,60.288ZM73,57.6c1.222,2.851,2.2,5.621,3.1,8.391-2.77.652-5.7,1.141-8.8,1.548.978-1.548,2.037-3.177,2.933-4.888C71.2,60.939,72.1,59.228,73,57.6ZM52.141,79.677c-1.955-2.118-3.829-4.4-5.621-6.762,1.874.081,3.748.163,5.621.163s3.748-.081,5.621-.163C55.97,75.278,54.1,77.559,52.141,79.677ZM36.987,67.457c-3.1-.407-6.029-.9-8.8-1.548.9-2.689,1.874-5.54,3.1-8.391.9,1.629,1.792,3.34,2.77,4.97C35.032,64.28,36.01,65.827,36.987,67.457Zm-5.7-20.775c-1.222-2.851-2.2-5.621-3.1-8.391,2.77-.652,5.7-1.141,8.8-1.548-.978,1.548-2.037,3.177-2.933,4.888C33.077,43.342,32.181,45.053,31.284,46.682ZM52.141,24.6c1.955,2.118,3.829,4.4,5.621,6.762-1.874-.081-3.748-.163-5.621-.163s-3.748.081-5.621.163C48.311,29,50.185,26.722,52.141,24.6ZM70.227,41.712l-2.933-4.888c3.1.407,6.029.9,8.8,1.548-.9,2.688-1.874,5.54-3.1,8.391C72.1,45.053,71.2,43.342,70.227,41.712Zm-44.4-13.2c-1.385-8.554-.244-14.583,3.1-16.538a5.5,5.5,0,0,1,2.851-.733c4.888,0,11,3.992,17.109,10.021a107.094,107.094,0,0,0-8.473,10.591,110.764,110.764,0,0,0-13.442,2.037c-.489-1.874-.815-3.666-1.141-5.377ZM5.7,52.141c0-3.829,4.644-7.9,12.791-10.917a48.847,48.847,0,0,1,5.214-1.711A118.748,118.748,0,0,0,28.6,52.222,102.66,102.66,0,0,0,23.708,64.85C12.465,61.591,5.7,56.7,5.7,52.141ZM28.922,92.305c-3.34-1.955-4.481-7.984-3.1-16.538a49.058,49.058,0,0,1,1.141-5.377,96.789,96.789,0,0,0,13.442,2.037,117.549,117.549,0,0,0,8.473,10.591c-6.029,5.947-12.139,10.021-17.109,10.021A5.5,5.5,0,0,1,28.922,92.305ZM78.455,75.767c1.385,8.554.244,14.583-3.1,16.538a5.5,5.5,0,0,1-2.851.733c-4.888,0-11-3.992-17.109-10.021a107.094,107.094,0,0,0,8.473-10.591A110.763,110.763,0,0,0,77.315,70.39C77.8,72.264,78.129,74.056,78.455,75.767Zm7.332-12.709a48.846,48.846,0,0,1-5.214,1.711,118.748,118.748,0,0,0-4.888-12.709,102.661,102.661,0,0,0,4.888-12.628c11.243,3.259,18,8.147,18,12.709C98.578,55.97,93.853,60.043,85.788,63.058Z" fill="#61dafb"/>
    </g>
  </g>
</svg>
