<svg xmlns="http://www.w3.org/2000/svg" xmlns:xlink="http://www.w3.org/1999/xlink" width="102" height="102" viewBox="0 0 102 102">
  <defs>
    <clipPath id="clip-path">
      <rect id="Rectangle_4490" data-name="Rectangle 4490" width="102" height="102" transform="translate(1057 4093)" fill="#edf9ff"/>
    </clipPath>
  </defs>
  <g id="Mask_Group_25" data-name="Mask Group 25" transform="translate(-1057 -4093)" clip-path="url(#clip-path)">
    <path id="bootstrap-plain" d="M61.772,53.532c-1.9-.627-4.646-.492-8.225-.492H39.168V71.808H54.545a27.337,27.337,0,0,0,5.062-.437,12.139,12.139,0,0,0,4.3-1.617,8.285,8.285,0,0,0,2.838-3.167,9.872,9.872,0,0,0,1.112-4.757,8.682,8.682,0,0,0-1.612-5.252,8.159,8.159,0,0,0-4.468-3.046ZM59.8,44.951a7.945,7.945,0,0,0,4.275-2.845,8.13,8.13,0,0,0,1.439-4.932,9.085,9.085,0,0,0-1.343-4.94,6.183,6.183,0,0,0-3.834-2.494c-1.662-.523-4.512-.364-8.552-.364H39.168V45.7H52.7a26.19,26.19,0,0,0,7.1-.745ZM102.816,15.2A13.566,13.566,0,0,0,89.25,1.632H14.382A13.566,13.566,0,0,0,.816,15.2V90.066a13.566,13.566,0,0,0,13.566,13.566H89.25a13.566,13.566,0,0,0,13.566-13.566ZM73.891,69.152a14.211,14.211,0,0,1-4.122,5.235,17.321,17.321,0,0,1-6.156,2.9,36.833,36.833,0,0,1-9.068,1.054H31.824v-56.3H54.2c4.3,0,7.74.5,10.335,1.634a13.226,13.226,0,0,1,6.1,5.218,13.792,13.792,0,0,1,2.2,7.4,12.725,12.725,0,0,1-1.956,6.779A13.953,13.953,0,0,1,64.976,48.2a14.687,14.687,0,0,1,7.842,5.1,13.658,13.658,0,0,1,2.742,8.513,16.409,16.409,0,0,1-1.668,7.342Z" transform="translate(1056.184 4091.368)" fill="#5b4282"/>
  </g>
</svg>
