<svg xmlns="http://www.w3.org/2000/svg" xmlns:xlink="http://www.w3.org/1999/xlink" width="102" height="102" viewBox="0 0 102 102">
  <defs>
    <clipPath id="clip-path">
      <rect id="Rectangle_4492" data-name="Rectangle 4492" width="102" height="102" transform="translate(1616 4093)" fill="#edf9ff"/>
    </clipPath>
  </defs>
  <g id="Mask_Group_27" data-name="Mask Group 27" transform="translate(-1616 -4093)" clip-path="url(#clip-path)">
    <path id="java-plain" d="M38.909,80.177C23.227,84.559,48.451,93.61,68.42,85.055A37,37,0,0,1,62.8,82.316c-8.9,1.683-13.035,1.816-21.118.892-6.671-.764-2.776-3.032-2.776-3.032Zm27.12-8.547c-11.8,2.271-18.62,2.2-27.255,1.307-6.677-.69-2.306-3.926-2.306-3.926C19.2,74.744,46.084,81.249,70.224,74.188a12.047,12.047,0,0,1-4.194-2.558Zm9.249-49.5S40.362,30.85,57.038,50.067c4.922,5.667-1.291,10.762-1.291,10.762S68.24,54.381,62.5,46.3c-5.36-7.53-9.468-11.271,12.775-24.171Zm8.17,66.306s2.884,2.378-3.177,4.216c-11.523,3.491-47.971,4.543-58.094.14-3.636-1.584,3.186-3.779,5.333-4.243a13.933,13.933,0,0,1,3.516-.4c-4.046-2.849-26.159,5.6-11.229,8.02,40.71,6.6,74.21-2.972,63.651-7.737ZM69.456,63.651a32.7,32.7,0,0,1,4.66-2.495s-7.7,1.377-15.373,2.022c-9.392.788-19.467.943-24.524.266-11.973-1.6,6.564-6,6.564-6s-7.2-.487-16.052,3.795C14.263,66.3,50.628,68.6,69.456,63.651ZM74.04,76.027a1.688,1.688,0,0,1-.382.5c25.554-6.718,16.159-23.68,3.94-19.386A3.477,3.477,0,0,0,75.963,58.4a14.47,14.47,0,0,1,2.188-.588C84.328,56.529,93.178,66.085,74.04,76.027Zm-21.6-18.771c-3.77-8.522-16.555-15.977.006-29.056C73.1,11.9,62.5,1.3,62.5,1.3,66.778,18.136,47.427,23.223,40.442,33.71,35.686,40.856,42.777,48.534,52.444,57.256ZM74.731,99.541c-15.678,2.951-35.017,2.607-46.484.714,0,0,2.348,1.945,14.419,2.722,18.366,1.174,46.577-.654,47.243-9.345,0,0-1.283,3.295-15.178,5.909Z" transform="translate(1614.704 4091.703)" fill="#ea2d2e"/>
  </g>
</svg>
