<svg xmlns="http://www.w3.org/2000/svg" xmlns:xlink="http://www.w3.org/1999/xlink" width="102" height="102" viewBox="0 0 102 102">
  <defs>
    <clipPath id="clip-path">
      <rect id="Rectangle_4487" data-name="Rectangle 4487" width="102" height="102" transform="translate(208 4093)" fill="#edf9ff"/>
    </clipPath>
  </defs>
  <g id="Mask_Group_22" data-name="Mask Group 22" transform="translate(-208 -4093)" clip-path="url(#clip-path)">
    <path id="python-plain" d="M41.118,51.679h24.3a12.333,12.333,0,0,0,12.1-12.519V15.99c0-6.595-5.528-11.549-12.132-12.65a75.575,75.575,0,0,0-12.659-.993,67.9,67.9,0,0,0-11.507.993c-10.3,1.818-12.047,5.627-12.047,12.65v9.016H53.346V28.34H19.818c-7.072,0-13.265,4.258-15.2,12.345-2.235,9.269-2.334,14.936,0,24.614,1.73,7.2,5.86,12.219,12.932,12.219h8.29V66.643C25.84,58.61,32.865,51.679,41.118,51.679Zm-1.532-32.6a4.637,4.637,0,1,1,4.567-4.622A4.592,4.592,0,0,1,39.586,19.08Zm62.339,21.606c-1.749-7.042-5.087-12.345-12.169-12.345h-8.9V39.16c0,8.377-7.33,15.019-15.43,15.019h-24.3c-6.658,0-11.945,6.106-11.945,12.775V90.127c0,6.593,5.622,10.473,12.055,12.365a40.419,40.419,0,0,0,24.215,0c6.126-1.775,12.075-5.344,12.075-12.365V80.853H53.346V77.519h36.41c7.072,0,9.708-4.814,12.169-12.22,2.54-7.623,2.431-14.836,0-24.613ZM66.954,87.035a4.637,4.637,0,1,1-4.566,4.624A4.593,4.593,0,0,1,66.954,87.035Z" transform="translate(205.654 4090.654)" fill="#ffd845"/>
  </g>
</svg>
