<svg xmlns="http://www.w3.org/2000/svg" width="206" height="206" viewBox="0 0 206 206">
  <g id="Group_11954" data-name="Group 11954" transform="translate(-1065 -3777)">
    <path id="Ellipse_277" data-name="Ellipse 277" d="M103,4A99.753,99.753,0,0,0,83.044,6.011,98.436,98.436,0,0,0,47.651,20.905,99.3,99.3,0,0,0,11.778,64.466,98.473,98.473,0,0,0,6.011,83.044a100,100,0,0,0,0,39.912,98.436,98.436,0,0,0,14.894,35.393,99.3,99.3,0,0,0,43.561,35.873,98.473,98.473,0,0,0,18.578,5.767,100,100,0,0,0,39.912,0,98.436,98.436,0,0,0,35.393-14.894,99.3,99.3,0,0,0,35.873-43.561,98.473,98.473,0,0,0,5.767-18.578,100,100,0,0,0,0-39.912,98.436,98.436,0,0,0-14.894-35.393,99.3,99.3,0,0,0-43.561-35.873,98.473,98.473,0,0,0-18.578-5.767A99.753,99.753,0,0,0,103,4m0-4A103,103,0,1,1,0,103,103,103,0,0,1,103,0Z" transform="translate(1065 3777)" fill="#c31f5d"/>
    <path id="Subtraction_1" data-name="Subtraction 1" d="M10158.657-6568.822h-38.808a2.841,2.841,0,0,1-2.617-1.77l-.008-.013a2.844,2.844,0,0,1,.592-3.1l9.568-9.4-1.125-1.411a41.9,41.9,0,0,1-4.994-43.971,41.9,41.9,0,0,1,37.395-23.662,2.857,2.857,0,0,1,2.848,2.853,2.854,2.854,0,0,1-2.851,2.851h-.008a35.851,35.851,0,0,0-19.925,6.093,35.855,35.855,0,0,0-13.2,16.119,35.845,35.845,0,0,0-2.046,20.737,35.811,35.811,0,0,0,9.8,18.386,2.864,2.864,0,0,1,0,4.021l-6.566,6.564h31.962a35.94,35.94,0,0,0,23.815-9.015,35.959,35.959,0,0,0,11.873-22.517,2.855,2.855,0,0,1,2.817-2.469,3.029,3.029,0,0,1,.371.023,2.875,2.875,0,0,1,1.9,1.1,2.868,2.868,0,0,1,.556,2.121l0,.023A41.74,41.74,0,0,1,10158.657-6568.822Zm29.106-48.514h-.028a2.833,2.833,0,0,1-2.008-.827l-.01-.013a2.786,2.786,0,0,1-.615-.884,2.8,2.8,0,0,1-.189-1.083v-.072l0-.069a2.083,2.083,0,0,1,.2-.988l.023-.049.021-.051a2.859,2.859,0,0,1,.551-.858l.466-.4.521-.261.581-.194a2.982,2.982,0,0,1,.374-.023,2.841,2.841,0,0,1,.688.082l.461.208a3.181,3.181,0,0,1,1.608,1.608l.019.039a2.076,2.076,0,0,1,.2.937v.054A2.855,2.855,0,0,1,10187.764-6617.336Zm0-14.554a2.854,2.854,0,0,1-2.851-2.851,2.855,2.855,0,0,1,2.851-2.853,6.863,6.863,0,0,0,6.854-6.846,6.859,6.859,0,0,0-5.084-6.659,6.868,6.868,0,0,0-1.77-.233,6.861,6.861,0,0,0-5.954,3.467,2.865,2.865,0,0,1-2.472,1.421,2.834,2.834,0,0,1-1.4-.371,2.866,2.866,0,0,1-1.342-1.734,2.889,2.889,0,0,1,.287-2.174,12.6,12.6,0,0,1,10.877-6.28,12.533,12.533,0,0,1,4.287.758,12.536,12.536,0,0,1,8.072,13.973A12.53,12.53,0,0,1,10187.764-6631.89Z" transform="translate(-8991.156 10492.91)" fill="#c31f5d"/>
  </g>
</svg>
