<svg xmlns="http://www.w3.org/2000/svg" width="77.886" height="79.508" viewBox="0 0 77.886 79.508">
  <g id="Time_Management" data-name="Time Management" transform="translate(-0.653)">
    <path id="Path_37103" data-name="Path 37103" d="M36.846,12A24.846,24.846,0,1,0,61.692,36.846,24.846,24.846,0,0,0,36.846,12Zm0,47.208A22.361,22.361,0,1,1,59.208,36.846,22.361,22.361,0,0,1,36.846,59.208Z" transform="translate(2.749 2.908)"/>
    <path id="Path_37104" data-name="Path 37104" d="M33.485,18.727V16.242a1.242,1.242,0,0,0-2.485,0v2.485a1.242,1.242,0,0,0,2.485,0Z" transform="translate(7.353 3.635)"/>
    <path id="Path_37105" data-name="Path 37105" d="M31,46.242v2.485a1.242,1.242,0,0,0,2.485,0V46.242a1.242,1.242,0,1,0-2.485,0Z" transform="translate(7.353 10.904)"/>
    <path id="Path_37106" data-name="Path 37106" d="M46.242,33.485h2.485a1.242,1.242,0,0,0,0-2.485H46.242a1.242,1.242,0,0,0,0,2.485Z" transform="translate(10.746 7.511)"/>
    <path id="Path_37107" data-name="Path 37107" d="M18.727,31H16.242a1.242,1.242,0,1,0,0,2.485h2.485a1.242,1.242,0,1,0,0-2.485Z" transform="translate(3.476 7.511)"/>
    <path id="Path_37108" data-name="Path 37108" d="M23.612,17.308a1.242,1.242,0,1,0,1.651.479A1.242,1.242,0,0,0,23.612,17.308Z" transform="translate(5.424 4.159)"/>
    <path id="Path_37109" data-name="Path 37109" d="M39.612,45.028a1.242,1.242,0,1,0,1.651.479A1.242,1.242,0,0,0,39.612,45.028Z" transform="translate(9.301 10.876)"/>
    <path id="Path_37110" data-name="Path 37110" d="M39.612,19.447a1.242,1.242,0,1,0-.409-1.67A1.242,1.242,0,0,0,39.612,19.447Z" transform="translate(9.301 4.157)"/>
    <path id="Path_37111" data-name="Path 37111" d="M24.855,45.028a1.242,1.242,0,1,0,.409,1.67,1.242,1.242,0,0,0-.409-1.67Z" transform="translate(5.424 10.876)"/>
    <path id="Path_37112" data-name="Path 37112" d="M46.724,25.324a1.247,1.247,0,1,0-1.7-.46A1.247,1.247,0,0,0,46.724,25.324Z" transform="translate(10.711 5.572)"/>
    <path id="Path_37113" data-name="Path 37113" d="M17.762,39.162a1.247,1.247,0,1,0,1.7.46,1.247,1.247,0,0,0-1.7-.46Z" transform="translate(3.994 9.449)"/>
    <path id="Path_37114" data-name="Path 37114" d="M45.482,41.324a1.247,1.247,0,1,0-.46-1.7,1.247,1.247,0,0,0,.46,1.7Z" transform="translate(10.711 9.449)"/>
    <path id="Path_37115" data-name="Path 37115" d="M19,23.162a1.247,1.247,0,1,0,.46,1.7,1.247,1.247,0,0,0-.46-1.7Z" transform="translate(3.994 5.572)"/>
    <path id="Path_37116" data-name="Path 37116" d="M42.908,33.423c-10.584,0-6.708.261-8.7-.894V22.242a1.242,1.242,0,1,0-2.485,0c0,13.665.311,9.119-.894,11.181h-1.59a1.242,1.242,0,1,0,0,2.485h1.59a2.373,2.373,0,0,0,.894.894v1.59a1.242,1.242,0,1,0,2.485,0V36.8c2.025-1.18-1.926-.894,8.7-.894a1.242,1.242,0,0,0,0-2.485Z" transform="translate(6.626 5.088)"/>
    <path id="Path_37117" data-name="Path 37117" d="M77.921,50.4l-5.6-3.193a33.952,33.952,0,0,0,0-14.833l5.6-3.23a1.242,1.242,0,0,0,.447-1.7l-8.7-15.057a1.242,1.242,0,0,0-1.69-.46l-5.615,3.242A33.741,33.741,0,0,0,49.534,7.715V1.242A1.242,1.242,0,0,0,48.292,0H30.9a1.242,1.242,0,0,0-1.242,1.242V7.715a33.741,33.741,0,0,0-12.833,7.454l-5.615-3.28a1.242,1.242,0,0,0-1.69.46L.823,27.405a1.242,1.242,0,0,0,.447,1.7l5.6,3.193a33.952,33.952,0,0,0,0,14.908l-5.6,3.23a1.242,1.242,0,0,0-.447,1.7L9.519,67.2a1.242,1.242,0,0,0,1.69.46l5.615-3.242a33.741,33.741,0,0,0,12.833,7.454v6.4A1.242,1.242,0,0,0,30.9,79.508H48.292a1.242,1.242,0,0,0,1.242-1.242V71.793a33.741,33.741,0,0,0,12.833-7.454l5.615,3.242a1.242,1.242,0,0,0,1.69-.46l8.7-15.057A1.242,1.242,0,0,0,77.921,50.4ZM68.169,64.848l-5.342-3.093a1.242,1.242,0,0,0-1.491.186,31.157,31.157,0,0,1-13.355,7.727,1.242,1.242,0,0,0-.932,1.143v6.212H32.142V70.811a1.242,1.242,0,0,0-.907-1.242A31.157,31.157,0,0,1,17.88,61.842a1.242,1.242,0,0,0-1.491-.186l-5.367,3.193L3.569,51.928,8.9,48.86a1.242,1.242,0,0,0,.584-1.391,31.194,31.194,0,0,1,0-15.429A1.242,1.242,0,0,0,8.9,30.648L3.569,27.579l7.454-12.92,5.342,3.093a1.242,1.242,0,0,0,1.491-.186,31.157,31.157,0,0,1,13.38-7.727A1.242,1.242,0,0,0,32.142,8.7V2.485H47.049V8.7a1.242,1.242,0,0,0,.907,1.242,31.157,31.157,0,0,1,13.355,7.727,1.242,1.242,0,0,0,1.491.186l5.367-3.193,7.454,12.92c-9.23,5.329-4.969,1.354-4.969,12.175S66.367,46.6,75.622,51.928Z"/>
  </g>
</svg>
