<svg xmlns="http://www.w3.org/2000/svg" width="206" height="206" viewBox="0 0 206 206">
  <g id="Group_11952" data-name="Group 11952" transform="translate(-237 -3777)">
    <path id="Ellipse_218" data-name="Ellipse 218" d="M103,4A99.753,99.753,0,0,0,83.044,6.011,98.436,98.436,0,0,0,47.651,20.905,99.3,99.3,0,0,0,11.778,64.466,98.473,98.473,0,0,0,6.011,83.044a100,100,0,0,0,0,39.912,98.436,98.436,0,0,0,14.894,35.393,99.3,99.3,0,0,0,43.561,35.873,98.473,98.473,0,0,0,18.578,5.767,100,100,0,0,0,39.912,0,98.436,98.436,0,0,0,35.393-14.894,99.3,99.3,0,0,0,35.873-43.561,98.473,98.473,0,0,0,5.767-18.578,100,100,0,0,0,0-39.912,98.436,98.436,0,0,0-14.894-35.393,99.3,99.3,0,0,0-43.561-35.873,98.473,98.473,0,0,0-18.578-5.767A99.753,99.753,0,0,0,103,4m0-4A103,103,0,1,1,0,103,103,103,0,0,1,103,0Z" transform="translate(237 3777)" fill="#c31f5d"/>
    <g id="Group_11950" data-name="Group 11950" transform="translate(276.779 3621.926)">
      <path id="Path_38508" data-name="Path 38508" d="M367.79,243.551c0,.329-.014.656-.037.983-.011.162-.028.323-.045.484-.058.547.071-.451-.014.09a12.885,12.885,0,0,1-.492,2c-.048.149-.1.3-.156.443-.032.087-.233.58-.025.087-.121.286-.257.565-.4.841a13,13,0,0,1-1.056,1.7c-.307.424.274-.339-.053.07-.1.12-.2.236-.3.353-.2.233-.411.455-.627.673s-.443.425-.673.627c-.115.1-.234.2-.353.3q-.266.211.054-.039-.123.092-.248.182a12.982,12.982,0,0,1-1.576.965c-.275.145-.557.274-.841.4.49-.214,0-.009-.086.025-.2.074-.393.14-.592.205a12.92,12.92,0,0,1-1.848.443c-.54.091.456-.051-.09.014-.161.019-.323.032-.484.045-.382.031-.766.038-1.149.036-.327,0-.654-.022-.98-.049-.161-.013-.322-.032-.483-.051.548.065.009-.006-.088-.022a12.882,12.882,0,0,1-1.988-.515c-.148-.05-.294-.106-.44-.162-.5-.189.4.181-.083-.032-.284-.124-.561-.264-.835-.408a12.991,12.991,0,0,1-1.687-1.075c.423.314.007,0-.065-.058-.119-.1-.234-.2-.349-.3-.23-.2-.45-.417-.665-.635s-.42-.448-.619-.68c-.1-.117-.2-.236-.291-.356.342.429-.076-.115-.136-.2a12.993,12.993,0,0,1-.947-1.589c-.07-.138-.136-.279-.2-.419-.04-.085-.24-.574-.038-.08-.138-.338-.256-.684-.365-1.033a12.925,12.925,0,0,1-.421-1.857c.086.546,0,0-.006-.092-.017-.162-.028-.324-.039-.486-.026-.383-.029-.767-.021-1.151.006-.326.03-.652.061-.977.009-.1.086-.641.006-.092.023-.159.052-.316.08-.473a12.886,12.886,0,0,1,.539-1.978c.052-.147.109-.293.167-.438-.2.5,0,.007.038-.08.127-.282.27-.558.418-.83s.308-.535.474-.795c.083-.13.17-.257.257-.383.058-.085.474-.634.136-.2a13.051,13.051,0,0,1,1.238-1.36c.221-.213.452-.414.688-.611.071-.059.485-.377.065-.058.163-.124.331-.241.5-.358a12.98,12.98,0,0,1,1.6-.929c.139-.069.281-.133.422-.2.484-.218-.411.164.083-.032.34-.134.688-.248,1.038-.353.3-.091.611-.165.92-.233.156-.034.313-.063.47-.092.1-.017.636-.094.088-.022a13.144,13.144,0,0,1,2.122-.092c.326.01.65.038.974.073.547.058-.451-.071.09.014.158.025.315.055.471.086a12.9,12.9,0,0,1,1.969.562c.087.032.58.233.086.025.143.06.284.126.425.192.281.131.554.277.824.427s.531.314.788.483c.129.084.254.173.38.262.075.053.491.371.074.047a13.069,13.069,0,0,1,1.36,1.238c.213.221.414.452.611.688.059.071.377.485.058.065.093.122.182.248.27.374a13,13,0,0,1,.947,1.588c.071.138.136.279.2.419.04.085.24.574.038.08.118.29.221.586.318.883a12.917,12.917,0,0,1,.443,1.848c.091.54-.051-.456.014.09.019.161.032.323.045.484.027.327.035.655.037.983a2.059,2.059,0,1,0,4.119,0,15.039,15.039,0,1,0-29.292,4.8,14.965,14.965,0,0,0,4.765,6.854,15.509,15.509,0,0,0,8.181,3.321,15.03,15.03,0,0,0,16.346-14.974,2.059,2.059,0,1,0-4.118,0Z" transform="translate(-293.646)" fill="#c31f5d"/>
      <path id="Path_38509" data-name="Path 38509" d="M293.7,377.894q.433.276.849.574c.055.039.507.386.127.09.134.105.265.214.4.324a16.079,16.079,0,0,1,1.589,1.54c.229.252.446.516.659.782-.3-.376.049.073.089.128.1.138.2.279.293.42a15.98,15.98,0,0,1,1.115,1.928c.076.155.148.311.219.468.239.525-.155-.391.062.145.13.322.244.651.353.981a15.877,15.877,0,0,1,.544,2.22c.012.07.1.659.03.159.023.178.04.357.057.536.035.361.051.724.061,1.087.005.187,0,.375,0,.562v10.5c0,.133,0,.2-.011.332-.027.548.086-.438-.01.095-.028.157-.071.31-.114.463-.026.091-.216.586-.009.1a5.008,5.008,0,0,1-.453.813c-.288.434.281-.325-.058.07a5.076,5.076,0,0,1-.436.436c-.384.35.355-.243-.07.058-.126.09-.261.167-.395.245s-.277.143-.418.208c.476-.219,0-.021-.1.009-.152.048-.308.081-.463.114-.53.113.452-.034-.095.01-.113.009-.229.011-.342.011h-36.7c-.145,0-.186,0-.33-.011-.548-.027.438.086-.095-.01-.157-.028-.31-.071-.463-.114q-.151-.045-.3-.1.373.168.06.025a5.015,5.015,0,0,1-.8-.478c.42.3.017,0-.057-.072-.114-.1-.218-.218-.322-.332-.35-.384.243.355-.058-.07-.09-.126-.167-.261-.245-.395s-.143-.277-.208-.418c.227.494-.022-.141-.052-.25-.043-.154-.072-.312-.1-.469.1.532.016.005.011-.1,0-.069,0-.138,0-.207V390.2c0-.552,0-1.1.037-1.655.011-.18.028-.36.046-.54.007-.07.086-.665.015-.165.05-.352.117-.7.191-1.049a15.869,15.869,0,0,1,.64-2.184c.06-.163.125-.324.19-.485-.182.451.041-.08.069-.142.143-.314.3-.62.464-.924a15.982,15.982,0,0,1,1.2-1.877c.337-.461-.26.322.1-.124.107-.133.217-.263.328-.393.222-.26.455-.508.693-.753s.487-.478.739-.708c.126-.115.256-.225.386-.336.065-.056.639-.506.251-.21.317-.242.647-.467.982-.685a2.06,2.06,0,1,0-2.079-3.556,18.276,18.276,0,0,0-8.364,15.252v9.107a10.38,10.38,0,0,0,.841,4.908,7.115,7.115,0,0,0,6.3,3.732H297.16a7.17,7.17,0,0,0,6.664-4.649,11.877,11.877,0,0,0,.438-4.348v-8.777a18.024,18.024,0,0,0-8.488-15.3,2.06,2.06,0,0,0-2.079,3.556Zm28.425-3.071c0,.326-.021.65-.056.974.057-.547-.005-.016-.023.084-.029.156-.066.31-.1.463a8.367,8.367,0,0,1-.28.9c-.181.5.185-.4-.031.08-.084.188-.181.37-.279.55a8.461,8.461,0,0,1-.489.78c-.3.429.278-.336-.049.07-.1.119-.2.233-.3.346a8.47,8.47,0,0,1-.653.642c-.114.1-.233.2-.352.294.427-.344-.116.066-.2.125a8.463,8.463,0,0,1-.8.461c-.137.071-.278.135-.419.2.487-.219.006-.012-.086.021a8.39,8.39,0,0,1-.9.263c-.154.037-.311.066-.466.094q-.351.055.072-.005-.16.018-.321.031a8.6,8.6,0,0,1-.981.019c-.162,0-.324-.019-.486-.032-.546-.047.449.076-.088-.012a8.389,8.389,0,0,1-.923-.214c-.151-.042-.3-.093-.446-.144q-.147-.052-.291-.109.379.165.065.025a8.448,8.448,0,0,1-.816-.433c-.132-.078-.26-.163-.388-.248-.078-.052-.495-.364-.077-.04a8.5,8.5,0,0,1-1.4-1.4c.33.41.014,0-.04-.077-.087-.126-.168-.257-.248-.388a8.407,8.407,0,0,1-.433-.816c-.225-.477.159.413-.031-.08-.056-.146-.1-.294-.152-.443a8.4,8.4,0,0,1-.259-1.073c-.1-.535.046.457-.012-.088-.017-.162-.025-.324-.033-.486a8.6,8.6,0,0,1,.019-.981c.007-.1.079-.641,0-.092.023-.158.054-.314.086-.47a8.4,8.4,0,0,1,.3-1.058c.031-.09.232-.578.021-.086.061-.142.13-.281.2-.419a8.433,8.433,0,0,1,.461-.8c.083-.129.172-.253.262-.378-.306.426-.005.012.057-.063a8.492,8.492,0,0,1,.742-.769c.112-.1.229-.2.347-.3q.265-.212-.054.041.123-.091.25-.177a8.468,8.468,0,0,1,.926-.546c.137-.071.278-.135.419-.2-.507.228.13-.036.233-.072a8.417,8.417,0,0,1,1.222-.307c.535-.1-.457.046.088-.012.216-.023.433-.031.65-.037a8.558,8.558,0,0,1,1.139.054c-.547-.057-.016,0,.085.023.207.038.412.089.616.143s.4.119.6.186q.147.052.291.109-.379-.165-.065-.025a8.443,8.443,0,0,1,.947.513c.13.08.257.168.383.255q.274.2-.049-.047.12.095.237.194a8.5,8.5,0,0,1,.769.742c.139.149.268.307.4.466-.344-.427.066.116.125.2a8.491,8.491,0,0,1,.53.937c.043.086.243.57.042.075.078.193.144.39.208.588a8.39,8.39,0,0,1,.259,1.073q.055.351-.005-.072.018.16.031.322c.019.217.023.435.025.652a2.059,2.059,0,1,0,4.119,0,10.6,10.6,0,0,0-3.584-7.9,10.766,10.766,0,0,0-8.768-2.441,10.5,10.5,0,0,0-8.168,13.56,10.493,10.493,0,0,0,11.848,7.121c5-.718,8.626-5.426,8.673-10.341a2.059,2.059,0,0,0-4.119,0Z" transform="translate(-215.604 -119.821)" fill="#c31f5d"/>
      <path id="Path_38510" data-name="Path 38510" d="M109.443,384.9c.143.092.284.186.424.282.058.04.5.385.125.085.266.21.516.438.76.673s.471.486.691.743c.046.054.388.5.1.115.136.181.261.369.385.559.186.285.351.584.509.885.079.152.151.307.222.462-.2-.444.027.075.054.144a10.305,10.305,0,0,1,.313.991c.046.169.083.34.12.511.02.091.135.837.069.324a36.048,36.048,0,0,1,.075,4.565V398.9q0,.163-.016.324.062-.425-.007-.079c-.023.1-.211.577,0,.093a3.245,3.245,0,0,1-.223.4c-.267.432.286-.314-.056.06-.069.076-.458.391-.042.077a3.292,3.292,0,0,1-.39.241c-.448.248.411-.135-.08.026-.1.034-.613.116-.072.049a2.972,2.972,0,0,1-.328.016H93.758a2.059,2.059,0,0,0,0,4.119H111.03a6.447,6.447,0,0,0,4.114-.986,5.42,5.42,0,0,0,2.261-4.352v-6.61a12.507,12.507,0,0,0-5.884-10.933,2.06,2.06,0,0,0-2.079,3.556ZM32.719,374.823c0,.326-.021.65-.056.974.058-.547,0-.016-.023.084-.028.156-.066.31-.1.463a8.368,8.368,0,0,1-.28.9c-.181.5.185-.4-.031.08-.084.188-.181.37-.279.55a8.46,8.46,0,0,1-.489.78c-.3.429.278-.336-.048.07-.1.119-.2.233-.3.346a8.472,8.472,0,0,1-.653.642c-.114.1-.233.2-.352.294.427-.344-.116.066-.2.125a8.466,8.466,0,0,1-.8.461c-.137.071-.278.135-.419.2.486-.219.006-.012-.086.021a8.38,8.38,0,0,1-.9.263c-.154.037-.31.066-.466.094q-.351.055.072-.005-.16.018-.321.031a8.6,8.6,0,0,1-.981.019c-.162,0-.324-.019-.486-.032-.546-.047.449.076-.088-.012a8.385,8.385,0,0,1-.923-.214c-.151-.042-.3-.093-.446-.144q-.147-.052-.291-.109.379.165.065.025a8.436,8.436,0,0,1-.816-.433c-.132-.078-.26-.163-.387-.248-.078-.052-.495-.364-.077-.04a8.508,8.508,0,0,1-1.4-1.4c.33.41.014,0-.04-.077-.087-.126-.168-.257-.248-.388a8.4,8.4,0,0,1-.433-.816c-.225-.477.159.413-.031-.08-.056-.146-.1-.294-.152-.443a8.416,8.416,0,0,1-.259-1.073c-.1-.535.046.457-.012-.088-.017-.162-.025-.324-.032-.486a8.58,8.58,0,0,1,.019-.981c.007-.1.079-.641,0-.092.023-.158.054-.314.086-.47a8.393,8.393,0,0,1,.3-1.058c.031-.09.232-.578.021-.086.061-.142.13-.281.2-.419a8.482,8.482,0,0,1,.461-.8c.083-.129.172-.253.262-.378-.306.426-.005.012.057-.063a8.49,8.49,0,0,1,.742-.769c.112-.1.229-.2.347-.3q.265-.212-.054.041.124-.091.25-.177a8.469,8.469,0,0,1,.926-.546c.137-.071.278-.135.419-.2-.507.228.13-.036.233-.072a8.412,8.412,0,0,1,1.222-.307c.535-.1-.457.046.088-.012.216-.023.433-.031.65-.037a8.559,8.559,0,0,1,1.139.054c-.547-.057-.016,0,.084.023.207.038.412.089.616.143s.4.119.6.186q.147.052.291.109-.379-.165-.065-.025a8.41,8.41,0,0,1,.947.513c.131.08.257.168.383.255q.274.2-.049-.047.12.095.236.194a8.505,8.505,0,0,1,.769.742c.139.149.268.307.4.466-.344-.427.066.116.125.2a8.469,8.469,0,0,1,.53.937c.043.086.243.57.042.075.078.193.144.39.208.588a8.414,8.414,0,0,1,.259,1.073q.055.351-.005-.072.018.16.031.322c.018.217.022.435.024.652a2.059,2.059,0,1,0,4.119,0,10.6,10.6,0,0,0-3.584-7.9,10.766,10.766,0,0,0-8.768-2.441,10.5,10.5,0,0,0-8.168,13.56,10.493,10.493,0,0,0,11.848,7.121c5-.718,8.626-5.426,8.673-10.341a2.059,2.059,0,0,0-4.119,0Zm-.028,25.284H14.45c-.172,0-.676-.076-.171.011a3.227,3.227,0,0,1-.452-.124c.478.157.044.009-.066-.052s-.474-.362-.078-.033c-.091-.076-.515-.575-.189-.144a3.278,3.278,0,0,1-.241-.39c-.248-.448.135.411-.026-.08-.034-.1-.116-.613-.049-.072a3.163,3.163,0,0,1-.016-.327v-6.964c0-.364.022-.726.056-1.088.057-.594-.072.424.025-.161.029-.175.067-.348.1-.521a10.349,10.349,0,0,1,.285-1.011c.054-.165.117-.327.179-.489-.177.459.1-.215.142-.3.15-.309.322-.606.5-.9.089-.146.186-.287.282-.428.038-.056.382-.509.086-.131a10.484,10.484,0,0,1,1.553-1.574c.436-.364-.335.242.125-.093.138-.1.281-.194.424-.288a2.06,2.06,0,1,0-2.079-3.556,12.709,12.709,0,0,0-5.47,7.671,23.135,23.135,0,0,0-.333,5.362v4.446a5.4,5.4,0,0,0,5.39,5.351H32.691a2.059,2.059,0,0,0,0-4.119Z" transform="translate(0 -119.821)" fill="#c31f5d"/>
    </g>
  </g>
</svg>
