<svg id="User_Experience" data-name="User Experience" xmlns="http://www.w3.org/2000/svg" width="76.708" height="76.708" viewBox="0 0 76.708 76.708">
  <path id="Path_37062" data-name="Path 37062" d="M29.435,4.217a1.217,1.217,0,1,0-1.217,1.217A1.217,1.217,0,0,0,29.435,4.217Z" transform="translate(5.345 0.652)"/>
  <path id="Path_37063" data-name="Path 37063" d="M37.435,4.217a1.217,1.217,0,1,0-1.217,1.217A1.217,1.217,0,0,0,37.435,4.217Z" transform="translate(6.929 0.652)"/>
  <path id="Path_37064" data-name="Path 37064" d="M75.51,14.383H62.325V5.993A5.993,5.993,0,0,0,56.333,0H20.376a5.993,5.993,0,0,0-5.993,5.993v8.39H4.794a1.2,1.2,0,0,0-1.2,1.2V37.156a1.2,1.2,0,0,0,1.2,1.2h9.589v9.589H1.2a1.2,1.2,0,0,0-1.2,1.2V63.524a1.2,1.2,0,0,0,1.2,1.2H14.383v5.993a5.993,5.993,0,0,0,5.993,5.993H56.333a5.993,5.993,0,0,0,5.993-5.993V65.43c12.789-3.656,12.681-21.766,0-25.362V33.56H75.51a1.2,1.2,0,0,0,1.2-1.2V15.581A1.2,1.2,0,0,0,75.51,14.383ZM16.78,5.993a3.6,3.6,0,0,1,3.6-3.6H56.333a3.6,3.6,0,0,1,3.6,3.6v8.39h-2.4V5.993a1.2,1.2,0,0,0-1.2-1.2h-8.39a1.2,1.2,0,0,0-1.2,1.2,1.2,1.2,0,0,1-1.2,1.2H31.163a1.2,1.2,0,0,1-1.2-1.2,1.2,1.2,0,0,0-1.2-1.2h-8.39a1.2,1.2,0,0,0-1.2,1.2v8.39h-2.4Zm25.17,8.39a1.2,1.2,0,0,0-1.2,1.2v16.78a1.2,1.2,0,0,0,1.2,1.2H55.134v6.508C42.5,43.664,42.369,61.51,54.87,65.346c.372.108.264-.443.264,4.171H21.574V64.723H37.156a1.2,1.2,0,0,0,1.2-1.2V49.141a1.2,1.2,0,0,0-1.2-1.2H21.574V38.354h9.589a1.2,1.2,0,0,0,1.2-1.2V15.581a1.2,1.2,0,0,0-1.2-1.2H21.574V7.191h6.2a3.6,3.6,0,0,0,3.392,2.4H45.546a3.6,3.6,0,0,0,3.392-2.4h6.2v7.191ZM61.894,50.556a3.164,3.164,0,0,1-6.328,0V49.465a3.164,3.164,0,0,1,6.328,0Zm2.829,9.912.324.959a10.7,10.7,0,0,1-12.717,0l.336-.971a6.364,6.364,0,0,1,12.058.012ZM5.993,16.78H29.964V35.957H5.993ZM16.78,38.354h2.4v9.589h-2.4ZM2.4,50.34h33.56V62.325H2.4ZM56.333,74.311H20.376a3.6,3.6,0,0,1-3.6-3.6V64.723h2.4v5.993a1.2,1.2,0,0,0,1.2,1.2H56.333a1.2,1.2,0,0,0,1.2-1.2V65.921a11.446,11.446,0,0,0,2.4,0v4.794a3.6,3.6,0,0,1-3.6,3.6Zm10.679-14.67a8.666,8.666,0,0,0-4.471-5.058,6.1,6.1,0,0,0,1.75-5.118,5.561,5.561,0,0,0-11.123,0c0,1.75,0,3.428,1.75,5.118a8.63,8.63,0,0,0-4.471,5.058,10.787,10.787,0,1,1,16.564,0ZM59.928,39.613a11.447,11.447,0,0,0-2.4,0V33.56h2.4Zm14.383-8.39H43.148V16.78H74.311Z"/>
  <path id="Path_37065" data-name="Path 37065" d="M25.7,48H6.217a1.217,1.217,0,1,0,0,2.435H25.7A1.217,1.217,0,1,0,25.7,48Z" transform="translate(1.087 9.502)"/>
  <path id="Path_37066" data-name="Path 37066" d="M6.217,46.435H30.565a1.217,1.217,0,1,0,0-2.435H6.217a1.217,1.217,0,1,0,0,2.435Z" transform="translate(1.087 8.71)"/>
  <path id="Path_37067" data-name="Path 37067" d="M14.435,28.522v-7.3a1.217,1.217,0,1,0-2.435,0v7.3a1.217,1.217,0,1,0,2.435,0Z" transform="translate(2.376 3.918)"/>
  <path id="Path_37068" data-name="Path 37068" d="M8,25.217v2.435a1.217,1.217,0,0,0,2.435,0V25.217a1.217,1.217,0,0,0-2.435,0Z" transform="translate(1.739 4.735)"/>
  <path id="Path_37069" data-name="Path 37069" d="M18.435,28.3V22.217a1.217,1.217,0,1,0-2.435,0V28.3a1.217,1.217,0,1,0,2.435,0Z" transform="translate(3.167 4.121)"/>
  <path id="Path_37070" data-name="Path 37070" d="M22.435,29.391V17.217a1.217,1.217,0,1,0-2.435,0V29.391a1.217,1.217,0,1,0,2.435,0Z" transform="translate(3.959 3.108)"/>
  <path id="Path_37071" data-name="Path 37071" d="M43.007,16.354l-3.652,3.652a1.217,1.217,0,0,0,0,1.729l3.652,3.652a1.222,1.222,0,1,0,1.729-1.729l-2.8-2.788,2.8-2.788a1.222,1.222,0,1,0-1.729-1.729Z" transform="translate(7.681 3.133)"/>
  <path id="Path_37072" data-name="Path 37072" d="M56.083,25.387l3.652-3.652a1.217,1.217,0,0,0,0-1.729l-3.652-3.652a1.222,1.222,0,0,0-1.729,1.729l2.8,2.788-2.8,2.788a1.222,1.222,0,0,0,1.729,1.729Z" transform="translate(10.533 3.133)"/>
  <path id="Path_37073" data-name="Path 37073" d="M46.206,23.835a1.217,1.217,0,0,0,1.01,1.887c.889,0,.56.146,5.88-7.852a1.217,1.217,0,0,0-2.021-1.339Z" transform="translate(9.046 3.15)"/>
</svg>
