<svg xmlns="http://www.w3.org/2000/svg" xmlns:xlink="http://www.w3.org/1999/xlink" width="94" height="94" viewBox="0 0 94 94">
  <defs>
    <clipPath id="clip-path">
      <rect id="Rectangle_4537" data-name="Rectangle 4537" width="94" height="94" transform="translate(184 4364)" fill="#c31f5d"/>
    </clipPath>
  </defs>
  <g id="Mask_Group_35" data-name="Mask Group 35" transform="translate(-184 -4364)" clip-path="url(#clip-path)">
    <g id="clipboard" transform="translate(184 4364)">
      <g id="Group_11496" data-name="Group 11496">
        <g id="Group_11495" data-name="Group 11495">
          <g id="Group_11488" data-name="Group 11488">
            <g id="Group_11486" data-name="Group 11486">
              <path id="Path_37433" data-name="Path 37433" d="M57.576,31.39H42.623a1.377,1.377,0,0,1,0-2.754H57.576a1.377,1.377,0,0,1,0,2.754Z" fill="#c31f5d"/>
            </g>
            <g id="Group_11487" data-name="Group 11487">
              <path id="Path_37434" data-name="Path 37434" d="M72.529,24.322H42.623a1.377,1.377,0,0,1,0-2.754H72.529a1.377,1.377,0,0,1,0,2.754Z" fill="#c31f5d"/>
            </g>
          </g>
          <g id="Group_11491" data-name="Group 11491">
            <g id="Group_11489" data-name="Group 11489">
              <path id="Path_37435" data-name="Path 37435" d="M57.576,54.465H42.623a1.377,1.377,0,0,1,0-2.754H57.576a1.377,1.377,0,0,1,0,2.754Z" fill="#c31f5d"/>
            </g>
            <g id="Group_11490" data-name="Group 11490">
              <path id="Path_37436" data-name="Path 37436" d="M72.529,47.4H42.623a1.377,1.377,0,0,1,0-2.754H72.529a1.377,1.377,0,0,1,0,2.754Z" fill="#c31f5d"/>
            </g>
          </g>
          <g id="Group_11494" data-name="Group 11494">
            <g id="Group_11492" data-name="Group 11492">
              <path id="Path_37437" data-name="Path 37437" d="M57.576,77.541H42.623a1.377,1.377,0,0,1,0-2.754H57.576a1.377,1.377,0,0,1,0,2.754Z" fill="#c31f5d"/>
            </g>
            <g id="Group_11493" data-name="Group 11493">
              <path id="Path_37438" data-name="Path 37438" d="M72.529,70.473H42.623a1.377,1.377,0,0,1,0-2.754H72.529a1.377,1.377,0,0,1,0,2.754Z" fill="#c31f5d"/>
            </g>
          </g>
        </g>
      </g>
      <g id="Group_11497" data-name="Group 11497">
        <path id="Path_37439" data-name="Path 37439" d="M58.906,12.971H35.094a4.109,4.109,0,0,1-4.1-4.1V4.1a4.11,4.11,0,0,1,4.1-4.1H58.906a4.109,4.109,0,0,1,4.1,4.1V8.866a4.109,4.109,0,0,1-4.1,4.1ZM35.094,2.754A1.352,1.352,0,0,0,33.743,4.1V8.866a1.352,1.352,0,0,0,1.351,1.351H58.906a1.352,1.352,0,0,0,1.351-1.351V4.1a1.352,1.352,0,0,0-1.351-1.351Z" fill="#c31f5d"/>
      </g>
      <g id="Group_11501" data-name="Group 11501">
        <g id="Group_11498" data-name="Group 11498">
          <path id="Path_37440" data-name="Path 37440" d="M29.911,33.236h-6.12a3.7,3.7,0,0,1-3.7-3.7v-6.12a3.7,3.7,0,0,1,3.7-3.7h6.12a3.7,3.7,0,0,1,3.7,3.7v6.12a3.7,3.7,0,0,1-3.7,3.7Zm-6.12-10.759a.944.944,0,0,0-.943.943v6.12a.944.944,0,0,0,.943.943h6.12a.944.944,0,0,0,.943-.943v-6.12a.944.944,0,0,0-.943-.943Z" fill="#c31f5d"/>
        </g>
        <g id="Group_11499" data-name="Group 11499">
          <path id="Path_37441" data-name="Path 37441" d="M29.911,56.311h-6.12a3.7,3.7,0,0,1-3.7-3.7v-6.12a3.7,3.7,0,0,1,3.7-3.7h6.12a3.7,3.7,0,0,1,3.7,3.7v6.12a3.7,3.7,0,0,1-3.7,3.7Zm-6.12-10.76a.944.944,0,0,0-.943.943v6.12a.944.944,0,0,0,.943.943h6.12a.944.944,0,0,0,.943-.943v-6.12a.944.944,0,0,0-.943-.943Z" fill="#c31f5d"/>
        </g>
        <g id="Group_11500" data-name="Group 11500">
          <path id="Path_37442" data-name="Path 37442" d="M29.911,79.386h-6.12a3.7,3.7,0,0,1-3.7-3.7V69.57a3.7,3.7,0,0,1,3.7-3.7h6.12a3.7,3.7,0,0,1,3.7,3.7v6.12a3.7,3.7,0,0,1-3.7,3.7Zm-6.12-10.76a.944.944,0,0,0-.943.943v6.12a.944.944,0,0,0,.943.943h6.12a.944.944,0,0,0,.943-.943V69.57a.944.944,0,0,0-.943-.943Z" fill="#c31f5d"/>
        </g>
      </g>
      <g id="Group_11502" data-name="Group 11502">
        <path id="Path_37443" data-name="Path 37443" d="M76.293,94H17.707a5.972,5.972,0,0,1-5.965-5.965V11.074a5.972,5.972,0,0,1,5.965-5.965h8.252a1.377,1.377,0,0,1,0,2.754H17.707A3.215,3.215,0,0,0,14.5,11.074V88.035a3.215,3.215,0,0,0,3.211,3.211H76.293A3.215,3.215,0,0,0,79.5,88.035V11.074a3.215,3.215,0,0,0-3.211-3.211H68.041a1.377,1.377,0,0,1,0-2.754h8.252a5.972,5.972,0,0,1,5.965,5.965V88.035A5.972,5.972,0,0,1,76.293,94Z" fill="#c31f5d"/>
      </g>
    </g>
  </g>
</svg>
