<svg xmlns="http://www.w3.org/2000/svg" xmlns:xlink="http://www.w3.org/1999/xlink" width="94" height="94" viewBox="0 0 94 94">
  <defs>
    <clipPath id="clip-path">
      <rect id="Rectangle_4541" data-name="Rectangle 4541" width="94" height="94" transform="translate(747 4724)" fill="#c31f5d"/>
    </clipPath>
  </defs>
  <g id="Mask_Group_39" data-name="Mask Group 39" transform="translate(-747 -4724)" clip-path="url(#clip-path)">
    <g id="rocket" transform="translate(747 4724)">
      <g id="Group_11504" data-name="Group 11504">
        <g id="Group_11503" data-name="Group 11503">
          <path id="Path_37456" data-name="Path 37456" d="M92.841,1.366A3.93,3.93,0,0,0,89.523.241L83.054,1.1A56.659,56.659,0,0,0,50.6,17.115l-3.716,3.716A30.2,30.2,0,0,0,22.2,29.425L11.742,39.888a3.956,3.956,0,0,0,1.912,6.654l8.216,1.887a8.014,8.014,0,0,0,.516,3.737L18.614,54.2a3.957,3.957,0,0,0-.921,6.282l4.529,4.529a1.377,1.377,0,0,0,1.948-1.947L19.64,58.532a1.2,1.2,0,0,1,.279-1.91l3.914-2.107c.106.119,15.74,15.751,15.859,15.857l-2.109,3.917a1.2,1.2,0,0,1-1.906.279l-7.408-7.408a1.377,1.377,0,1,0-1.947,1.947l7.408,7.408a3.914,3.914,0,0,0,2.783,1.159,4.051,4.051,0,0,0,.587-.043,3.919,3.919,0,0,0,2.908-2.038l2.036-3.78a7.991,7.991,0,0,0,2.934.56q.4,0,.8-.04l1.887,8.218a3.907,3.907,0,0,0,2.764,2.917,4.037,4.037,0,0,0,1.116.159,3.9,3.9,0,0,0,2.776-1.164L64.78,72a30.184,30.184,0,0,0,8.594-24.679l3.255-3.255a1.377,1.377,0,0,0-1.947-1.947L48.7,68.1a5.272,5.272,0,0,1-6.507.724,5.212,5.212,0,0,1-.905-.724S25.585,52.333,25.381,52.007a5.268,5.268,0,0,1,.727-6.5L35.3,36.311a1.377,1.377,0,0,0-1.947-1.947l-9.192,9.192A7.889,7.889,0,0,0,22.6,45.771L14.27,43.858a1.2,1.2,0,0,1-.581-2.022L24.15,31.372a27.44,27.44,0,0,1,20.16-7.967L36.665,31.05A1.377,1.377,0,1,0,38.613,33L52.549,19.062A53.886,53.886,0,0,1,83.415,3.827l6.469-.856a1.2,1.2,0,0,1,1.35,1.35l-.856,6.469a53.54,53.54,0,0,1-11.81,27.1,1.377,1.377,0,1,0,2.123,1.754A56.292,56.292,0,0,0,93.109,11.152l.856-6.469A3.927,3.927,0,0,0,92.841,1.366ZM50.65,70.045,70.8,49.895a27.431,27.431,0,0,1-7.969,20.16L52.371,80.518a1.2,1.2,0,0,1-2.024-.581L48.433,71.6A7.893,7.893,0,0,0,50.65,70.045Z" fill="#c31f5d"/>
        </g>
      </g>
      <g id="Group_11506" data-name="Group 11506">
        <g id="Group_11505" data-name="Group 11505">
          <path id="Path_37457" data-name="Path 37457" d="M77.377,16.829a8.951,8.951,0,1,0,0,12.665h0A8.966,8.966,0,0,0,77.377,16.829ZM75.429,27.547a6.2,6.2,0,1,1,0-8.77A6.209,6.209,0,0,1,75.429,27.547Z" fill="#c31f5d"/>
        </g>
      </g>
      <g id="Group_11508" data-name="Group 11508">
        <g id="Group_11507" data-name="Group 11507">
          <path id="Path_37458" data-name="Path 37458" d="M24.753,69.469a1.377,1.377,0,0,0-1.947,0L4.918,87.356A1.377,1.377,0,0,0,6.865,89.3L24.753,71.416A1.377,1.377,0,0,0,24.753,69.469Z" fill="#c31f5d"/>
        </g>
      </g>
      <g id="Group_11510" data-name="Group 11510">
        <g id="Group_11509" data-name="Group 11509">
          <path id="Path_37459" data-name="Path 37459" d="M20.089,65.1a1.377,1.377,0,0,0-1.947,0L.4,82.842a1.377,1.377,0,0,0,1.948,1.947L20.09,67.051A1.377,1.377,0,0,0,20.089,65.1Z" fill="#c31f5d"/>
        </g>
      </g>
      <g id="Group_11512" data-name="Group 11512">
        <g id="Group_11511" data-name="Group 11511">
          <path id="Path_37460" data-name="Path 37460" d="M29.252,73.967a1.378,1.378,0,0,0-1.948,0L9.828,91.444a1.377,1.377,0,0,0,1.948,1.947L29.252,75.915A1.377,1.377,0,0,0,29.252,73.967Z" fill="#c31f5d"/>
        </g>
      </g>
      <g id="Group_11514" data-name="Group 11514">
        <g id="Group_11513" data-name="Group 11513">
          <path id="Path_37461" data-name="Path 37461" d="M43.157,60.269l-9.221-9.221A1.377,1.377,0,0,0,31.989,53l9.221,9.221a1.377,1.377,0,0,0,1.948-1.947Z" fill="#c31f5d"/>
        </g>
      </g>
      <g id="Group_11516" data-name="Group 11516">
        <g id="Group_11515" data-name="Group 11515">
          <path id="Path_37462" data-name="Path 37462" d="M39.32,50.809l-2.572-2.572A1.377,1.377,0,0,0,34.8,50.184l2.572,2.572a1.377,1.377,0,1,0,1.947-1.947Z" fill="#c31f5d"/>
        </g>
      </g>
    </g>
  </g>
</svg>
