<svg xmlns="http://www.w3.org/2000/svg" xmlns:xlink="http://www.w3.org/1999/xlink" width="94" height="94" viewBox="0 0 94 94">
  <defs>
    <clipPath id="clip-path">
      <rect id="Rectangle_4540" data-name="Rectangle 4540" width="94" height="94" transform="translate(1309 4724)" fill="#c31f5d"/>
    </clipPath>
  </defs>
  <g id="Mask_Group_40" data-name="Mask Group 40" transform="translate(-1309 -4724)" clip-path="url(#clip-path)">
    <g id="support-setting-call-headphone-help" transform="translate(1306.115 4720.867)">
      <path id="Path_37463" data-name="Path 37463" d="M95.8,70.343a6.278,6.278,0,0,0-8.554-2.3l-15.275,8.82a6.238,6.238,0,0,0-3.541-2.554L45.057,68.056a10.9,10.9,0,0,0-5.5-.047l-8.225,2.052V67.367A1.567,1.567,0,0,0,29.767,65.8H17.233a1.567,1.567,0,0,0-1.567,1.567v1.567H4.7A1.567,1.567,0,0,0,3.133,70.5V92.433A1.567,1.567,0,0,0,4.7,94H15.667v1.567a1.567,1.567,0,0,0,1.567,1.567H29.767a1.567,1.567,0,0,0,1.567-1.567V93.4l2.021,1a11.065,11.065,0,0,0,4.9,1.159H61.711a10.857,10.857,0,0,0,5.483-1.473l26.32-15.2A6.281,6.281,0,0,0,95.8,70.343ZM15.667,90.867h-9.4v-18.8h9.4ZM28.2,94H18.8V68.933h9.4ZM91.948,76.187l-26.32,15.2a7.805,7.805,0,0,1-3.917,1.05H38.258a7.764,7.764,0,0,1-3.509-.83L31.333,89.9V73.289l8.977-2.24a7.777,7.777,0,0,1,3.932.031l23.375,6.267a3.119,3.119,0,0,1,.752,5.734A3.055,3.055,0,0,1,66,83.394L47.313,78.38A1.573,1.573,0,1,0,46.5,81.42l18.69,5a6.38,6.38,0,0,0,1.629.219,6.135,6.135,0,0,0,3.118-.846,6.227,6.227,0,0,0,2.93-3.807,6.451,6.451,0,0,0,.172-2.115l15.776-9.1a3.173,3.173,0,0,1,4.261,1.144A3.133,3.133,0,0,1,91.948,76.187Z" fill="#c31f5d"/>
      <path id="Path_37464" data-name="Path 37464" d="M23.5,92.433a1.567,1.567,0,0,0,1.567-1.567V89.3a1.567,1.567,0,0,0-3.133,0v1.567A1.567,1.567,0,0,0,23.5,92.433Z" fill="#c31f5d"/>
      <path id="Path_37465" data-name="Path 37465" d="M72.067,26.633H66.192l-.282-.658,4.167-4.152a1.579,1.579,0,0,0,0-2.225l-6.643-6.643a1.579,1.579,0,0,0-2.225,0l-4.152,4.167-.658-.282V10.967A1.567,1.567,0,0,0,54.833,9.4h-9.4a1.567,1.567,0,0,0-1.567,1.567v5.875l-.658.282-4.152-4.167a1.579,1.579,0,0,0-2.225,0L30.19,19.6a1.579,1.579,0,0,0,0,2.225l4.167,4.152-.282.658H28.2A1.567,1.567,0,0,0,26.633,28.2v9.4A1.567,1.567,0,0,0,28.2,39.167h5.875l.282.658L30.19,43.976a1.618,1.618,0,0,0-.454,1.112A1.648,1.648,0,0,0,30.19,46.2l6.643,6.643a1.618,1.618,0,0,0,1.112.454,1.648,1.648,0,0,0,1.112-.454l4.152-4.167.658.282v5.875A1.567,1.567,0,0,0,45.433,56.4h9.4A1.567,1.567,0,0,0,56.4,54.833V48.958l.658-.282,4.152,4.167a1.64,1.64,0,0,0,2.225,0L70.077,46.2a1.648,1.648,0,0,0,.454-1.112,1.618,1.618,0,0,0-.454-1.112L65.91,39.825l.282-.658h5.875A1.567,1.567,0,0,0,73.633,37.6V28.2A1.567,1.567,0,0,0,72.067,26.633Zm-1.567,9.4H65.079a1.567,1.567,0,0,0-1.488,1.081,12.386,12.386,0,0,1-.956,2.272A1.592,1.592,0,0,0,62.9,41.25l3.854,3.838-4.434,4.434-3.838-3.854a1.592,1.592,0,0,0-1.864-.266,12.386,12.386,0,0,1-2.272.956,1.567,1.567,0,0,0-1.081,1.488v5.421H47V47.846a1.567,1.567,0,0,0-1.081-1.488,12.386,12.386,0,0,1-2.272-.956,1.592,1.592,0,0,0-1.864.266l-3.838,3.854-4.434-4.434,3.854-3.838a1.592,1.592,0,0,0,.266-1.864,12.386,12.386,0,0,1-.956-2.272,1.567,1.567,0,0,0-1.488-1.081H29.767V29.767h5.421a1.567,1.567,0,0,0,1.488-1.081,12.386,12.386,0,0,1,.956-2.272,1.592,1.592,0,0,0-.266-1.864l-3.854-3.838,4.434-4.434,3.838,3.854a1.592,1.592,0,0,0,1.864.266,12.386,12.386,0,0,1,2.272-.956A1.567,1.567,0,0,0,47,17.954V12.533h6.267v5.421a1.567,1.567,0,0,0,1.081,1.488,12.386,12.386,0,0,1,2.272.956,1.592,1.592,0,0,0,1.864-.266l3.838-3.854,4.434,4.434L62.9,24.55a1.592,1.592,0,0,0-.266,1.864,12.386,12.386,0,0,1,.956,2.272,1.567,1.567,0,0,0,1.488,1.081H70.5Z" fill="#c31f5d"/>
      <path id="Path_37466" data-name="Path 37466" d="M59.533,32.9a9.4,9.4,0,1,0-9.4,9.4,9.4,9.4,0,0,0,9.4-9.4Zm-15.667,0a6.267,6.267,0,1,1,6.267,6.267A6.267,6.267,0,0,1,43.867,32.9Z" fill="#c31f5d"/>
      <path id="Path_37467" data-name="Path 37467" d="M86.167,36.033H83.033a32.9,32.9,0,1,0-65.8,0H14.1a9.4,9.4,0,0,0,0,18.8h7.833A1.567,1.567,0,0,0,23.5,53.267V37.6a1.567,1.567,0,0,0-1.567-1.567H20.367a29.767,29.767,0,0,1,59.533,0H78.333A1.567,1.567,0,0,0,76.767,37.6V53.267a1.567,1.567,0,0,0,1.567,1.567H79.9v4.7A1.567,1.567,0,0,1,78.333,61.1H67.085a4.716,4.716,0,0,0-4.418-3.133H59.533a4.7,4.7,0,0,0,0,9.4h3.133a4.716,4.716,0,0,0,4.418-3.133H78.333a4.714,4.714,0,0,0,4.7-4.7v-4.7h3.133a9.4,9.4,0,1,0,0-18.8ZM14.1,51.7a6.267,6.267,0,1,1,0-12.533Zm6.267,0H17.233V39.167h3.133Zm42.3,12.533H59.533a1.567,1.567,0,1,1,0-3.133h3.133a1.567,1.567,0,1,1,0,3.133ZM83.033,51.7H79.9V39.167h3.133Zm3.133,0V39.167a6.267,6.267,0,0,1,0,12.533Z" fill="#c31f5d"/>
    </g>
  </g>
</svg>
