<svg xmlns="http://www.w3.org/2000/svg" xmlns:xlink="http://www.w3.org/1999/xlink" width="94" height="94" viewBox="0 0 94 94">
  <defs>
    <clipPath id="clip-path">
      <rect id="Rectangle_4542" data-name="Rectangle 4542" width="94" height="94" transform="translate(184 4724)" fill="#c31f5d"/>
    </clipPath>
  </defs>
  <g id="Mask_Group_38" data-name="Mask Group 38" transform="translate(-184 -4724)" clip-path="url(#clip-path)">
    <g id="search" transform="translate(184 4724)">
      <path id="Path_37450" data-name="Path 37450" d="M56.181,59.236a4.247,4.247,0,0,0,3.064-1.291l7.217-7.4a4.279,4.279,0,0,0-6.127-5.975L56.1,48.911l-.742-.721a4.279,4.279,0,1,0-5.966,6.135l3.805,3.7A4.257,4.257,0,0,0,56.181,59.236ZM51.287,50.2a1.522,1.522,0,0,1,2.149-.03l1.729,1.682a1.38,1.38,0,0,0,1.95-.026l5.2-5.327a1.52,1.52,0,0,1,2.176,2.122l-7.217,7.4a1.527,1.527,0,0,1-2.147.029l-3.805-3.7a1.521,1.521,0,0,1-.03-2.149Z" fill="#c31f5d"/>
      <path id="Path_37451" data-name="Path 37451" d="M45.516,60.175a1.38,1.38,0,0,0-2.2,1.662,18.186,18.186,0,0,0,1.652,1.9,17.948,17.948,0,1,0-4.409-7.224,1.38,1.38,0,0,0,2.629-.839,15.214,15.214,0,1,1,3.732,6.112,15.45,15.45,0,0,1-1.4-1.609Z" fill="#c31f5d"/>
      <path id="Path_37452" data-name="Path 37452" d="M92.1,76.241l-8.705-8.7a1.38,1.38,0,0,0-1.952,0l-.053.053-3.35-3.349A24.239,24.239,0,0,0,81.9,52.571a1.38,1.38,0,0,0-2.754-.174A21.5,21.5,0,0,1,57.686,72.545h-.131A21.51,21.51,0,1,1,78.849,47.219a1.38,1.38,0,0,0,2.716-.487A24.3,24.3,0,0,0,69.062,29.6V18.476a1.4,1.4,0,0,0-.4-.976L51.559.4a1.4,1.4,0,0,0-.976-.4H4.139A4.144,4.144,0,0,0,0,4.139v11.6a1.38,1.38,0,0,0,2.76,0V4.139a1.381,1.381,0,0,1,1.38-1.38H49.2V15.716a4.144,4.144,0,0,0,4.139,4.139H66.3v8.49a24.381,24.381,0,0,0-8.374-1.575.3.3,0,0,0-.041,0H27.081a1.38,1.38,0,1,0,0,2.759H46.4a24.185,24.185,0,0,0-5.5,3.952H27.081a1.38,1.38,0,1,0,0,2.759H38.412A24.016,24.016,0,0,0,33.884,46.1h-6.8a1.38,1.38,0,1,0,0,2.759h6.4q-.1,1.079-.1,2.175,0,.9.065,1.787H27.081a1.38,1.38,0,1,0,0,2.759h6.727a24.014,24.014,0,0,0,4.608,10.257H27.081a1.38,1.38,0,1,0,0,2.759H40.9a24.182,24.182,0,0,0,5.5,3.945H27.081a1.38,1.38,0,1,0,0,2.759H57.665A24.4,24.4,0,0,0,66.3,73.725V89.862a1.381,1.381,0,0,1-1.38,1.38H4.139a1.381,1.381,0,0,1-1.38-1.38V21.255a1.38,1.38,0,0,0-2.76,0V89.862A4.144,4.144,0,0,0,4.139,94H64.922a4.144,4.144,0,0,0,4.139-4.139V72.475q.924-.49,1.812-1.066l3.349,3.349a1.392,1.392,0,0,0-.053,2l8.705,8.7A6.524,6.524,0,0,0,92.1,76.241ZM53.343,17.1a1.381,1.381,0,0,1-1.38-1.38V4.71L64.351,17.1ZM73.124,69.758q.883-.73,1.711-1.555t1.555-1.711l3.05,3.049-3.266,3.266ZM90.15,83.516a3.783,3.783,0,0,1-5.324,0L77.1,75.787l5.324-5.324,7.73,7.729A3.782,3.782,0,0,1,90.15,83.516Z" fill="#c31f5d"/>
      <path id="Path_37453" data-name="Path 37453" d="M12.522,37.6h6.037a3.09,3.09,0,0,0,3.087-3.086V28.479a3.09,3.09,0,0,0-3.087-3.086H12.522a3.09,3.09,0,0,0-3.086,3.086v6.036A3.09,3.09,0,0,0,12.522,37.6ZM12.2,28.479a.327.327,0,0,1,.327-.327h6.037a.327.327,0,0,1,.327.327v6.036a.327.327,0,0,1-.327.327H12.522a.327.327,0,0,1-.327-.327Z" fill="#c31f5d"/>
      <path id="Path_37454" data-name="Path 37454" d="M9.435,53.859a3.09,3.09,0,0,0,3.086,3.086h6.037a3.09,3.09,0,0,0,3.087-3.086V47.824a3.09,3.09,0,0,0-3.087-3.086H12.522a3.09,3.09,0,0,0-3.086,3.086Zm2.76-6.036a.327.327,0,0,1,.327-.327h6.037a.327.327,0,0,1,.327.327v6.036a.327.327,0,0,1-.327.327H12.522a.327.327,0,0,1-.327-.327Z" fill="#c31f5d"/>
      <path id="Path_37455" data-name="Path 37455" d="M9.435,73.6a3.09,3.09,0,0,0,3.086,3.086h6.037A3.09,3.09,0,0,0,21.645,73.6V67.561a3.09,3.09,0,0,0-3.087-3.086H12.522a3.09,3.09,0,0,0-3.086,3.086Zm2.76-6.036a.327.327,0,0,1,.327-.327h6.037a.327.327,0,0,1,.327.327V73.6a.327.327,0,0,1-.327.327H12.522A.327.327,0,0,1,12.2,73.6Z" fill="#c31f5d"/>
    </g>
  </g>
</svg>
