<svg xmlns="http://www.w3.org/2000/svg" xmlns:xlink="http://www.w3.org/1999/xlink" width="94" height="94" viewBox="0 0 94 94">
  <defs>
    <clipPath id="clip-path">
      <rect id="Rectangle_4538" data-name="Rectangle 4538" width="94" height="94" transform="translate(747 4364)" fill="#c31f5d"/>
    </clipPath>
  </defs>
  <g id="Mask_Group_36" data-name="Mask Group 36" transform="translate(-747 -4364)" clip-path="url(#clip-path)">
    <g id="curve" transform="translate(747.022 4364.027)">
      <path id="Path_37444" data-name="Path 37444" d="M93.148,68.365,83.517,63.55l-6.13-15.944a1.468,1.468,0,0,0-.822-.837l-38.033-15.2a1.468,1.468,0,0,0-1.578.323l-5.073,5.073a1.468,1.468,0,0,0-.316,1.571l15.2,38.033a1.468,1.468,0,0,0,.837.822l15.944,6.13,4.816,9.631a1.468,1.468,0,0,0,1.079.815,1.27,1.27,0,0,0,.235,0,1.468,1.468,0,0,0,1.035-.433L93.529,70.714a1.437,1.437,0,0,0-.382-2.349ZM34.641,38.341l.815-.807L54.388,56.466a8.64,8.64,0,1,0,2.077-2.077L37.534,35.456l.807-.815L74.876,49.257l5.763,14.99L64.247,80.639l-14.99-5.763Zm26.8,17.4a5.7,5.7,0,1,1-4.037,1.666,5.7,5.7,0,0,1,4.037-1.666Zm8.64,34.274-3.67-7.341L82.658,66.427,90,70.1Z" fill="#c31f5d"/>
      <path id="Path_37445" data-name="Path 37445" d="M28.079,78.547a1.512,1.512,0,0,0-2.077,0l-1.865,1.865a40.308,40.308,0,0,1-.734-46.79,7.532,7.532,0,0,0,10.248-10.2,40.308,40.308,0,0,1,46.79.734L78.547,26a1.48,1.48,0,0,0,0,2.077L85.021,34.5a1.468,1.468,0,0,0,2.07,0l6.438-6.438a1.468,1.468,0,0,0,0-2.077l-6.438-6.438a1.468,1.468,0,0,0-2.07,0l-2.489,2.474a43.245,43.245,0,0,0-43.384-5.043l8.464-8.442a4.5,4.5,0,1,0-2.1-2.077L31.228,20.767A7.539,7.539,0,0,0,20.767,31.228L6.46,45.513a4.507,4.507,0,1,0,2.077,2.077L17,39.149a43.245,43.245,0,0,0,5.021,43.384l-2.481,2.489a1.468,1.468,0,0,0,0,2.07l6.438,6.438a1.462,1.462,0,0,0,2.077,0L34.5,87.092a1.468,1.468,0,0,0,0-2.07Zm57.993-55.9,4.36,4.36-4.36,4.36-4.36-4.36ZM48.449,3.4a1.556,1.556,0,1,1-.457,1.1,1.564,1.564,0,0,1,.457-1.1ZM23.784,23.784a4.6,4.6,0,1,1,0,6.511A4.588,4.588,0,0,1,23.784,23.784ZM5.608,50.652a1.564,1.564,0,0,1-2.2-2.2,1.557,1.557,0,1,1,2.2,2.2ZM27.036,90.388l-4.36-4.36,4.36-4.36,4.36,4.36Z" fill="#c31f5d"/>
    </g>
  </g>
</svg>
