<svg id="_006-website" data-name="006-website" xmlns="http://www.w3.org/2000/svg" width="100.934" height="100.934" viewBox="0 0 100.934 100.934">
  <path id="Path_37715" data-name="Path 37715" d="M94.2,0H6.729A6.729,6.729,0,0,0,0,6.729V94.2a6.729,6.729,0,0,0,6.729,6.729H94.2a6.729,6.729,0,0,0,6.729-6.729V6.729A6.729,6.729,0,0,0,94.2,0ZM6.729,3.364H94.2a3.364,3.364,0,0,1,3.364,3.364v6.729H3.364V6.729A3.364,3.364,0,0,1,6.729,3.364ZM94.2,97.569H6.729A3.364,3.364,0,0,1,3.364,94.2V16.822h94.2V94.2A3.364,3.364,0,0,1,94.2,97.569Z" fill="#4c2e88"/>
  <path id="Path_37716" data-name="Path 37716" d="M66.269,62.2A32.031,32.031,0,1,0,58.2,70.269L72.722,84.785a4.347,4.347,0,0,0,3.1,1.289h.019A4.3,4.3,0,0,0,78.9,84.785l1.874-1.872a4.352,4.352,0,0,0,.008-6.191ZM11.42,44.018a28.6,28.6,0,1,1,28.6,28.6A28.6,28.6,0,0,1,11.42,44.018Zm52.763,20.86,2.473,2.473-3.307,3.307-2.473-2.473A32.3,32.3,0,0,0,64.183,64.878ZM78.407,80.523l-1.884,1.894a.967.967,0,0,1-.691.293h0a1.009,1.009,0,0,1-.718-.3L65.74,73.035l3.307-3.307L78.418,79.1a1.009,1.009,0,0,1,.3.722A.977.977,0,0,1,78.407,80.523Z" transform="translate(5.402 8.131)" fill="#4c2e88"/>
  <path id="Path_37717" data-name="Path 37717" d="M32.914,20.071a2.692,2.692,0,0,0-2.226,1.669l-.772,1.935a15.325,15.325,0,0,0-2.653,1.1l-1.911-.818a2.621,2.621,0,0,0-2.771.4,18.23,18.23,0,0,0-2.21,2.219,2.636,2.636,0,0,0-.407,2.762l.821,1.919a15.2,15.2,0,0,0-1.1,2.655l-1.941.776a2.648,2.648,0,0,0-1.66,2.2,16.259,16.259,0,0,0,0,3.211,2.655,2.655,0,0,0,1.667,2.209l1.935.772a15.2,15.2,0,0,0,1.1,2.655l-.821,1.921a2.638,2.638,0,0,0,.409,2.764,18.337,18.337,0,0,0,2.217,2.217,2.629,2.629,0,0,0,2.762.4l1.918-.819a15.308,15.308,0,0,0,2.653,1.1l.776,1.941a2.655,2.655,0,0,0,2.224,1.662c.548.047,1.1.072,1.63.072s1.06-.025,1.549-.072a2.66,2.66,0,0,0,2.221-1.669l.772-1.935a15.309,15.309,0,0,0,2.641-1.1l1.911.818a2.634,2.634,0,0,0,2.771-.4,18.379,18.379,0,0,0,2.219-2.219,2.641,2.641,0,0,0,.405-2.764l-.821-1.918a15.2,15.2,0,0,0,1.1-2.655l1.941-.776a2.648,2.648,0,0,0,1.66-2.2,16.286,16.286,0,0,0,0-3.2,2.66,2.66,0,0,0-1.669-2.219l-1.935-.772a15.2,15.2,0,0,0-1.1-2.655l.821-1.921a2.633,2.633,0,0,0-.409-2.762,18.092,18.092,0,0,0-2.215-2.217,2.621,2.621,0,0,0-2.764-.405l-1.918.819a15.324,15.324,0,0,0-2.653-1.1l-.776-1.941a2.692,2.692,0,0,0-2.221-1.662A17.419,17.419,0,0,0,32.914,20.071ZM37.429,26.7A12.078,12.078,0,0,1,40.77,28.09,1.682,1.682,0,0,0,42.3,28.2l2.288-.977a15.254,15.254,0,0,1,1.194,1.2l-.974,2.284a1.682,1.682,0,0,0,.106,1.529A12.1,12.1,0,0,1,46.3,35.576a1.682,1.682,0,0,0,1.009,1.157l2.308.922a12.963,12.963,0,0,1,0,1.7l-2.308.922A1.682,1.682,0,0,0,46.3,41.431a12.147,12.147,0,0,1-1.386,3.343,1.682,1.682,0,0,0-.106,1.527l.977,2.288a14.974,14.974,0,0,1-1.2,1.2L42.3,48.81a1.682,1.682,0,0,0-1.527.106A12.08,12.08,0,0,1,37.431,50.3a1.682,1.682,0,0,0-1.159,1.009l-.929,2.308a14.3,14.3,0,0,1-1.7,0l-.92-2.306A1.682,1.682,0,0,0,31.566,50.3a12.08,12.08,0,0,1-3.339-1.386,1.682,1.682,0,0,0-1.527-.106l-2.288.977a15.012,15.012,0,0,1-1.2-1.2l.976-2.283a1.682,1.682,0,0,0-.106-1.527A12.147,12.147,0,0,1,22.7,41.432a1.682,1.682,0,0,0-1.009-1.157l-2.3-.93a12.964,12.964,0,0,1,0-1.7l2.308-.922a1.682,1.682,0,0,0,1.009-1.157,12.1,12.1,0,0,1,1.386-3.341A1.682,1.682,0,0,0,24.2,30.7l-.979-2.29a15.261,15.261,0,0,1,1.2-1.2l2.283.976a1.682,1.682,0,0,0,1.527-.106A12.078,12.078,0,0,1,31.575,26.7a1.682,1.682,0,0,0,1.157-1.009l.922-2.308a14.662,14.662,0,0,1,1.7,0l.92,2.3A1.682,1.682,0,0,0,37.429,26.7Z" transform="translate(10.918 13.646)" fill="#4c2e88"/>
  <path id="Path_37718" data-name="Path 37718" d="M22,34.411A8.411,8.411,0,1,0,30.411,26,8.411,8.411,0,0,0,22,34.411Zm13.458,0a5.047,5.047,0,1,1-5.047-5.047,5.047,5.047,0,0,1,5.047,5.047Z" transform="translate(15.009 17.738)" fill="#4c2e88"/>
  <path id="Path_37719" data-name="Path 37719" d="M5.682,7.364H7.364A1.682,1.682,0,0,0,7.364,4H5.682a1.682,1.682,0,1,0,0,3.364Z" transform="translate(2.729 2.729)" fill="#4c2e88"/>
  <path id="Path_37720" data-name="Path 37720" d="M10.682,7.364h1.682a1.682,1.682,0,0,0,0-3.364H10.682a1.682,1.682,0,1,0,0,3.364Z" transform="translate(6.14 2.729)" fill="#4c2e88"/>
  <path id="Path_37721" data-name="Path 37721" d="M15.682,7.364h1.682a1.682,1.682,0,0,0,0-3.364H15.682a1.682,1.682,0,0,0,0,3.364Z" transform="translate(9.551 2.729)" fill="#4c2e88"/>
  <path id="Path_37722" data-name="Path 37722" d="M49.682,7.364H59.776a1.682,1.682,0,0,0,0-3.364H49.682a1.682,1.682,0,0,0,0,3.364Z" transform="translate(32.747 2.729)" fill="#4c2e88"/>
  <path id="Path_37723" data-name="Path 37723" d="M46.246,17.664a1.682,1.682,0,1,0-1.2,3.141,21.869,21.869,0,1,1-7.809-1.44,1.682,1.682,0,1,0,0-3.364,25.233,25.233,0,1,0,9.013,1.664Z" transform="translate(8.187 10.916)" fill="#4c2e88"/>
</svg>
