<svg xmlns="http://www.w3.org/2000/svg" xmlns:xlink="http://www.w3.org/1999/xlink" width="94" height="94" viewBox="0 0 94 94">
  <defs>
    <clipPath id="clip-path">
      <rect id="Rectangle_4539" data-name="Rectangle 4539" width="94" height="94" transform="translate(1309 4364)" fill="#c31f5d"/>
    </clipPath>
  </defs>
  <g id="Mask_Group_37" data-name="Mask Group 37" transform="translate(-1309 -4364)" clip-path="url(#clip-path)">
    <g id="coding" transform="translate(1307.484 4362.484)">
      <path id="Path_37446" data-name="Path 37446" d="M83.387,68.235V62.161a7.59,7.59,0,0,0-7.581-7.581H63.044a42.735,42.735,0,0,0,3.378-8.137l5.761-4.611a5.6,5.6,0,0,0-3.317-9.975l3.378-9.288A15.692,15.692,0,0,0,57.5,1.516H44.626A51.344,51.344,0,0,0,17.39,9.327a1.516,1.516,0,0,0,.324,2.729l3.655,1.213a3.893,3.893,0,0,1,2.383,5.138,6.926,6.926,0,0,0,.235,5.669l3.909,7.81a5.593,5.593,0,0,0-3.044,9.947l5.761,4.611a42.735,42.735,0,0,0,3.375,8.137H21.226a7.59,7.59,0,0,0-7.581,7.581v6.074A19.737,19.737,0,0,0,1.516,86.419V94a1.516,1.516,0,0,0,1.516,1.516H94A1.516,1.516,0,0,0,95.516,94V86.419A19.737,19.737,0,0,0,83.387,68.235Zm-22.742-36.4h-9.1a1.516,1.516,0,0,0-1.516,1.516v1.516H47V33.355a1.516,1.516,0,0,0-1.516-1.516H31.839V29.618L41.3,23.309a12.364,12.364,0,0,1,6.88-2.083,15.483,15.483,0,0,0,9.641-3.382L60.3,15.862l2.6,3.9a13.6,13.6,0,0,1,2.292,7.569v4.506Zm-1.516,3.032v4.548a1.516,1.516,0,0,1-1.516,1.516H54.581a1.516,1.516,0,0,1-1.516-1.516V34.871Zm-15.161,0v4.548a1.516,1.516,0,0,1-1.516,1.516H39.419A1.516,1.516,0,0,1,37.9,39.419V34.871Zm27.29,2.577a2.568,2.568,0,0,1-.967,2.013l-2.749,2.2a42.666,42.666,0,0,0,.66-6.789h.479A2.577,2.577,0,0,1,71.258,37.448ZM26.567,19.534a6.926,6.926,0,0,0-4.238-9.141l-.464-.152a48.308,48.308,0,0,1,22.76-5.693H57.5a12.66,12.66,0,0,1,11.9,16.981l-1.318,3.624a16.626,16.626,0,0,0-2.653-7.077L61.907,12.8a1.518,1.518,0,0,0-2.209-.343L55.93,15.477a12.455,12.455,0,0,1-7.747,2.717,15.392,15.392,0,0,0-8.563,2.593L29.481,27.545a1.5,1.5,0,0,0-.258.221L26.7,22.719A3.892,3.892,0,0,1,26.567,19.534Zm.176,19.931a2.577,2.577,0,0,1,1.609-4.594h.476a42.666,42.666,0,0,0,.66,6.792Zm5.12-4.594h3.008v4.548a4.548,4.548,0,0,0,4.548,4.548h3.032A4.548,4.548,0,0,0,47,39.419V37.9h3.032v1.516a4.548,4.548,0,0,0,4.548,4.548h3.032a4.548,4.548,0,0,0,4.548-4.548V34.871h3.008a39.7,39.7,0,0,1-5.626,19.71H37.489a39.7,39.7,0,0,1-5.626-19.71ZM21.226,57.613H75.806a4.548,4.548,0,0,1,4.548,4.548V92.484H16.677V62.161a4.548,4.548,0,0,1,4.548-4.548ZM4.548,86.419a16.7,16.7,0,0,1,9.1-14.847V92.484h-9.1Zm87.935,6.065h-9.1V71.572a16.7,16.7,0,0,1,9.1,14.847Z" fill="#c31f5d"/>
      <path id="Path_37447" data-name="Path 37447" d="M48.516,87.935a6.065,6.065,0,1,0-6.065-6.065A6.065,6.065,0,0,0,48.516,87.935Zm0-9.1a3.032,3.032,0,1,1-3.032,3.032A3.032,3.032,0,0,1,48.516,78.839Z" fill="#c31f5d"/>
      <path id="Path_37448" data-name="Path 37448" d="M38.347,73.846,40.491,71.7,35.5,66.71l4.993-4.993-2.144-2.144-6.065,6.065a1.516,1.516,0,0,0,0,2.144Z" fill="#c31f5d"/>
      <path id="Path_37449" data-name="Path 37449" d="M58.685,73.846l6.065-6.065a1.516,1.516,0,0,0,0-2.144l-6.065-6.065-2.144,2.144,4.993,4.993L56.541,71.7Z" fill="#c31f5d"/>
      <rect id="Rectangle_4543" data-name="Rectangle 4543" width="15.161" height="3.032" transform="translate(42.753 71.863) rotate(-53.119)" fill="#c31f5d"/>
    </g>
  </g>
</svg>
