<svg xmlns="http://www.w3.org/2000/svg" xmlns:xlink="http://www.w3.org/1999/xlink" width="72" height="72" viewBox="0 0 72 72">
  <defs>
    <clipPath id="clip-path">
      <rect id="Rectangle_4549" data-name="Rectangle 4549" width="72" height="72" transform="translate(242 2345)" fill="#4c2e88"/>
    </clipPath>
  </defs>
  <g id="Mask_Group_46" data-name="Mask Group 46" transform="translate(-242 -2345)" clip-path="url(#clip-path)">
    <g id="migration" transform="translate(240.839 2343.839)">
      <path id="Path_37509" data-name="Path 37509" d="M58.065,49.935a8.129,8.129,0,1,0,8.129,8.129A8.138,8.138,0,0,0,58.065,49.935Zm0,13.935a5.806,5.806,0,1,1,5.806-5.806A5.813,5.813,0,0,1,58.065,63.871Z" fill="#4c2e88"/>
      <path id="Path_37510" data-name="Path 37510" d="M58.065,54.581a3.484,3.484,0,1,0,3.484,3.484A3.488,3.488,0,0,0,58.065,54.581Zm0,4.645a1.161,1.161,0,1,1,1.161-1.161A1.163,1.163,0,0,1,58.065,59.226Z" fill="#4c2e88"/>
      <path id="Path_37511" data-name="Path 37511" d="M4.2,30.194h.444V47.613H6.968V27.871H4.2a.718.718,0,0,1-.642-1.038l3.927-7.855a.745.745,0,0,1,1.283,0L12.7,26.833a.7.7,0,0,1,.077.321.718.718,0,0,1-.718.718H9.29V47.613h2.323V30.194h.444a3.041,3.041,0,0,0,2.72-4.4L10.849,17.94a3.041,3.041,0,0,0-5.439,0L1.482,25.793a3.041,3.041,0,0,0,2.72,4.4Z" fill="#4c2e88"/>
      <path id="Path_37512" data-name="Path 37512" d="M21.667,33.157a3.041,3.041,0,0,0,5.439,0L31.034,25.3a3.041,3.041,0,0,0-2.72-4.4h-.444V3.484H25.548V23.226h2.766a.718.718,0,0,1,.642,1.038l-3.927,7.855a.745.745,0,0,1-1.283,0l-3.927-7.855a.7.7,0,0,1-.077-.321.718.718,0,0,1,.718-.718h2.766V3.484H20.9V20.9H20.46a3.041,3.041,0,0,0-2.72,4.4Z" fill="#4c2e88"/>
      <path id="Path_37513" data-name="Path 37513" d="M67.355,1.161H39.484a5.813,5.813,0,0,0-5.806,5.806v31.4a15.153,15.153,0,0,0-11.556,6.921c-.019,0-.037,0-.057,0a11.674,11.674,0,0,0-10.745,7.224,8.129,8.129,0,1,0-2.029,16H47.167l.632.632a3.564,3.564,0,0,0,4.135.662,1.186,1.186,0,0,1,1.015-.044c.15.065.3.128.453.187a1.189,1.189,0,0,1,.692.753,3.565,3.565,0,0,0,3.392,2.456h1.157A3.564,3.564,0,0,0,62.035,70.7a1.19,1.19,0,0,1,.69-.75c.153-.059.305-.121.456-.187a1.192,1.192,0,0,1,1.014.044,3.564,3.564,0,0,0,4.135-.662l.819-.818a3.562,3.562,0,0,0,.662-4.135,1.194,1.194,0,0,1-.044-1.015c.065-.15.128-.3.187-.453a1.189,1.189,0,0,1,.753-.692,3.568,3.568,0,0,0,2.455-3.393V6.968a5.813,5.813,0,0,0-5.806-5.806ZM39.484,3.484H67.355a3.488,3.488,0,0,1,3.484,3.484V54.15c-.046-.017-.088-.041-.135-.057a1.19,1.19,0,0,1-.75-.69c-.059-.153-.121-.305-.187-.456a1.2,1.2,0,0,1,.044-1.014,3.562,3.562,0,0,0-.662-4.135l-.633-.632V8.129a2.325,2.325,0,0,0-2.323-2.323H40.645a2.325,2.325,0,0,0-2.323,2.323V38.736A15.026,15.026,0,0,0,36,38.368V6.968a3.488,3.488,0,0,1,3.484-3.484Zm8.8,43.093A15.189,15.189,0,0,0,40.645,39.5V36H66.194v9.963a3.56,3.56,0,0,0-2,.355,1.19,1.19,0,0,1-1.015.044c-.149-.065-.3-.127-.453-.187a1.192,1.192,0,0,1-.692-.753,3.565,3.565,0,0,0-3.392-2.455H57.486a3.564,3.564,0,0,0-3.392,2.457,1.188,1.188,0,0,1-.692.75c-.152.059-.3.121-.454.187a1.192,1.192,0,0,1-1.014-.044,3.559,3.559,0,0,0-3.648.259ZM66.194,15.1H40.645V8.129H66.194ZM40.645,17.419H66.194v6.968H40.645Zm0,9.29H66.194v6.968H40.645ZM3.484,60.387a5.806,5.806,0,0,1,8.093-5.337l1.207.517.367-1.26a9.286,9.286,0,0,1,16.64-2.564l1.93-1.291a11.6,11.6,0,0,0-6.987-4.841A12.767,12.767,0,0,1,46.55,48.331a3.553,3.553,0,0,0-.231,3.6,1.194,1.194,0,0,1,.044,1.015c-.065.15-.128.3-.187.453a1.189,1.189,0,0,1-.753.692,3.567,3.567,0,0,0-2.456,3.393v1.157a3.564,3.564,0,0,0,2.457,3.392,1.19,1.19,0,0,1,.75.69c.059.153.121.305.187.456a1.2,1.2,0,0,1-.044,1.014,3.559,3.559,0,0,0-.355,2H9.29a5.813,5.813,0,0,1-5.806-5.806Zm67.355-1.744a1.246,1.246,0,0,1-.859,1.186,3.5,3.5,0,0,0-2.19,2.058c-.049.124-.1.249-.152.369a3.506,3.506,0,0,0,.1,2.987,1.244,1.244,0,0,1-.231,1.445l-.819.819a1.244,1.244,0,0,1-1.445.231,3.5,3.5,0,0,0-2.986-.1q-.183.078-.373.153a3.506,3.506,0,0,0-2.057,2.191,1.246,1.246,0,0,1-1.186.858H57.486a1.246,1.246,0,0,1-1.186-.859,3.5,3.5,0,0,0-2.058-2.19c-.124-.049-.249-.1-.369-.152A3.437,3.437,0,0,0,52.5,67.35a3.578,3.578,0,0,0-1.61.387,1.246,1.246,0,0,1-1.445-.231l-.819-.819a1.244,1.244,0,0,1-.231-1.445,3.5,3.5,0,0,0,.1-2.986q-.078-.183-.153-.373a3.506,3.506,0,0,0-2.191-2.057,1.243,1.243,0,0,1-.858-1.185V57.486a1.247,1.247,0,0,1,.858-1.186,3.5,3.5,0,0,0,2.191-2.058c.049-.124.1-.249.152-.369a3.506,3.506,0,0,0-.1-2.987,1.246,1.246,0,0,1,.231-1.446l.818-.818a1.24,1.24,0,0,1,1.446-.231,3.5,3.5,0,0,0,2.986.1c.123-.053.247-.1.372-.152A3.514,3.514,0,0,0,56.3,46.15a1.245,1.245,0,0,1,1.186-.859h1.157a1.246,1.246,0,0,1,1.186.859,3.507,3.507,0,0,0,2.057,2.19c.124.049.249.1.37.152a3.511,3.511,0,0,0,2.987-.1,1.245,1.245,0,0,1,1.446.231l.818.818a1.246,1.246,0,0,1,.231,1.446,3.5,3.5,0,0,0-.1,2.986q.078.183.153.373A3.506,3.506,0,0,0,69.98,56.3a1.246,1.246,0,0,1,.858,1.186v1.157Z" fill="#4c2e88"/>
      <path id="Path_37514" data-name="Path 37514" d="M42.968,10.452H45.29v2.323H42.968Z" fill="#4c2e88"/>
      <path id="Path_37515" data-name="Path 37515" d="M47.613,10.452h2.323v2.323H47.613Z" fill="#4c2e88"/>
      <path id="Path_37516" data-name="Path 37516" d="M42.968,29.032H45.29v2.323H42.968Z" fill="#4c2e88"/>
      <path id="Path_37517" data-name="Path 37517" d="M47.613,29.032h2.323v2.323H47.613Z" fill="#4c2e88"/>
      <path id="Path_37518" data-name="Path 37518" d="M61.548,19.742h2.323v2.323H61.548Z" fill="#4c2e88"/>
      <path id="Path_37519" data-name="Path 37519" d="M56.9,19.742h2.323v2.323H56.9Z" fill="#4c2e88"/>
      <path id="Path_37520" data-name="Path 37520" d="M61.548,38.323h2.323v2.323H61.548Z" fill="#4c2e88"/>
      <path id="Path_37521" data-name="Path 37521" d="M56.9,38.323h2.323v2.323H56.9Z" fill="#4c2e88"/>
      <path id="Path_37522" data-name="Path 37522" d="M34.839,42.968a10.444,10.444,0,0,0-2.613.33l.579,2.249a8.14,8.14,0,0,1,9.907,5.84l2.249-.579A10.448,10.448,0,0,0,34.839,42.968Z" fill="#4c2e88"/>
      <path id="Path_37523" data-name="Path 37523" d="M22.065,49.935a6.987,6.987,0,0,0-6.828,5.575l2.276.462a4.657,4.657,0,0,1,4.552-3.715,4.609,4.609,0,0,1,3.717,1.859l1.857-1.395a6.916,6.916,0,0,0-5.574-2.787Z" fill="#4c2e88"/>
    </g>
  </g>
</svg>
