<svg xmlns="http://www.w3.org/2000/svg" xmlns:xlink="http://www.w3.org/1999/xlink" width="72" height="72" viewBox="0 0 72 72">
  <defs>
    <clipPath id="clip-path">
      <rect id="Rectangle_4545" data-name="Rectangle 4545" width="72" height="72" transform="translate(1104 1723)" fill="#4c2e88"/>
    </clipPath>
  </defs>
  <g id="Mask_Group_43" data-name="Mask Group 43" transform="translate(-1104 -1723)" clip-path="url(#clip-path)">
    <g id="programing" transform="translate(1102.839 1721.839)">
      <circle id="Ellipse_35" data-name="Ellipse 35" cx="1.161" cy="1.161" r="1.161" transform="translate(32.516 20.903)" fill="#4c2e88"/>
      <circle id="Ellipse_36" data-name="Ellipse 36" cx="1.161" cy="1.161" r="1.161" transform="translate(39.483 20.903)" fill="#4c2e88"/>
      <path id="Path_37483" data-name="Path 37483" d="M34.716,25.029l-2.078,1.039.122.245a4.92,4.92,0,0,0,8.8,0l.122-.245-2.078-1.039-.122.246a2.6,2.6,0,0,1-4.645,0Z" fill="#4c2e88"/>
      <path id="Path_37484" data-name="Path 37484" d="M5.806,55.741h6.968v-9.29H5.806Zm2.323-6.968h2.323v4.645H8.129Z" fill="#4c2e88"/>
      <path id="Path_37485" data-name="Path 37485" d="M1.161,46.451H3.484v9.29H1.161Z" fill="#4c2e88"/>
      <path id="Path_37486" data-name="Path 37486" d="M8.129,34.838H1.161v9.29H8.129ZM5.806,41.806H3.484V37.161H5.806Z" fill="#4c2e88"/>
      <path id="Path_37487" data-name="Path 37487" d="M10.451,34.838h2.323v9.29H10.451Z" fill="#4c2e88"/>
      <path id="Path_37488" data-name="Path 37488" d="M73.16,24.387a18.538,18.538,0,0,0-24.766-17.5A13.9,13.9,0,0,0,24.509,9.29H3.484a2.325,2.325,0,0,0-2.323,2.323V25.548a2.325,2.325,0,0,0,2.323,2.323h7.548l2.671,3.56a2.709,2.709,0,0,0,4.877-1.625V27.871h4.681a18.7,18.7,0,0,0,1.449,6.294,11.323,11.323,0,0,0-2.647,1.32v-.647H15.1v9.29h1.835l-1.613,8.066a11.417,11.417,0,0,0,5.531,12.153l1.456.833.552,4.138a4.44,4.44,0,0,0,4.388,3.844H47.073a4.44,4.44,0,0,0,4.388-3.844l.552-4.138,1.456-.833A11.415,11.415,0,0,0,59,52.195l-1.882-9.416A18.6,18.6,0,0,0,73.16,24.387ZM51.193,34.838H58.14a21.436,21.436,0,0,1-2.528,4.135A11.339,11.339,0,0,0,51.193,34.838Zm6.932-20.9H51.037A20.618,20.618,0,0,1,54.58,8.593,20.773,20.773,0,0,1,58.125,13.935Zm12.653,9.29H62.666a27.458,27.458,0,0,0-1.146-6.968h7.119A16.1,16.1,0,0,1,70.778,23.225Zm-10.435,0H51.1V16.258H59.06A24.693,24.693,0,0,1,60.343,23.225Zm-10.122,9.29a18.681,18.681,0,0,0,.874-5.631V25.548h9.257a24.773,24.773,0,0,1-1.28,6.968Zm12.453-6.968h8.107a16.148,16.148,0,0,1-2.146,6.968H61.511A27.257,27.257,0,0,0,62.675,25.548Zm4.34-11.613H60.678A23.935,23.935,0,0,0,57.472,8.4,16.242,16.242,0,0,1,67.015,13.935ZM51.706,8.393a22.8,22.8,0,0,0-1.424,2.057,13.907,13.907,0,0,0-.654-1.541A16.014,16.014,0,0,1,51.706,8.393ZM25.548,15.1a11.613,11.613,0,1,1,23.225,0V26.885a16.447,16.447,0,0,1-8.2,14.213,3.473,3.473,0,0,0-.866-1.655,14.551,14.551,0,0,0,6.746-12.287V17.419a9.29,9.29,0,1,0-18.58,0v9.736a14.551,14.551,0,0,0,6.746,12.287A3.468,3.468,0,0,0,33.75,41.1a16.447,16.447,0,0,1-8.2-14.213Zm18.58,2.752a11.977,11.977,0,0,0-4.838-2.541,3.642,3.642,0,0,0-3.457-2.534,3.322,3.322,0,0,0-3.318,3.318v.166h2.323v-.166a1,1,0,0,1,1-1,1.329,1.329,0,0,1,1.327,1.327A1.286,1.286,0,0,1,36.037,17.7l-5.844.729V17.419a6.968,6.968,0,1,1,13.935,0ZM30.193,20.767,36.325,20a3.616,3.616,0,0,0,2.918-2.284,9.63,9.63,0,0,1,4.885,3.566v3.1a6.968,6.968,0,1,1-13.935,0ZM42.282,33.618l-.265-1.326a9.367,9.367,0,0,0,1.377-1.036A12.334,12.334,0,0,1,42.282,33.618Zm-9.976-1.326-.265,1.326a12.26,12.26,0,0,1-1.111-2.362A9.235,9.235,0,0,0,32.305,32.291Zm2.17.986a9.222,9.222,0,0,0,5.37,0l.534,2.669a12.189,12.189,0,0,1-3.218,2.262,12.2,12.2,0,0,1-3.218-2.262ZM36,41.806a1.149,1.149,0,0,1,1-1.129l.161.07.161-.07a1.149,1.149,0,0,1,1,1.129v2.323a1.161,1.161,0,1,1-2.323,0ZM16.258,25.548v4.258a.4.4,0,0,1-.7.232l-3.367-4.491H3.484V11.613h20.2a13.849,13.849,0,0,0-.459,3.484v.681l-2.663-2.663-1.642,1.642,3.824,3.824L18.921,22.4l1.642,1.642,2.663-2.663v4.164Zm1.161,11.613h2.323v.394a11.341,11.341,0,0,0-2.276,4.251h-.046Zm7.912,15.1H48.989a2.107,2.107,0,0,1,2.105,2.105,2.056,2.056,0,0,1-.019.279L49.538,66.192H24.784L23.243,54.641a2.231,2.231,0,0,1-.017-.279,2.107,2.107,0,0,1,2.105-2.105Zm21.744,18.58H27.247a2.111,2.111,0,0,1-2.087-1.827l-.066-.5H49.227l-.066.5A2.111,2.111,0,0,1,47.074,70.838ZM52.4,62.276l.978-7.326a4.521,4.521,0,0,0,.038-.586,4.434,4.434,0,0,0-3.484-4.322V46.724l1.039-2.078L48.9,43.607l-1.284,2.57v3.758h-20.9V46.177l-1.283-2.568-2.078,1.039,1.038,2.076v3.317A4.433,4.433,0,0,0,20.9,54.364a4.49,4.49,0,0,0,.038.585l.978,7.328A9.086,9.086,0,0,1,17.6,52.651l1.9-9.5a9.04,9.04,0,0,1,6.264-6.879,18.75,18.75,0,0,0,7.918,7.417v.437a3.484,3.484,0,1,0,6.968,0v-.437a18.736,18.736,0,0,0,7.918-7.417,9.038,9.038,0,0,1,6.264,6.879l1.9,9.5A9.067,9.067,0,0,1,52.4,62.276Zm5.058-21.9a24.18,24.18,0,0,0,3.216-5.54H67A16.208,16.208,0,0,1,57.461,40.379Z" fill="#4c2e88"/>
      <path id="Path_37489" data-name="Path 37489" d="M9.63,13.114,4.164,18.58,9.63,24.046,11.272,22.4,7.448,18.58l3.824-3.824Z" fill="#4c2e88"/>
      <path id="Path_37490" data-name="Path 37490" d="M10.306,17.414h9.573v2.321H10.306Z" transform="translate(-6.588 28.725) rotate(-75.992)" fill="#4c2e88"/>
    </g>
  </g>
</svg>
