<svg xmlns="http://www.w3.org/2000/svg" xmlns:xlink="http://www.w3.org/1999/xlink" width="72" height="72" viewBox="0 0 72 72">
  <defs>
    <clipPath id="clip-path">
      <rect id="Rectangle_4548" data-name="Rectangle 4548" width="72" height="72" transform="translate(1104 2034)" fill="#4c2e88"/>
    </clipPath>
  </defs>
  <g id="Mask_Group_45" data-name="Mask Group 45" transform="translate(-1104 -2034)" clip-path="url(#clip-path)">
    <g id="payment_gateway_x2C__security_x2C__laptop_x2C__check_mark" transform="translate(1101.601 2030.408)">
      <g id="payment_gateway">
        <g id="Group_11546" data-name="Group 11546">
          <g id="income_1_">
            <g id="Group_11529" data-name="Group 11529">
              <g id="Group_11522" data-name="Group 11522">
                <g id="Group_11521" data-name="Group 11521">
                  <g id="Group_11520" data-name="Group 11520">
                    <g id="Group_11519" data-name="Group 11519">
                      <g id="Group_11518" data-name="Group 11518">
                        <g id="Group_11517" data-name="Group 11517">
                          <path id="Path_37497" data-name="Path 37497" d="M68.387,71.986H8.4a6,6,0,0,1-6-6,1.2,1.2,0,0,1,1.2-1.2H29.994a1.2,1.2,0,1,1,0,2.4H5a3.611,3.611,0,0,0,3.4,2.4H68.387a3.6,3.6,0,0,0,3.393-2.4H46.791a1.2,1.2,0,1,1,0-2.4H73.186a1.2,1.2,0,0,1,1.2,1.2A6.007,6.007,0,0,1,68.387,71.986Z" fill="#4c2e88"/>
                        </g>
                      </g>
                    </g>
                  </g>
                </g>
              </g>
              <g id="Group_11528" data-name="Group 11528">
                <g id="Group_11527" data-name="Group 11527">
                  <g id="Group_11526" data-name="Group 11526">
                    <g id="Group_11525" data-name="Group 11525">
                      <g id="Group_11524" data-name="Group 11524">
                        <g id="Group_11523" data-name="Group 11523">
                          <path id="Path_37498" data-name="Path 37498" d="M8.4,62.388a1.2,1.2,0,0,1-1.2-1.2V22.8a3.586,3.586,0,0,1,3.58-3.6H41.973a1.2,1.2,0,1,1,0,2.4H10.779A1.185,1.185,0,0,0,9.6,22.8V61.188a1.2,1.2,0,0,1-1.2,1.2Z" fill="#4c2e88"/>
                        </g>
                      </g>
                    </g>
                  </g>
                </g>
              </g>
            </g>
          </g>
          <g id="Group_11541" data-name="Group 11541">
            <g id="Group_11536" data-name="Group 11536">
              <g id="Group_11535" data-name="Group 11535">
                <g id="Group_11534" data-name="Group 11534">
                  <g id="Group_11533" data-name="Group 11533">
                    <g id="Group_11532" data-name="Group 11532">
                      <g id="Group_11531" data-name="Group 11531">
                        <g id="Group_11530" data-name="Group 11530">
                          <path id="Path_37499" data-name="Path 37499" d="M60.005,26.395h-.029a1.207,1.207,0,0,1-.9-.432l-6-7.2a1.2,1.2,0,1,1,1.848-1.536l5.118,6.143L72.317,9.987a1.2,1.2,0,1,1,1.766,1.622l-13.193,14.4a1.206,1.206,0,0,1-.885.389Z" fill="#4c2e88"/>
                        </g>
                      </g>
                    </g>
                  </g>
                </g>
              </g>
            </g>
            <g id="Group_11540" data-name="Group 11540">
              <g id="Group_11539" data-name="Group 11539">
                <g id="Group_11538" data-name="Group 11538">
                  <g id="Group_11537" data-name="Group 11537">
                    <path id="Path_37500" data-name="Path 37500" d="M59.989,35.993A14.4,14.4,0,1,1,67.24,9.157a1.2,1.2,0,1,1-1.209,2.073A12,12,0,1,0,71.986,21.6a12.314,12.314,0,0,0-.276-2.575,1.2,1.2,0,1,1,2.342-.516,14.687,14.687,0,0,1,.334,3.091A14.413,14.413,0,0,1,59.989,35.993Z" fill="#4c2e88"/>
                  </g>
                </g>
              </g>
            </g>
          </g>
          <g id="Group_11545" data-name="Group 11545">
            <g id="Group_11544" data-name="Group 11544">
              <g id="Group_11543" data-name="Group 11543">
                <g id="Group_11542" data-name="Group 11542">
                  <path id="Path_37501" data-name="Path 37501" d="M68.387,62.388a1.2,1.2,0,0,0,1.2-1.2v-22.8a1.2,1.2,0,1,0-2.4,0v22.8A1.2,1.2,0,0,0,68.387,62.388Z" fill="#4c2e88"/>
                </g>
              </g>
            </g>
          </g>
        </g>
        <g id="Group_11549" data-name="Group 11549">
          <g id="Group_11548" data-name="Group 11548">
            <g id="Group_11547" data-name="Group 11547">
              <path id="Path_37502" data-name="Path 37502" d="M47.991,51.59a1.2,1.2,0,0,1-1.2,1.2h-12a1.2,1.2,0,1,1,0-2.4h12A1.2,1.2,0,0,1,47.991,51.59Z" fill="#4c2e88"/>
            </g>
          </g>
        </g>
        <g id="Group_11552" data-name="Group 11552">
          <g id="Group_11551" data-name="Group 11551">
            <g id="Group_11550" data-name="Group 11550">
              <path id="Path_37503" data-name="Path 37503" d="M57.589,46.791a1.2,1.2,0,0,1-1.2,1.2h-21.6a1.2,1.2,0,0,1,0-2.4h21.6A1.2,1.2,0,0,1,57.589,46.791Z" fill="#4c2e88"/>
            </g>
          </g>
        </g>
        <g id="Group_11555" data-name="Group 11555">
          <g id="Group_11554" data-name="Group 11554">
            <g id="Group_11553" data-name="Group 11553">
              <path id="Path_37504" data-name="Path 37504" d="M57.589,41.992a1.2,1.2,0,0,1-1.2,1.2h-21.6a1.2,1.2,0,1,1,0-2.4h21.6A1.2,1.2,0,0,1,57.589,41.992Z" fill="#4c2e88"/>
            </g>
          </g>
        </g>
      </g>
      <g id="Group_11568" data-name="Group 11568">
        <g id="Group_11559" data-name="Group 11559">
          <g id="Group_11558" data-name="Group 11558">
            <g id="Group_11557" data-name="Group 11557">
              <g id="Group_11556" data-name="Group 11556">
                <path id="Path_37505" data-name="Path 37505" d="M22.776,55.192a5.936,5.936,0,0,0,6-6c0-2.723-1.852-4.708-5.5-5.9l-.271-.089c-1.365-.446-2.63-1.046-2.63-2.412a2.3,2.3,0,0,1,2.4-2.4,4.8,4.8,0,0,1,2.824.914,1.2,1.2,0,1,0,1.548-1.833,7.232,7.232,0,0,0-4.372-1.483,4.693,4.693,0,0,0-4.8,4.8c0,3.3,3.223,4.35,4.281,4.691l.271.089c2.589.842,3.846,2.03,3.846,3.619a3.521,3.521,0,0,1-3.6,3.6,4.85,4.85,0,0,1-3.839-1.92,1.2,1.2,0,0,0-1.924,1.437,7.292,7.292,0,0,0,5.764,2.884Z" fill="#4c2e88"/>
              </g>
            </g>
          </g>
        </g>
        <g id="Group_11563" data-name="Group 11563">
          <g id="Group_11562" data-name="Group 11562">
            <g id="Group_11561" data-name="Group 11561">
              <g id="Group_11560" data-name="Group 11560">
                <path id="Path_37506" data-name="Path 37506" d="M22.8,57.589a1.2,1.2,0,0,0,1.2-1.2v-1.2a1.2,1.2,0,1,0-2.4,0v1.2A1.2,1.2,0,0,0,22.8,57.589Z" fill="#4c2e88"/>
              </g>
            </g>
          </g>
        </g>
        <g id="Group_11567" data-name="Group 11567">
          <g id="Group_11566" data-name="Group 11566">
            <g id="Group_11565" data-name="Group 11565">
              <g id="Group_11564" data-name="Group 11564">
                <path id="Path_37507" data-name="Path 37507" d="M22.8,37.2A1.2,1.2,0,0,0,24,36V34.8a1.2,1.2,0,1,0-2.4,0V36A1.2,1.2,0,0,0,22.8,37.2Z" fill="#4c2e88"/>
              </g>
            </g>
          </g>
        </g>
      </g>
      <g id="Group_11569" data-name="Group 11569">
        <path id="Path_37508" data-name="Path 37508" d="M63.588,62.388H13.2a1.2,1.2,0,0,1-1.2-1.2V25.2A1.2,1.2,0,0,1,13.2,24H41.992a1.2,1.2,0,1,1,0,2.4H14.4V59.989H62.388v-20.4a1.2,1.2,0,1,1,2.4,0v21.6A1.2,1.2,0,0,1,63.588,62.388Z" fill="#4c2e88"/>
      </g>
    </g>
  </g>
</svg>
