<svg xmlns="http://www.w3.org/2000/svg" xmlns:xlink="http://www.w3.org/1999/xlink" width="72" height="72" viewBox="0 0 72 72">
  <defs>
    <clipPath id="clip-path">
      <rect id="Rectangle_4544" data-name="Rectangle 4544" width="72" height="72" transform="translate(1104 1412)" fill="#4c2e88"/>
    </clipPath>
  </defs>
  <g id="Mask_Group_41" data-name="Mask Group 41" transform="translate(-1104 -1412)" clip-path="url(#clip-path)">
    <g id="office" transform="translate(1100.276 1408.276)">
      <path id="Path_37468" data-name="Path 37468" d="M74.483,68.276H73.241V34.759A1.241,1.241,0,0,0,72,33.517H64.552V9.931A1.241,1.241,0,0,0,63.31,8.69H55.862V4.966a1.241,1.241,0,0,0-1.241-1.241H24.828a1.241,1.241,0,0,0-1.241,1.241V8.69H16.138A1.241,1.241,0,0,0,14.9,9.931V33.517H7.448a1.241,1.241,0,0,0-1.241,1.241V68.276H4.966a1.241,1.241,0,0,0-1.241,1.241v4.966a1.241,1.241,0,0,0,1.241,1.241H74.483a1.241,1.241,0,0,0,1.241-1.241V69.517A1.241,1.241,0,0,0,74.483,68.276ZM70.759,36V68.276H64.552V36ZM26.069,6.207h27.31V8.69H26.069Zm-8.69,4.966h44.69v57.1H59.586V57.1a1.241,1.241,0,0,0-1.241-1.241h-14.9A1.241,1.241,0,0,0,42.207,57.1V68.276H37.241V57.1A1.241,1.241,0,0,0,36,55.862H21.1A1.241,1.241,0,0,0,19.862,57.1V68.276H17.379Zm32.276,57.1H44.69V58.345h4.966Zm2.483-9.931H57.1v9.931H52.138ZM27.31,68.276H22.345V58.345H27.31Zm2.483-9.931h4.966v9.931H29.793ZM8.69,36H14.9V68.276H8.69ZM73.241,73.241H6.207V70.759H73.241Z" fill="#4c2e88"/>
      <path id="Path_37469" data-name="Path 37469" d="M21.1,53.379H58.345a1.241,1.241,0,0,0,1.241-1.241V14.9a1.241,1.241,0,0,0-1.241-1.241H21.1A1.241,1.241,0,0,0,19.862,14.9V52.138A1.241,1.241,0,0,0,21.1,53.379Zm1.241-14.9H27.31v4.966H22.345Zm0-7.448H27.31V36H22.345ZM57.1,36H52.138V31.034H57.1Zm-7.448,0H44.69V31.034h4.966Zm-7.448,0H37.241V31.034h4.966Zm-7.448,0H29.793V31.034h4.966Zm-4.966,2.483h4.966v4.966H29.793Zm7.448,0h4.966v4.966H37.241Zm7.448,0h4.966v4.966H44.69Zm7.448,0H57.1v4.966H52.138ZM57.1,28.552H52.138V23.586H57.1Zm-7.448,0H44.69V23.586h4.966Zm-7.448,0H37.241V23.586h4.966Zm-7.448,0H29.793V23.586h4.966Zm-7.448,0H22.345V23.586H27.31ZM22.345,45.931H27.31V50.9H22.345Zm7.448,0h4.966V50.9H29.793Zm7.448,0h4.966V50.9H37.241Zm7.448,0h4.966V50.9H44.69ZM57.1,50.9H52.138V45.931H57.1Zm0-29.793H52.138V16.138H57.1Zm-7.448,0H44.69V16.138h4.966Zm-7.448,0H37.241V16.138h4.966Zm-7.448,0H29.793V16.138h4.966ZM22.345,16.138H27.31V21.1H22.345Z" fill="#4c2e88"/>
    </g>
  </g>
</svg>
