<svg xmlns="http://www.w3.org/2000/svg" xmlns:xlink="http://www.w3.org/1999/xlink" width="72" height="72" viewBox="0 0 72 72">
  <defs>
    <clipPath id="clip-path">
      <rect id="Rectangle_4451" data-name="Rectangle 4451" width="72" height="72" transform="translate(338.767 1450.767)" fill="#4c2e88"/>
    </clipPath>
  </defs>
  <g id="Mask_Group_1" data-name="Mask Group 1" transform="translate(-338.767 -1450.767)" clip-path="url(#clip-path)">
    <g id="app-development" transform="translate(339 1451)">
      <path id="Path_37189" data-name="Path 37189" d="M31.3,58.121H5.589A5.6,5.6,0,0,1,0,52.532V5.589A5.6,5.6,0,0,1,5.589,0H7.824V2.235H5.589A3.353,3.353,0,0,0,2.235,5.589V52.532a3.353,3.353,0,0,0,3.353,3.353H31.3Z" fill="#4c2e88"/>
      <path id="Path_37190" data-name="Path 37190" d="M13.219,0h2.237V2.235H13.219Z" transform="translate(-3.159)" fill="#4c2e88"/>
      <path id="Path_37191" data-name="Path 37191" d="M70.508,58.121V55.885a3.353,3.353,0,0,0,3.353-3.353V5.589a3.353,3.353,0,0,0-3.353-3.353H19.094V0H70.508A5.6,5.6,0,0,1,76.1,5.589V52.532a5.6,5.6,0,0,1-5.589,5.589Z" transform="translate(-4.564)" fill="#4c2e88"/>
      <path id="Path_37192" data-name="Path 37192" d="M0,0H4.608V2.235H0Z" transform="matrix(0.243, -0.97, 0.97, 0.243, 21.27, 61.226)" fill="#4c2e88"/>
      <path id="Path_37193" data-name="Path 37193" d="M37.264,86.019H26.086A1.118,1.118,0,0,1,24.969,84.9V82.666a3.353,3.353,0,0,1,3.353-3.353h8.942v2.235H28.322A1.118,1.118,0,0,0,27.2,82.666v1.118H37.264Z" transform="translate(-5.968 -18.956)" fill="#4c2e88"/>
      <path id="Path_37194" data-name="Path 37194" d="M1.469,61.688H31.647v2.235H1.469Z" transform="translate(-0.351 -14.744)" fill="#4c2e88"/>
      <path id="Path_37195" data-name="Path 37195" d="M5.875,67.563H8.11V69.8H5.875Z" transform="translate(-1.404 -16.148)" fill="#4c2e88"/>
      <path id="Path_37196" data-name="Path 37196" d="M11.75,67.563h6.706V69.8H11.75Z" transform="translate(-2.808 -16.148)" fill="#4c2e88"/>
      <path id="Path_37197" data-name="Path 37197" d="M72.005,76.448H49.651a5.6,5.6,0,0,1-5.589-5.589V26.151a5.6,5.6,0,0,1,5.589-5.589H72.005a5.6,5.6,0,0,1,5.589,5.589V70.859a5.6,5.6,0,0,1-5.589,5.589ZM49.651,22.8A3.353,3.353,0,0,0,46.3,26.151V70.859a3.353,3.353,0,0,0,3.353,3.353H72.005a3.353,3.353,0,0,0,3.353-3.353V26.151A3.353,3.353,0,0,0,72.005,22.8Z" transform="translate(-10.531 -4.915)" fill="#4c2e88"/>
      <path id="Path_37198" data-name="Path 37198" d="M66.768,33.495H55.591c-2.095,0-2.972-1.824-3.249-3.353h-6.81V27.906h7.824a1.118,1.118,0,0,1,1.118,1.118c0,.019.063,2.235,1.118,2.235H66.768c1.055,0,1.118-2.216,1.118-2.235A1.118,1.118,0,0,1,69,27.906h7.824v2.235h-6.81C69.74,31.671,68.862,33.495,66.768,33.495Z" transform="translate(-10.882 -6.67)" fill="#4c2e88"/>
      <path id="Path_37199" data-name="Path 37199" d="M60.219,26.438H69.16v2.235H60.219Z" transform="translate(-14.393 -6.319)" fill="#4c2e88"/>
      <path id="Path_37200" data-name="Path 37200" d="M60.219,86.656H69.16v2.235H60.219Z" transform="translate(-14.393 -20.712)" fill="#4c2e88"/>
      <path id="Path_37201" data-name="Path 37201" d="M45.531,82.25h31.3v2.235h-31.3Z" transform="translate(-10.882 -19.658)" fill="#4c2e88"/>
      <path id="Path_37202" data-name="Path 37202" d="M21.523,32.7H17.052a1.118,1.118,0,0,1-1.118-1.118V29.944a11.111,11.111,0,0,1-1.81-.751l-1.16,1.16a1.118,1.118,0,0,1-1.58,0L8.222,27.191a1.118,1.118,0,0,1,0-1.58l1.159-1.16a11.111,11.111,0,0,1-.75-1.81H6.993a1.118,1.118,0,0,1-1.118-1.118V17.052a1.118,1.118,0,0,1,1.118-1.118H8.631a11.111,11.111,0,0,1,.751-1.81l-1.16-1.16a1.118,1.118,0,0,1,0-1.58l3.162-3.162a1.118,1.118,0,0,1,1.58,0l1.16,1.159a11.111,11.111,0,0,1,1.81-.75V6.993a1.118,1.118,0,0,1,1.118-1.118h4.471a1.118,1.118,0,0,1,1.118,1.118V8.631a11.111,11.111,0,0,1,1.81.751l1.16-1.16a1.118,1.118,0,0,1,1.58,0l3.162,3.162a1.118,1.118,0,0,1,0,1.58l-1.159,1.16a11.111,11.111,0,0,1,.75,1.81h1.639A1.118,1.118,0,0,1,32.7,17.052v4.471a1.118,1.118,0,0,1-1.118,1.118H29.944a11.111,11.111,0,0,1-.751,1.81l1.16,1.16a1.118,1.118,0,0,1,0,1.58l-3.162,3.162a1.118,1.118,0,0,1-1.58,0l-1.16-1.159a11.111,11.111,0,0,1-1.81.75v1.639A1.118,1.118,0,0,1,21.523,32.7ZM18.17,30.465h2.235V29.09A1.118,1.118,0,0,1,21.275,28a8.849,8.849,0,0,0,2.764-1.148,1.118,1.118,0,0,1,1.387.155l.975.975,1.58-1.58-.975-.975a1.118,1.118,0,0,1-.155-1.387A8.849,8.849,0,0,0,28,21.275a1.118,1.118,0,0,1,1.091-.87h1.375V18.17H29.09A1.118,1.118,0,0,1,28,17.3a8.849,8.849,0,0,0-1.148-2.764,1.118,1.118,0,0,1,.155-1.387l.975-.975-1.58-1.58-.975.975a1.118,1.118,0,0,1-1.387.155,8.849,8.849,0,0,0-2.764-1.148,1.118,1.118,0,0,1-.87-1.091V8.11H18.17V9.485a1.118,1.118,0,0,1-.87,1.091,8.849,8.849,0,0,0-2.764,1.148,1.118,1.118,0,0,1-1.387-.155l-.975-.975-1.58,1.58.975.975a1.118,1.118,0,0,1,.155,1.387A8.849,8.849,0,0,0,10.576,17.3a1.118,1.118,0,0,1-1.091.87H8.11v2.235H9.485a1.118,1.118,0,0,1,1.091.87,8.849,8.849,0,0,0,1.148,2.764,1.118,1.118,0,0,1-.155,1.387l-.975.975,1.58,1.58.975-.975a1.118,1.118,0,0,1,1.387-.155A8.849,8.849,0,0,0,17.3,28a1.118,1.118,0,0,1,.87,1.091Z" transform="translate(-1.404 -1.404)" fill="#4c2e88"/>
      <path id="Path_37203" data-name="Path 37203" d="M21.745,27.333a5.589,5.589,0,1,1,5.589-5.589,5.589,5.589,0,0,1-5.589,5.589Zm0-8.942A3.353,3.353,0,1,0,25.1,21.745,3.353,3.353,0,0,0,21.745,18.392Z" transform="translate(-3.861 -3.861)" fill="#4c2e88"/>
      <path id="Path_37204" data-name="Path 37204" d="M24.267,55.3H22.031V50.833a1.118,1.118,0,0,1,1.118-1.118h1.639a11.111,11.111,0,0,1,.751-1.81l-1.16-1.16a1.118,1.118,0,0,1,0-1.58L27.54,42a1.118,1.118,0,0,1,1.58,0l1.16,1.159a11.111,11.111,0,0,1,1.81-.75V40.774a1.118,1.118,0,0,1,1.118-1.118h4.471v2.235H34.326v1.375a1.118,1.118,0,0,1-.87,1.091,8.849,8.849,0,0,0-2.764,1.148,1.118,1.118,0,0,1-1.387-.155l-.975-.975-1.58,1.58.975.975a1.118,1.118,0,0,1,.155,1.387,8.849,8.849,0,0,0-1.148,2.764,1.118,1.118,0,0,1-1.091.87H24.267Z" transform="translate(-5.266 -9.478)" fill="#4c2e88"/>
      <path id="Path_37205" data-name="Path 37205" d="M34.548,55.526H32.313A5.6,5.6,0,0,1,37.9,49.937v2.235A3.353,3.353,0,0,0,34.548,55.526Z" transform="translate(-7.723 -11.935)" fill="#4c2e88"/>
      <path id="Path_37206" data-name="Path 37206" d="M62.232,65.715A12.295,12.295,0,1,1,74.527,53.42,12.295,12.295,0,0,1,62.232,65.715Zm0-22.354A10.059,10.059,0,1,0,72.292,53.42,10.059,10.059,0,0,0,62.232,43.36Z" transform="translate(-11.935 -9.829)" fill="#4c2e88"/>
      <path id="Path_37207" data-name="Path 37207" d="M61.05,62.648a1.118,1.118,0,0,1-.79-.327l-5.589-5.589a1.118,1.118,0,0,1,0-1.58L58.024,51.8a1.118,1.118,0,0,1,1.58,0l1.445,1.445,5.916-5.916a1.118,1.118,0,0,1,1.58,0L71.9,50.681a1.118,1.118,0,0,1,0,1.58L61.84,62.32A1.118,1.118,0,0,1,61.05,62.648Zm-4.008-6.706L61.05,59.95l8.479-8.479L67.756,49.7,61.84,55.614a1.118,1.118,0,0,1-1.58,0l-1.445-1.445Z" transform="translate(-12.989 -11.233)" fill="#4c2e88"/>
      <path id="Path_37208" data-name="Path 37208" d="M83.719,5.875h2.235V8.11H83.719Z" transform="translate(-20.009 -1.404)" fill="#4c2e88"/>
      <path id="Path_37209" data-name="Path 37209" d="M61.688,5.875h14.53V8.11H61.688Z" transform="translate(-14.744 -1.404)" fill="#4c2e88"/>
    </g>
  </g>
</svg>
