<svg xmlns="http://www.w3.org/2000/svg" xmlns:xlink="http://www.w3.org/1999/xlink" width="72" height="72" viewBox="0 0 72 72">
  <defs>
    <clipPath id="clip-path">
      <rect id="Rectangle_4550" data-name="Rectangle 4550" width="72" height="72" transform="translate(1104 2345)" fill="#4c2e88"/>
    </clipPath>
  </defs>
  <g id="Mask_Group_47" data-name="Mask Group 47" transform="translate(-1104 -2345)" clip-path="url(#clip-path)">
    <g id="support" transform="translate(1104 2345)">
      <path id="Path_37524" data-name="Path 37524" d="M35.874,9.149a1.416,1.416,0,0,0,1.416-1.416V1.416a1.416,1.416,0,1,0-2.832,0V7.733a1.416,1.416,0,0,0,1.416,1.416Z" fill="#4c2e88"/>
      <path id="Path_37525" data-name="Path 37525" d="M70.493,48.654l-2.5-2.495a4.743,4.743,0,0,0-5.612-.8L57.665,40.65l.23-.229a4.915,4.915,0,0,0,0-6.941,4.862,4.862,0,0,0-2.465-1.333,4.946,4.946,0,0,0,.2-1.378,4.9,4.9,0,0,0-3.9-4.8,4.945,4.945,0,0,0,.2-1.378,4.9,4.9,0,0,0-3.9-4.8,4.9,4.9,0,0,0-5.238-6.255l-9.342-1.768c-1.425-.27-3.2-.449-4.327.575a2.558,2.558,0,0,0-.214.222A4.925,4.925,0,0,0,23.728,13.7a4.872,4.872,0,0,0-1.435,3.472,4.952,4.952,0,0,0,.195,1.378,4.905,4.905,0,0,0-3.9,4.8,4.937,4.937,0,0,0,.2,1.382A4.911,4.911,0,0,0,15.739,32.3a4.908,4.908,0,0,0-1.885,8.119l.229.228L9.367,45.358a4.735,4.735,0,0,0-5.357.928l-2.5,2.5a4.731,4.731,0,0,0,0,6.681l3.124,3.12a1.416,1.416,0,0,0,2-2l-3.124-3.12a1.9,1.9,0,0,1,0-2.672l2.5-2.5a1.9,1.9,0,0,1,2.31-.283,1.428,1.428,0,0,0,.178.218,1.409,1.409,0,0,0,.407.283L23.263,62.844a1.395,1.395,0,0,0,.683.69,1.9,1.9,0,0,1-.079,2.586l-2.5,2.5a1.9,1.9,0,0,1-2.678,0L15.564,65.5a1.416,1.416,0,0,0-2,2l3.127,3.127a4.742,4.742,0,0,0,6.679,0l2.5-2.5a4.735,4.735,0,0,0,.663-5.849l5.307-5.3.017-.017c.608-.628,2.3-.511,3.936-.4a20.37,20.37,0,0,0,3.725.025l5.811,5.8a4.733,4.733,0,0,0,.8,5.607l2.5,2.5a4.735,4.735,0,0,0,6.68,0L70.494,55.336a4.731,4.731,0,0,0,0-6.682ZM32.909,14.546l6.143,1.163-3.677,3.676a8.928,8.928,0,0,1-2.2-1.6,6.515,6.515,0,0,1-2.084-3.219h0a1.238,1.238,0,0,1-.006-.139,4.8,4.8,0,0,1,1.828.123ZM25.729,15.7a2.089,2.089,0,0,1,2.643-.25,10.13,10.13,0,0,0,2.842,4.379,10.488,10.488,0,0,0,4.08,2.528,2.079,2.079,0,0,1-3.177,2.655h0l-6.387-6.375a2.085,2.085,0,0,1,0-2.935Zm-3.7,6.18a2.089,2.089,0,0,1,2.943,0l5.143,5.133a2.081,2.081,0,0,1-2.946,2.941h0l-3.9-3.9-.019-.018-1.221-1.22a2.078,2.078,0,0,1,0-2.937Zm-3.708,6.179a2.1,2.1,0,0,1,2.933-.01l3.914,3.912A2.079,2.079,0,0,1,22.222,34.9L20.8,33.478h0L18.321,31a2.084,2.084,0,0,1,0-2.939Zm-2.467,7.423a2.093,2.093,0,0,1,2.947,0L20.222,36.9a2.079,2.079,0,0,1-2.947,2.933l-.178-.177-.006-.007-.008-.007-1.227-1.222a2.08,2.08,0,0,1,0-2.937Zm28.861,16.1a1.416,1.416,0,0,0-2,0l-1.26,1.258c-1.2,1.2-3.367,1.047-5.465.9-2.278-.158-4.634-.322-6.159,1.243l-5.216,5.21L11.568,47.164l4.616-4.608a4.911,4.911,0,0,0,7.476-4.189c0-.012,0-.024,0-.037H23.7a4.9,4.9,0,0,0,4.91-4.9c0-.012,0-.024,0-.037h.037a4.893,4.893,0,0,0,4.91-4.941h.038a4.913,4.913,0,0,0,4.192-7.467l4.046-4.045a2.078,2.078,0,0,1,1.063-.566c.042,0,.084-.011.125-.019a2.075,2.075,0,0,1,1.763,3.522L43.546,21.1l-.013.012-1.419,1.417a1.416,1.416,0,0,0,2,2L45.353,23.3h0l.187-.186a2.086,2.086,0,0,1,2.939.007,2.078,2.078,0,0,1,0,2.936L47.238,27.3h0l-1.419,1.413a1.416,1.416,0,0,0,2,2.007l1.426-1.42a2.079,2.079,0,0,1,2.942,2.938l-2.471,2.472a1.416,1.416,0,1,0,2,2L52.927,35.5l.021-.019a2.079,2.079,0,0,1,2.942,2.937l-1.231,1.23h0L52.7,41.6a1.416,1.416,0,0,0,2,2l.956-.955,4.581,4.576L47.2,60.255l-4.674-4.668a5.569,5.569,0,0,0,.93-.749l1.259-1.258a1.416,1.416,0,0,0,0-2Zm23.777,1.754L53.313,68.493a1.9,1.9,0,0,1-2.677,0l-2.5-2.5a1.894,1.894,0,0,1,0-2.669L63.312,48.163a1.9,1.9,0,0,1,2.678,0l2.5,2.495a1.9,1.9,0,0,1,0,2.673Z" fill="#4c2e88"/>
      <path id="Path_37526" data-name="Path 37526" d="M17.069,7.955a1.416,1.416,0,0,0,2-2L13.909.8a1.416,1.416,0,0,0-2,2Z" fill="#4c2e88"/>
      <path id="Path_37527" data-name="Path 37527" d="M53.68,8.369a1.412,1.412,0,0,0,1-.414L59.837,2.8a1.416,1.416,0,0,0-2-2L52.679,5.951a1.416,1.416,0,0,0,1,2.418Z" fill="#4c2e88"/>
      <path id="Path_37528" data-name="Path 37528" d="M8.834,60.919a1.416,1.416,0,0,0,.017,2l0,0a1.416,1.416,0,1,0-.021-2.007Z" fill="#4c2e88"/>
      <path id="Path_37529" data-name="Path 37529" d="M48.179,49.538a1.417,1.417,0,1,0-.636-2.681l-.008,0a1.415,1.415,0,0,0,.644,2.678Z" fill="#4c2e88"/>
    </g>
  </g>
</svg>
