<svg xmlns="http://www.w3.org/2000/svg" xmlns:xlink="http://www.w3.org/1999/xlink" width="72" height="72" viewBox="0 0 72 72">
  <defs>
    <clipPath id="clip-path">
      <rect id="Rectangle_4546" data-name="Rectangle 4546" width="72" height="72" transform="translate(242 1723)" fill="#4c2e88"/>
    </clipPath>
  </defs>
  <g id="Mask_Group_42" data-name="Mask Group 42" transform="translate(-242 -1723)" clip-path="url(#clip-path)">
    <g id="programming" transform="translate(242 1723)">
      <path id="Path_37470" data-name="Path 37470" d="M69.146,14.469a16.109,16.109,0,0,0-1.7-4.093l1.349-2.7L64.324,3.209l-2.7,1.349a16.059,16.059,0,0,0-4.095-1.7L56.579,0H50.26l-.952,2.856a16.018,16.018,0,0,0-4.095,1.7l-2.7-1.349L38.046,7.676l1.349,2.7a16.15,16.15,0,0,0-1.7,4.093l-2.854.953v3.16H5.806A5.813,5.813,0,0,0,0,24.387V59.226a5.813,5.813,0,0,0,5.806,5.806H20.9v4.645H16.258V72H55.742V69.677H51.1V65.032h15.1A5.813,5.813,0,0,0,72,59.226V15.42ZM48.774,69.677H23.226V65.032H48.774ZM66.194,62.71H5.806a3.488,3.488,0,0,1-3.484-3.484V58.065H69.677v1.161A3.488,3.488,0,0,1,66.194,62.71Zm3.484-6.968H2.323V24.387A3.488,3.488,0,0,1,5.806,20.9H34.839v.838l2.854.952a16.109,16.109,0,0,0,1.7,4.093l-1.349,2.7,4.468,4.468,2.7-1.349a16.059,16.059,0,0,0,4.095,1.7l.952,2.856h6.319l.952-2.856a16.018,16.018,0,0,0,4.095-1.7l2.7,1.349,4.468-4.468-1.349-2.7a16.171,16.171,0,0,0,1.7-4.093l.533-.177Zm0-35.676-2.506.836-.14.646A13.833,13.833,0,0,1,65.139,26.1l-.357.556,1.186,2.369-2.1,2.1L61.5,29.942l-.556.358a13.837,13.837,0,0,1-4.552,1.892l-.646.14L54.9,34.839H51.933L51.1,32.332l-.646-.14A13.827,13.827,0,0,1,45.9,30.3l-.556-.358-2.37,1.186-2.1-2.1,1.186-2.369L41.7,26.1a13.809,13.809,0,0,1-1.892-4.553l-.14-.646-2.506-.836V17.094l2.506-.836.14-.646A13.833,13.833,0,0,1,41.7,11.059l.357-.556L40.871,8.133l2.1-2.1,2.37,1.186L45.9,6.86a13.837,13.837,0,0,1,4.552-1.892l.646-.14.838-2.505h2.971l.836,2.506.646.14A13.827,13.827,0,0,1,60.94,6.861l.556.358,2.37-1.186,2.1,2.1L64.782,10.5l.357.556a13.809,13.809,0,0,1,1.892,4.553l.14.646,2.506.836Zm0,0" fill="#4c2e88"/>
      <path id="Path_37471" data-name="Path 37471" d="M53.419,6.968A11.613,11.613,0,1,0,65.032,18.581,11.626,11.626,0,0,0,53.419,6.968Zm0,20.9a9.29,9.29,0,1,1,9.29-9.29A9.3,9.3,0,0,1,53.419,27.871Zm0,0" fill="#4c2e88"/>
      <path id="Path_37472" data-name="Path 37472" d="M53.419,13.935a4.645,4.645,0,1,0,4.645,4.645A4.65,4.65,0,0,0,53.419,13.935Zm0,6.968a2.323,2.323,0,1,1,2.323-2.323A2.325,2.325,0,0,1,53.419,20.9Zm0,0" fill="#4c2e88"/>
      <path id="Path_37473" data-name="Path 37473" d="M6.968,27.871v1.161a2.325,2.325,0,0,1-2.323,2.323v2.323A2.325,2.325,0,0,1,6.968,36v1.161a3.488,3.488,0,0,0,3.484,3.484h1.161V38.323H10.452A1.163,1.163,0,0,1,9.29,37.161V36a4.634,4.634,0,0,0-1.576-3.484A4.634,4.634,0,0,0,9.29,29.032V27.871a1.163,1.163,0,0,1,1.161-1.161h1.161V24.387H10.452A3.488,3.488,0,0,0,6.968,27.871Zm0,0" fill="#4c2e88"/>
      <path id="Path_37474" data-name="Path 37474" d="M42.968,39.484V38.323a3.488,3.488,0,0,0-3.484-3.484H38.323v2.323h1.161a1.163,1.163,0,0,1,1.161,1.161v1.161a4.634,4.634,0,0,0,1.576,3.484,4.634,4.634,0,0,0-1.576,3.484v1.161a1.163,1.163,0,0,1-1.161,1.161H38.323V51.1h1.161a3.488,3.488,0,0,0,3.484-3.484V46.452a2.325,2.325,0,0,1,2.323-2.323V41.806A2.325,2.325,0,0,1,42.968,39.484Zm0,0" fill="#4c2e88"/>
      <path id="Path_37475" data-name="Path 37475" d="M13.935,25.548H36v2.323H13.935Zm0,0" fill="#4c2e88"/>
      <path id="Path_37476" data-name="Path 37476" d="M18.581,30.194H36v2.323H18.581Zm0,0" fill="#4c2e88"/>
      <path id="Path_37477" data-name="Path 37477" d="M13.935,30.194h2.323v2.323H13.935Zm0,0" fill="#4c2e88"/>
      <path id="Path_37478" data-name="Path 37478" d="M13.935,34.839H36v2.323H13.935Zm0,0" fill="#4c2e88"/>
      <path id="Path_37479" data-name="Path 37479" d="M13.935,39.484H36v2.323H13.935Zm0,0" fill="#4c2e88"/>
      <path id="Path_37480" data-name="Path 37480" d="M33.677,44.129H36v2.323H33.677Zm0,0" fill="#4c2e88"/>
      <path id="Path_37481" data-name="Path 37481" d="M13.935,44.129H31.355v2.323H13.935Zm0,0" fill="#4c2e88"/>
      <path id="Path_37482" data-name="Path 37482" d="M13.935,48.774H36V51.1H13.935Zm0,0" fill="#4c2e88"/>
    </g>
  </g>
</svg>
