<svg id="Group_10123" data-name="Group 10123" xmlns="http://www.w3.org/2000/svg" width="60" height="60" viewBox="0 0 60 60">
  <g id="Сгруппировать_127" data-name="Сгруппировать 127" transform="translate(14.597 4.464)">
    <path id="Контур_58" data-name="Контур 58" d="M31.928,32.747C31.55,27.064,26.7,28.125,26.7,22.29c0-4.85,4.168-8.79,9.4-8.79,5.153,0,9.4,3.94,9.4,8.79,0,4.925-3.713,5.228-4.925,8.638" transform="translate(-20.79 -7.286)" fill="none" stroke="#4c2e88" stroke-linecap="round" stroke-linejoin="round" stroke-miterlimit="22.926" stroke-width="2"/>
    <line id="Линия_24" data-name="Линия 24" y1="2.197" x2="8.411" transform="translate(11.29 30.007)" fill="none" stroke="#4c2e88" stroke-linecap="round" stroke-linejoin="round" stroke-miterlimit="22.926" stroke-width="2"/>
    <line id="Линия_25" data-name="Линия 25" y1="2.197" x2="8.411" transform="translate(11.29 26.824)" fill="none" stroke="#4c2e88" stroke-linecap="round" stroke-linejoin="round" stroke-miterlimit="22.926" stroke-width="2"/>
    <line id="Линия_26" data-name="Линия 26" y1="2.197" x2="8.411" transform="translate(11.29 23.642)" fill="none" stroke="#4c2e88" stroke-linecap="round" stroke-linejoin="round" stroke-miterlimit="22.926" stroke-width="2"/>
    <path id="Контур_59" data-name="Контур 59" d="M41.232,46.4A2.879,2.879,0,0,1,38.2,49.052a3.142,3.142,0,0,1-2.5-1.137" transform="translate(-22.97 -15.257)" fill="none" stroke="#4c2e88" stroke-linecap="round" stroke-linejoin="round" stroke-miterlimit="22.926" stroke-width="2"/>
    <line id="Линия_27" data-name="Линия 27" y2="2.879" transform="translate(15.534)" fill="none" stroke="#4c2e88" stroke-linecap="round" stroke-linejoin="round" stroke-miterlimit="22.926" stroke-width="2"/>
    <line id="Линия_28" data-name="Линия 28" x1="2.046" y2="2.046" transform="translate(23.793 3.94)" fill="none" stroke="#4c2e88" stroke-linecap="round" stroke-linejoin="round" stroke-miterlimit="22.926" stroke-width="2"/>
    <line id="Линия_29" data-name="Линия 29" x1="2.804" transform="translate(27.658 15.003)" fill="none" stroke="#4c2e88" stroke-linecap="round" stroke-linejoin="round" stroke-miterlimit="22.926" stroke-width="2"/>
    <line id="Линия_30" data-name="Линия 30" x1="1.97" y1="2.046" transform="translate(23.414 23.566)" fill="none" stroke="#4c2e88" stroke-linecap="round" stroke-linejoin="round" stroke-miterlimit="22.926" stroke-width="2"/>
    <line id="Линия_31" data-name="Линия 31" x2="1.97" y2="2.046" transform="translate(5.077 3.94)" fill="none" stroke="#4c2e88" stroke-linecap="round" stroke-linejoin="round" stroke-miterlimit="22.926" stroke-width="2"/>
    <line id="Линия_32" data-name="Линия 32" x2="2.804" transform="translate(0 14.397)" fill="none" stroke="#4c2e88" stroke-linecap="round" stroke-linejoin="round" stroke-miterlimit="22.926" stroke-width="2"/>
    <line id="Линия_33" data-name="Линия 33" y1="2.046" x2="2.046" transform="translate(4.622 23.566)" fill="none" stroke="#4c2e88" stroke-linecap="round" stroke-linejoin="round" stroke-miterlimit="22.926" stroke-width="2"/>
  </g>
  <g id="Сгруппировать_128" data-name="Сгруппировать 128" transform="translate(13.233 39.224)">
    <path id="Контур_60" data-name="Контур 60" d="M36.037,56.382l4.622-2.5c1.061-.606,3.183-1.44,3.258.682l.758-.53c2.2-1.515,3.865-.455,3.031,1.667,3.94-2.8,5.3.758,3.561,1.667l-8.638,5.456-3.637,2.349c-2.576,1.667-5.986,1.667-6.971,1.061-5.456-1.44-7.047-2.728-11.821-2.122" transform="translate(-17.851 -51.663)" fill="none" stroke="#4c2e88" stroke-linecap="round" stroke-linejoin="round" stroke-miterlimit="22.926" stroke-width="2"/>
    <path id="Контур_61" data-name="Контур 61" d="M17.1,53.845l5.683-2.273a4.244,4.244,0,0,1,3.637,0c.985.758,2.046,1.515,3.031,2.273,4.243,3.183,4.622,2.349,9.623,2.652,1.137.076,1.819,1.819,0,2.576-4.7,2.122-7.577,1.212-11.821-.985" transform="translate(-17.1 -51.172)" fill="none" stroke="#4c2e88" stroke-linecap="round" stroke-linejoin="round" stroke-miterlimit="22.926" stroke-width="2"/>
  </g>
  <path id="Контур_62" data-name="Контур 62" d="M42.712,23.356a5.433,5.433,0,1,1-1.591-3.865,5.456,5.456,0,0,1,1.591,3.865" transform="translate(-7.428 -3.888)" fill="#c31f5d"/>
  <rect id="Прямоугольник_60" data-name="Прямоугольник 60" width="60" height="60" fill="none"/>
</svg>
