<svg xmlns="http://www.w3.org/2000/svg" xmlns:xlink="http://www.w3.org/1999/xlink" width="72" height="72" viewBox="0 0 72 72">
  <defs>
    <clipPath id="clip-path">
      <rect id="Rectangle_4547" data-name="Rectangle 4547" width="72" height="72" transform="translate(242 2034)" fill="#4c2e88"/>
    </clipPath>
  </defs>
  <g id="Mask_Group_44" data-name="Mask Group 44" transform="translate(-242 -2034)" clip-path="url(#clip-path)">
    <g id="speech-bubble" transform="translate(242 2037.656)">
      <path id="Path_37491" data-name="Path 37491" d="M36,14.062a1.406,1.406,0,1,0,1.406,1.406A1.407,1.407,0,0,0,36,14.062Zm0,0" fill="#4c2e88"/>
      <path id="Path_37492" data-name="Path 37492" d="M12.656,39.375a1.406,1.406,0,1,0-1.406-1.406A1.407,1.407,0,0,0,12.656,39.375Zm0,0" fill="#4c2e88"/>
      <path id="Path_37493" data-name="Path 37493" d="M47.25,0C34.59,0,24.2,8.729,23.4,19.723c-12.057.6-23.4,9.3-23.4,21.058A19.65,19.65,0,0,0,5.484,54.23a8.552,8.552,0,0,1-2.26,8.057,1.406,1.406,0,0,0,.994,2.4,15.512,15.512,0,0,0,10.747-4.344,32.046,32.046,0,0,0,9.784,1.531c12.658,0,23.048-8.726,23.854-19.719a31.621,31.621,0,0,0,8.43-1.5A15.512,15.512,0,0,0,67.781,45a1.406,1.406,0,0,0,.994-2.4,8.552,8.552,0,0,1-2.26-8.057A19.65,19.65,0,0,0,72,21.094C72,8.875,59.788,0,47.25,0ZM24.75,59.062A28.428,28.428,0,0,1,15.116,57.4a1.406,1.406,0,0,0-1.558.357,12.689,12.689,0,0,1-6.311,3.745,11.373,11.373,0,0,0,.857-8.37,1.4,1.4,0,0,0-.344-.594,16.9,16.9,0,0,1-4.948-11.76c0-9.91,10.046-18.281,21.937-18.281,11.229,0,21.094,7.809,21.094,18.281,0,10.081-9.463,18.281-21.094,18.281ZM64.24,32.854a1.41,1.41,0,0,0-.344.594,11.373,11.373,0,0,0,.857,8.37,12.685,12.685,0,0,1-6.311-3.745,1.407,1.407,0,0,0-1.558-.357A27.7,27.7,0,0,1,48.6,39.34,20.129,20.129,0,0,0,41,25.312H59.344a1.406,1.406,0,1,0,0-2.812H36.681a26.227,26.227,0,0,0-10.466-2.771c.808-9.445,9.934-16.916,21.035-16.916,11.892,0,21.937,8.372,21.937,18.281a16.9,16.9,0,0,1-4.948,11.76Zm0,0" fill="#4c2e88"/>
      <path id="Path_37494" data-name="Path 37494" d="M36,36.562H18.281a1.406,1.406,0,0,0,0,2.813H36a1.406,1.406,0,0,0,0-2.812Zm0,0" fill="#4c2e88"/>
      <path id="Path_37495" data-name="Path 37495" d="M36,45H12.656a1.406,1.406,0,1,0,0,2.812H36A1.406,1.406,0,1,0,36,45Zm0,0" fill="#4c2e88"/>
      <path id="Path_37496" data-name="Path 37496" d="M59.344,14.062H41.625a1.406,1.406,0,1,0,0,2.812H59.344a1.406,1.406,0,1,0,0-2.812Zm0,0" fill="#4c2e88"/>
    </g>
  </g>
</svg>
