<svg xmlns="http://www.w3.org/2000/svg" width="64.698" height="71.391" viewBox="0 0 64.698 71.391">
  <g id="Website" transform="translate(-3)">
    <path id="Path_37074" data-name="Path 37074" d="M66.583,0H4.115A1.115,1.115,0,0,0,3,1.115v69.16a1.115,1.115,0,0,0,1.115,1.115H66.583A1.115,1.115,0,0,0,67.7,70.276V1.115A1.115,1.115,0,0,0,66.583,0ZM5.231,2.231H65.467V8.924H5.231Zm0,66.929V11.155H65.467V69.16Z"/>
    <path id="Path_37075" data-name="Path 37075" d="M8,4.843A.843.843,0,1,0,8.843,4,.843.843,0,0,0,8,4.843Z" transform="translate(-0.783 -0.626)"/>
    <path id="Path_37076" data-name="Path 37076" d="M13,4.843A.843.843,0,1,0,13.843,4,.843.843,0,0,0,13,4.843Z" transform="translate(-2.748 -0.626)"/>
    <path id="Path_37077" data-name="Path 37077" d="M18,4.843A.843.843,0,1,0,18.843,4,.843.843,0,0,0,18,4.843Z" transform="translate(-4.713 -0.626)"/>
    <path id="Path_37078" data-name="Path 37078" d="M55.5,13H9.011A.965.965,0,0,0,8,13.912V27.6a.965.965,0,0,0,1.011.912H55.5a.965.965,0,0,0,1.011-.912V13.912A.965.965,0,0,0,55.5,13ZM54.486,26.686H10.021V14.825H54.486Z" transform="translate(3.095 2.194)"/>
    <path id="Path_37079" data-name="Path 37079" d="M8.843,45.687H18.964a.843.843,0,1,0,0-1.687H8.843a.843.843,0,1,0,0,1.687Z" transform="translate(3.095 3.069)"/>
    <path id="Path_37080" data-name="Path 37080" d="M8.843,49.687H18.964a.843.843,0,0,0,0-1.687H8.843a.843.843,0,0,0,0,1.687Z" transform="translate(3.095 3.566)"/>
    <path id="Path_37081" data-name="Path 37081" d="M25.843,45.687H35.964a.843.843,0,1,0,0-1.687H25.843a.843.843,0,1,0,0,1.687Z" transform="translate(4.445 3.069)"/>
    <path id="Path_37082" data-name="Path 37082" d="M25.843,49.687H35.964a.843.843,0,0,0,0-1.687H25.843a.843.843,0,0,0,0,1.687Z" transform="translate(4.445 3.566)"/>
    <path id="Path_37083" data-name="Path 37083" d="M52.964,44H42.843a.843.843,0,1,0,0,1.687H52.964a.843.843,0,1,0,0-1.687Z" transform="translate(5.795 3.069)"/>
    <path id="Path_37084" data-name="Path 37084" d="M52.964,48H42.843a.843.843,0,1,0,0,1.687H52.964a.843.843,0,0,0,0-1.687Z" transform="translate(5.795 3.566)"/>
    <path id="Path_37085" data-name="Path 37085" d="M55.5,57H9.011a.857.857,0,1,0,0,1.687H55.5A.857.857,0,1,0,55.5,57Z" transform="translate(3.095 5.377)"/>
    <path id="Path_37086" data-name="Path 37086" d="M55.5,53H9.011a.857.857,0,1,0,0,1.687H55.5A.857.857,0,1,0,55.5,53Z" transform="translate(3.095 4.88)"/>
    <path id="Path_37087" data-name="Path 37087" d="M8.843,39.747H18.964a.843.843,0,0,0,.843-.843v-5.06A.843.843,0,0,0,18.964,33H8.843A.843.843,0,0,0,8,33.843V38.9A.843.843,0,0,0,8.843,39.747Zm.843-5.06h8.434V38.06H9.687Z" transform="translate(3.095 2.696)"/>
    <path id="Path_37088" data-name="Path 37088" d="M25.843,39.747H35.964a.843.843,0,0,0,.843-.843v-5.06A.843.843,0,0,0,35.964,33H25.843a.843.843,0,0,0-.843.843V38.9A.843.843,0,0,0,25.843,39.747Zm.843-5.06h8.434V38.06H26.687Z" transform="translate(4.445 2.696)"/>
    <path id="Path_37089" data-name="Path 37089" d="M52.964,33H42.843a.843.843,0,0,0-.843.843V38.9a.843.843,0,0,0,.843.843H52.964a.843.843,0,0,0,.843-.843v-5.06A.843.843,0,0,0,52.964,33Zm-.843,5.06H43.687V34.687h8.434Z" transform="translate(5.795 2.696)"/>
  </g>
</svg>
