<?xml version="1.0" standalone="no"?>
<!DOCTYPE svg PUBLIC "-//W3C//DTD SVG 20010904//EN"
 "http://www.w3.org/TR/2001/REC-SVG-20010904/DTD/svg10.dtd">
<svg version="1.0" xmlns="http://www.w3.org/2000/svg"
 width="700.000000pt" height="700.000000pt" viewBox="0 0 700.000000 700.000000"
 preserveAspectRatio="xMidYMid meet">
<metadata>
Created by potrace 1.14, written by Peter Selinger 2001-2017
</metadata>
<g transform="translate(0.000000,700.000000) scale(0.100000,-0.100000)"
fill="#000000" stroke="none">
<path d="M3298 6995 c-1 -1 -46 -5 -99 -9 -53 -4 -104 -8 -115 -10 -27 -5
-125 -19 -149 -21 -11 -1 -47 -8 -80 -14 -33 -7 -71 -14 -85 -17 -14 -3 -61
-14 -105 -25 -44 -12 -87 -22 -95 -24 -8 -2 -58 -17 -110 -33 -222 -68 -483
-182 -690 -300 -86 -49 -301 -187 -339 -218 -9 -7 -52 -41 -96 -75 -472 -367
-859 -885 -1085 -1450 -66 -165 -142 -408 -165 -530 -3 -13 -11 -58 -20 -99
-29 -147 -35 -192 -52 -370 -15 -158 -8 -606 12 -708 1 -9 6 -42 9 -73 4 -31
9 -67 11 -80 3 -13 7 -39 10 -58 2 -18 7 -41 9 -50 3 -9 8 -29 11 -46 25 -147
107 -417 183 -606 50 -124 156 -337 229 -457 37 -62 73 -121 78 -130 26 -45
135 -194 208 -285 203 -252 438 -473 697 -656 63 -45 120 -86 127 -91 7 -6 15
-10 17 -10 3 0 36 -19 73 -43 257 -164 675 -337 983 -408 112 -25 273 -56 335
-64 28 -4 61 -9 75 -11 181 -30 697 -24 907 10 21 4 54 9 73 11 19 3 46 7 60
10 14 3 39 7 55 10 95 16 322 76 455 122 558 189 1090 542 1480 982 36 41 70
79 76 85 6 6 48 61 94 121 150 197 277 405 383 628 26 53 47 99 47 102 0 2 11
28 24 57 57 127 152 424 182 573 4 18 31 165 39 205 7 40 21 141 32 240 8 70
10 517 2 595 -15 162 -21 220 -24 225 -2 3 -6 30 -10 60 -9 75 -69 337 -99
435 -175 576 -469 1067 -891 1488 -438 437 -1000 757 -1593 906 -121 31 -244
57 -312 66 -19 3 -46 7 -60 10 -13 2 -52 7 -86 11 -33 3 -74 8 -90 10 -33 5
-520 14 -526 9z m442 -1339 c14 -2 43 -7 65 -10 466 -62 923 -296 1260 -648
261 -272 455 -623 540 -978 15 -63 26 -116 31 -146 3 -20 7 -45 9 -56 20 -100
26 -432 11 -553 -81 -660 -422 -1216 -970 -1578 -94 -63 -292 -166 -386 -202
-25 -10 -54 -21 -65 -25 -74 -30 -269 -81 -365 -95 -24 -4 -47 -8 -50 -10 -27
-17 -395 -25 -530 -12 -316 30 -644 140 -915 304 -475 290 -830 763 -969 1293
-14 52 -28 111 -32 130 -3 19 -7 40 -8 45 -4 14 -16 93 -22 140 -12 93 -11
395 2 500 14 111 43 259 69 350 8 28 15 55 16 60 0 6 4 15 9 20 4 6 13 28 20
50 48 155 184 405 316 582 84 112 302 327 424 417 278 206 615 353 920 400 19
3 46 8 60 11 13 2 56 7 95 11 38 3 72 8 73 9 6 5 363 -3 392 -9z"/>
</g>
</svg>
