<svg xmlns="http://www.w3.org/2000/svg" xmlns:xlink="http://www.w3.org/1999/xlink" width="210.542" height="54.782" viewBox="0 0 210.542 54.782">
  <defs>
    <clipPath id="clip-path">
      <path id="Path_11786" data-name="Path 11786" d="M143.656,52.325A1.08,1.08,0,0,0,143.6,50.9l-.082-.085a1.976,1.976,0,0,1-.092-2.616,1.567,1.567,0,0,1,2.335-.125l7.208,8.056a9.893,9.893,0,0,1,1.76,9.981,8.8,8.8,0,0,1-1.581,2.621l-2.733,3.253a8.642,8.642,0,0,1-6.065,2.909c-2.385.215-4.767.45-7.15.676-1.8.168-3.589.435-5.39.585-1.518.123-3.7.572-4.887-.7a2.027,2.027,0,0,1-.519-1.809c.469-1.871,2.572-1.706,5.727-2.4,1.75-.4,3.5-.79,5.256-1.161a.949.949,0,0,0,.7-.714,1.083,1.083,0,0,0-.264-1.019c-.386-.4-13.522-14.268-14.051-14.947a1.687,1.687,0,0,1,.041-2.471c1.145-.936,2.4.531,3.172,1.3,1.028,1.024,8.059,8.264,8.321,8.529a.86.86,0,0,0,1.3-.052,1.086,1.086,0,0,0-.057-1.431l-3.894-4.3a1.6,1.6,0,0,1-.112-2.309,1.573,1.573,0,0,1,2.368-.094l3.918,3.99a.864.864,0,0,0,1.3-.049,1.087,1.087,0,0,0,.24-.727,1.063,1.063,0,0,0-.3-.707l-2-2.036a1.979,1.979,0,0,1-.089-2.616,1.572,1.572,0,0,1,2.367-.093l2.009,2.046a.9.9,0,0,0,.624.261.863.863,0,0,0,.666-.323m-1.278-5.42a3.862,3.862,0,0,0-.859,1.686,3.288,3.288,0,0,0-4.625.413,3.928,3.928,0,0,0-.865,1.684c.012-.044-.321-.232-.363-.254a2.623,2.623,0,0,0-.387-.187,3.669,3.669,0,0,0-.693-.2,3.339,3.339,0,0,0-3.327,1.2,4.447,4.447,0,0,0-.5,1.063,3.687,3.687,0,0,0-.151,1.146s-.708-.776-.861-.933a21.3,21.3,0,0,0-3.262-3.254,3.414,3.414,0,0,0-1.814-.641,3.165,3.165,0,0,0-1.89.559,3.467,3.467,0,0,0-1.529,2.9,4.187,4.187,0,0,0,.759,2.165c.978,1.468,13.107,14.107,13.107,14.107L127.7,69.748a4.238,4.238,0,0,0-.22,8.284,21.5,21.5,0,0,0,4.781-.115c1.542-.1,9.117-.69,11.525-.843.12-.009.242-.022.364-.023a10.174,10.174,0,0,0,7.376-3.374l2.839-3.225a11.9,11.9,0,0,0,2.423-10.861,11.557,11.557,0,0,0-2.477-4.623l-6.954-8.142a3.3,3.3,0,0,0-4.984.078" transform="translate(-121.248 -45.73)" fill="none"/>
    </clipPath>
    <linearGradient id="linear-gradient" x1="0.019" y1="0.533" x2="0.964" y2="0.468" gradientUnits="objectBoundingBox">
      <stop offset="0" stop-color="#ed2d57"/>
      <stop offset="1" stop-color="#f27555"/>
    </linearGradient>
    <clipPath id="clip-path-2">
      <path id="Path_11787" data-name="Path 11787" d="M127.242,27.788a27.14,27.14,0,0,0-18.522,8.4A27.5,27.5,0,0,0,124.83,82.54a1.377,1.377,0,0,0,.142.007,1.1,1.1,0,0,0,.139-2.192A25.289,25.289,0,0,1,110.3,37.712a25.04,25.04,0,0,1,34.8-1.374,3.038,3.038,0,0,1,1.008,2.381,3.108,3.108,0,0,1-1.21,2.368l-.127.1a3.083,3.083,0,0,1-3.922-.178,18.941,18.941,0,1,0-20.717,31.325,6.225,6.225,0,0,0,4.559.215A5.236,5.236,0,0,0,124.77,63a8.617,8.617,0,0,1-4.017-11.562A8.376,8.376,0,0,1,127,46.829a8.468,8.468,0,0,1,8.114,3.22,1.093,1.093,0,0,0,1.54.2,1.105,1.105,0,0,0,.2-1.544,10.726,10.726,0,0,0-8.74-4.181c-7.747.19-13.835,9.083-8.281,17.283A9.782,9.782,0,0,0,123.844,65a3.026,3.026,0,0,1,.216,5.406,2.884,2.884,0,0,1-2.633.107A16.753,16.753,0,1,1,139.4,42.667a5.278,5.278,0,0,0,6.71.266l.127-.1a5.287,5.287,0,0,0,.217-8.231,27.185,27.185,0,0,0-18.074-6.836c-.378,0-.756.006-1.134.023" transform="translate(-100.997 -27.765)" fill="none"/>
    </clipPath>
    <linearGradient id="linear-gradient-2" x1="0.004" y1="0.5" x2="0.986" y2="0.5" xlink:href="#linear-gradient"/>
    <clipPath id="clip-path-3">
      <path id="Path_11788" data-name="Path 11788" d="M143.076,90.288v3.6h2.7v10.463h-2.7v3.595h10.015v-3.595h-2.7V90.288ZM68.495,99.2c0,5.966,3.514,9.2,9.277,9.2a13.235,13.235,0,0,0,6.292-1.471v-3.638a12.439,12.439,0,0,1-5.558,1.554c-3.636,0-5.232-2.329-5.232-5.8,0-3.556,1.676-5.721,5.069-5.721a8.457,8.457,0,0,1,2.042.245v3.431h3.841V91.025a19.46,19.46,0,0,0-6.373-1.185c-5.559,0-9.36,3.188-9.36,9.359M99.84,89.839A6.458,6.458,0,0,0,94,93.517V90.288H86.844v3.6h2.7v10.463h-2.7v3.595h10.38v-3.595H94.158V95.643A10.213,10.213,0,0,1,99.472,94.5h.736V89.839Zm10.709,3.352c2.7,0,3.515,2.085,3.678,4.168h-7.807c.328-2.207,1.471-4.168,4.129-4.168M101.8,99.119c0,5.351,3.065,9.274,9.277,9.274a12.9,12.9,0,0,0,6.375-1.594v-3.555a11.842,11.842,0,0,1-5.681,1.636c-3.187,0-4.863-1.512-5.313-4.291h11.934a10.857,10.857,0,0,0,.162-1.964c0-4.862-2.533-8.786-8.09-8.786-5.6,0-8.664,3.924-8.664,9.279M173.32,102.8c0-1.8,1.392-2.412,3.8-2.412h2.7V103.2a5.516,5.516,0,0,1-3.963,1.921c-2,0-2.535-1.227-2.535-2.33m-3.146-11.973v3.431a22.264,22.264,0,0,1,5.844-.9c2.942,0,3.8.942,3.8,3.065v1.1h-2.9c-4.575,0-8.212,1.226-8.212,5.476,0,3.475,2.452,5.394,5.76,5.394a7.593,7.593,0,0,0,5.6-2.451v2h6.987v-3.595h-2.615V96.338c0-4.822-2.7-6.5-7.437-6.5a25.414,25.414,0,0,0-6.826.983m25.38,12.955V94.867a5.439,5.439,0,0,1,3.76-1.514c3.186,0,4.454,2.7,4.454,5.805,0,3.474-1.553,5.721-4.781,5.721a5.243,5.243,0,0,1-3.432-1.1m-.328-11.567V90.288h-6.987v3.6h2.7v18.556h-2.7v3.636h10.544v-3.636h-3.229v-5.435a7.884,7.884,0,0,0,4.659,1.387c5.066,0,8.294-3.718,8.294-9.4,0-5.52-3.065-9.156-7.844-9.156a7.028,7.028,0,0,0-5.438,2.37m-37.884-6.416v4.494h-3.064v3.636h3.064v9.157c0,3.229,1.145,5.311,5.517,5.311a15.869,15.869,0,0,0,4.21-.612v-3.392a8.5,8.5,0,0,1-2.738.449c-1.392,0-2.37-.326-2.37-2V93.925h4.823V90.288h-4.823V85.794Zm-12.669-1.228a3.188,3.188,0,1,0,3.188-3.187,3.193,3.193,0,0,0-3.188,3.187M125.5,99.036c0-3.475,1.554-5.682,4.784-5.682a5.622,5.622,0,0,1,3.429,1.1v8.949a5.672,5.672,0,0,1-3.757,1.473c-3.187,0-4.455-2.738-4.455-5.844m4.862-14.2h3.351v6.395a7.857,7.857,0,0,0-4.658-1.392c-4.986,0-8.3,3.6-8.3,9.279,0,5.516,3.147,9.274,7.889,9.274a7.068,7.068,0,0,0,5.476-2.408v1.959h6.906v-3.595h-2.7V81.2l-7.972-.046Z" transform="translate(-68.495 -81.152)" fill="none"/>
    </clipPath>
    <linearGradient id="linear-gradient-3" x1="-0.05" y1="0.5" x2="1.063" y2="0.5" xlink:href="#linear-gradient"/>
  </defs>
  <g id="Group_10159" data-name="Group 10159" transform="translate(-862.458 -1149.609)">
    <g id="Group_10156" data-name="Group 10156" transform="translate(887.177 1171.538)">
      <g id="Group_10139" data-name="Group 10139" clip-path="url(#clip-path)">
        <rect id="Rectangle_4372" data-name="Rectangle 4372" width="36.591" height="32.567" transform="translate(-0.031 0)" fill="url(#linear-gradient)"/>
      </g>
    </g>
    <g id="Group_10157" data-name="Group 10157" transform="translate(862.458 1149.609)">
      <g id="Group_10141" data-name="Group 10141" clip-path="url(#clip-path-2)">
        <rect id="Rectangle_4373" data-name="Rectangle 4373" width="47.727" height="54.782" transform="translate(-0.097)" fill="url(#linear-gradient-2)"/>
      </g>
    </g>
    <g id="Group_10158" data-name="Group 10158" transform="translate(932.988 1159.537)">
      <g id="Group_10143" data-name="Group 10143" clip-path="url(#clip-path-3)">
        <rect id="Rectangle_4374" data-name="Rectangle 4374" width="140.012" height="34.926" fill="url(#linear-gradient-3)"/>
      </g>
    </g>
  </g>
</svg>
